%TF.GenerationSoftware,KiCad,Pcbnew,8.0.0-rc1-91-gb65fa46c3c*%
%TF.CreationDate,2024-02-01T16:18:31+08:00*%
%TF.ProjectId,_____,d0a8a736-612e-46b6-9963-61645f706362,rev?*%
%TF.SameCoordinates,Original*%
%TF.FileFunction,Copper,L4,Bot*%
%TF.FilePolarity,Positive*%
%FSLAX46Y46*%
G04 Gerber Fmt 4.6, Leading zero omitted, Abs format (unit mm)*
G04 Created by KiCad (PCBNEW 8.0.0-rc1-91-gb65fa46c3c) date 2024-02-01 16:18:31*
%MOMM*%
%LPD*%
G01*
G04 APERTURE LIST*
G04 Aperture macros list*
%AMRoundRect*
0 Rectangle with rounded corners*
0 $1 Rounding radius*
0 $2 $3 $4 $5 $6 $7 $8 $9 X,Y pos of 4 corners*
0 Add a 4 corners polygon primitive as box body*
4,1,4,$2,$3,$4,$5,$6,$7,$8,$9,$2,$3,0*
0 Add four circle primitives for the rounded corners*
1,1,$1+$1,$2,$3*
1,1,$1+$1,$4,$5*
1,1,$1+$1,$6,$7*
1,1,$1+$1,$8,$9*
0 Add four rect primitives between the rounded corners*
20,1,$1+$1,$2,$3,$4,$5,0*
20,1,$1+$1,$4,$5,$6,$7,0*
20,1,$1+$1,$6,$7,$8,$9,0*
20,1,$1+$1,$8,$9,$2,$3,0*%
G04 Aperture macros list end*
%TA.AperFunction,SMDPad,CuDef*%
%ADD10RoundRect,0.225000X-0.225000X-0.250000X0.225000X-0.250000X0.225000X0.250000X-0.225000X0.250000X0*%
%TD*%
%TA.AperFunction,ComponentPad*%
%ADD11R,2.500000X2.500000*%
%TD*%
%TA.AperFunction,ComponentPad*%
%ADD12C,2.500000*%
%TD*%
%TA.AperFunction,ComponentPad*%
%ADD13C,1.600000*%
%TD*%
%TA.AperFunction,ComponentPad*%
%ADD14C,3.000000*%
%TD*%
%TA.AperFunction,ComponentPad*%
%ADD15C,0.800000*%
%TD*%
%TA.AperFunction,ComponentPad*%
%ADD16C,6.400000*%
%TD*%
%TA.AperFunction,ComponentPad*%
%ADD17C,2.540000*%
%TD*%
%TA.AperFunction,ComponentPad*%
%ADD18R,2.100000X2.100000*%
%TD*%
%TA.AperFunction,ComponentPad*%
%ADD19C,2.100000*%
%TD*%
%TA.AperFunction,ComponentPad*%
%ADD20R,1.600000X1.600000*%
%TD*%
%TA.AperFunction,ComponentPad*%
%ADD21C,1.524000*%
%TD*%
%TA.AperFunction,ComponentPad*%
%ADD22R,1.524000X1.524000*%
%TD*%
%TA.AperFunction,ComponentPad*%
%ADD23C,1.574800*%
%TD*%
%TA.AperFunction,ComponentPad*%
%ADD24R,1.574800X1.574800*%
%TD*%
%TA.AperFunction,ComponentPad*%
%ADD25R,1.700000X1.700000*%
%TD*%
%TA.AperFunction,ComponentPad*%
%ADD26O,1.700000X1.700000*%
%TD*%
%TA.AperFunction,ComponentPad*%
%ADD27R,2.000000X2.000000*%
%TD*%
%TA.AperFunction,ComponentPad*%
%ADD28C,2.000000*%
%TD*%
%TA.AperFunction,SMDPad,CuDef*%
%ADD29RoundRect,0.200000X0.275000X-0.200000X0.275000X0.200000X-0.275000X0.200000X-0.275000X-0.200000X0*%
%TD*%
%TA.AperFunction,SMDPad,CuDef*%
%ADD30RoundRect,0.225000X0.225000X0.250000X-0.225000X0.250000X-0.225000X-0.250000X0.225000X-0.250000X0*%
%TD*%
%TA.AperFunction,SMDPad,CuDef*%
%ADD31RoundRect,0.225000X-0.375000X0.225000X-0.375000X-0.225000X0.375000X-0.225000X0.375000X0.225000X0*%
%TD*%
%TA.AperFunction,SMDPad,CuDef*%
%ADD32RoundRect,0.200000X-0.200000X-0.275000X0.200000X-0.275000X0.200000X0.275000X-0.200000X0.275000X0*%
%TD*%
%TA.AperFunction,SMDPad,CuDef*%
%ADD33R,0.700000X1.250000*%
%TD*%
%TA.AperFunction,ViaPad*%
%ADD34C,0.800000*%
%TD*%
%TA.AperFunction,Conductor*%
%ADD35C,0.250000*%
%TD*%
%TA.AperFunction,Conductor*%
%ADD36C,0.200000*%
%TD*%
%TA.AperFunction,Conductor*%
%ADD37C,0.700000*%
%TD*%
%TA.AperFunction,Conductor*%
%ADD38C,0.500000*%
%TD*%
G04 APERTURE END LIST*
D10*
%TO.P,C26,1*%
%TO.N,GNDA*%
X32435200Y-68478400D03*
%TO.P,C26,2*%
%TO.N,+5V*%
X33985200Y-68478400D03*
%TD*%
%TO.P,C19,1*%
%TO.N,GNDA*%
X32562800Y-78536800D03*
%TO.P,C19,2*%
%TO.N,+5V*%
X34112800Y-78536800D03*
%TD*%
D11*
%TO.P,J4,1,Pin_1*%
%TO.N,/steper/ST_PWM1*%
X28550000Y-90000000D03*
D12*
%TO.P,J4,2,Pin_2*%
%TO.N,/steper/ST_DIR1*%
X28550000Y-95000000D03*
%TO.P,J4,3,Pin_3*%
%TO.N,/steper/ST_EN1*%
X28550000Y-100000000D03*
%TO.P,J4,4,Pin_4*%
%TO.N,GND*%
X28550000Y-105000000D03*
%TD*%
D11*
%TO.P,J6,1,Pin_1*%
%TO.N,GND*%
X101550000Y-126000000D03*
D12*
%TO.P,J6,2,Pin_2*%
%TO.N,/steper/ST_EN3*%
X101550000Y-121000000D03*
%TO.P,J6,3,Pin_3*%
%TO.N,/steper/ST_DIR3*%
X101550000Y-116000000D03*
%TO.P,J6,4,Pin_4*%
%TO.N,/steper/ST_PWM3*%
X101550000Y-111000000D03*
%TD*%
D13*
%TO.P,C4,1*%
%TO.N,+5V*%
X97282000Y-39223000D03*
%TO.P,C4,2*%
%TO.N,GND*%
X97282000Y-36723000D03*
%TD*%
D14*
%TO.P,TP4,1,1*%
%TO.N,/MCU\u6838\u5FC3/VREF+*%
X62738000Y-88519000D03*
%TD*%
D11*
%TO.P,J7,1,Pin_1*%
%TO.N,GND*%
X101550000Y-105000000D03*
D12*
%TO.P,J7,2,Pin_2*%
%TO.N,/steper/ST_EN4*%
X101550000Y-100000000D03*
%TO.P,J7,3,Pin_3*%
%TO.N,/steper/ST_DIR4*%
X101550000Y-95000000D03*
%TO.P,J7,4,Pin_4*%
%TO.N,/steper/ST_PWM4*%
X101550000Y-90000000D03*
%TD*%
D15*
%TO.P,H4,1,1*%
%TO.N,unconnected-(H4-Pad1)*%
X102600000Y-135000000D03*
X103302944Y-133302944D03*
X103302944Y-136697056D03*
X105000000Y-132600000D03*
D16*
X105000000Y-135000000D03*
D15*
X105000000Y-137400000D03*
X106697056Y-133302944D03*
X106697056Y-136697056D03*
X107400000Y-135000000D03*
%TD*%
D17*
%TO.P,U1,1,Ctrl*%
%TO.N,unconnected-(U1-Ctrl-Pad1)*%
X47690000Y-26877500D03*
%TO.P,U1,2,VIN-*%
%TO.N,/\u63A5\u53E3/VIN-*%
X47690000Y-34497500D03*
%TO.P,U1,3,VIN+*%
%TO.N,/\u7535\u6E90/VIN*%
X47690000Y-39577500D03*
%TO.P,U1,4,+VO*%
%TO.N,Net-(U1-+VO)*%
X68010000Y-47197500D03*
%TO.P,U1,5,-VO*%
%TO.N,Net-(U1--VO)*%
X68010000Y-26877500D03*
%TD*%
D14*
%TO.P,TP2,1,1*%
%TO.N,+5V*%
X106680000Y-40894000D03*
%TD*%
D11*
%TO.P,J5,1,Pin_1*%
%TO.N,/steper/ST_PWM2*%
X28550000Y-111250000D03*
D12*
%TO.P,J5,2,Pin_2*%
%TO.N,/steper/ST_DIR2*%
X28550000Y-116250000D03*
%TO.P,J5,3,Pin_3*%
%TO.N,/steper/ST_EN2*%
X28550000Y-121250000D03*
%TO.P,J5,4,Pin_4*%
%TO.N,GND*%
X28550000Y-126250000D03*
%TD*%
D14*
%TO.P,TP5,1,1*%
%TO.N,GNDA*%
X66903600Y-88392000D03*
%TD*%
D18*
%TO.P,J2,1,Pin_1*%
%TO.N,unconnected-(J2-Pin_1-Pad1)*%
X104750000Y-48270000D03*
D19*
%TO.P,J2,2,Pin_2*%
%TO.N,unconnected-(J2-Pin_2-Pad2)*%
X104750000Y-53350000D03*
%TO.P,J2,3,Pin_3*%
%TO.N,unconnected-(J2-Pin_3-Pad3)*%
X104750000Y-58430000D03*
%TO.P,J2,4,Pin_4*%
%TO.N,unconnected-(J2-Pin_4-Pad4)*%
X104750000Y-63510000D03*
%TO.P,J2,5,Pin_5*%
%TO.N,/RS485/485-*%
X104750000Y-68590000D03*
%TO.P,J2,6,Pin_6*%
%TO.N,/RS485/485+*%
X104750000Y-73670000D03*
%TO.P,J2,7,Pin_7*%
%TO.N,/can\u603B\u7EBF/CAN+*%
X104750000Y-78750000D03*
%TO.P,J2,8,Pin_8*%
%TO.N,/can\u603B\u7EBF/CAN-*%
X104750000Y-83830000D03*
%TD*%
D18*
%TO.P,J1,1,Pin_1*%
%TO.N,/\u63A5\u53E3/DAC_1*%
X25250000Y-83780000D03*
D19*
%TO.P,J1,2,Pin_2*%
%TO.N,/\u63A5\u53E3/DAC_2*%
X25250000Y-78700000D03*
%TO.P,J1,3,Pin_3*%
%TO.N,/\u63A5\u53E3/DAC_3*%
X25250000Y-73620000D03*
%TO.P,J1,4,Pin_4*%
%TO.N,/\u63A5\u53E3/DAC_4*%
X25250000Y-68540000D03*
%TO.P,J1,5,Pin_5*%
%TO.N,GNDA*%
X25250000Y-63460000D03*
%TO.P,J1,6,Pin_6*%
%TO.N,unconnected-(J1-Pin_6-Pad6)*%
X25250000Y-58380000D03*
%TO.P,J1,7,Pin_7*%
%TO.N,/\u63A5\u53E3/VIN+*%
X25250000Y-53300000D03*
%TO.P,J1,8,Pin_8*%
%TO.N,/\u63A5\u53E3/VIN-*%
X25250000Y-48220000D03*
%TD*%
D15*
%TO.P,H3,1,1*%
%TO.N,unconnected-(H3-Pad1)*%
X22600000Y-135000000D03*
X23302944Y-133302944D03*
X23302944Y-136697056D03*
X25000000Y-132600000D03*
D16*
X25000000Y-135000000D03*
D15*
X25000000Y-137400000D03*
X26697056Y-133302944D03*
X26697056Y-136697056D03*
X27400000Y-135000000D03*
%TD*%
%TO.P,H2,1,1*%
%TO.N,unconnected-(H2-Pad1)*%
X102600000Y-25000000D03*
X103302944Y-23302944D03*
X103302944Y-26697056D03*
X105000000Y-22600000D03*
D16*
X105000000Y-25000000D03*
D15*
X105000000Y-27400000D03*
X106697056Y-23302944D03*
X106697056Y-26697056D03*
X107400000Y-25000000D03*
%TD*%
%TO.P,H1,1,1*%
%TO.N,unconnected-(H1-Pad1)*%
X22600000Y-25000000D03*
X23302944Y-23302944D03*
X23302944Y-26697056D03*
X25000000Y-22600000D03*
D16*
X25000000Y-25000000D03*
D15*
X25000000Y-27400000D03*
X26697056Y-23302944D03*
X26697056Y-26697056D03*
X27400000Y-25000000D03*
%TD*%
D20*
%TO.P,C3,1*%
%TO.N,+5V*%
X91694000Y-39155380D03*
D13*
%TO.P,C3,2*%
%TO.N,GND*%
X91694000Y-36655380D03*
%TD*%
D21*
%TO.P,LDM2,1*%
%TO.N,Net-(U1-+VO)*%
X80725000Y-42672000D03*
%TO.P,LDM2,2*%
%TO.N,+5V*%
X85725000Y-42672000D03*
%TD*%
D20*
%TO.P,C7,1*%
%TO.N,+3V3*%
X81750000Y-54600000D03*
D13*
%TO.P,C7,2*%
%TO.N,GND*%
X81750000Y-57100000D03*
%TD*%
D20*
%TO.P,C2,1*%
%TO.N,Net-(U1-+VO)*%
X75250000Y-38869880D03*
D13*
%TO.P,C2,2*%
%TO.N,Net-(U1--VO)*%
X75250000Y-36369880D03*
%TD*%
D14*
%TO.P,TP6,1,1*%
%TO.N,GND*%
X106680000Y-34798000D03*
%TD*%
D22*
%TO.P,U8,1,COM_LED*%
%TO.N,unconnected-(U8-COM_LED-Pad1)*%
X54904300Y-107898395D03*
D21*
%TO.P,U8,2,TXD*%
%TO.N,/MCU\u6838\u5FC3/USART_TX*%
X57444300Y-107898395D03*
%TO.P,U8,3,RXD*%
%TO.N,/MCU\u6838\u5FC3/USART_RX*%
X59984300Y-107898395D03*
%TO.P,U8,4,485_DIR*%
%TO.N,unconnected-(U8-485_DIR-Pad4)*%
X62524300Y-107898395D03*
%TO.P,U8,5,CFG*%
%TO.N,unconnected-(U8-CFG-Pad5)*%
X65064300Y-107898395D03*
%TO.P,U8,6,RUN_LED*%
%TO.N,unconnected-(U8-RUN_LED-Pad6)*%
X67604300Y-107898395D03*
%TO.P,U8,7,GND*%
%TO.N,GND*%
X70144300Y-107898395D03*
%TO.P,U8,8,3.3V*%
%TO.N,+3V3*%
X72684300Y-107898395D03*
%TO.P,U8,9,5V*%
%TO.N,unconnected-(U8-5V-Pad9)*%
X75224300Y-107898395D03*
D23*
%TO.P,U8,10,Y2*%
%TO.N,unconnected-(U8-Y2-Pad10)*%
X75059200Y-122465295D03*
D24*
%TO.P,U8,11,Y1*%
%TO.N,unconnected-(U8-Y1-Pad11)*%
X75059200Y-125005295D03*
D23*
%TO.P,U8,12,X2*%
%TO.N,unconnected-(U8-X2-Pad12)*%
X75069700Y-132329995D03*
D24*
%TO.P,U8,13,X1*%
%TO.N,unconnected-(U8-X1-Pad13)*%
X75069700Y-134869995D03*
D23*
%TO.P,U8,14,PGND*%
%TO.N,GND*%
X54952900Y-132329995D03*
D24*
%TO.P,U8,15,PGND*%
X54952900Y-134869995D03*
%TD*%
D14*
%TO.P,TP1,1,1*%
%TO.N,+3V3*%
X76454000Y-52070000D03*
%TD*%
D25*
%TO.P,J3,1,Pin_1*%
%TO.N,+5V*%
X60706000Y-57404000D03*
D26*
%TO.P,J3,2,Pin_2*%
%TO.N,UART4_RX*%
X60706000Y-54864000D03*
%TO.P,J3,3,Pin_3*%
%TO.N,+3V3*%
X63246000Y-57404000D03*
%TO.P,J3,4,Pin_4*%
%TO.N,UART4_TX*%
X63246000Y-54864000D03*
%TO.P,J3,5,Pin_5*%
%TO.N,GND*%
X65786000Y-57404000D03*
%TO.P,J3,6,Pin_6*%
%TO.N,RST*%
X65786000Y-54864000D03*
%TO.P,J3,7,Pin_7*%
%TO.N,SWCLK*%
X68326000Y-57404000D03*
%TO.P,J3,8,Pin_8*%
%TO.N,Net-(J3-Pin_8)*%
X68326000Y-54864000D03*
%TO.P,J3,9,Pin_9*%
%TO.N,SWDIO*%
X70866000Y-57404000D03*
%TO.P,J3,10,Pin_10*%
%TO.N,BOOT0*%
X70866000Y-54864000D03*
%TD*%
D27*
%TO.P,C1,1*%
%TO.N,/\u7535\u6E90/VIN*%
X38250000Y-39305177D03*
D28*
%TO.P,C1,2*%
%TO.N,/\u63A5\u53E3/VIN-*%
X38250000Y-34305177D03*
%TD*%
D21*
%TO.P,LDM1,1*%
%TO.N,Net-(U1--VO)*%
X83500000Y-35437500D03*
%TO.P,LDM1,2*%
%TO.N,GND*%
X83500000Y-30437500D03*
%TD*%
D29*
%TO.P,R36,1*%
%TO.N,Net-(D13-A)*%
X78790800Y-66064400D03*
%TO.P,R36,2*%
%TO.N,/MCU\u6838\u5FC3/RS485_RX*%
X78790800Y-64414400D03*
%TD*%
D30*
%TO.P,C25,1*%
%TO.N,+3V3*%
X83687200Y-70281000D03*
%TO.P,C25,2*%
%TO.N,GND*%
X82137200Y-70281000D03*
%TD*%
D31*
%TO.P,D13,1,K*%
%TO.N,/MCU\u6838\u5FC3/RS485_RX*%
X81076800Y-63652400D03*
%TO.P,D13,2,A*%
%TO.N,Net-(D13-A)*%
X81076800Y-66952400D03*
%TD*%
D10*
%TO.P,C24,1*%
%TO.N,GND*%
X84004600Y-64337400D03*
%TO.P,C24,2*%
%TO.N,Net-(D13-A)*%
X85554600Y-64337400D03*
%TD*%
D32*
%TO.P,R37,1*%
%TO.N,+3V3*%
X85554600Y-70281000D03*
%TO.P,R37,2*%
%TO.N,Net-(Q1-C)*%
X87204600Y-70281000D03*
%TD*%
D33*
%TO.P,Q1,1,E*%
%TO.N,GND*%
X83616800Y-66344800D03*
%TO.P,Q1,2,B*%
%TO.N,Net-(D13-A)*%
X85516800Y-66344800D03*
%TO.P,Q1,3,C*%
%TO.N,Net-(Q1-C)*%
X84566800Y-68344800D03*
%TD*%
D34*
%TO.N,/MCU\u6838\u5FC3/DIR1*%
X49326800Y-95554800D03*
%TO.N,/MCU\u6838\u5FC3/EN1*%
X49530000Y-100533200D03*
%TO.N,/MCU\u6838\u5FC3/EN2*%
X49225200Y-123139200D03*
%TO.N,/MCU\u6838\u5FC3/DIR2*%
X49326800Y-117500400D03*
%TO.N,/MCU\u6838\u5FC3/EN2*%
X67614800Y-64973200D03*
%TO.N,/MCU\u6838\u5FC3/DIR2*%
X67056000Y-65989200D03*
%TO.N,/MCU\u6838\u5FC3/EN1*%
X65532000Y-65989200D03*
%TO.N,/MCU\u6838\u5FC3/DIR1*%
X64973200Y-65074800D03*
%TO.N,Net-(Q1-C)*%
X77270463Y-68581037D03*
%TO.N,/MCU\u6838\u5FC3/DIR4*%
X75793600Y-75082400D03*
%TO.N,/MCU\u6838\u5FC3/EN4*%
X74574400Y-75387200D03*
%TO.N,/MCU\u6838\u5FC3/DIR3*%
X74320400Y-76657200D03*
%TO.N,/MCU\u6838\u5FC3/EN3*%
X73050400Y-76657200D03*
%TO.N,GND*%
X80924400Y-70307200D03*
%TO.N,+3V3*%
X82702400Y-68021200D03*
%TO.N,GND*%
X83820000Y-62839600D03*
%TO.N,GNDA*%
X30734000Y-68630800D03*
X30683200Y-78638400D03*
X41097200Y-74168000D03*
X41046400Y-83515200D03*
%TO.N,/MCU\u6838\u5FC3/DAC_OU1*%
X67157600Y-73050400D03*
%TO.N,/MCU\u6838\u5FC3/DAC_OUT2*%
X64577790Y-76467731D03*
%TO.N,/MCU\u6838\u5FC3/DAC_OUT3*%
X63601600Y-76250800D03*
%TO.N,/MCU\u6838\u5FC3/DAC_OUT4*%
X63144400Y-71729600D03*
X40081200Y-70256400D03*
%TO.N,/MCU\u6838\u5FC3/DAC_OUT3*%
X38811200Y-71628000D03*
%TO.N,/MCU\u6838\u5FC3/DAC_OUT2*%
X40081200Y-80010000D03*
%TO.N,/MCU\u6838\u5FC3/DAC_OU1*%
X38811200Y-81686400D03*
%TO.N,+5V*%
X39014400Y-91948000D03*
X38811200Y-123240800D03*
X104013000Y-41275000D03*
X40284400Y-122580400D03*
X88798400Y-94792800D03*
X101981000Y-38735000D03*
X39471600Y-112064800D03*
X89966800Y-100076000D03*
X90068400Y-94843600D03*
X90119200Y-89763600D03*
X88747600Y-114503200D03*
X39319200Y-101498400D03*
X90119200Y-114503200D03*
X88747600Y-100025200D03*
X40894000Y-117652800D03*
X100330000Y-40132000D03*
X99568000Y-38735000D03*
X100838000Y-38735000D03*
X104394000Y-38735000D03*
X40792400Y-112014000D03*
X104013000Y-40132000D03*
X81730000Y-81653000D03*
X88696800Y-109372400D03*
X40792400Y-101600000D03*
X60807600Y-83870800D03*
X39624000Y-117602000D03*
X34899600Y-77825600D03*
X103251000Y-38735000D03*
X90424000Y-119735600D03*
X39522400Y-96621600D03*
X34950400Y-78994000D03*
X40335200Y-92862400D03*
X89001600Y-119583200D03*
X35052000Y-68834000D03*
X35052000Y-67868800D03*
X90017600Y-109423200D03*
X40843200Y-96723200D03*
X88950800Y-89712800D03*
%TO.N,RST*%
X68580000Y-68224400D03*
%TO.N,GNDA*%
X50850800Y-58623200D03*
X46786800Y-69748400D03*
X50901600Y-61569600D03*
X68427600Y-76352400D03*
X57912000Y-81635600D03*
X67919600Y-82702400D03*
X61214000Y-81838800D03*
X46786800Y-82245200D03*
X46786800Y-71932800D03*
X63855600Y-83261200D03*
X49631600Y-60147200D03*
X46736000Y-79806800D03*
%TO.N,+3V3*%
X84023200Y-73202800D03*
X79959200Y-54559200D03*
X71687000Y-82971000D03*
X92506800Y-85953600D03*
X74371200Y-80221000D03*
X72085200Y-102717600D03*
X72034400Y-103682800D03*
X77165200Y-64668400D03*
X56845200Y-74015600D03*
X71687000Y-83971000D03*
%TO.N,/MCU\u6838\u5FC3/USART_RX*%
X67005200Y-76200000D03*
%TO.N,/MCU\u6838\u5FC3/USART_TX*%
X67005200Y-77470000D03*
%TO.N,/MCU\u6838\u5FC3/PWM1*%
X68834000Y-96215200D03*
X50139600Y-90830400D03*
%TO.N,/MCU\u6838\u5FC3/PWM2*%
X68275200Y-97485200D03*
X50038000Y-112268000D03*
%TO.N,/MCU\u6838\u5FC3/EN3*%
X80568800Y-120040400D03*
X69037200Y-72288400D03*
X75133200Y-88798400D03*
%TO.N,/MCU\u6838\u5FC3/DIR3*%
X75539600Y-89966800D03*
X80721200Y-114706400D03*
X69900800Y-71628000D03*
%TO.N,/MCU\u6838\u5FC3/EN4*%
X81584800Y-101142800D03*
X70681504Y-70925366D03*
X75996800Y-91186000D03*
%TO.N,/MCU\u6838\u5FC3/DIR4*%
X71424800Y-70256400D03*
X76504800Y-92303600D03*
X81584800Y-95707200D03*
%TO.N,GND*%
X45212000Y-115468400D03*
X78250000Y-59110000D03*
X70510400Y-103682800D03*
X84480400Y-97332800D03*
X81635600Y-80162400D03*
X54254400Y-60096400D03*
X71120000Y-52171600D03*
X53238400Y-61569600D03*
X49885600Y-109321600D03*
X53136800Y-58674000D03*
X45161200Y-98958400D03*
X80518000Y-104089200D03*
X49987200Y-88239600D03*
X83500000Y-57110000D03*
X49580800Y-114909600D03*
X84531200Y-92049600D03*
X92837000Y-63754000D03*
X70510400Y-102717600D03*
X84632800Y-111810800D03*
X84531200Y-122224800D03*
X80416400Y-112217200D03*
X92456000Y-73152000D03*
X80467200Y-122885200D03*
X93726000Y-73152000D03*
X53136800Y-66903600D03*
X53644800Y-71272400D03*
X95504000Y-49657000D03*
X77165200Y-66294000D03*
X45212000Y-94132400D03*
X55168800Y-71729600D03*
X49936400Y-98298000D03*
X79750000Y-59110000D03*
X80365600Y-117500400D03*
X54457600Y-63703200D03*
X84582000Y-116992400D03*
X94107000Y-63754000D03*
X85000000Y-57360000D03*
X84531200Y-102565200D03*
X45161200Y-120904000D03*
X56845200Y-72542400D03*
X53086000Y-68783200D03*
X81750000Y-59110000D03*
X85000000Y-58610000D03*
X45212000Y-109931200D03*
X53136800Y-64922400D03*
X49631600Y-120497600D03*
X45161200Y-89001600D03*
X86250000Y-58610000D03*
X80000000Y-57860000D03*
X70687000Y-73355200D03*
X74371200Y-81721000D03*
X95250000Y-63754000D03*
X95504000Y-50907000D03*
X80416400Y-92964000D03*
X83500000Y-58610000D03*
X78750000Y-57860000D03*
X80416400Y-98399600D03*
X49784000Y-93319600D03*
X94869000Y-73152000D03*
%TO.N,UART4_TX*%
X67390853Y-61133147D03*
%TO.N,UART4_RX*%
X66192400Y-60960000D03*
%TO.N,/MCU\u6838\u5FC3/RS485_RX*%
X77202200Y-70764400D03*
X74893000Y-73558400D03*
%TO.N,/MCU\u6838\u5FC3/RS485_TX*%
X77012800Y-67614800D03*
X71826147Y-78135453D03*
%TD*%
D35*
%TO.N,/MCU\u6838\u5FC3/DIR1*%
X49326800Y-95554800D02*
X49225200Y-95554800D01*
X48717200Y-95554800D02*
X49326800Y-95554800D01*
X48666400Y-95554800D02*
X48717200Y-95554800D01*
%TO.N,/MCU\u6838\u5FC3/EN1*%
X46583600Y-97586800D02*
X49530000Y-100533200D01*
X26060400Y-97586800D02*
X46583600Y-97586800D01*
X21945600Y-93472000D02*
X26060400Y-97586800D01*
X39116000Y-61010800D02*
X24384000Y-61010800D01*
X24384000Y-61010800D02*
X21945600Y-63449200D01*
X43992800Y-56134000D02*
X39116000Y-61010800D01*
X21945600Y-63449200D02*
X21945600Y-93472000D01*
X54660800Y-56134000D02*
X43992800Y-56134000D01*
X63712505Y-62788800D02*
X61315600Y-62788800D01*
X65698200Y-64774495D02*
X63712505Y-62788800D01*
X65698200Y-65823000D02*
X65698200Y-64774495D01*
X65532000Y-65989200D02*
X65698200Y-65823000D01*
X61315600Y-62788800D02*
X54660800Y-56134000D01*
%TO.N,/MCU\u6838\u5FC3/EN2*%
X49225200Y-123190000D02*
X49174400Y-123139200D01*
X49225200Y-123139200D02*
X49225200Y-123190000D01*
X49174400Y-123139200D02*
X49225200Y-123139200D01*
X49072800Y-123037600D02*
X49174400Y-123139200D01*
X48412400Y-123037600D02*
X49072800Y-123037600D01*
%TO.N,/MCU\u6838\u5FC3/DIR2*%
X44246800Y-117500400D02*
X49326800Y-117500400D01*
X40589200Y-113842800D02*
X44246800Y-117500400D01*
X25247600Y-113842800D02*
X40589200Y-113842800D01*
X21386800Y-109982000D02*
X25247600Y-113842800D01*
X21386800Y-62992000D02*
X21386800Y-109982000D01*
X23818000Y-60560800D02*
X21386800Y-62992000D01*
X43593600Y-55575200D02*
X38608000Y-60560800D01*
X61518800Y-62331600D02*
X54762400Y-55575200D01*
X38608000Y-60560800D02*
X23818000Y-60560800D01*
X63891701Y-62331600D02*
X61518800Y-62331600D01*
X54762400Y-55575200D02*
X43593600Y-55575200D01*
X67056000Y-65495899D02*
X63891701Y-62331600D01*
X67056000Y-65989200D02*
X67056000Y-65495899D01*
D36*
%TO.N,/MCU\u6838\u5FC3/PWM1*%
X68834000Y-93218000D02*
X66446400Y-90830400D01*
X66446400Y-90830400D02*
X50139600Y-90830400D01*
X68834000Y-96215200D02*
X68834000Y-93218000D01*
D35*
%TO.N,/MCU\u6838\u5FC3/EN3*%
X78790800Y-107492800D02*
X78790800Y-118262400D01*
X74371200Y-103073200D02*
X78790800Y-107492800D01*
X78790800Y-118262400D02*
X80568800Y-120040400D01*
X74371200Y-89560400D02*
X74371200Y-103073200D01*
X75133200Y-88798400D02*
X74371200Y-89560400D01*
%TO.N,/MCU\u6838\u5FC3/DIR4*%
X77774800Y-95707200D02*
X81584800Y-95707200D01*
X76098400Y-92710000D02*
X76098400Y-94030800D01*
X76098400Y-94030800D02*
X77774800Y-95707200D01*
X76504800Y-92303600D02*
X76098400Y-92710000D01*
%TO.N,/MCU\u6838\u5FC3/EN4*%
X75488800Y-99568000D02*
X77063600Y-101142800D01*
X77063600Y-101142800D02*
X81584800Y-101142800D01*
X75996800Y-91186000D02*
X75488800Y-91694000D01*
X75488800Y-91694000D02*
X75488800Y-99568000D01*
%TO.N,/MCU\u6838\u5FC3/DIR3*%
X79400400Y-113741200D02*
X80365600Y-114706400D01*
X74930000Y-102971600D02*
X79400400Y-107442000D01*
X79400400Y-107442000D02*
X79400400Y-113741200D01*
X74930000Y-90576400D02*
X74930000Y-102971600D01*
X80365600Y-114706400D02*
X80721200Y-114706400D01*
X75539600Y-89966800D02*
X74930000Y-90576400D01*
D37*
%TO.N,+5V*%
X81730000Y-85438400D02*
X86004400Y-89712800D01*
X81730000Y-81653000D02*
X81730000Y-85438400D01*
X86004400Y-89712800D02*
X88950800Y-89712800D01*
D35*
%TO.N,/MCU\u6838\u5FC3/EN2*%
X47484200Y-123965800D02*
X48412400Y-123037600D01*
X34964200Y-123965800D02*
X47484200Y-123965800D01*
X30124400Y-119126000D02*
X34964200Y-123965800D01*
X24638000Y-119126000D02*
X30124400Y-119126000D01*
X20828000Y-115316000D02*
X24638000Y-119126000D01*
X20828000Y-62636400D02*
X20828000Y-115316000D01*
X54965600Y-55016400D02*
X43281600Y-55016400D01*
X64465200Y-61823600D02*
X61772800Y-61823600D01*
X23353600Y-60110800D02*
X20828000Y-62636400D01*
X43281600Y-55016400D02*
X38187200Y-60110800D01*
X61772800Y-61823600D02*
X54965600Y-55016400D01*
X38187200Y-60110800D02*
X23353600Y-60110800D01*
X67614800Y-64973200D02*
X64465200Y-61823600D01*
%TO.N,/MCU\u6838\u5FC3/DIR1*%
X31750000Y-92659200D02*
X34645600Y-95554800D01*
X34645600Y-95554800D02*
X48666400Y-95554800D01*
X26974800Y-92659200D02*
X31750000Y-92659200D01*
X22504400Y-88188800D02*
X26974800Y-92659200D01*
X24688800Y-61518800D02*
X22504400Y-63703200D01*
X44196000Y-56692800D02*
X39370000Y-61518800D01*
X54457600Y-56692800D02*
X44196000Y-56692800D01*
X22504400Y-63703200D02*
X22504400Y-88188800D01*
X39370000Y-61518800D02*
X24688800Y-61518800D01*
X61061600Y-63296800D02*
X54457600Y-56692800D01*
X63195200Y-63296800D02*
X61061600Y-63296800D01*
X64973200Y-65074800D02*
X63195200Y-63296800D01*
X64973200Y-65074800D02*
X64807000Y-65241000D01*
D38*
%TO.N,/MCU\u6838\u5FC3/DAC_OUT4*%
X63144400Y-72644000D02*
X63144400Y-71729600D01*
X60198000Y-75590400D02*
X63144400Y-72644000D01*
X40538400Y-70713600D02*
X47142400Y-70713600D01*
X47142400Y-70713600D02*
X52019200Y-75590400D01*
X40081200Y-70256400D02*
X40538400Y-70713600D01*
X52019200Y-75590400D02*
X60198000Y-75590400D01*
%TO.N,/MCU\u6838\u5FC3/DAC_OUT3*%
X40436800Y-73253600D02*
X38811200Y-71628000D01*
X62331600Y-76250800D02*
X60858400Y-77724000D01*
X45567600Y-73253600D02*
X40436800Y-73253600D01*
X63601600Y-76250800D02*
X62331600Y-76250800D01*
X60858400Y-77724000D02*
X50038000Y-77724000D01*
X50038000Y-77724000D02*
X45567600Y-73253600D01*
D36*
%TO.N,Net-(Q1-C)*%
X87204600Y-73171000D02*
X87204600Y-70281000D01*
X78663800Y-73533000D02*
X79451200Y-74320400D01*
X79451200Y-74320400D02*
X86055200Y-74320400D01*
X78663800Y-69824600D02*
X78663800Y-73533000D01*
X77420237Y-68581037D02*
X78663800Y-69824600D01*
X77270463Y-68581037D02*
X77420237Y-68581037D01*
X86055200Y-74320400D02*
X87204600Y-73171000D01*
D35*
%TO.N,/MCU\u6838\u5FC3/RS485_TX*%
X76504800Y-69041695D02*
X76504800Y-68122800D01*
X77927200Y-70464095D02*
X76504800Y-69041695D01*
X77927200Y-74371200D02*
X77927200Y-70464095D01*
X74162947Y-78135453D02*
X77927200Y-74371200D01*
X71826147Y-78135453D02*
X74162947Y-78135453D01*
X76504800Y-68122800D02*
X77012800Y-67614800D01*
%TO.N,/MCU\u6838\u5FC3/EN3*%
X69101800Y-72353000D02*
X69037200Y-72288400D01*
X71286200Y-72353000D02*
X69101800Y-72353000D01*
X72353600Y-75960400D02*
X72353600Y-73420400D01*
X72353600Y-73420400D02*
X71286200Y-72353000D01*
X73050400Y-76657200D02*
X72353600Y-75960400D01*
%TO.N,/MCU\u6838\u5FC3/DIR3*%
X70175800Y-71903000D02*
X69900800Y-71628000D01*
X71801400Y-71903000D02*
X70175800Y-71903000D01*
X72948800Y-73050400D02*
X71801400Y-71903000D01*
X72948800Y-75336400D02*
X72948800Y-73050400D01*
X73533000Y-75920600D02*
X72948800Y-75336400D01*
%TO.N,/MCU\u6838\u5FC3/EN4*%
X72048200Y-70981400D02*
X70737538Y-70981400D01*
X70737538Y-70981400D02*
X70681504Y-70925366D01*
X73558400Y-72491600D02*
X72048200Y-70981400D01*
X73558400Y-74371200D02*
X73558400Y-72491600D01*
X74574400Y-75387200D02*
X73558400Y-74371200D01*
%TO.N,/MCU\u6838\u5FC3/DIR4*%
X72491600Y-70256400D02*
X71424800Y-70256400D01*
X74168000Y-71932800D02*
X72491600Y-70256400D01*
X75391695Y-75082400D02*
X74168000Y-73858705D01*
X74168000Y-73858705D02*
X74168000Y-71932800D01*
X75793600Y-75082400D02*
X75391695Y-75082400D01*
%TO.N,/MCU\u6838\u5FC3/DIR3*%
X74269600Y-76657200D02*
X73388897Y-75776497D01*
X74320400Y-76657200D02*
X74269600Y-76657200D01*
%TO.N,/MCU\u6838\u5FC3/EN4*%
X74371200Y-75184000D02*
X74574400Y-75387200D01*
%TO.N,GND*%
X80950600Y-70281000D02*
X80924400Y-70307200D01*
X82137200Y-70281000D02*
X80950600Y-70281000D01*
%TO.N,+3V3*%
X82651600Y-68021200D02*
X82651600Y-68021200D01*
X82702400Y-68021200D02*
X82651600Y-68021200D01*
X82702400Y-68072000D02*
X82702400Y-68021200D01*
X82702400Y-68072000D02*
X82702400Y-68072000D01*
X82702400Y-68529200D02*
X82702400Y-68072000D01*
X83687200Y-69514000D02*
X82702400Y-68529200D01*
X83687200Y-70281000D02*
X83687200Y-69514000D01*
X83687200Y-72866800D02*
X83687200Y-70281000D01*
X84023200Y-73202800D02*
X83687200Y-72866800D01*
%TO.N,/MCU\u6838\u5FC3/RS485_RX*%
X78181200Y-64414400D02*
X78790800Y-64414400D01*
X75793600Y-63550800D02*
X77317600Y-63550800D01*
X77317600Y-63550800D02*
X78181200Y-64414400D01*
X74980800Y-68543000D02*
X74980800Y-64363600D01*
X77202200Y-70764400D02*
X74980800Y-68543000D01*
X74980800Y-64363600D02*
X75793600Y-63550800D01*
%TO.N,Net-(D13-A)*%
X84566800Y-67294800D02*
X85516800Y-66344800D01*
X81419200Y-67294800D02*
X84566800Y-67294800D01*
X81076800Y-66952400D02*
X81419200Y-67294800D01*
%TO.N,/MCU\u6838\u5FC3/RS485_RX*%
X81026000Y-63601600D02*
X81076800Y-63652400D01*
X79603600Y-63601600D02*
X81026000Y-63601600D01*
X78790800Y-64414400D02*
X79603600Y-63601600D01*
%TO.N,Net-(D13-A)*%
X79272400Y-66064400D02*
X78790800Y-66064400D01*
X80160400Y-66952400D02*
X79272400Y-66064400D01*
X81076800Y-66952400D02*
X80160400Y-66952400D01*
%TO.N,GND*%
X83820000Y-64152800D02*
X84004600Y-64337400D01*
X83820000Y-62839600D02*
X83820000Y-64152800D01*
%TO.N,Net-(D13-A)*%
X85516800Y-64375200D02*
X85554600Y-64337400D01*
X85516800Y-66344800D02*
X85516800Y-64375200D01*
%TO.N,GND*%
X83616800Y-64725200D02*
X84004600Y-64337400D01*
X83616800Y-66344800D02*
X83616800Y-64725200D01*
%TO.N,Net-(Q1-C)*%
X86316400Y-69392800D02*
X87204600Y-70281000D01*
X85191600Y-69392800D02*
X86316400Y-69392800D01*
X84566800Y-68768000D02*
X85191600Y-69392800D01*
X84566800Y-68344800D02*
X84566800Y-68768000D01*
%TO.N,+3V3*%
X85554600Y-70281000D02*
X83687200Y-70281000D01*
D38*
%TO.N,+5V*%
X99618800Y-47955200D02*
X106680000Y-40894000D01*
X72339200Y-47955200D02*
X99618800Y-47955200D01*
X60502800Y-50596800D02*
X69697600Y-50596800D01*
X69697600Y-50596800D02*
X72339200Y-47955200D01*
X58775600Y-52324000D02*
X60502800Y-50596800D01*
X58775600Y-55473600D02*
X58775600Y-52324000D01*
X60706000Y-57404000D02*
X58775600Y-55473600D01*
%TO.N,/MCU\u6838\u5FC3/DAC_OUT2*%
X62114800Y-78956800D02*
X41134400Y-78956800D01*
X62230000Y-78841600D02*
X62114800Y-78956800D01*
X41134400Y-78956800D02*
X40081200Y-80010000D01*
X64577790Y-76476692D02*
X62230000Y-78824482D01*
X62230000Y-78824482D02*
X62230000Y-78841600D01*
X64577790Y-76467731D02*
X64577790Y-76476692D01*
D35*
%TO.N,GNDA*%
X32282800Y-68630800D02*
X32435200Y-68478400D01*
X30734000Y-68630800D02*
X32282800Y-68630800D01*
%TO.N,+5V*%
X34696400Y-68478400D02*
X35052000Y-68834000D01*
X33985200Y-68478400D02*
X34696400Y-68478400D01*
X34442400Y-68478400D02*
X35052000Y-67868800D01*
X33985200Y-68478400D02*
X34442400Y-68478400D01*
X34188400Y-78536800D02*
X34899600Y-77825600D01*
X34112800Y-78536800D02*
X34188400Y-78536800D01*
X34493200Y-78536800D02*
X34950400Y-78994000D01*
X34112800Y-78536800D02*
X34493200Y-78536800D01*
%TO.N,GNDA*%
X32461200Y-78638400D02*
X32562800Y-78536800D01*
X30683200Y-78638400D02*
X32461200Y-78638400D01*
D38*
%TO.N,/MCU\u6838\u5FC3/DAC_OU1*%
X41656000Y-81686400D02*
X38811200Y-81686400D01*
X42482400Y-80860000D02*
X41656000Y-81686400D01*
X57485518Y-80860000D02*
X42482400Y-80860000D01*
X58264082Y-80785600D02*
X57559918Y-80785600D01*
X58338482Y-80860000D02*
X58264082Y-80785600D01*
X65684400Y-77876400D02*
X62700800Y-80860000D01*
X65684400Y-73812400D02*
X65684400Y-77876400D01*
X62700800Y-80860000D02*
X58338482Y-80860000D01*
X66446400Y-73050400D02*
X65684400Y-73812400D01*
X67157600Y-73050400D02*
X66446400Y-73050400D01*
X57559918Y-80785600D02*
X57485518Y-80860000D01*
D35*
%TO.N,RST*%
X68580000Y-68224400D02*
X69596000Y-68224400D01*
X71120000Y-66700400D02*
X71120000Y-63550800D01*
X67106800Y-59537600D02*
X67106800Y-56184800D01*
X71120000Y-63550800D02*
X67106800Y-59537600D01*
X69596000Y-68224400D02*
X71120000Y-66700400D01*
X67106800Y-56184800D02*
X65786000Y-54864000D01*
%TO.N,/MCU\u6838\u5FC3/USART_RX*%
X70967600Y-80086200D02*
X70962000Y-80091800D01*
X70967600Y-84276905D02*
X70967600Y-96915095D01*
X70962000Y-80091800D02*
X70962000Y-84271305D01*
X67005200Y-76200000D02*
X67081400Y-76200000D01*
X70962000Y-84271305D02*
X70967600Y-84276905D01*
X67081400Y-76200000D02*
X70967600Y-80086200D01*
X70967600Y-96915095D02*
X59984300Y-107898395D01*
%TO.N,/MCU\u6838\u5FC3/USART_TX*%
X67005200Y-77470000D02*
X70256400Y-80721200D01*
X70256400Y-96672400D02*
X60960000Y-105968800D01*
X59373895Y-105968800D02*
X57444300Y-107898395D01*
X70256400Y-80721200D02*
X70256400Y-96672400D01*
X60960000Y-105968800D02*
X59373895Y-105968800D01*
D36*
%TO.N,/MCU\u6838\u5FC3/PWM2*%
X68275200Y-97586800D02*
X60706000Y-105156000D01*
X68275200Y-97485200D02*
X68275200Y-97586800D01*
X52324000Y-107340400D02*
X52324000Y-109982000D01*
X60706000Y-105156000D02*
X54508400Y-105156000D01*
X52324000Y-109982000D02*
X50038000Y-112268000D01*
X54508400Y-105156000D02*
X52324000Y-107340400D01*
D35*
%TO.N,UART4_TX*%
X64421000Y-58731400D02*
X64421000Y-56039000D01*
X67390853Y-61133147D02*
X66049306Y-59791600D01*
X65481200Y-59791600D02*
X64421000Y-58731400D01*
X66049306Y-59791600D02*
X65481200Y-59791600D01*
X64421000Y-56039000D02*
X63246000Y-54864000D01*
%TO.N,UART4_RX*%
X66192400Y-60960000D02*
X64465200Y-60960000D01*
X61976000Y-58470800D02*
X61976000Y-56134000D01*
X61976000Y-56134000D02*
X60706000Y-54864000D01*
X64465200Y-60960000D02*
X61976000Y-58470800D01*
%TO.N,/MCU\u6838\u5FC3/RS485_RX*%
X74893000Y-73558400D02*
X75742800Y-73558400D01*
X77202200Y-72099000D02*
X77202200Y-70764400D01*
X75742800Y-73558400D02*
X77202200Y-72099000D01*
%TD*%
M02*
