%TF.GenerationSoftware,KiCad,Pcbnew,8.0.0-rc1-91-gb65fa46c3c*%
%TF.CreationDate,2024-02-01T16:18:31+08:00*%
%TF.ProjectId,_____,d0a8a736-612e-46b6-9963-61645f706362,rev?*%
%TF.SameCoordinates,Original*%
%TF.FileFunction,Copper,L3,Inr*%
%TF.FilePolarity,Positive*%
%FSLAX46Y46*%
G04 Gerber Fmt 4.6, Leading zero omitted, Abs format (unit mm)*
G04 Created by KiCad (PCBNEW 8.0.0-rc1-91-gb65fa46c3c) date 2024-02-01 16:18:31*
%MOMM*%
%LPD*%
G01*
G04 APERTURE LIST*
%TA.AperFunction,ComponentPad*%
%ADD10R,2.500000X2.500000*%
%TD*%
%TA.AperFunction,ComponentPad*%
%ADD11C,2.500000*%
%TD*%
%TA.AperFunction,ComponentPad*%
%ADD12C,1.600000*%
%TD*%
%TA.AperFunction,ComponentPad*%
%ADD13C,3.000000*%
%TD*%
%TA.AperFunction,ComponentPad*%
%ADD14C,0.800000*%
%TD*%
%TA.AperFunction,ComponentPad*%
%ADD15C,6.400000*%
%TD*%
%TA.AperFunction,ComponentPad*%
%ADD16C,2.540000*%
%TD*%
%TA.AperFunction,ComponentPad*%
%ADD17R,2.100000X2.100000*%
%TD*%
%TA.AperFunction,ComponentPad*%
%ADD18C,2.100000*%
%TD*%
%TA.AperFunction,ComponentPad*%
%ADD19R,1.600000X1.600000*%
%TD*%
%TA.AperFunction,ComponentPad*%
%ADD20C,1.524000*%
%TD*%
%TA.AperFunction,ComponentPad*%
%ADD21R,1.524000X1.524000*%
%TD*%
%TA.AperFunction,ComponentPad*%
%ADD22C,1.574800*%
%TD*%
%TA.AperFunction,ComponentPad*%
%ADD23R,1.574800X1.574800*%
%TD*%
%TA.AperFunction,ComponentPad*%
%ADD24R,1.700000X1.700000*%
%TD*%
%TA.AperFunction,ComponentPad*%
%ADD25O,1.700000X1.700000*%
%TD*%
%TA.AperFunction,ComponentPad*%
%ADD26R,2.000000X2.000000*%
%TD*%
%TA.AperFunction,ComponentPad*%
%ADD27C,2.000000*%
%TD*%
%TA.AperFunction,ViaPad*%
%ADD28C,0.800000*%
%TD*%
%TA.AperFunction,Conductor*%
%ADD29C,0.000000*%
%TD*%
G04 APERTURE END LIST*
D10*
%TO.N,/steper/ST_PWM1*%
%TO.C,J4*%
X28550000Y-90000000D03*
D11*
%TO.N,/steper/ST_DIR1*%
X28550000Y-95000000D03*
%TO.N,/steper/ST_EN1*%
X28550000Y-100000000D03*
%TO.N,GND*%
X28550000Y-105000000D03*
%TD*%
D10*
%TO.N,GND*%
%TO.C,J6*%
X101550000Y-126000000D03*
D11*
%TO.N,/steper/ST_EN3*%
X101550000Y-121000000D03*
%TO.N,/steper/ST_DIR3*%
X101550000Y-116000000D03*
%TO.N,/steper/ST_PWM3*%
X101550000Y-111000000D03*
%TD*%
D12*
%TO.N,+5V*%
%TO.C,C4*%
X97282000Y-39223000D03*
%TO.N,GND*%
X97282000Y-36723000D03*
%TD*%
D13*
%TO.N,/MCU\u6838\u5FC3/VREF+*%
%TO.C,TP4*%
X62738000Y-88519000D03*
%TD*%
D10*
%TO.N,GND*%
%TO.C,J7*%
X101550000Y-105000000D03*
D11*
%TO.N,/steper/ST_EN4*%
X101550000Y-100000000D03*
%TO.N,/steper/ST_DIR4*%
X101550000Y-95000000D03*
%TO.N,/steper/ST_PWM4*%
X101550000Y-90000000D03*
%TD*%
D14*
%TO.N,unconnected-(H4-Pad1)*%
%TO.C,H4*%
X102600000Y-135000000D03*
X103302944Y-133302944D03*
X103302944Y-136697056D03*
X105000000Y-132600000D03*
D15*
X105000000Y-135000000D03*
D14*
X105000000Y-137400000D03*
X106697056Y-133302944D03*
X106697056Y-136697056D03*
X107400000Y-135000000D03*
%TD*%
D16*
%TO.N,unconnected-(U1-Ctrl-Pad1)*%
%TO.C,U1*%
X47690000Y-26877500D03*
%TO.N,/\u63A5\u53E3/VIN-*%
X47690000Y-34497500D03*
%TO.N,/\u7535\u6E90/VIN*%
X47690000Y-39577500D03*
%TO.N,Net-(U1-+VO)*%
X68010000Y-47197500D03*
%TO.N,Net-(U1--VO)*%
X68010000Y-26877500D03*
%TD*%
D13*
%TO.N,+5V*%
%TO.C,TP2*%
X106680000Y-40894000D03*
%TD*%
D10*
%TO.N,/steper/ST_PWM2*%
%TO.C,J5*%
X28550000Y-111250000D03*
D11*
%TO.N,/steper/ST_DIR2*%
X28550000Y-116250000D03*
%TO.N,/steper/ST_EN2*%
X28550000Y-121250000D03*
%TO.N,GND*%
X28550000Y-126250000D03*
%TD*%
D13*
%TO.N,GNDA*%
%TO.C,TP5*%
X66903600Y-88392000D03*
%TD*%
D17*
%TO.N,unconnected-(J2-Pin_1-Pad1)*%
%TO.C,J2*%
X104750000Y-48270000D03*
D18*
%TO.N,unconnected-(J2-Pin_2-Pad2)*%
X104750000Y-53350000D03*
%TO.N,unconnected-(J2-Pin_3-Pad3)*%
X104750000Y-58430000D03*
%TO.N,unconnected-(J2-Pin_4-Pad4)*%
X104750000Y-63510000D03*
%TO.N,/RS485/485-*%
X104750000Y-68590000D03*
%TO.N,/RS485/485+*%
X104750000Y-73670000D03*
%TO.N,/can\u603B\u7EBF/CAN+*%
X104750000Y-78750000D03*
%TO.N,/can\u603B\u7EBF/CAN-*%
X104750000Y-83830000D03*
%TD*%
D17*
%TO.N,/\u63A5\u53E3/DAC_1*%
%TO.C,J1*%
X25250000Y-83780000D03*
D18*
%TO.N,/\u63A5\u53E3/DAC_2*%
X25250000Y-78700000D03*
%TO.N,/\u63A5\u53E3/DAC_3*%
X25250000Y-73620000D03*
%TO.N,/\u63A5\u53E3/DAC_4*%
X25250000Y-68540000D03*
%TO.N,GNDA*%
X25250000Y-63460000D03*
%TO.N,unconnected-(J1-Pin_6-Pad6)*%
X25250000Y-58380000D03*
%TO.N,/\u63A5\u53E3/VIN+*%
X25250000Y-53300000D03*
%TO.N,/\u63A5\u53E3/VIN-*%
X25250000Y-48220000D03*
%TD*%
D14*
%TO.N,unconnected-(H3-Pad1)*%
%TO.C,H3*%
X22600000Y-135000000D03*
X23302944Y-133302944D03*
X23302944Y-136697056D03*
X25000000Y-132600000D03*
D15*
X25000000Y-135000000D03*
D14*
X25000000Y-137400000D03*
X26697056Y-133302944D03*
X26697056Y-136697056D03*
X27400000Y-135000000D03*
%TD*%
%TO.N,unconnected-(H2-Pad1)*%
%TO.C,H2*%
X102600000Y-25000000D03*
X103302944Y-23302944D03*
X103302944Y-26697056D03*
X105000000Y-22600000D03*
D15*
X105000000Y-25000000D03*
D14*
X105000000Y-27400000D03*
X106697056Y-23302944D03*
X106697056Y-26697056D03*
X107400000Y-25000000D03*
%TD*%
%TO.N,unconnected-(H1-Pad1)*%
%TO.C,H1*%
X22600000Y-25000000D03*
X23302944Y-23302944D03*
X23302944Y-26697056D03*
X25000000Y-22600000D03*
D15*
X25000000Y-25000000D03*
D14*
X25000000Y-27400000D03*
X26697056Y-23302944D03*
X26697056Y-26697056D03*
X27400000Y-25000000D03*
%TD*%
D19*
%TO.N,+5V*%
%TO.C,C3*%
X91694000Y-39155380D03*
D12*
%TO.N,GND*%
X91694000Y-36655380D03*
%TD*%
D20*
%TO.N,Net-(U1-+VO)*%
%TO.C,LDM2*%
X80725000Y-42672000D03*
%TO.N,+5V*%
X85725000Y-42672000D03*
%TD*%
D19*
%TO.N,+3V3*%
%TO.C,C7*%
X81750000Y-54600000D03*
D12*
%TO.N,GND*%
X81750000Y-57100000D03*
%TD*%
D19*
%TO.N,Net-(U1-+VO)*%
%TO.C,C2*%
X75250000Y-38869880D03*
D12*
%TO.N,Net-(U1--VO)*%
X75250000Y-36369880D03*
%TD*%
D13*
%TO.N,GND*%
%TO.C,TP6*%
X106680000Y-34798000D03*
%TD*%
D21*
%TO.N,unconnected-(U8-COM_LED-Pad1)*%
%TO.C,U8*%
X54904300Y-107898395D03*
D20*
%TO.N,/MCU\u6838\u5FC3/USART_TX*%
X57444300Y-107898395D03*
%TO.N,/MCU\u6838\u5FC3/USART_RX*%
X59984300Y-107898395D03*
%TO.N,unconnected-(U8-485_DIR-Pad4)*%
X62524300Y-107898395D03*
%TO.N,unconnected-(U8-CFG-Pad5)*%
X65064300Y-107898395D03*
%TO.N,unconnected-(U8-RUN_LED-Pad6)*%
X67604300Y-107898395D03*
%TO.N,GND*%
X70144300Y-107898395D03*
%TO.N,+3V3*%
X72684300Y-107898395D03*
%TO.N,unconnected-(U8-5V-Pad9)*%
X75224300Y-107898395D03*
D22*
%TO.N,unconnected-(U8-Y2-Pad10)*%
X75059200Y-122465295D03*
D23*
%TO.N,unconnected-(U8-Y1-Pad11)*%
X75059200Y-125005295D03*
D22*
%TO.N,unconnected-(U8-X2-Pad12)*%
X75069700Y-132329995D03*
D23*
%TO.N,unconnected-(U8-X1-Pad13)*%
X75069700Y-134869995D03*
D22*
%TO.N,GND*%
X54952900Y-132329995D03*
D23*
X54952900Y-134869995D03*
%TD*%
D13*
%TO.N,+3V3*%
%TO.C,TP1*%
X76454000Y-52070000D03*
%TD*%
D24*
%TO.N,+5V*%
%TO.C,J3*%
X60706000Y-57404000D03*
D25*
%TO.N,UART4_RX*%
X60706000Y-54864000D03*
%TO.N,+3V3*%
X63246000Y-57404000D03*
%TO.N,UART4_TX*%
X63246000Y-54864000D03*
%TO.N,GND*%
X65786000Y-57404000D03*
%TO.N,RST*%
X65786000Y-54864000D03*
%TO.N,SWCLK*%
X68326000Y-57404000D03*
%TO.N,Net-(J3-Pin_8)*%
X68326000Y-54864000D03*
%TO.N,SWDIO*%
X70866000Y-57404000D03*
%TO.N,BOOT0*%
X70866000Y-54864000D03*
%TD*%
D26*
%TO.N,/\u7535\u6E90/VIN*%
%TO.C,C1*%
X38250000Y-39305177D03*
D27*
%TO.N,/\u63A5\u53E3/VIN-*%
X38250000Y-34305177D03*
%TD*%
D20*
%TO.N,Net-(U1--VO)*%
%TO.C,LDM1*%
X83500000Y-35437500D03*
%TO.N,GND*%
X83500000Y-30437500D03*
%TD*%
D28*
%TO.N,/MCU\u6838\u5FC3/DIR1*%
X49326800Y-95554800D03*
%TO.N,/MCU\u6838\u5FC3/EN1*%
X49530000Y-100533200D03*
%TO.N,/MCU\u6838\u5FC3/EN2*%
X49225200Y-123139200D03*
%TO.N,/MCU\u6838\u5FC3/DIR2*%
X49326800Y-117500400D03*
%TO.N,/MCU\u6838\u5FC3/EN2*%
X67614800Y-64973200D03*
%TO.N,/MCU\u6838\u5FC3/DIR2*%
X67056000Y-65989200D03*
%TO.N,/MCU\u6838\u5FC3/EN1*%
X65532000Y-65989200D03*
%TO.N,/MCU\u6838\u5FC3/DIR1*%
X64973200Y-65074800D03*
%TO.N,Net-(Q1-C)*%
X77270463Y-68581037D03*
%TO.N,/MCU\u6838\u5FC3/DIR4*%
X75793600Y-75082400D03*
%TO.N,/MCU\u6838\u5FC3/EN4*%
X74574400Y-75387200D03*
%TO.N,/MCU\u6838\u5FC3/DIR3*%
X74320400Y-76657200D03*
%TO.N,/MCU\u6838\u5FC3/EN3*%
X73050400Y-76657200D03*
%TO.N,GND*%
X80924400Y-70307200D03*
%TO.N,+3V3*%
X82702400Y-68021200D03*
%TO.N,GND*%
X83820000Y-62839600D03*
%TO.N,GNDA*%
X30734000Y-68630800D03*
X30683200Y-78638400D03*
X41097200Y-74168000D03*
X41046400Y-83515200D03*
%TO.N,/MCU\u6838\u5FC3/DAC_OU1*%
X67157600Y-73050400D03*
%TO.N,/MCU\u6838\u5FC3/DAC_OUT2*%
X64577790Y-76467731D03*
%TO.N,/MCU\u6838\u5FC3/DAC_OUT3*%
X63601600Y-76250800D03*
%TO.N,/MCU\u6838\u5FC3/DAC_OUT4*%
X63144400Y-71729600D03*
X40081200Y-70256400D03*
%TO.N,/MCU\u6838\u5FC3/DAC_OUT3*%
X38811200Y-71628000D03*
%TO.N,/MCU\u6838\u5FC3/DAC_OUT2*%
X40081200Y-80010000D03*
%TO.N,/MCU\u6838\u5FC3/DAC_OU1*%
X38811200Y-81686400D03*
%TO.N,+5V*%
X39014400Y-91948000D03*
X38811200Y-123240800D03*
X104013000Y-41275000D03*
X40284400Y-122580400D03*
X88798400Y-94792800D03*
X101981000Y-38735000D03*
X39471600Y-112064800D03*
X89966800Y-100076000D03*
X90068400Y-94843600D03*
X90119200Y-89763600D03*
X88747600Y-114503200D03*
X39319200Y-101498400D03*
X90119200Y-114503200D03*
X88747600Y-100025200D03*
X40894000Y-117652800D03*
X100330000Y-40132000D03*
X99568000Y-38735000D03*
X100838000Y-38735000D03*
X104394000Y-38735000D03*
X40792400Y-112014000D03*
X104013000Y-40132000D03*
X81730000Y-81653000D03*
X88696800Y-109372400D03*
X40792400Y-101600000D03*
X60807600Y-83870800D03*
X39624000Y-117602000D03*
X34899600Y-77825600D03*
X103251000Y-38735000D03*
X90424000Y-119735600D03*
X39522400Y-96621600D03*
X34950400Y-78994000D03*
X40335200Y-92862400D03*
X89001600Y-119583200D03*
X35052000Y-68834000D03*
X35052000Y-67868800D03*
X90017600Y-109423200D03*
X40843200Y-96723200D03*
X88950800Y-89712800D03*
%TO.N,RST*%
X68580000Y-68224400D03*
%TO.N,GNDA*%
X50850800Y-58623200D03*
X46786800Y-69748400D03*
X50901600Y-61569600D03*
X68427600Y-76352400D03*
X57912000Y-81635600D03*
X67919600Y-82702400D03*
X61214000Y-81838800D03*
X46786800Y-82245200D03*
X46786800Y-71932800D03*
X63855600Y-83261200D03*
X49631600Y-60147200D03*
X46736000Y-79806800D03*
%TO.N,+3V3*%
X84023200Y-73202800D03*
X79959200Y-54559200D03*
X71687000Y-82971000D03*
X92506800Y-85953600D03*
X74371200Y-80221000D03*
X72085200Y-102717600D03*
X72034400Y-103682800D03*
X77165200Y-64668400D03*
X56845200Y-74015600D03*
X71687000Y-83971000D03*
%TO.N,/MCU\u6838\u5FC3/USART_RX*%
X67005200Y-76200000D03*
%TO.N,/MCU\u6838\u5FC3/USART_TX*%
X67005200Y-77470000D03*
%TO.N,/MCU\u6838\u5FC3/PWM1*%
X68834000Y-96215200D03*
X50139600Y-90830400D03*
%TO.N,/MCU\u6838\u5FC3/PWM2*%
X68275200Y-97485200D03*
X50038000Y-112268000D03*
%TO.N,/MCU\u6838\u5FC3/EN3*%
X80568800Y-120040400D03*
X69037200Y-72288400D03*
X75133200Y-88798400D03*
%TO.N,/MCU\u6838\u5FC3/DIR3*%
X75539600Y-89966800D03*
X80721200Y-114706400D03*
X69900800Y-71628000D03*
%TO.N,/MCU\u6838\u5FC3/EN4*%
X81584800Y-101142800D03*
X70681504Y-70925366D03*
X75996800Y-91186000D03*
%TO.N,/MCU\u6838\u5FC3/DIR4*%
X71424800Y-70256400D03*
X76504800Y-92303600D03*
X81584800Y-95707200D03*
%TO.N,GND*%
X45212000Y-115468400D03*
X78250000Y-59110000D03*
X70510400Y-103682800D03*
X84480400Y-97332800D03*
X81635600Y-80162400D03*
X54254400Y-60096400D03*
X71120000Y-52171600D03*
X53238400Y-61569600D03*
X49885600Y-109321600D03*
X53136800Y-58674000D03*
X45161200Y-98958400D03*
X80518000Y-104089200D03*
X49987200Y-88239600D03*
X83500000Y-57110000D03*
X49580800Y-114909600D03*
X84531200Y-92049600D03*
X92837000Y-63754000D03*
X70510400Y-102717600D03*
X84632800Y-111810800D03*
X84531200Y-122224800D03*
X80416400Y-112217200D03*
X92456000Y-73152000D03*
X80467200Y-122885200D03*
X93726000Y-73152000D03*
X53136800Y-66903600D03*
X53644800Y-71272400D03*
X95504000Y-49657000D03*
X77165200Y-66294000D03*
X45212000Y-94132400D03*
X55168800Y-71729600D03*
X49936400Y-98298000D03*
X79750000Y-59110000D03*
X80365600Y-117500400D03*
X54457600Y-63703200D03*
X84582000Y-116992400D03*
X94107000Y-63754000D03*
X85000000Y-57360000D03*
X84531200Y-102565200D03*
X45161200Y-120904000D03*
X56845200Y-72542400D03*
X53086000Y-68783200D03*
X81750000Y-59110000D03*
X85000000Y-58610000D03*
X45212000Y-109931200D03*
X53136800Y-64922400D03*
X49631600Y-120497600D03*
X45161200Y-89001600D03*
X86250000Y-58610000D03*
X80000000Y-57860000D03*
X70687000Y-73355200D03*
X74371200Y-81721000D03*
X95250000Y-63754000D03*
X95504000Y-50907000D03*
X80416400Y-92964000D03*
X83500000Y-58610000D03*
X78750000Y-57860000D03*
X80416400Y-98399600D03*
X49784000Y-93319600D03*
X94869000Y-73152000D03*
%TO.N,UART4_TX*%
X67390853Y-61133147D03*
%TO.N,UART4_RX*%
X66192400Y-60960000D03*
%TO.N,/MCU\u6838\u5FC3/RS485_RX*%
X77202200Y-70764400D03*
X74893000Y-73558400D03*
%TO.N,/MCU\u6838\u5FC3/RS485_TX*%
X77012800Y-67614800D03*
X71826147Y-78135453D03*
%TD*%
D29*
%TO.N,+3V3*%
X72749839Y-105000000D02*
X72749839Y-107208221D01*
%TD*%
%TA.AperFunction,Conductor*%
%TO.N,+3V3*%
G36*
X92344677Y-49930685D02*
G01*
X92365319Y-49947319D01*
X95340681Y-52922681D01*
X95374166Y-52984004D01*
X95377000Y-53010362D01*
X95377000Y-62729500D01*
X95357315Y-62796539D01*
X95304511Y-62842294D01*
X95253000Y-62853500D01*
X95155354Y-62853500D01*
X95122897Y-62860398D01*
X94970197Y-62892855D01*
X94970192Y-62892857D01*
X94797270Y-62969848D01*
X94797266Y-62969851D01*
X94751384Y-63003186D01*
X94685578Y-63026665D01*
X94617524Y-63010839D01*
X94605616Y-63003186D01*
X94559733Y-62969851D01*
X94559729Y-62969848D01*
X94386807Y-62892857D01*
X94386802Y-62892855D01*
X94241001Y-62861865D01*
X94201646Y-62853500D01*
X94012354Y-62853500D01*
X93979897Y-62860398D01*
X93827197Y-62892855D01*
X93827192Y-62892857D01*
X93654270Y-62969848D01*
X93654265Y-62969851D01*
X93544885Y-63049321D01*
X93479079Y-63072801D01*
X93411025Y-63056975D01*
X93399115Y-63049321D01*
X93289734Y-62969851D01*
X93289729Y-62969848D01*
X93116807Y-62892857D01*
X93116802Y-62892855D01*
X92971001Y-62861865D01*
X92931646Y-62853500D01*
X92742354Y-62853500D01*
X92709897Y-62860398D01*
X92557197Y-62892855D01*
X92557192Y-62892857D01*
X92384270Y-62969848D01*
X92384265Y-62969851D01*
X92231129Y-63081111D01*
X92104466Y-63221785D01*
X92009821Y-63385715D01*
X92009818Y-63385722D01*
X91968630Y-63512488D01*
X91951326Y-63565744D01*
X91931540Y-63754000D01*
X91951326Y-63942256D01*
X91951327Y-63942259D01*
X92009818Y-64122277D01*
X92009821Y-64122284D01*
X92104467Y-64286216D01*
X92231129Y-64426888D01*
X92384265Y-64538148D01*
X92384270Y-64538151D01*
X92557192Y-64615142D01*
X92557197Y-64615144D01*
X92742354Y-64654500D01*
X92742355Y-64654500D01*
X92931644Y-64654500D01*
X92931646Y-64654500D01*
X93116803Y-64615144D01*
X93289730Y-64538151D01*
X93399117Y-64458676D01*
X93464920Y-64435198D01*
X93532974Y-64451023D01*
X93544871Y-64458668D01*
X93654266Y-64538148D01*
X93654270Y-64538151D01*
X93827192Y-64615142D01*
X93827197Y-64615144D01*
X94012354Y-64654500D01*
X94012355Y-64654500D01*
X94201644Y-64654500D01*
X94201646Y-64654500D01*
X94386803Y-64615144D01*
X94523859Y-64554122D01*
X94559728Y-64538152D01*
X94559728Y-64538151D01*
X94559730Y-64538151D01*
X94605614Y-64504813D01*
X94671421Y-64481334D01*
X94739475Y-64497159D01*
X94751386Y-64504814D01*
X94797271Y-64538152D01*
X94970192Y-64615142D01*
X94970197Y-64615144D01*
X95155354Y-64654500D01*
X95155355Y-64654500D01*
X95253000Y-64654500D01*
X95320039Y-64674185D01*
X95365794Y-64726989D01*
X95377000Y-64778500D01*
X95377000Y-72201512D01*
X95357315Y-72268551D01*
X95304511Y-72314306D01*
X95235353Y-72324250D01*
X95202565Y-72314792D01*
X95148802Y-72290855D01*
X95003001Y-72259865D01*
X94963646Y-72251500D01*
X94774354Y-72251500D01*
X94741897Y-72258398D01*
X94589197Y-72290855D01*
X94589192Y-72290857D01*
X94416270Y-72367848D01*
X94416266Y-72367851D01*
X94370384Y-72401186D01*
X94304578Y-72424665D01*
X94236524Y-72408839D01*
X94224616Y-72401186D01*
X94178733Y-72367851D01*
X94178729Y-72367848D01*
X94005807Y-72290857D01*
X94005802Y-72290855D01*
X93860001Y-72259865D01*
X93820646Y-72251500D01*
X93631354Y-72251500D01*
X93598897Y-72258398D01*
X93446197Y-72290855D01*
X93446192Y-72290857D01*
X93273270Y-72367848D01*
X93273265Y-72367851D01*
X93163885Y-72447321D01*
X93098079Y-72470801D01*
X93030025Y-72454975D01*
X93018115Y-72447321D01*
X92908734Y-72367851D01*
X92908729Y-72367848D01*
X92735807Y-72290857D01*
X92735802Y-72290855D01*
X92590001Y-72259865D01*
X92550646Y-72251500D01*
X92361354Y-72251500D01*
X92328897Y-72258398D01*
X92176197Y-72290855D01*
X92176192Y-72290857D01*
X92003270Y-72367848D01*
X92003265Y-72367851D01*
X91850129Y-72479111D01*
X91723466Y-72619785D01*
X91628821Y-72783715D01*
X91628818Y-72783722D01*
X91587566Y-72910684D01*
X91570326Y-72963744D01*
X91550540Y-73152000D01*
X91570326Y-73340256D01*
X91570327Y-73340259D01*
X91628818Y-73520277D01*
X91628821Y-73520284D01*
X91723467Y-73684216D01*
X91821000Y-73792537D01*
X91850129Y-73824888D01*
X92003265Y-73936148D01*
X92003270Y-73936151D01*
X92176192Y-74013142D01*
X92176197Y-74013144D01*
X92361354Y-74052500D01*
X92361355Y-74052500D01*
X92550644Y-74052500D01*
X92550646Y-74052500D01*
X92735803Y-74013144D01*
X92908730Y-73936151D01*
X93018117Y-73856676D01*
X93083920Y-73833198D01*
X93151974Y-73849023D01*
X93163871Y-73856668D01*
X93260230Y-73926677D01*
X93273270Y-73936151D01*
X93446192Y-74013142D01*
X93446197Y-74013144D01*
X93631354Y-74052500D01*
X93631355Y-74052500D01*
X93820644Y-74052500D01*
X93820646Y-74052500D01*
X94005803Y-74013144D01*
X94178730Y-73936151D01*
X94224614Y-73902813D01*
X94290421Y-73879334D01*
X94358475Y-73895159D01*
X94370386Y-73902814D01*
X94416271Y-73936152D01*
X94589192Y-74013142D01*
X94589197Y-74013144D01*
X94774354Y-74052500D01*
X94774355Y-74052500D01*
X94963644Y-74052500D01*
X94963646Y-74052500D01*
X95148803Y-74013144D01*
X95202563Y-73989207D01*
X95271813Y-73979923D01*
X95335090Y-74009550D01*
X95372304Y-74068685D01*
X95377000Y-74102487D01*
X95377000Y-86254638D01*
X95357315Y-86321677D01*
X95340681Y-86342319D01*
X93962319Y-87720681D01*
X93900996Y-87754166D01*
X93874638Y-87757000D01*
X82295999Y-87757000D01*
X79629000Y-90423999D01*
X79629000Y-92493591D01*
X79612387Y-92555592D01*
X79589220Y-92595717D01*
X79564472Y-92671884D01*
X79530726Y-92775744D01*
X79510940Y-92964000D01*
X79530726Y-93152256D01*
X79530727Y-93152259D01*
X79589218Y-93332277D01*
X79589221Y-93332284D01*
X79612387Y-93372408D01*
X79629000Y-93434408D01*
X79629000Y-97929191D01*
X79612387Y-97991192D01*
X79589220Y-98031317D01*
X79530727Y-98211340D01*
X79530726Y-98211344D01*
X79510940Y-98399600D01*
X79530726Y-98587856D01*
X79530727Y-98587859D01*
X79589218Y-98767877D01*
X79589221Y-98767884D01*
X79612387Y-98808008D01*
X79629000Y-98870008D01*
X79629000Y-103926088D01*
X79628321Y-103939049D01*
X79612540Y-104089200D01*
X79625763Y-104215016D01*
X79628321Y-104239349D01*
X79629000Y-104252310D01*
X79629000Y-107771638D01*
X79609315Y-107838677D01*
X79592681Y-107859319D01*
X77633319Y-109818681D01*
X77571996Y-109852166D01*
X77545638Y-109855000D01*
X54407362Y-109855000D01*
X54340323Y-109835315D01*
X54319681Y-109818681D01*
X53832906Y-109331906D01*
X53799421Y-109270583D01*
X53804405Y-109200891D01*
X53846277Y-109144958D01*
X53911741Y-109120541D01*
X53963918Y-109128042D01*
X54034817Y-109154486D01*
X54094427Y-109160895D01*
X55714172Y-109160894D01*
X55773783Y-109154486D01*
X55908631Y-109104191D01*
X56023846Y-109017941D01*
X56110096Y-108902726D01*
X56160391Y-108767878D01*
X56166800Y-108708268D01*
X56166799Y-108668315D01*
X56186482Y-108601279D01*
X56239285Y-108555523D01*
X56308443Y-108545578D01*
X56372000Y-108574601D01*
X56392373Y-108597191D01*
X56473474Y-108713015D01*
X56473475Y-108713016D01*
X56629678Y-108869219D01*
X56629684Y-108869224D01*
X56810633Y-108995926D01*
X56810635Y-108995927D01*
X56810638Y-108995929D01*
X57010850Y-109089289D01*
X57224232Y-109146465D01*
X57381423Y-109160217D01*
X57444298Y-109165718D01*
X57444300Y-109165718D01*
X57444302Y-109165718D01*
X57499451Y-109160893D01*
X57664368Y-109146465D01*
X57877750Y-109089289D01*
X58077962Y-108995929D01*
X58258920Y-108869221D01*
X58415126Y-108713015D01*
X58541834Y-108532057D01*
X58601918Y-108403206D01*
X58648090Y-108350766D01*
X58715283Y-108331614D01*
X58782165Y-108351830D01*
X58826682Y-108403206D01*
X58886764Y-108532053D01*
X58886768Y-108532061D01*
X59013470Y-108713010D01*
X59013475Y-108713016D01*
X59169678Y-108869219D01*
X59169684Y-108869224D01*
X59350633Y-108995926D01*
X59350635Y-108995927D01*
X59350638Y-108995929D01*
X59550850Y-109089289D01*
X59764232Y-109146465D01*
X59921423Y-109160217D01*
X59984298Y-109165718D01*
X59984300Y-109165718D01*
X59984302Y-109165718D01*
X60039451Y-109160893D01*
X60204368Y-109146465D01*
X60417750Y-109089289D01*
X60617962Y-108995929D01*
X60798920Y-108869221D01*
X60955126Y-108713015D01*
X61081834Y-108532057D01*
X61141918Y-108403206D01*
X61188090Y-108350766D01*
X61255283Y-108331614D01*
X61322165Y-108351830D01*
X61366682Y-108403206D01*
X61426764Y-108532053D01*
X61426768Y-108532061D01*
X61553470Y-108713010D01*
X61553475Y-108713016D01*
X61709678Y-108869219D01*
X61709684Y-108869224D01*
X61890633Y-108995926D01*
X61890635Y-108995927D01*
X61890638Y-108995929D01*
X62090850Y-109089289D01*
X62304232Y-109146465D01*
X62461423Y-109160217D01*
X62524298Y-109165718D01*
X62524300Y-109165718D01*
X62524302Y-109165718D01*
X62579451Y-109160893D01*
X62744368Y-109146465D01*
X62957750Y-109089289D01*
X63157962Y-108995929D01*
X63338920Y-108869221D01*
X63495126Y-108713015D01*
X63621834Y-108532057D01*
X63681918Y-108403206D01*
X63728090Y-108350766D01*
X63795283Y-108331614D01*
X63862165Y-108351830D01*
X63906682Y-108403206D01*
X63966764Y-108532053D01*
X63966768Y-108532061D01*
X64093470Y-108713010D01*
X64093475Y-108713016D01*
X64249678Y-108869219D01*
X64249684Y-108869224D01*
X64430633Y-108995926D01*
X64430635Y-108995927D01*
X64430638Y-108995929D01*
X64630850Y-109089289D01*
X64844232Y-109146465D01*
X65001423Y-109160217D01*
X65064298Y-109165718D01*
X65064300Y-109165718D01*
X65064302Y-109165718D01*
X65119451Y-109160893D01*
X65284368Y-109146465D01*
X65497750Y-109089289D01*
X65697962Y-108995929D01*
X65878920Y-108869221D01*
X66035126Y-108713015D01*
X66161834Y-108532057D01*
X66221918Y-108403206D01*
X66268090Y-108350766D01*
X66335283Y-108331614D01*
X66402165Y-108351830D01*
X66446682Y-108403206D01*
X66506764Y-108532053D01*
X66506768Y-108532061D01*
X66633470Y-108713010D01*
X66633475Y-108713016D01*
X66789678Y-108869219D01*
X66789684Y-108869224D01*
X66970633Y-108995926D01*
X66970635Y-108995927D01*
X66970638Y-108995929D01*
X67170850Y-109089289D01*
X67384232Y-109146465D01*
X67541423Y-109160217D01*
X67604298Y-109165718D01*
X67604300Y-109165718D01*
X67604302Y-109165718D01*
X67659451Y-109160893D01*
X67824368Y-109146465D01*
X68037750Y-109089289D01*
X68237962Y-108995929D01*
X68418920Y-108869221D01*
X68575126Y-108713015D01*
X68701834Y-108532057D01*
X68761918Y-108403206D01*
X68808090Y-108350766D01*
X68875283Y-108331614D01*
X68942165Y-108351830D01*
X68986682Y-108403206D01*
X69046764Y-108532053D01*
X69046768Y-108532061D01*
X69173470Y-108713010D01*
X69173475Y-108713016D01*
X69329678Y-108869219D01*
X69329684Y-108869224D01*
X69510633Y-108995926D01*
X69510635Y-108995927D01*
X69510638Y-108995929D01*
X69710850Y-109089289D01*
X69924232Y-109146465D01*
X70081423Y-109160217D01*
X70144298Y-109165718D01*
X70144300Y-109165718D01*
X70144302Y-109165718D01*
X70199451Y-109160893D01*
X70364368Y-109146465D01*
X70577750Y-109089289D01*
X70777962Y-108995929D01*
X70958920Y-108869221D01*
X71115126Y-108713015D01*
X71241834Y-108532057D01*
X71335194Y-108331845D01*
X71392370Y-108118463D01*
X71411623Y-107898397D01*
X73956977Y-107898397D01*
X73976229Y-108118457D01*
X73976230Y-108118465D01*
X74033404Y-108331840D01*
X74033405Y-108331842D01*
X74033406Y-108331845D01*
X74117066Y-108511256D01*
X74126766Y-108532057D01*
X74126768Y-108532061D01*
X74253470Y-108713010D01*
X74253475Y-108713016D01*
X74409678Y-108869219D01*
X74409684Y-108869224D01*
X74590633Y-108995926D01*
X74590635Y-108995927D01*
X74590638Y-108995929D01*
X74790850Y-109089289D01*
X75004232Y-109146465D01*
X75161423Y-109160217D01*
X75224298Y-109165718D01*
X75224300Y-109165718D01*
X75224302Y-109165718D01*
X75279451Y-109160893D01*
X75444368Y-109146465D01*
X75657750Y-109089289D01*
X75857962Y-108995929D01*
X76038920Y-108869221D01*
X76195126Y-108713015D01*
X76321834Y-108532057D01*
X76415194Y-108331845D01*
X76472370Y-108118463D01*
X76491623Y-107898395D01*
X76488204Y-107859319D01*
X76480533Y-107771638D01*
X76472370Y-107678327D01*
X76415194Y-107464945D01*
X76321834Y-107264734D01*
X76226425Y-107128475D01*
X76195127Y-107083776D01*
X76140262Y-107028911D01*
X76038920Y-106927569D01*
X76038916Y-106927566D01*
X76038915Y-106927565D01*
X75857966Y-106800863D01*
X75857962Y-106800861D01*
X75810757Y-106778849D01*
X75657750Y-106707501D01*
X75657747Y-106707500D01*
X75657745Y-106707499D01*
X75444370Y-106650325D01*
X75444362Y-106650324D01*
X75224302Y-106631072D01*
X75224298Y-106631072D01*
X75004237Y-106650324D01*
X75004229Y-106650325D01*
X74790854Y-106707499D01*
X74790848Y-106707502D01*
X74590640Y-106800860D01*
X74590638Y-106800861D01*
X74409677Y-106927570D01*
X74253475Y-107083772D01*
X74126766Y-107264733D01*
X74126765Y-107264735D01*
X74033407Y-107464943D01*
X74033404Y-107464949D01*
X73976230Y-107678324D01*
X73976229Y-107678332D01*
X73956977Y-107898392D01*
X73956977Y-107898397D01*
X71411623Y-107898397D01*
X71411623Y-107898395D01*
X71408204Y-107859319D01*
X71400533Y-107771638D01*
X71392370Y-107678327D01*
X71335194Y-107464945D01*
X71241834Y-107264734D01*
X71146425Y-107128475D01*
X71115127Y-107083776D01*
X71060262Y-107028911D01*
X70958920Y-106927569D01*
X70958916Y-106927566D01*
X70958915Y-106927565D01*
X70777966Y-106800863D01*
X70777962Y-106800861D01*
X70730757Y-106778849D01*
X70577750Y-106707501D01*
X70577747Y-106707500D01*
X70577745Y-106707499D01*
X70364370Y-106650325D01*
X70364362Y-106650324D01*
X70144302Y-106631072D01*
X70144298Y-106631072D01*
X69924237Y-106650324D01*
X69924229Y-106650325D01*
X69710854Y-106707499D01*
X69710848Y-106707502D01*
X69510640Y-106800860D01*
X69510638Y-106800861D01*
X69329677Y-106927570D01*
X69173475Y-107083772D01*
X69046766Y-107264733D01*
X69046765Y-107264735D01*
X68986682Y-107393584D01*
X68940509Y-107446023D01*
X68873316Y-107465175D01*
X68806435Y-107444959D01*
X68761918Y-107393584D01*
X68701834Y-107264735D01*
X68701833Y-107264733D01*
X68575127Y-107083776D01*
X68520262Y-107028911D01*
X68418920Y-106927569D01*
X68418916Y-106927566D01*
X68418915Y-106927565D01*
X68237966Y-106800863D01*
X68237962Y-106800861D01*
X68190757Y-106778849D01*
X68037750Y-106707501D01*
X68037747Y-106707500D01*
X68037745Y-106707499D01*
X67824370Y-106650325D01*
X67824362Y-106650324D01*
X67604302Y-106631072D01*
X67604298Y-106631072D01*
X67384237Y-106650324D01*
X67384229Y-106650325D01*
X67170854Y-106707499D01*
X67170848Y-106707502D01*
X66970640Y-106800860D01*
X66970638Y-106800861D01*
X66789677Y-106927570D01*
X66633475Y-107083772D01*
X66506766Y-107264733D01*
X66506765Y-107264735D01*
X66446682Y-107393584D01*
X66400509Y-107446023D01*
X66333316Y-107465175D01*
X66266435Y-107444959D01*
X66221918Y-107393584D01*
X66161834Y-107264735D01*
X66161833Y-107264733D01*
X66035127Y-107083776D01*
X65980262Y-107028911D01*
X65878920Y-106927569D01*
X65878916Y-106927566D01*
X65878915Y-106927565D01*
X65697966Y-106800863D01*
X65697962Y-106800861D01*
X65650757Y-106778849D01*
X65497750Y-106707501D01*
X65497747Y-106707500D01*
X65497745Y-106707499D01*
X65284370Y-106650325D01*
X65284362Y-106650324D01*
X65064302Y-106631072D01*
X65064298Y-106631072D01*
X64844237Y-106650324D01*
X64844229Y-106650325D01*
X64630854Y-106707499D01*
X64630848Y-106707502D01*
X64430640Y-106800860D01*
X64430638Y-106800861D01*
X64249677Y-106927570D01*
X64093475Y-107083772D01*
X63966766Y-107264733D01*
X63966765Y-107264735D01*
X63906682Y-107393584D01*
X63860509Y-107446023D01*
X63793316Y-107465175D01*
X63726435Y-107444959D01*
X63681918Y-107393584D01*
X63621834Y-107264735D01*
X63621833Y-107264733D01*
X63495127Y-107083776D01*
X63440262Y-107028911D01*
X63338920Y-106927569D01*
X63338916Y-106927566D01*
X63338915Y-106927565D01*
X63157966Y-106800863D01*
X63157962Y-106800861D01*
X63110757Y-106778849D01*
X62957750Y-106707501D01*
X62957747Y-106707500D01*
X62957745Y-106707499D01*
X62744370Y-106650325D01*
X62744362Y-106650324D01*
X62524302Y-106631072D01*
X62524298Y-106631072D01*
X62304237Y-106650324D01*
X62304229Y-106650325D01*
X62090854Y-106707499D01*
X62090848Y-106707502D01*
X61890640Y-106800860D01*
X61890638Y-106800861D01*
X61709677Y-106927570D01*
X61553475Y-107083772D01*
X61426766Y-107264733D01*
X61426765Y-107264735D01*
X61366682Y-107393584D01*
X61320509Y-107446023D01*
X61253316Y-107465175D01*
X61186435Y-107444959D01*
X61141918Y-107393584D01*
X61081834Y-107264735D01*
X61081833Y-107264733D01*
X60955127Y-107083776D01*
X60900262Y-107028911D01*
X60798920Y-106927569D01*
X60798916Y-106927566D01*
X60798915Y-106927565D01*
X60617966Y-106800863D01*
X60617962Y-106800861D01*
X60570757Y-106778849D01*
X60417750Y-106707501D01*
X60417747Y-106707500D01*
X60417745Y-106707499D01*
X60204370Y-106650325D01*
X60204362Y-106650324D01*
X59984302Y-106631072D01*
X59984298Y-106631072D01*
X59764237Y-106650324D01*
X59764229Y-106650325D01*
X59550854Y-106707499D01*
X59550848Y-106707502D01*
X59350640Y-106800860D01*
X59350638Y-106800861D01*
X59169677Y-106927570D01*
X59013475Y-107083772D01*
X58886766Y-107264733D01*
X58886765Y-107264735D01*
X58826682Y-107393584D01*
X58780509Y-107446023D01*
X58713316Y-107465175D01*
X58646435Y-107444959D01*
X58601918Y-107393584D01*
X58541834Y-107264735D01*
X58541833Y-107264733D01*
X58415127Y-107083776D01*
X58360262Y-107028911D01*
X58258920Y-106927569D01*
X58258916Y-106927566D01*
X58258915Y-106927565D01*
X58077966Y-106800863D01*
X58077962Y-106800861D01*
X58030757Y-106778849D01*
X57877750Y-106707501D01*
X57877747Y-106707500D01*
X57877745Y-106707499D01*
X57664370Y-106650325D01*
X57664362Y-106650324D01*
X57444302Y-106631072D01*
X57444298Y-106631072D01*
X57224237Y-106650324D01*
X57224229Y-106650325D01*
X57010854Y-106707499D01*
X57010848Y-106707502D01*
X56810640Y-106800860D01*
X56810638Y-106800861D01*
X56629677Y-106927570D01*
X56473475Y-107083772D01*
X56392374Y-107199598D01*
X56337797Y-107243223D01*
X56268299Y-107250417D01*
X56205944Y-107218894D01*
X56170530Y-107158665D01*
X56166799Y-107128475D01*
X56166799Y-107088524D01*
X56166798Y-107088518D01*
X56166797Y-107088511D01*
X56160391Y-107028912D01*
X56110096Y-106894064D01*
X56110095Y-106894063D01*
X56110093Y-106894059D01*
X56023847Y-106778850D01*
X56023844Y-106778847D01*
X55908635Y-106692601D01*
X55908628Y-106692597D01*
X55773782Y-106642303D01*
X55773783Y-106642303D01*
X55714183Y-106635896D01*
X55714181Y-106635895D01*
X55714173Y-106635895D01*
X55714164Y-106635895D01*
X54094429Y-106635895D01*
X54094423Y-106635896D01*
X54034816Y-106642303D01*
X53899971Y-106692597D01*
X53899964Y-106692601D01*
X53784755Y-106778847D01*
X53784752Y-106778850D01*
X53698506Y-106894059D01*
X53698502Y-106894066D01*
X53648208Y-107028912D01*
X53642310Y-107083775D01*
X53641801Y-107088518D01*
X53641800Y-107088530D01*
X53641800Y-108708265D01*
X53641801Y-108708271D01*
X53648208Y-108767878D01*
X53674651Y-108838774D01*
X53679635Y-108908466D01*
X53646150Y-108969789D01*
X53584826Y-109003273D01*
X53515135Y-108998288D01*
X53470788Y-108969788D01*
X52233319Y-107732319D01*
X52199834Y-107670996D01*
X52197000Y-107644638D01*
X52197000Y-103682800D01*
X69604940Y-103682800D01*
X69624726Y-103871056D01*
X69624727Y-103871059D01*
X69683218Y-104051077D01*
X69683221Y-104051084D01*
X69777867Y-104215016D01*
X69904529Y-104355688D01*
X70057665Y-104466948D01*
X70057670Y-104466951D01*
X70230592Y-104543942D01*
X70230597Y-104543944D01*
X70415754Y-104583300D01*
X70415755Y-104583300D01*
X70605044Y-104583300D01*
X70605046Y-104583300D01*
X70790203Y-104543944D01*
X70963130Y-104466951D01*
X71116271Y-104355688D01*
X71242933Y-104215016D01*
X71337579Y-104051084D01*
X71396074Y-103871056D01*
X71415860Y-103682800D01*
X71396074Y-103494544D01*
X71337579Y-103314516D01*
X71307373Y-103262199D01*
X71290900Y-103194301D01*
X71307374Y-103138200D01*
X71337579Y-103085884D01*
X71396074Y-102905856D01*
X71415860Y-102717600D01*
X71396074Y-102529344D01*
X71337579Y-102349316D01*
X71242933Y-102185384D01*
X71116271Y-102044712D01*
X71100129Y-102032984D01*
X70963134Y-101933451D01*
X70963129Y-101933448D01*
X70790207Y-101856457D01*
X70790202Y-101856455D01*
X70644401Y-101825465D01*
X70605046Y-101817100D01*
X70415754Y-101817100D01*
X70383297Y-101823998D01*
X70230597Y-101856455D01*
X70230592Y-101856457D01*
X70057670Y-101933448D01*
X70057665Y-101933451D01*
X69904529Y-102044711D01*
X69777866Y-102185385D01*
X69683221Y-102349315D01*
X69683218Y-102349322D01*
X69624727Y-102529340D01*
X69624726Y-102529344D01*
X69604940Y-102717600D01*
X69624726Y-102905856D01*
X69624727Y-102905859D01*
X69683221Y-103085885D01*
X69713425Y-103138200D01*
X69729898Y-103206100D01*
X69713425Y-103262200D01*
X69683221Y-103314514D01*
X69634098Y-103465700D01*
X69624726Y-103494544D01*
X69604940Y-103682800D01*
X52197000Y-103682800D01*
X52197000Y-97485200D01*
X67369740Y-97485200D01*
X67389526Y-97673456D01*
X67389527Y-97673459D01*
X67448018Y-97853477D01*
X67448021Y-97853484D01*
X67542667Y-98017416D01*
X67555183Y-98031316D01*
X67669329Y-98158088D01*
X67822465Y-98269348D01*
X67822470Y-98269351D01*
X67995392Y-98346342D01*
X67995397Y-98346344D01*
X68180554Y-98385700D01*
X68180555Y-98385700D01*
X68369844Y-98385700D01*
X68369846Y-98385700D01*
X68555003Y-98346344D01*
X68727930Y-98269351D01*
X68881071Y-98158088D01*
X69007733Y-98017416D01*
X69102379Y-97853484D01*
X69160874Y-97673456D01*
X69180660Y-97485200D01*
X69160874Y-97296944D01*
X69126808Y-97192099D01*
X69124813Y-97122258D01*
X69160893Y-97062425D01*
X69194298Y-97040504D01*
X69286730Y-96999351D01*
X69439871Y-96888088D01*
X69566533Y-96747416D01*
X69661179Y-96583484D01*
X69719674Y-96403456D01*
X69739460Y-96215200D01*
X69719674Y-96026944D01*
X69661179Y-95846916D01*
X69566533Y-95682984D01*
X69439871Y-95542312D01*
X69407708Y-95518944D01*
X69286734Y-95431051D01*
X69286729Y-95431048D01*
X69113807Y-95354057D01*
X69113802Y-95354055D01*
X68968001Y-95323065D01*
X68928646Y-95314700D01*
X68739354Y-95314700D01*
X68706897Y-95321598D01*
X68554197Y-95354055D01*
X68554192Y-95354057D01*
X68381270Y-95431048D01*
X68381265Y-95431051D01*
X68228129Y-95542311D01*
X68101466Y-95682985D01*
X68006821Y-95846915D01*
X68006818Y-95846922D01*
X67982072Y-95923084D01*
X67948326Y-96026944D01*
X67928540Y-96215200D01*
X67948326Y-96403456D01*
X67948326Y-96403458D01*
X67948327Y-96403460D01*
X67982391Y-96508301D01*
X67984386Y-96578142D01*
X67948305Y-96637975D01*
X67914897Y-96659897D01*
X67822467Y-96701050D01*
X67822465Y-96701051D01*
X67669329Y-96812311D01*
X67542666Y-96952985D01*
X67448021Y-97116915D01*
X67448018Y-97116922D01*
X67423592Y-97192099D01*
X67389526Y-97296944D01*
X67369740Y-97485200D01*
X52197000Y-97485200D01*
X52197000Y-91491362D01*
X52216685Y-91424323D01*
X52233319Y-91403681D01*
X55117999Y-88519001D01*
X60732390Y-88519001D01*
X60752804Y-88804433D01*
X60813628Y-89084037D01*
X60813630Y-89084043D01*
X60813631Y-89084046D01*
X60905597Y-89330616D01*
X60913635Y-89352166D01*
X61050770Y-89603309D01*
X61050775Y-89603317D01*
X61222254Y-89832387D01*
X61222270Y-89832405D01*
X61424594Y-90034729D01*
X61424612Y-90034745D01*
X61653682Y-90206224D01*
X61653690Y-90206229D01*
X61904833Y-90343364D01*
X61904832Y-90343364D01*
X61904836Y-90343365D01*
X61904839Y-90343367D01*
X62172954Y-90443369D01*
X62172960Y-90443370D01*
X62172962Y-90443371D01*
X62452566Y-90504195D01*
X62452568Y-90504195D01*
X62452572Y-90504196D01*
X62706220Y-90522337D01*
X62737999Y-90524610D01*
X62738000Y-90524610D01*
X62738001Y-90524610D01*
X62766595Y-90522564D01*
X63023428Y-90504196D01*
X63047241Y-90499016D01*
X63303037Y-90443371D01*
X63303037Y-90443370D01*
X63303046Y-90443369D01*
X63571161Y-90343367D01*
X63822315Y-90206226D01*
X64051395Y-90034739D01*
X64253739Y-89832395D01*
X64425226Y-89603315D01*
X64562367Y-89352161D01*
X64662369Y-89084046D01*
X64713447Y-88849242D01*
X64746931Y-88787920D01*
X64808255Y-88754435D01*
X64877946Y-88759419D01*
X64933880Y-88801290D01*
X64955779Y-88849242D01*
X64979229Y-88957037D01*
X64979231Y-88957046D01*
X65079233Y-89225161D01*
X65079235Y-89225166D01*
X65216370Y-89476309D01*
X65216375Y-89476317D01*
X65387854Y-89705387D01*
X65387870Y-89705405D01*
X65590194Y-89907729D01*
X65590212Y-89907745D01*
X65819282Y-90079224D01*
X65819290Y-90079229D01*
X66070433Y-90216364D01*
X66070432Y-90216364D01*
X66070436Y-90216365D01*
X66070439Y-90216367D01*
X66338554Y-90316369D01*
X66338560Y-90316370D01*
X66338562Y-90316371D01*
X66618166Y-90377195D01*
X66618168Y-90377195D01*
X66618172Y-90377196D01*
X66871820Y-90395337D01*
X66903599Y-90397610D01*
X66903600Y-90397610D01*
X66903601Y-90397610D01*
X66932195Y-90395564D01*
X67189028Y-90377196D01*
X67310797Y-90350707D01*
X67468637Y-90316371D01*
X67468637Y-90316370D01*
X67468646Y-90316369D01*
X67736761Y-90216367D01*
X67987915Y-90079226D01*
X68216995Y-89907739D01*
X68419339Y-89705395D01*
X68590826Y-89476315D01*
X68727967Y-89225161D01*
X68827969Y-88957046D01*
X68851420Y-88849242D01*
X68862480Y-88798400D01*
X74227740Y-88798400D01*
X74247526Y-88986656D01*
X74247527Y-88986659D01*
X74306018Y-89166677D01*
X74306021Y-89166684D01*
X74400667Y-89330616D01*
X74527329Y-89471288D01*
X74637629Y-89551426D01*
X74680295Y-89606756D01*
X74686274Y-89676369D01*
X74682675Y-89690061D01*
X74653927Y-89778539D01*
X74653927Y-89778540D01*
X74653926Y-89778544D01*
X74634140Y-89966800D01*
X74653926Y-90155056D01*
X74653927Y-90155059D01*
X74712418Y-90335077D01*
X74712421Y-90335084D01*
X74807067Y-90499016D01*
X74874533Y-90573944D01*
X74933729Y-90639688D01*
X75086868Y-90750950D01*
X75087855Y-90751520D01*
X75088311Y-90751999D01*
X75092127Y-90754771D01*
X75091620Y-90755468D01*
X75136070Y-90802087D01*
X75149294Y-90870694D01*
X75143786Y-90897225D01*
X75111127Y-90997740D01*
X75111126Y-90997744D01*
X75091340Y-91186000D01*
X75111126Y-91374256D01*
X75111127Y-91374259D01*
X75169618Y-91554277D01*
X75169621Y-91554284D01*
X75264267Y-91718216D01*
X75275688Y-91730900D01*
X75390929Y-91858888D01*
X75544065Y-91970148D01*
X75544070Y-91970151D01*
X75549099Y-91972390D01*
X75602336Y-92017640D01*
X75622657Y-92084489D01*
X75619956Y-92111440D01*
X75619126Y-92115342D01*
X75599340Y-92303600D01*
X75619126Y-92491856D01*
X75619127Y-92491859D01*
X75677618Y-92671877D01*
X75677621Y-92671884D01*
X75772267Y-92835816D01*
X75839733Y-92910744D01*
X75898929Y-92976488D01*
X76052065Y-93087748D01*
X76052070Y-93087751D01*
X76224992Y-93164742D01*
X76224997Y-93164744D01*
X76410154Y-93204100D01*
X76410155Y-93204100D01*
X76599444Y-93204100D01*
X76599446Y-93204100D01*
X76784603Y-93164744D01*
X76957530Y-93087751D01*
X77110671Y-92976488D01*
X77237333Y-92835816D01*
X77331979Y-92671884D01*
X77390474Y-92491856D01*
X77410260Y-92303600D01*
X77390474Y-92115344D01*
X77331979Y-91935316D01*
X77237333Y-91771384D01*
X77110671Y-91630712D01*
X77110670Y-91630711D01*
X76957532Y-91519449D01*
X76952499Y-91517209D01*
X76899263Y-91471958D01*
X76878942Y-91405109D01*
X76881647Y-91378143D01*
X76882471Y-91374264D01*
X76882474Y-91374256D01*
X76902260Y-91186000D01*
X76882474Y-90997744D01*
X76823979Y-90817716D01*
X76729333Y-90653784D01*
X76602671Y-90513112D01*
X76602670Y-90513111D01*
X76449528Y-90401847D01*
X76448539Y-90401276D01*
X76448081Y-90400795D01*
X76444273Y-90398029D01*
X76444779Y-90397332D01*
X76400326Y-90350707D01*
X76387106Y-90282099D01*
X76392611Y-90255580D01*
X76425274Y-90155056D01*
X76445060Y-89966800D01*
X76425274Y-89778544D01*
X76366779Y-89598516D01*
X76272133Y-89434584D01*
X76145471Y-89293912D01*
X76035169Y-89213773D01*
X75992504Y-89158443D01*
X75986525Y-89088829D01*
X75990120Y-89075150D01*
X76018874Y-88986656D01*
X76038660Y-88798400D01*
X76018874Y-88610144D01*
X75960379Y-88430116D01*
X75865733Y-88266184D01*
X75739071Y-88125512D01*
X75739070Y-88125511D01*
X75585934Y-88014251D01*
X75585929Y-88014248D01*
X75413007Y-87937257D01*
X75413002Y-87937255D01*
X75267201Y-87906265D01*
X75227846Y-87897900D01*
X75038554Y-87897900D01*
X75006097Y-87904798D01*
X74853397Y-87937255D01*
X74853392Y-87937257D01*
X74680470Y-88014248D01*
X74680465Y-88014251D01*
X74527329Y-88125511D01*
X74400666Y-88266185D01*
X74306021Y-88430115D01*
X74306018Y-88430122D01*
X74277140Y-88519001D01*
X74247526Y-88610144D01*
X74227740Y-88798400D01*
X68862480Y-88798400D01*
X68888795Y-88677433D01*
X68888795Y-88677432D01*
X68888796Y-88677428D01*
X68909210Y-88392000D01*
X68888796Y-88106572D01*
X68868712Y-88014249D01*
X68827971Y-87826962D01*
X68827970Y-87826960D01*
X68827969Y-87826954D01*
X68727967Y-87558839D01*
X68660176Y-87434690D01*
X68590829Y-87307690D01*
X68590824Y-87307682D01*
X68419345Y-87078612D01*
X68419329Y-87078594D01*
X68217005Y-86876270D01*
X68216987Y-86876254D01*
X67987917Y-86704775D01*
X67987909Y-86704770D01*
X67736766Y-86567635D01*
X67736767Y-86567635D01*
X67591330Y-86513390D01*
X67468646Y-86467631D01*
X67468643Y-86467630D01*
X67468637Y-86467628D01*
X67189033Y-86406804D01*
X66903601Y-86386390D01*
X66903599Y-86386390D01*
X66618166Y-86406804D01*
X66338562Y-86467628D01*
X66070433Y-86567635D01*
X65819290Y-86704770D01*
X65819282Y-86704775D01*
X65590212Y-86876254D01*
X65590194Y-86876270D01*
X65387870Y-87078594D01*
X65387854Y-87078612D01*
X65216375Y-87307682D01*
X65216370Y-87307690D01*
X65079235Y-87558833D01*
X64979228Y-87826962D01*
X64928152Y-88061756D01*
X64894667Y-88123079D01*
X64833344Y-88156564D01*
X64763652Y-88151580D01*
X64707719Y-88109708D01*
X64685820Y-88061756D01*
X64662371Y-87953962D01*
X64662370Y-87953960D01*
X64662369Y-87953954D01*
X64562367Y-87685839D01*
X64497318Y-87566712D01*
X64425229Y-87434690D01*
X64425224Y-87434682D01*
X64253745Y-87205612D01*
X64253729Y-87205594D01*
X64051405Y-87003270D01*
X64051387Y-87003254D01*
X63822317Y-86831775D01*
X63822309Y-86831770D01*
X63571166Y-86694635D01*
X63571167Y-86694635D01*
X63463915Y-86654632D01*
X63303046Y-86594631D01*
X63303043Y-86594630D01*
X63303037Y-86594628D01*
X63023433Y-86533804D01*
X62738001Y-86513390D01*
X62737999Y-86513390D01*
X62452566Y-86533804D01*
X62172962Y-86594628D01*
X61904833Y-86694635D01*
X61653690Y-86831770D01*
X61653682Y-86831775D01*
X61424612Y-87003254D01*
X61424594Y-87003270D01*
X61222270Y-87205594D01*
X61222254Y-87205612D01*
X61050775Y-87434682D01*
X61050770Y-87434690D01*
X60913635Y-87685833D01*
X60813628Y-87953962D01*
X60752804Y-88233566D01*
X60732390Y-88518998D01*
X60732390Y-88519001D01*
X55117999Y-88519001D01*
X56732681Y-86904319D01*
X56794004Y-86870834D01*
X56820362Y-86868000D01*
X59817000Y-86868000D01*
X62103000Y-84582000D01*
X62103000Y-83261200D01*
X62950140Y-83261200D01*
X62969926Y-83449456D01*
X62969927Y-83449459D01*
X63028418Y-83629477D01*
X63028421Y-83629484D01*
X63123067Y-83793416D01*
X63192744Y-83870800D01*
X63249729Y-83934088D01*
X63402865Y-84045348D01*
X63402870Y-84045351D01*
X63575792Y-84122342D01*
X63575797Y-84122344D01*
X63760954Y-84161700D01*
X63760955Y-84161700D01*
X63950244Y-84161700D01*
X63950246Y-84161700D01*
X64135403Y-84122344D01*
X64308330Y-84045351D01*
X64461471Y-83934088D01*
X64588133Y-83793416D01*
X64682779Y-83629484D01*
X64741274Y-83449456D01*
X64761060Y-83261200D01*
X64741274Y-83072944D01*
X64682779Y-82892916D01*
X64588133Y-82728984D01*
X64564197Y-82702400D01*
X67014140Y-82702400D01*
X67033926Y-82890656D01*
X67033927Y-82890659D01*
X67092418Y-83070677D01*
X67092421Y-83070684D01*
X67187067Y-83234616D01*
X67313729Y-83375288D01*
X67466865Y-83486548D01*
X67466870Y-83486551D01*
X67639792Y-83563542D01*
X67639797Y-83563544D01*
X67824954Y-83602900D01*
X67824955Y-83602900D01*
X68014244Y-83602900D01*
X68014246Y-83602900D01*
X68199403Y-83563544D01*
X68372330Y-83486551D01*
X68525471Y-83375288D01*
X68652133Y-83234616D01*
X68746779Y-83070684D01*
X68805274Y-82890656D01*
X68825060Y-82702400D01*
X68805274Y-82514144D01*
X68746779Y-82334116D01*
X68652133Y-82170184D01*
X68525471Y-82029512D01*
X68522091Y-82027056D01*
X68372334Y-81918251D01*
X68372329Y-81918248D01*
X68199407Y-81841257D01*
X68199402Y-81841255D01*
X68053601Y-81810265D01*
X68014246Y-81801900D01*
X67824954Y-81801900D01*
X67792497Y-81808798D01*
X67639797Y-81841255D01*
X67639792Y-81841257D01*
X67466870Y-81918248D01*
X67466865Y-81918251D01*
X67313729Y-82029511D01*
X67187066Y-82170185D01*
X67092421Y-82334115D01*
X67092418Y-82334122D01*
X67036849Y-82505148D01*
X67033926Y-82514144D01*
X67014140Y-82702400D01*
X64564197Y-82702400D01*
X64461471Y-82588312D01*
X64461470Y-82588311D01*
X64308334Y-82477051D01*
X64308329Y-82477048D01*
X64135407Y-82400057D01*
X64135402Y-82400055D01*
X63989601Y-82369065D01*
X63950246Y-82360700D01*
X63760954Y-82360700D01*
X63728497Y-82367598D01*
X63575797Y-82400055D01*
X63575792Y-82400057D01*
X63402870Y-82477048D01*
X63402865Y-82477051D01*
X63249729Y-82588311D01*
X63123066Y-82728985D01*
X63028421Y-82892915D01*
X63028418Y-82892922D01*
X62970660Y-83070684D01*
X62969926Y-83072944D01*
X62950140Y-83261200D01*
X62103000Y-83261200D01*
X62103000Y-82001910D01*
X62103679Y-81988949D01*
X62119460Y-81838800D01*
X62107079Y-81721000D01*
X73465740Y-81721000D01*
X73485526Y-81909256D01*
X73485527Y-81909259D01*
X73544018Y-82089277D01*
X73544021Y-82089284D01*
X73638667Y-82253216D01*
X73735446Y-82360700D01*
X73765329Y-82393888D01*
X73918465Y-82505148D01*
X73918470Y-82505151D01*
X74091392Y-82582142D01*
X74091397Y-82582144D01*
X74276554Y-82621500D01*
X74276555Y-82621500D01*
X74465844Y-82621500D01*
X74465846Y-82621500D01*
X74651003Y-82582144D01*
X74823930Y-82505151D01*
X74977071Y-82393888D01*
X75103733Y-82253216D01*
X75198379Y-82089284D01*
X75256874Y-81909256D01*
X75276660Y-81721000D01*
X75256874Y-81532744D01*
X75198379Y-81352716D01*
X75103733Y-81188784D01*
X74977071Y-81048112D01*
X74960904Y-81036366D01*
X74823934Y-80936851D01*
X74823929Y-80936848D01*
X74651007Y-80859857D01*
X74651002Y-80859855D01*
X74505201Y-80828865D01*
X74465846Y-80820500D01*
X74276554Y-80820500D01*
X74244097Y-80827398D01*
X74091397Y-80859855D01*
X74091392Y-80859857D01*
X73918470Y-80936848D01*
X73918465Y-80936851D01*
X73765329Y-81048111D01*
X73638666Y-81188785D01*
X73544021Y-81352715D01*
X73544018Y-81352722D01*
X73505745Y-81470516D01*
X73485526Y-81532744D01*
X73465740Y-81721000D01*
X62107079Y-81721000D01*
X62103679Y-81688649D01*
X62103000Y-81675688D01*
X62103000Y-80162400D01*
X80730140Y-80162400D01*
X80749926Y-80350656D01*
X80749927Y-80350659D01*
X80808418Y-80530677D01*
X80808421Y-80530684D01*
X80903067Y-80694616D01*
X80979076Y-80779032D01*
X81029729Y-80835288D01*
X81054212Y-80853076D01*
X81096878Y-80908406D01*
X81102857Y-80978019D01*
X81073477Y-81036366D01*
X80997466Y-81120785D01*
X80902821Y-81284715D01*
X80902818Y-81284722D01*
X80844327Y-81464740D01*
X80844326Y-81464744D01*
X80824540Y-81653000D01*
X80844326Y-81841256D01*
X80844327Y-81841259D01*
X80902818Y-82021277D01*
X80902821Y-82021284D01*
X80997467Y-82185216D01*
X81058693Y-82253214D01*
X81124129Y-82325888D01*
X81277265Y-82437148D01*
X81277270Y-82437151D01*
X81450192Y-82514142D01*
X81450197Y-82514144D01*
X81635354Y-82553500D01*
X81635355Y-82553500D01*
X81824644Y-82553500D01*
X81824646Y-82553500D01*
X82009803Y-82514144D01*
X82182730Y-82437151D01*
X82335871Y-82325888D01*
X82462533Y-82185216D01*
X82557179Y-82021284D01*
X82615674Y-81841256D01*
X82635460Y-81653000D01*
X82615674Y-81464744D01*
X82557179Y-81284716D01*
X82462533Y-81120784D01*
X82335871Y-80980112D01*
X82311385Y-80962322D01*
X82268721Y-80906993D01*
X82262742Y-80837379D01*
X82292121Y-80779035D01*
X82368133Y-80694616D01*
X82462779Y-80530684D01*
X82521274Y-80350656D01*
X82541060Y-80162400D01*
X82521274Y-79974144D01*
X82462779Y-79794116D01*
X82368133Y-79630184D01*
X82241471Y-79489512D01*
X82241470Y-79489511D01*
X82088334Y-79378251D01*
X82088329Y-79378248D01*
X81915407Y-79301257D01*
X81915402Y-79301255D01*
X81769601Y-79270265D01*
X81730246Y-79261900D01*
X81540954Y-79261900D01*
X81508497Y-79268798D01*
X81355797Y-79301255D01*
X81355792Y-79301257D01*
X81182870Y-79378248D01*
X81182865Y-79378251D01*
X81029729Y-79489511D01*
X80903066Y-79630185D01*
X80808421Y-79794115D01*
X80808418Y-79794122D01*
X80749927Y-79974140D01*
X80749926Y-79974144D01*
X80730140Y-80162400D01*
X62103000Y-80162400D01*
X62103000Y-78232000D01*
X61341000Y-77470000D01*
X66099740Y-77470000D01*
X66119526Y-77658256D01*
X66119527Y-77658259D01*
X66178018Y-77838277D01*
X66178021Y-77838284D01*
X66272667Y-78002216D01*
X66399329Y-78142888D01*
X66552465Y-78254148D01*
X66552470Y-78254151D01*
X66725392Y-78331142D01*
X66725397Y-78331144D01*
X66910554Y-78370500D01*
X66910555Y-78370500D01*
X67099844Y-78370500D01*
X67099846Y-78370500D01*
X67285003Y-78331144D01*
X67457930Y-78254151D01*
X67611071Y-78142888D01*
X67617766Y-78135453D01*
X70920687Y-78135453D01*
X70940473Y-78323709D01*
X70940474Y-78323712D01*
X70998965Y-78503730D01*
X70998968Y-78503737D01*
X71093614Y-78667669D01*
X71220276Y-78808341D01*
X71373412Y-78919601D01*
X71373417Y-78919604D01*
X71546339Y-78996595D01*
X71546344Y-78996597D01*
X71731501Y-79035953D01*
X71731502Y-79035953D01*
X71920791Y-79035953D01*
X71920793Y-79035953D01*
X72105950Y-78996597D01*
X72278877Y-78919604D01*
X72432018Y-78808341D01*
X72558680Y-78667669D01*
X72653326Y-78503737D01*
X72711821Y-78323709D01*
X72731607Y-78135453D01*
X72711821Y-77947197D01*
X72653326Y-77767169D01*
X72610202Y-77692476D01*
X72593730Y-77624579D01*
X72616582Y-77558552D01*
X72671503Y-77515362D01*
X72741057Y-77508720D01*
X72768026Y-77517199D01*
X72770597Y-77518344D01*
X72955754Y-77557700D01*
X72955755Y-77557700D01*
X73145044Y-77557700D01*
X73145046Y-77557700D01*
X73330203Y-77518344D01*
X73503130Y-77441351D01*
X73612517Y-77361876D01*
X73678320Y-77338398D01*
X73746374Y-77354223D01*
X73758271Y-77361868D01*
X73867666Y-77441348D01*
X73867670Y-77441351D01*
X74040592Y-77518342D01*
X74040597Y-77518344D01*
X74225754Y-77557700D01*
X74225755Y-77557700D01*
X74415044Y-77557700D01*
X74415046Y-77557700D01*
X74600203Y-77518344D01*
X74773130Y-77441351D01*
X74926271Y-77330088D01*
X75052933Y-77189416D01*
X75147579Y-77025484D01*
X75206074Y-76845456D01*
X75225860Y-76657200D01*
X75206074Y-76468944D01*
X75147579Y-76288916D01*
X75119991Y-76241133D01*
X75103519Y-76173233D01*
X75126372Y-76107207D01*
X75154494Y-76078815D01*
X75180271Y-76060088D01*
X75290341Y-75937842D01*
X75349825Y-75901195D01*
X75419682Y-75902525D01*
X75432918Y-75907534D01*
X75513797Y-75943544D01*
X75698954Y-75982900D01*
X75698955Y-75982900D01*
X75888244Y-75982900D01*
X75888246Y-75982900D01*
X76073403Y-75943544D01*
X76246330Y-75866551D01*
X76399471Y-75755288D01*
X76526133Y-75614616D01*
X76620779Y-75450684D01*
X76679274Y-75270656D01*
X76699060Y-75082400D01*
X76679274Y-74894144D01*
X76620779Y-74714116D01*
X76526133Y-74550184D01*
X76399471Y-74409512D01*
X76399470Y-74409511D01*
X76246334Y-74298251D01*
X76246329Y-74298248D01*
X76073407Y-74221257D01*
X76073402Y-74221255D01*
X75927601Y-74190265D01*
X75888246Y-74181900D01*
X75787604Y-74181900D01*
X75720565Y-74162215D01*
X75674810Y-74109411D01*
X75664866Y-74040253D01*
X75680217Y-73995900D01*
X75684081Y-73989208D01*
X75720179Y-73926684D01*
X75778674Y-73746656D01*
X75798460Y-73558400D01*
X75778674Y-73370144D01*
X75720179Y-73190116D01*
X75625533Y-73026184D01*
X75498871Y-72885512D01*
X75466708Y-72862144D01*
X75345734Y-72774251D01*
X75345729Y-72774248D01*
X75172807Y-72697257D01*
X75172802Y-72697255D01*
X75027001Y-72666265D01*
X74987646Y-72657900D01*
X74798354Y-72657900D01*
X74765897Y-72664798D01*
X74613197Y-72697255D01*
X74613192Y-72697257D01*
X74440270Y-72774248D01*
X74440265Y-72774251D01*
X74287129Y-72885511D01*
X74160466Y-73026185D01*
X74065821Y-73190115D01*
X74065818Y-73190122D01*
X74007327Y-73370140D01*
X74007326Y-73370144D01*
X73987540Y-73558400D01*
X74007326Y-73746656D01*
X74007327Y-73746659D01*
X74065818Y-73926677D01*
X74065821Y-73926684D01*
X74160467Y-74090616D01*
X74242660Y-74181900D01*
X74287129Y-74231288D01*
X74377385Y-74296863D01*
X74420051Y-74352193D01*
X74426030Y-74421806D01*
X74393424Y-74483601D01*
X74332586Y-74517958D01*
X74330281Y-74518471D01*
X74294597Y-74526055D01*
X74294592Y-74526057D01*
X74121670Y-74603048D01*
X74121665Y-74603051D01*
X73968529Y-74714311D01*
X73841866Y-74854985D01*
X73747221Y-75018915D01*
X73747218Y-75018922D01*
X73688727Y-75198940D01*
X73688726Y-75198944D01*
X73668940Y-75387200D01*
X73688726Y-75575456D01*
X73688727Y-75575459D01*
X73747221Y-75755486D01*
X73748825Y-75758264D01*
X73749264Y-75760075D01*
X73749864Y-75761422D01*
X73749617Y-75761531D01*
X73765296Y-75826164D01*
X73742443Y-75892191D01*
X73687521Y-75935380D01*
X73617968Y-75942021D01*
X73568552Y-75920580D01*
X73503134Y-75873051D01*
X73503129Y-75873048D01*
X73330207Y-75796057D01*
X73330202Y-75796055D01*
X73160924Y-75760075D01*
X73145046Y-75756700D01*
X72955754Y-75756700D01*
X72939876Y-75760075D01*
X72770597Y-75796055D01*
X72770592Y-75796057D01*
X72597670Y-75873048D01*
X72597665Y-75873051D01*
X72444529Y-75984311D01*
X72317866Y-76124985D01*
X72223221Y-76288915D01*
X72223218Y-76288922D01*
X72190943Y-76388256D01*
X72164726Y-76468944D01*
X72144940Y-76657200D01*
X72164726Y-76845456D01*
X72164727Y-76845459D01*
X72223218Y-77025477D01*
X72223221Y-77025484D01*
X72266343Y-77100173D01*
X72282816Y-77168073D01*
X72259963Y-77234100D01*
X72205042Y-77277291D01*
X72135489Y-77283932D01*
X72108527Y-77275455D01*
X72105958Y-77274311D01*
X72105949Y-77274308D01*
X71960148Y-77243318D01*
X71920793Y-77234953D01*
X71731501Y-77234953D01*
X71699044Y-77241851D01*
X71546344Y-77274308D01*
X71546339Y-77274310D01*
X71373417Y-77351301D01*
X71373412Y-77351304D01*
X71220276Y-77462564D01*
X71093613Y-77603238D01*
X70998968Y-77767168D01*
X70998965Y-77767175D01*
X70940474Y-77947193D01*
X70940473Y-77947197D01*
X70920687Y-78135453D01*
X67617766Y-78135453D01*
X67737733Y-78002216D01*
X67832379Y-77838284D01*
X67890874Y-77658256D01*
X67910660Y-77470000D01*
X67893190Y-77303785D01*
X67905759Y-77235058D01*
X67953491Y-77184034D01*
X68021232Y-77166916D01*
X68066947Y-77177547D01*
X68147797Y-77213544D01*
X68332954Y-77252900D01*
X68332955Y-77252900D01*
X68522244Y-77252900D01*
X68522246Y-77252900D01*
X68707403Y-77213544D01*
X68880330Y-77136551D01*
X69033471Y-77025288D01*
X69160133Y-76884616D01*
X69254779Y-76720684D01*
X69313274Y-76540656D01*
X69333060Y-76352400D01*
X69313274Y-76164144D01*
X69254779Y-75984116D01*
X69160133Y-75820184D01*
X69033471Y-75679512D01*
X69033470Y-75679511D01*
X68880334Y-75568251D01*
X68880329Y-75568248D01*
X68707407Y-75491257D01*
X68707402Y-75491255D01*
X68561601Y-75460265D01*
X68522246Y-75451900D01*
X68332954Y-75451900D01*
X68300497Y-75458798D01*
X68147797Y-75491255D01*
X68147792Y-75491257D01*
X67974870Y-75568248D01*
X67974866Y-75568251D01*
X67867659Y-75646140D01*
X67801853Y-75669619D01*
X67733799Y-75653793D01*
X67702625Y-75628793D01*
X67659162Y-75580523D01*
X67611071Y-75527112D01*
X67561721Y-75491257D01*
X67457934Y-75415851D01*
X67457929Y-75415848D01*
X67285007Y-75338857D01*
X67285002Y-75338855D01*
X67139201Y-75307865D01*
X67099846Y-75299500D01*
X66910554Y-75299500D01*
X66878097Y-75306398D01*
X66725397Y-75338855D01*
X66725392Y-75338857D01*
X66552470Y-75415848D01*
X66552465Y-75415851D01*
X66399329Y-75527111D01*
X66272666Y-75667785D01*
X66178021Y-75831715D01*
X66178018Y-75831722D01*
X66128439Y-75984312D01*
X66119526Y-76011744D01*
X66099740Y-76200000D01*
X66119526Y-76388256D01*
X66119527Y-76388259D01*
X66178018Y-76568277D01*
X66178021Y-76568284D01*
X66272667Y-76732216D01*
X66283006Y-76743699D01*
X66290507Y-76752030D01*
X66320735Y-76815022D01*
X66312109Y-76884357D01*
X66290507Y-76917970D01*
X66272666Y-76937785D01*
X66178021Y-77101715D01*
X66178018Y-77101722D01*
X66121941Y-77274310D01*
X66119526Y-77281744D01*
X66099740Y-77470000D01*
X61341000Y-77470000D01*
X60121800Y-76250800D01*
X62696140Y-76250800D01*
X62715926Y-76439056D01*
X62715927Y-76439059D01*
X62774418Y-76619077D01*
X62774421Y-76619084D01*
X62869067Y-76783016D01*
X62995729Y-76923688D01*
X63148865Y-77034948D01*
X63148870Y-77034951D01*
X63321792Y-77111942D01*
X63321797Y-77111944D01*
X63506954Y-77151300D01*
X63506955Y-77151300D01*
X63696244Y-77151300D01*
X63696246Y-77151300D01*
X63867067Y-77114991D01*
X63936733Y-77120307D01*
X63965782Y-77138008D01*
X63966661Y-77136799D01*
X64125055Y-77251879D01*
X64125060Y-77251882D01*
X64297982Y-77328873D01*
X64297987Y-77328875D01*
X64483144Y-77368231D01*
X64483145Y-77368231D01*
X64672434Y-77368231D01*
X64672436Y-77368231D01*
X64857593Y-77328875D01*
X65030520Y-77251882D01*
X65183661Y-77140619D01*
X65310323Y-76999947D01*
X65404969Y-76836015D01*
X65463464Y-76655987D01*
X65483250Y-76467731D01*
X65463464Y-76279475D01*
X65404969Y-76099447D01*
X65310323Y-75935515D01*
X65183661Y-75794843D01*
X65135807Y-75760075D01*
X65030524Y-75683582D01*
X65030519Y-75683579D01*
X64857597Y-75606588D01*
X64857592Y-75606586D01*
X64711132Y-75575456D01*
X64672436Y-75567231D01*
X64483144Y-75567231D01*
X64483142Y-75567231D01*
X64312322Y-75603539D01*
X64242655Y-75598223D01*
X64213606Y-75580523D01*
X64212729Y-75581732D01*
X64054334Y-75466651D01*
X64054329Y-75466648D01*
X63881407Y-75389657D01*
X63881402Y-75389655D01*
X63735601Y-75358665D01*
X63696246Y-75350300D01*
X63506954Y-75350300D01*
X63474497Y-75357198D01*
X63321797Y-75389655D01*
X63321792Y-75389657D01*
X63148870Y-75466648D01*
X63148865Y-75466651D01*
X62995729Y-75577911D01*
X62869066Y-75718585D01*
X62774421Y-75882515D01*
X62774418Y-75882522D01*
X62741345Y-75984312D01*
X62715926Y-76062544D01*
X62696140Y-76250800D01*
X60121800Y-76250800D01*
X59309000Y-75438000D01*
X53264362Y-75438000D01*
X53197323Y-75418315D01*
X53176681Y-75401681D01*
X49185319Y-71410319D01*
X49151834Y-71348996D01*
X49149000Y-71322638D01*
X49149000Y-71272400D01*
X52739340Y-71272400D01*
X52759126Y-71460656D01*
X52759127Y-71460659D01*
X52817618Y-71640677D01*
X52817621Y-71640684D01*
X52912267Y-71804616D01*
X53038929Y-71945288D01*
X53192065Y-72056548D01*
X53192070Y-72056551D01*
X53364992Y-72133542D01*
X53364997Y-72133544D01*
X53550154Y-72172900D01*
X53550155Y-72172900D01*
X53739444Y-72172900D01*
X53739446Y-72172900D01*
X53924603Y-72133544D01*
X54097530Y-72056551D01*
X54146062Y-72021290D01*
X54211866Y-71997810D01*
X54279921Y-72013635D01*
X54328616Y-72063740D01*
X54336877Y-72083286D01*
X54341618Y-72097878D01*
X54341621Y-72097884D01*
X54436267Y-72261816D01*
X54561757Y-72401186D01*
X54562929Y-72402488D01*
X54716065Y-72513748D01*
X54716070Y-72513751D01*
X54888992Y-72590742D01*
X54888997Y-72590744D01*
X55074154Y-72630100D01*
X55074155Y-72630100D01*
X55263444Y-72630100D01*
X55263446Y-72630100D01*
X55448603Y-72590744D01*
X55621530Y-72513751D01*
X55743993Y-72424776D01*
X55809795Y-72401298D01*
X55877849Y-72417123D01*
X55926544Y-72467229D01*
X55940420Y-72535707D01*
X55940197Y-72538049D01*
X55939740Y-72542400D01*
X55959526Y-72730656D01*
X55959527Y-72730659D01*
X56018018Y-72910677D01*
X56018021Y-72910684D01*
X56112667Y-73074616D01*
X56239329Y-73215288D01*
X56392465Y-73326548D01*
X56392470Y-73326551D01*
X56565392Y-73403542D01*
X56565397Y-73403544D01*
X56750554Y-73442900D01*
X56750555Y-73442900D01*
X56939844Y-73442900D01*
X56939846Y-73442900D01*
X57125003Y-73403544D01*
X57297930Y-73326551D01*
X57451071Y-73215288D01*
X57577733Y-73074616D01*
X57591714Y-73050400D01*
X66252140Y-73050400D01*
X66271926Y-73238656D01*
X66271927Y-73238659D01*
X66330418Y-73418677D01*
X66330421Y-73418684D01*
X66425067Y-73582616D01*
X66551729Y-73723288D01*
X66704865Y-73834548D01*
X66704870Y-73834551D01*
X66877792Y-73911542D01*
X66877797Y-73911544D01*
X67062954Y-73950900D01*
X67062955Y-73950900D01*
X67252244Y-73950900D01*
X67252246Y-73950900D01*
X67437403Y-73911544D01*
X67610330Y-73834551D01*
X67763471Y-73723288D01*
X67890133Y-73582616D01*
X67984779Y-73418684D01*
X68043274Y-73238656D01*
X68063060Y-73050400D01*
X68043274Y-72862144D01*
X68040529Y-72853698D01*
X68038531Y-72783859D01*
X68074609Y-72724025D01*
X68137309Y-72693194D01*
X68206723Y-72701155D01*
X68260814Y-72745381D01*
X68265846Y-72753377D01*
X68304666Y-72820614D01*
X68304665Y-72820614D01*
X68431329Y-72961288D01*
X68584465Y-73072548D01*
X68584470Y-73072551D01*
X68757392Y-73149542D01*
X68757397Y-73149544D01*
X68942554Y-73188900D01*
X68942555Y-73188900D01*
X69131844Y-73188900D01*
X69131846Y-73188900D01*
X69317003Y-73149544D01*
X69489930Y-73072551D01*
X69628954Y-72971544D01*
X69694759Y-72948065D01*
X69762813Y-72963890D01*
X69811508Y-73013996D01*
X69825383Y-73082474D01*
X69819769Y-73110180D01*
X69801327Y-73166939D01*
X69801327Y-73166940D01*
X69801326Y-73166944D01*
X69781540Y-73355200D01*
X69801326Y-73543456D01*
X69801327Y-73543459D01*
X69859818Y-73723477D01*
X69859821Y-73723484D01*
X69954467Y-73887416D01*
X70037761Y-73979923D01*
X70081129Y-74028088D01*
X70234265Y-74139348D01*
X70234270Y-74139351D01*
X70407192Y-74216342D01*
X70407197Y-74216344D01*
X70592354Y-74255700D01*
X70592355Y-74255700D01*
X70781644Y-74255700D01*
X70781646Y-74255700D01*
X70966803Y-74216344D01*
X71139730Y-74139351D01*
X71292871Y-74028088D01*
X71419533Y-73887416D01*
X71514179Y-73723484D01*
X71572674Y-73543456D01*
X71592460Y-73355200D01*
X71572674Y-73166944D01*
X71514179Y-72986916D01*
X71419533Y-72822984D01*
X71292871Y-72682312D01*
X71292870Y-72682311D01*
X71139734Y-72571051D01*
X71139729Y-72571048D01*
X70966807Y-72494057D01*
X70966802Y-72494055D01*
X70821001Y-72463065D01*
X70781646Y-72454700D01*
X70646687Y-72454700D01*
X70579648Y-72435015D01*
X70533893Y-72382211D01*
X70523949Y-72313053D01*
X70552974Y-72249497D01*
X70554537Y-72247728D01*
X70568389Y-72232343D01*
X70633333Y-72160216D01*
X70727979Y-71996284D01*
X70761762Y-71892308D01*
X70801199Y-71834633D01*
X70853908Y-71809337D01*
X70961307Y-71786510D01*
X70961311Y-71786508D01*
X70961312Y-71786508D01*
X71089127Y-71729600D01*
X71134234Y-71709517D01*
X71287375Y-71598254D01*
X71414037Y-71457582D01*
X71508683Y-71293650D01*
X71533490Y-71217299D01*
X71572926Y-71159624D01*
X71625635Y-71134328D01*
X71704603Y-71117544D01*
X71877530Y-71040551D01*
X72030671Y-70929288D01*
X72157333Y-70788616D01*
X72171314Y-70764400D01*
X76296740Y-70764400D01*
X76316526Y-70952656D01*
X76316527Y-70952659D01*
X76375018Y-71132677D01*
X76375021Y-71132684D01*
X76469667Y-71296616D01*
X76527929Y-71361322D01*
X76596329Y-71437288D01*
X76749465Y-71548548D01*
X76749470Y-71548551D01*
X76922392Y-71625542D01*
X76922397Y-71625544D01*
X77107554Y-71664900D01*
X77107555Y-71664900D01*
X77296844Y-71664900D01*
X77296846Y-71664900D01*
X77482003Y-71625544D01*
X77654930Y-71548551D01*
X77808071Y-71437288D01*
X77934733Y-71296616D01*
X78029379Y-71132684D01*
X78087874Y-70952656D01*
X78107660Y-70764400D01*
X78087874Y-70576144D01*
X78029379Y-70396116D01*
X77978043Y-70307200D01*
X80018940Y-70307200D01*
X80038726Y-70495456D01*
X80038727Y-70495459D01*
X80097218Y-70675477D01*
X80097221Y-70675484D01*
X80191867Y-70839416D01*
X80318529Y-70980088D01*
X80471665Y-71091348D01*
X80471670Y-71091351D01*
X80644592Y-71168342D01*
X80644597Y-71168344D01*
X80829754Y-71207700D01*
X80829755Y-71207700D01*
X81019044Y-71207700D01*
X81019046Y-71207700D01*
X81204203Y-71168344D01*
X81377130Y-71091351D01*
X81530271Y-70980088D01*
X81656933Y-70839416D01*
X81751579Y-70675484D01*
X81810074Y-70495456D01*
X81829860Y-70307200D01*
X81810074Y-70118944D01*
X81751579Y-69938916D01*
X81656933Y-69774984D01*
X81530271Y-69634312D01*
X81530270Y-69634311D01*
X81377134Y-69523051D01*
X81377129Y-69523048D01*
X81204207Y-69446057D01*
X81204202Y-69446055D01*
X81058401Y-69415065D01*
X81019046Y-69406700D01*
X80829754Y-69406700D01*
X80797297Y-69413598D01*
X80644597Y-69446055D01*
X80644592Y-69446057D01*
X80471670Y-69523048D01*
X80471665Y-69523051D01*
X80318529Y-69634311D01*
X80191866Y-69774985D01*
X80097221Y-69938915D01*
X80097218Y-69938922D01*
X80047639Y-70091512D01*
X80038726Y-70118944D01*
X80018940Y-70307200D01*
X77978043Y-70307200D01*
X77934733Y-70232184D01*
X77808071Y-70091512D01*
X77775908Y-70068144D01*
X77654934Y-69980251D01*
X77654929Y-69980248D01*
X77482007Y-69903257D01*
X77482002Y-69903255D01*
X77336201Y-69872265D01*
X77296846Y-69863900D01*
X77107554Y-69863900D01*
X77075097Y-69870798D01*
X76922397Y-69903255D01*
X76922392Y-69903257D01*
X76749470Y-69980248D01*
X76749465Y-69980251D01*
X76596329Y-70091511D01*
X76469666Y-70232185D01*
X76375021Y-70396115D01*
X76375018Y-70396122D01*
X76322719Y-70557083D01*
X76316526Y-70576144D01*
X76296740Y-70764400D01*
X72171314Y-70764400D01*
X72251979Y-70624684D01*
X72310474Y-70444656D01*
X72330260Y-70256400D01*
X72310474Y-70068144D01*
X72251979Y-69888116D01*
X72157333Y-69724184D01*
X72030671Y-69583512D01*
X72030670Y-69583511D01*
X71877534Y-69472251D01*
X71877529Y-69472248D01*
X71704607Y-69395257D01*
X71704602Y-69395255D01*
X71558801Y-69364265D01*
X71519446Y-69355900D01*
X71330154Y-69355900D01*
X71297697Y-69362798D01*
X71144997Y-69395255D01*
X71144992Y-69395257D01*
X70972070Y-69472248D01*
X70972065Y-69472251D01*
X70818929Y-69583511D01*
X70692266Y-69724185D01*
X70597621Y-69888115D01*
X70597617Y-69888125D01*
X70572811Y-69964467D01*
X70533373Y-70022142D01*
X70480664Y-70047437D01*
X70401698Y-70064222D01*
X70401696Y-70064223D01*
X70228774Y-70141214D01*
X70228769Y-70141217D01*
X70075633Y-70252477D01*
X69948970Y-70393151D01*
X69854325Y-70557081D01*
X69854324Y-70557083D01*
X69820540Y-70661058D01*
X69781101Y-70718733D01*
X69728391Y-70744028D01*
X69620996Y-70766856D01*
X69620992Y-70766857D01*
X69448070Y-70843848D01*
X69448065Y-70843851D01*
X69294929Y-70955111D01*
X69168266Y-71095785D01*
X69073621Y-71259715D01*
X69073618Y-71259721D01*
X69059811Y-71302218D01*
X69020374Y-71359893D01*
X68956015Y-71387092D01*
X68943358Y-71387815D01*
X68942555Y-71387899D01*
X68757397Y-71427255D01*
X68757392Y-71427257D01*
X68584470Y-71504248D01*
X68584465Y-71504251D01*
X68431329Y-71615511D01*
X68304666Y-71756185D01*
X68210021Y-71920115D01*
X68210018Y-71920122D01*
X68152262Y-72097878D01*
X68151526Y-72100144D01*
X68142160Y-72189256D01*
X68131740Y-72288400D01*
X68151526Y-72476657D01*
X68154271Y-72485103D01*
X68156266Y-72554945D01*
X68120186Y-72614778D01*
X68057485Y-72645606D01*
X67988071Y-72637642D01*
X67933982Y-72593413D01*
X67928953Y-72585422D01*
X67900250Y-72535707D01*
X67890133Y-72518184D01*
X67763471Y-72377512D01*
X67731308Y-72354144D01*
X67610334Y-72266251D01*
X67610329Y-72266248D01*
X67437407Y-72189257D01*
X67437402Y-72189255D01*
X67291601Y-72158265D01*
X67252246Y-72149900D01*
X67062954Y-72149900D01*
X67030497Y-72156798D01*
X66877797Y-72189255D01*
X66877792Y-72189257D01*
X66704870Y-72266248D01*
X66704865Y-72266251D01*
X66551729Y-72377511D01*
X66425066Y-72518185D01*
X66330421Y-72682115D01*
X66330418Y-72682122D01*
X66274669Y-72853701D01*
X66271926Y-72862144D01*
X66252140Y-73050400D01*
X57591714Y-73050400D01*
X57672379Y-72910684D01*
X57730874Y-72730656D01*
X57750660Y-72542400D01*
X57730874Y-72354144D01*
X57672379Y-72174116D01*
X57577733Y-72010184D01*
X57451071Y-71869512D01*
X57420390Y-71847221D01*
X57297934Y-71758251D01*
X57297929Y-71758248D01*
X57233586Y-71729600D01*
X62238940Y-71729600D01*
X62258726Y-71917856D01*
X62258727Y-71917859D01*
X62317218Y-72097877D01*
X62317221Y-72097884D01*
X62411867Y-72261816D01*
X62537357Y-72401186D01*
X62538529Y-72402488D01*
X62691665Y-72513748D01*
X62691670Y-72513751D01*
X62864592Y-72590742D01*
X62864597Y-72590744D01*
X63049754Y-72630100D01*
X63049755Y-72630100D01*
X63239044Y-72630100D01*
X63239046Y-72630100D01*
X63424203Y-72590744D01*
X63597130Y-72513751D01*
X63750271Y-72402488D01*
X63876933Y-72261816D01*
X63971579Y-72097884D01*
X64030074Y-71917856D01*
X64049860Y-71729600D01*
X64030074Y-71541344D01*
X63971579Y-71361316D01*
X63876933Y-71197384D01*
X63750271Y-71056712D01*
X63750270Y-71056711D01*
X63597134Y-70945451D01*
X63597129Y-70945448D01*
X63424207Y-70868457D01*
X63424202Y-70868455D01*
X63278401Y-70837465D01*
X63239046Y-70829100D01*
X63049754Y-70829100D01*
X63017297Y-70835998D01*
X62864597Y-70868455D01*
X62864592Y-70868457D01*
X62691670Y-70945448D01*
X62691665Y-70945451D01*
X62538529Y-71056711D01*
X62411866Y-71197385D01*
X62317221Y-71361315D01*
X62317218Y-71361322D01*
X62284943Y-71460656D01*
X62258726Y-71541344D01*
X62238940Y-71729600D01*
X57233586Y-71729600D01*
X57125007Y-71681257D01*
X57125002Y-71681255D01*
X56979201Y-71650265D01*
X56939846Y-71641900D01*
X56750554Y-71641900D01*
X56718097Y-71648798D01*
X56565397Y-71681255D01*
X56565392Y-71681257D01*
X56392470Y-71758248D01*
X56392465Y-71758251D01*
X56270009Y-71847221D01*
X56204203Y-71870701D01*
X56136149Y-71854875D01*
X56087454Y-71804769D01*
X56073579Y-71736291D01*
X56073804Y-71733938D01*
X56074260Y-71729600D01*
X56054474Y-71541344D01*
X55995979Y-71361316D01*
X55901333Y-71197384D01*
X55774671Y-71056712D01*
X55774670Y-71056711D01*
X55621534Y-70945451D01*
X55621529Y-70945448D01*
X55448607Y-70868457D01*
X55448602Y-70868455D01*
X55302801Y-70837465D01*
X55263446Y-70829100D01*
X55074154Y-70829100D01*
X55041697Y-70835998D01*
X54888997Y-70868455D01*
X54888992Y-70868457D01*
X54716070Y-70945448D01*
X54716066Y-70945450D01*
X54667536Y-70980710D01*
X54601730Y-71004189D01*
X54533676Y-70988363D01*
X54484982Y-70938257D01*
X54476721Y-70918710D01*
X54471980Y-70904119D01*
X54471979Y-70904118D01*
X54471979Y-70904116D01*
X54377333Y-70740184D01*
X54250671Y-70599512D01*
X54218508Y-70576144D01*
X54097534Y-70488251D01*
X54097529Y-70488248D01*
X53924607Y-70411257D01*
X53924602Y-70411255D01*
X53778801Y-70380265D01*
X53739446Y-70371900D01*
X53550154Y-70371900D01*
X53517697Y-70378798D01*
X53364997Y-70411255D01*
X53364992Y-70411257D01*
X53192070Y-70488248D01*
X53192065Y-70488251D01*
X53038929Y-70599511D01*
X52912266Y-70740185D01*
X52817621Y-70904115D01*
X52817618Y-70904122D01*
X52768039Y-71056712D01*
X52759126Y-71084144D01*
X52739340Y-71272400D01*
X49149000Y-71272400D01*
X49149000Y-68783200D01*
X52180540Y-68783200D01*
X52200326Y-68971456D01*
X52200327Y-68971459D01*
X52258818Y-69151477D01*
X52258821Y-69151484D01*
X52353467Y-69315416D01*
X52435660Y-69406700D01*
X52480129Y-69456088D01*
X52633265Y-69567348D01*
X52633270Y-69567351D01*
X52806192Y-69644342D01*
X52806197Y-69644344D01*
X52991354Y-69683700D01*
X52991355Y-69683700D01*
X53180644Y-69683700D01*
X53180646Y-69683700D01*
X53365803Y-69644344D01*
X53512564Y-69579001D01*
X53581814Y-69569716D01*
X53645090Y-69599344D01*
X53682304Y-69658478D01*
X53687000Y-69692280D01*
X53687000Y-69971000D01*
X60187000Y-69971000D01*
X60437000Y-69721000D01*
X60437000Y-68272362D01*
X60451083Y-68224400D01*
X67674540Y-68224400D01*
X67694326Y-68412656D01*
X67694327Y-68412659D01*
X67752818Y-68592677D01*
X67752821Y-68592684D01*
X67847467Y-68756616D01*
X67974129Y-68897288D01*
X68127265Y-69008548D01*
X68127270Y-69008551D01*
X68300192Y-69085542D01*
X68300197Y-69085544D01*
X68485354Y-69124900D01*
X68485355Y-69124900D01*
X68674644Y-69124900D01*
X68674646Y-69124900D01*
X68859803Y-69085544D01*
X69032730Y-69008551D01*
X69185871Y-68897288D01*
X69312533Y-68756616D01*
X69407179Y-68592684D01*
X69465674Y-68412656D01*
X69485460Y-68224400D01*
X69465674Y-68036144D01*
X69407179Y-67856116D01*
X69312533Y-67692184D01*
X69242856Y-67614800D01*
X76107340Y-67614800D01*
X76127126Y-67803056D01*
X76127127Y-67803059D01*
X76185618Y-67983077D01*
X76185621Y-67983084D01*
X76280267Y-68147016D01*
X76314181Y-68184681D01*
X76367847Y-68244284D01*
X76398077Y-68307276D01*
X76393629Y-68365570D01*
X76384791Y-68392772D01*
X76384789Y-68392780D01*
X76382462Y-68414922D01*
X76365003Y-68581037D01*
X76384789Y-68769293D01*
X76384790Y-68769296D01*
X76443281Y-68949314D01*
X76443284Y-68949321D01*
X76537930Y-69113253D01*
X76664592Y-69253925D01*
X76817728Y-69365185D01*
X76817733Y-69365188D01*
X76990655Y-69442179D01*
X76990660Y-69442181D01*
X77175817Y-69481537D01*
X77175818Y-69481537D01*
X77365107Y-69481537D01*
X77365109Y-69481537D01*
X77550266Y-69442181D01*
X77723193Y-69365188D01*
X77876334Y-69253925D01*
X78002996Y-69113253D01*
X78097642Y-68949321D01*
X78156137Y-68769293D01*
X78175923Y-68581037D01*
X78156137Y-68392781D01*
X78097642Y-68212753D01*
X78002996Y-68048821D01*
X77915413Y-67951551D01*
X77885184Y-67888561D01*
X77889633Y-67830263D01*
X77898474Y-67803056D01*
X77918260Y-67614800D01*
X77898474Y-67426544D01*
X77839979Y-67246516D01*
X77759734Y-67107527D01*
X77743261Y-67039626D01*
X77766114Y-66973600D01*
X77774960Y-66962567D01*
X77897733Y-66826216D01*
X77992379Y-66662284D01*
X78050874Y-66482256D01*
X78070660Y-66294000D01*
X78050874Y-66105744D01*
X77992379Y-65925716D01*
X77897733Y-65761784D01*
X77771071Y-65621112D01*
X77771070Y-65621111D01*
X77617934Y-65509851D01*
X77617929Y-65509848D01*
X77445007Y-65432857D01*
X77445002Y-65432855D01*
X77299201Y-65401865D01*
X77259846Y-65393500D01*
X77070554Y-65393500D01*
X77038097Y-65400398D01*
X76885397Y-65432855D01*
X76885392Y-65432857D01*
X76712470Y-65509848D01*
X76712465Y-65509851D01*
X76559329Y-65621111D01*
X76432666Y-65761785D01*
X76338021Y-65925715D01*
X76338018Y-65925722D01*
X76300089Y-66042457D01*
X76279526Y-66105744D01*
X76259740Y-66294000D01*
X76279526Y-66482256D01*
X76279527Y-66482259D01*
X76338018Y-66662277D01*
X76338023Y-66662289D01*
X76418265Y-66801273D01*
X76434738Y-66869173D01*
X76411885Y-66935200D01*
X76403028Y-66946244D01*
X76280266Y-67082585D01*
X76185621Y-67246515D01*
X76185618Y-67246522D01*
X76147689Y-67363257D01*
X76127126Y-67426544D01*
X76107340Y-67614800D01*
X69242856Y-67614800D01*
X69185871Y-67551512D01*
X69185870Y-67551511D01*
X69032734Y-67440251D01*
X69032729Y-67440248D01*
X68859807Y-67363257D01*
X68859802Y-67363255D01*
X68714001Y-67332265D01*
X68674646Y-67323900D01*
X68485354Y-67323900D01*
X68452897Y-67330798D01*
X68300197Y-67363255D01*
X68300192Y-67363257D01*
X68127270Y-67440248D01*
X68127265Y-67440251D01*
X67974129Y-67551511D01*
X67847466Y-67692185D01*
X67752821Y-67856115D01*
X67752818Y-67856122D01*
X67694327Y-68036140D01*
X67694326Y-68036144D01*
X67674540Y-68224400D01*
X60451083Y-68224400D01*
X60456685Y-68205323D01*
X60473319Y-68184681D01*
X60650681Y-68007319D01*
X60712004Y-67973834D01*
X60738362Y-67971000D01*
X62687000Y-67971000D01*
X62937000Y-67721000D01*
X62937000Y-67221000D01*
X62602000Y-66886000D01*
X60653362Y-66886000D01*
X60586323Y-66866315D01*
X60565681Y-66849681D01*
X60223319Y-66507319D01*
X60189834Y-66445996D01*
X60187000Y-66419638D01*
X60187000Y-65074800D01*
X64067740Y-65074800D01*
X64087526Y-65263056D01*
X64087527Y-65263059D01*
X64146018Y-65443077D01*
X64146021Y-65443084D01*
X64240667Y-65607016D01*
X64330289Y-65706551D01*
X64367329Y-65747688D01*
X64520465Y-65858948D01*
X64520468Y-65858950D01*
X64520469Y-65858950D01*
X64520470Y-65858951D01*
X64552976Y-65873423D01*
X64606212Y-65918671D01*
X64625693Y-65982754D01*
X64625861Y-65982737D01*
X64625952Y-65983606D01*
X64626534Y-65985520D01*
X64626540Y-65986702D01*
X64626540Y-65989197D01*
X64626540Y-65989200D01*
X64646326Y-66177456D01*
X64646327Y-66177459D01*
X64704818Y-66357477D01*
X64704821Y-66357484D01*
X64799467Y-66521416D01*
X64862150Y-66591032D01*
X64926129Y-66662088D01*
X65079265Y-66773348D01*
X65079270Y-66773351D01*
X65252192Y-66850342D01*
X65252197Y-66850344D01*
X65437354Y-66889700D01*
X65437355Y-66889700D01*
X65626644Y-66889700D01*
X65626646Y-66889700D01*
X65811803Y-66850344D01*
X65984730Y-66773351D01*
X66137871Y-66662088D01*
X66201850Y-66591031D01*
X66261337Y-66554383D01*
X66331194Y-66555714D01*
X66386150Y-66591032D01*
X66450129Y-66662088D01*
X66603265Y-66773348D01*
X66603270Y-66773351D01*
X66776192Y-66850342D01*
X66776197Y-66850344D01*
X66961354Y-66889700D01*
X66961355Y-66889700D01*
X67150644Y-66889700D01*
X67150646Y-66889700D01*
X67335803Y-66850344D01*
X67508730Y-66773351D01*
X67661871Y-66662088D01*
X67788533Y-66521416D01*
X67883179Y-66357484D01*
X67941674Y-66177456D01*
X67961460Y-65989200D01*
X67952339Y-65902423D01*
X67964908Y-65833697D01*
X68012640Y-65782673D01*
X68025210Y-65776192D01*
X68067530Y-65757351D01*
X68220671Y-65646088D01*
X68347333Y-65505416D01*
X68441979Y-65341484D01*
X68500474Y-65161456D01*
X68520260Y-64973200D01*
X68500474Y-64784944D01*
X68441979Y-64604916D01*
X68347333Y-64440984D01*
X68220671Y-64300312D01*
X68207370Y-64290648D01*
X68067534Y-64189051D01*
X68067529Y-64189048D01*
X67894607Y-64112057D01*
X67894602Y-64112055D01*
X67740746Y-64079353D01*
X67709446Y-64072700D01*
X67520154Y-64072700D01*
X67488854Y-64079353D01*
X67334997Y-64112055D01*
X67334992Y-64112057D01*
X67162070Y-64189048D01*
X67162065Y-64189051D01*
X67008929Y-64300311D01*
X66882266Y-64440985D01*
X66787621Y-64604915D01*
X66787618Y-64604922D01*
X66729127Y-64784940D01*
X66729126Y-64784944D01*
X66718448Y-64886540D01*
X66709340Y-64973200D01*
X66718459Y-65059973D01*
X66705889Y-65128703D01*
X66658156Y-65179726D01*
X66645577Y-65186211D01*
X66603268Y-65205049D01*
X66450129Y-65316311D01*
X66450128Y-65316312D01*
X66386149Y-65387368D01*
X66326663Y-65424016D01*
X66256806Y-65422685D01*
X66201851Y-65387368D01*
X66137871Y-65316312D01*
X66137870Y-65316311D01*
X65984729Y-65205048D01*
X65952222Y-65190574D01*
X65898986Y-65145323D01*
X65879508Y-65081245D01*
X65879339Y-65081263D01*
X65879246Y-65080384D01*
X65878666Y-65078474D01*
X65878660Y-65077296D01*
X65878660Y-65074802D01*
X65878660Y-65074800D01*
X65858874Y-64886544D01*
X65800379Y-64706516D01*
X65705733Y-64542584D01*
X65579071Y-64401912D01*
X65579070Y-64401911D01*
X65425934Y-64290651D01*
X65425929Y-64290648D01*
X65253007Y-64213657D01*
X65253002Y-64213655D01*
X65107201Y-64182665D01*
X65067846Y-64174300D01*
X64878554Y-64174300D01*
X64846097Y-64181198D01*
X64693397Y-64213655D01*
X64693392Y-64213657D01*
X64520470Y-64290648D01*
X64520465Y-64290651D01*
X64367329Y-64401911D01*
X64240666Y-64542585D01*
X64146021Y-64706515D01*
X64146018Y-64706522D01*
X64087527Y-64886540D01*
X64087526Y-64886544D01*
X64067740Y-65074800D01*
X60187000Y-65074800D01*
X60187000Y-64221000D01*
X55406870Y-64221000D01*
X55339831Y-64201315D01*
X55294076Y-64148511D01*
X55284132Y-64079353D01*
X55288939Y-64058682D01*
X55315768Y-63976110D01*
X55343274Y-63891456D01*
X55363060Y-63703200D01*
X55343274Y-63514944D01*
X55284779Y-63334916D01*
X55190133Y-63170984D01*
X55063471Y-63030312D01*
X55060091Y-63027856D01*
X54910334Y-62919051D01*
X54910329Y-62919048D01*
X54737407Y-62842057D01*
X54737402Y-62842055D01*
X54725852Y-62839600D01*
X82914540Y-62839600D01*
X82934326Y-63027856D01*
X82934327Y-63027859D01*
X82992818Y-63207877D01*
X82992821Y-63207884D01*
X83087467Y-63371816D01*
X83214129Y-63512488D01*
X83367265Y-63623748D01*
X83367270Y-63623751D01*
X83540192Y-63700742D01*
X83540197Y-63700744D01*
X83725354Y-63740100D01*
X83725355Y-63740100D01*
X83914644Y-63740100D01*
X83914646Y-63740100D01*
X84099803Y-63700744D01*
X84272730Y-63623751D01*
X84425871Y-63512488D01*
X84552533Y-63371816D01*
X84647179Y-63207884D01*
X84705674Y-63027856D01*
X84725460Y-62839600D01*
X84705674Y-62651344D01*
X84647179Y-62471316D01*
X84552533Y-62307384D01*
X84425871Y-62166712D01*
X84425870Y-62166711D01*
X84272734Y-62055451D01*
X84272729Y-62055448D01*
X84099807Y-61978457D01*
X84099802Y-61978455D01*
X83954001Y-61947465D01*
X83914646Y-61939100D01*
X83725354Y-61939100D01*
X83692897Y-61945998D01*
X83540197Y-61978455D01*
X83540192Y-61978457D01*
X83367270Y-62055448D01*
X83367265Y-62055451D01*
X83214129Y-62166711D01*
X83087466Y-62307385D01*
X82992821Y-62471315D01*
X82992818Y-62471322D01*
X82934327Y-62651340D01*
X82934326Y-62651344D01*
X82914540Y-62839600D01*
X54725852Y-62839600D01*
X54591601Y-62811065D01*
X54552246Y-62802700D01*
X54362954Y-62802700D01*
X54330497Y-62809598D01*
X54177797Y-62842055D01*
X54177792Y-62842057D01*
X54004870Y-62919048D01*
X54004865Y-62919051D01*
X53851729Y-63030311D01*
X53725066Y-63170985D01*
X53630421Y-63334915D01*
X53630418Y-63334922D01*
X53572724Y-63512488D01*
X53571926Y-63514944D01*
X53552140Y-63703200D01*
X53571926Y-63891456D01*
X53571927Y-63891459D01*
X53576739Y-63906269D01*
X53578734Y-63976110D01*
X53542654Y-64035943D01*
X53479953Y-64066771D01*
X53420500Y-64062521D01*
X53416608Y-64061257D01*
X53374391Y-64052283D01*
X53231446Y-64021900D01*
X53042154Y-64021900D01*
X53009697Y-64028798D01*
X52856997Y-64061255D01*
X52856992Y-64061257D01*
X52684070Y-64138248D01*
X52684065Y-64138251D01*
X52530929Y-64249511D01*
X52404266Y-64390185D01*
X52309621Y-64554115D01*
X52309618Y-64554122D01*
X52251127Y-64734140D01*
X52251126Y-64734144D01*
X52231340Y-64922400D01*
X52251126Y-65110656D01*
X52251127Y-65110659D01*
X52309618Y-65290677D01*
X52309621Y-65290684D01*
X52404267Y-65454616D01*
X52454001Y-65509851D01*
X52530929Y-65595288D01*
X52684065Y-65706548D01*
X52684070Y-65706551D01*
X52856992Y-65783542D01*
X52856997Y-65783544D01*
X52895414Y-65791710D01*
X52956896Y-65824902D01*
X52990672Y-65886065D01*
X52986020Y-65955780D01*
X52944415Y-66011912D01*
X52895414Y-66034290D01*
X52856997Y-66042455D01*
X52856992Y-66042457D01*
X52684070Y-66119448D01*
X52684065Y-66119451D01*
X52530929Y-66230711D01*
X52404266Y-66371385D01*
X52309621Y-66535315D01*
X52309618Y-66535322D01*
X52251127Y-66715340D01*
X52251126Y-66715344D01*
X52231340Y-66903600D01*
X52251126Y-67091856D01*
X52251127Y-67091859D01*
X52309618Y-67271877D01*
X52309621Y-67271884D01*
X52404267Y-67435816D01*
X52530929Y-67576488D01*
X52684065Y-67687748D01*
X52684067Y-67687749D01*
X52684070Y-67687751D01*
X52753833Y-67718812D01*
X52807069Y-67764061D01*
X52827390Y-67830910D01*
X52808345Y-67898133D01*
X52755979Y-67944389D01*
X52753833Y-67945369D01*
X52633267Y-67999050D01*
X52633265Y-67999051D01*
X52480129Y-68110311D01*
X52353466Y-68250985D01*
X52258821Y-68414915D01*
X52258818Y-68414922D01*
X52201060Y-68592684D01*
X52200326Y-68594944D01*
X52180540Y-68783200D01*
X49149000Y-68783200D01*
X49149000Y-61108996D01*
X49168685Y-61041957D01*
X49221489Y-60996202D01*
X49290647Y-60986258D01*
X49323435Y-60995716D01*
X49351797Y-61008344D01*
X49536954Y-61047700D01*
X49536955Y-61047700D01*
X49726244Y-61047700D01*
X49726246Y-61047700D01*
X49911403Y-61008344D01*
X49932143Y-60999109D01*
X50001390Y-60989823D01*
X50064668Y-61019449D01*
X50101883Y-61078583D01*
X50101221Y-61148449D01*
X50089969Y-61174385D01*
X50074421Y-61201315D01*
X50074418Y-61201322D01*
X50033166Y-61328284D01*
X50015926Y-61381344D01*
X49996140Y-61569600D01*
X50015926Y-61757856D01*
X50015927Y-61757859D01*
X50074418Y-61937877D01*
X50074421Y-61937884D01*
X50169067Y-62101816D01*
X50227499Y-62166711D01*
X50295729Y-62242488D01*
X50448865Y-62353748D01*
X50448870Y-62353751D01*
X50621792Y-62430742D01*
X50621797Y-62430744D01*
X50806954Y-62470100D01*
X50806955Y-62470100D01*
X50996244Y-62470100D01*
X50996246Y-62470100D01*
X51181403Y-62430744D01*
X51354330Y-62353751D01*
X51507471Y-62242488D01*
X51634133Y-62101816D01*
X51728779Y-61937884D01*
X51787274Y-61757856D01*
X51807060Y-61569600D01*
X51787274Y-61381344D01*
X51728779Y-61201316D01*
X51634133Y-61037384D01*
X51507471Y-60896712D01*
X51507470Y-60896711D01*
X51354334Y-60785451D01*
X51354329Y-60785448D01*
X51181407Y-60708457D01*
X51181402Y-60708455D01*
X51035601Y-60677465D01*
X50996246Y-60669100D01*
X50806954Y-60669100D01*
X50774497Y-60675998D01*
X50621797Y-60708455D01*
X50621792Y-60708457D01*
X50601053Y-60717691D01*
X50531803Y-60726975D01*
X50468527Y-60697346D01*
X50431314Y-60638211D01*
X50431980Y-60568344D01*
X50443228Y-60542419D01*
X50458779Y-60515484D01*
X50517274Y-60335456D01*
X50537060Y-60147200D01*
X50517274Y-59958944D01*
X50458779Y-59778916D01*
X50381855Y-59645679D01*
X50365382Y-59577778D01*
X50388235Y-59511752D01*
X50443156Y-59468561D01*
X50512710Y-59461920D01*
X50539677Y-59470399D01*
X50570997Y-59484344D01*
X50756154Y-59523700D01*
X50756155Y-59523700D01*
X50945444Y-59523700D01*
X50945446Y-59523700D01*
X51130603Y-59484344D01*
X51303530Y-59407351D01*
X51456671Y-59296088D01*
X51583333Y-59155416D01*
X51677979Y-58991484D01*
X51736474Y-58811456D01*
X51750921Y-58674000D01*
X52231340Y-58674000D01*
X52251126Y-58862256D01*
X52251127Y-58862259D01*
X52309618Y-59042277D01*
X52309621Y-59042284D01*
X52404267Y-59206216D01*
X52499739Y-59312248D01*
X52530929Y-59346888D01*
X52684065Y-59458148D01*
X52684070Y-59458151D01*
X52856992Y-59535142D01*
X52856997Y-59535144D01*
X53042154Y-59574500D01*
X53042155Y-59574500D01*
X53231444Y-59574500D01*
X53231446Y-59574500D01*
X53285280Y-59563057D01*
X53354946Y-59568373D01*
X53410679Y-59610510D01*
X53434785Y-59676089D01*
X53428991Y-59722665D01*
X53368727Y-59908140D01*
X53368726Y-59908144D01*
X53348940Y-60096400D01*
X53368726Y-60284656D01*
X53368727Y-60284659D01*
X53427218Y-60464677D01*
X53427219Y-60464679D01*
X53427221Y-60464684D01*
X53437854Y-60483102D01*
X53454327Y-60550999D01*
X53431475Y-60617026D01*
X53376554Y-60660217D01*
X53330467Y-60669100D01*
X53143754Y-60669100D01*
X53111297Y-60675998D01*
X52958597Y-60708455D01*
X52958592Y-60708457D01*
X52785670Y-60785448D01*
X52785665Y-60785451D01*
X52632529Y-60896711D01*
X52505866Y-61037385D01*
X52411221Y-61201315D01*
X52411218Y-61201322D01*
X52369966Y-61328284D01*
X52352726Y-61381344D01*
X52332940Y-61569600D01*
X52352726Y-61757856D01*
X52352727Y-61757859D01*
X52411218Y-61937877D01*
X52411221Y-61937884D01*
X52505867Y-62101816D01*
X52564299Y-62166711D01*
X52632529Y-62242488D01*
X52785665Y-62353748D01*
X52785670Y-62353751D01*
X52958592Y-62430742D01*
X52958597Y-62430744D01*
X53143754Y-62470100D01*
X53143755Y-62470100D01*
X53333044Y-62470100D01*
X53333046Y-62470100D01*
X53518203Y-62430744D01*
X53691130Y-62353751D01*
X53844271Y-62242488D01*
X53970933Y-62101816D01*
X54065579Y-61937884D01*
X54124074Y-61757856D01*
X54143860Y-61569600D01*
X54124074Y-61381344D01*
X54065579Y-61201316D01*
X54054945Y-61182897D01*
X54038473Y-61115001D01*
X54061325Y-61048974D01*
X54116246Y-61005783D01*
X54162333Y-60996900D01*
X54349044Y-60996900D01*
X54349046Y-60996900D01*
X54522648Y-60960000D01*
X65286940Y-60960000D01*
X65306726Y-61148256D01*
X65306727Y-61148259D01*
X65365218Y-61328277D01*
X65365221Y-61328284D01*
X65459867Y-61492216D01*
X65529544Y-61569600D01*
X65586529Y-61632888D01*
X65739665Y-61744148D01*
X65739670Y-61744151D01*
X65912592Y-61821142D01*
X65912597Y-61821144D01*
X66097754Y-61860500D01*
X66097755Y-61860500D01*
X66287044Y-61860500D01*
X66287046Y-61860500D01*
X66472203Y-61821144D01*
X66622884Y-61754055D01*
X66692131Y-61744770D01*
X66755408Y-61774398D01*
X66765467Y-61784362D01*
X66784981Y-61806034D01*
X66784988Y-61806040D01*
X66938118Y-61917295D01*
X66938123Y-61917298D01*
X67111045Y-61994289D01*
X67111050Y-61994291D01*
X67296207Y-62033647D01*
X67296208Y-62033647D01*
X67485497Y-62033647D01*
X67485499Y-62033647D01*
X67670656Y-61994291D01*
X67843583Y-61917298D01*
X67996724Y-61806035D01*
X68123386Y-61665363D01*
X68218032Y-61501431D01*
X68276527Y-61321403D01*
X68296313Y-61133147D01*
X68276527Y-60944891D01*
X68220268Y-60771744D01*
X68218034Y-60764869D01*
X68218033Y-60764868D01*
X68218032Y-60764863D01*
X68123386Y-60600931D01*
X67996724Y-60460259D01*
X67996723Y-60460258D01*
X67843587Y-60348998D01*
X67843582Y-60348995D01*
X67670660Y-60272004D01*
X67670655Y-60272002D01*
X67524854Y-60241012D01*
X67485499Y-60232647D01*
X67296207Y-60232647D01*
X67263750Y-60239545D01*
X67111050Y-60272002D01*
X67111045Y-60272004D01*
X66960370Y-60339090D01*
X66891120Y-60348375D01*
X66827843Y-60318747D01*
X66817785Y-60308784D01*
X66798271Y-60287112D01*
X66798264Y-60287106D01*
X66645134Y-60175851D01*
X66645129Y-60175848D01*
X66472207Y-60098857D01*
X66472202Y-60098855D01*
X66326401Y-60067865D01*
X66287046Y-60059500D01*
X66097754Y-60059500D01*
X66065297Y-60066398D01*
X65912597Y-60098855D01*
X65912592Y-60098857D01*
X65739670Y-60175848D01*
X65739665Y-60175851D01*
X65586529Y-60287111D01*
X65459866Y-60427785D01*
X65365221Y-60591715D01*
X65365218Y-60591722D01*
X65308960Y-60764869D01*
X65306726Y-60771744D01*
X65286940Y-60960000D01*
X54522648Y-60960000D01*
X54534203Y-60957544D01*
X54707130Y-60880551D01*
X54860271Y-60769288D01*
X54986933Y-60628616D01*
X55081579Y-60464684D01*
X55140074Y-60284656D01*
X55159860Y-60096400D01*
X55140074Y-59908144D01*
X55081579Y-59728116D01*
X54986933Y-59564184D01*
X54860271Y-59423512D01*
X54860270Y-59423511D01*
X54707134Y-59312251D01*
X54707129Y-59312248D01*
X54534207Y-59235257D01*
X54534202Y-59235255D01*
X54377862Y-59202025D01*
X54349046Y-59195900D01*
X54159754Y-59195900D01*
X54105918Y-59207343D01*
X54036251Y-59202025D01*
X53980518Y-59159888D01*
X53962182Y-59110000D01*
X77344540Y-59110000D01*
X77364326Y-59298256D01*
X77364327Y-59298259D01*
X77422818Y-59478277D01*
X77422821Y-59478284D01*
X77517467Y-59642216D01*
X77640552Y-59778915D01*
X77644129Y-59782888D01*
X77797265Y-59894148D01*
X77797270Y-59894151D01*
X77970192Y-59971142D01*
X77970197Y-59971144D01*
X78155354Y-60010500D01*
X78155355Y-60010500D01*
X78344644Y-60010500D01*
X78344646Y-60010500D01*
X78529803Y-59971144D01*
X78702730Y-59894151D01*
X78855871Y-59782888D01*
X78907851Y-59725158D01*
X78967336Y-59688510D01*
X79037193Y-59689840D01*
X79092148Y-59725158D01*
X79140552Y-59778915D01*
X79144129Y-59782888D01*
X79297265Y-59894148D01*
X79297270Y-59894151D01*
X79470192Y-59971142D01*
X79470197Y-59971144D01*
X79655354Y-60010500D01*
X79655355Y-60010500D01*
X79844644Y-60010500D01*
X79844646Y-60010500D01*
X80029803Y-59971144D01*
X80202730Y-59894151D01*
X80355871Y-59782888D01*
X80482533Y-59642216D01*
X80577179Y-59478284D01*
X80632069Y-59309351D01*
X80671506Y-59251675D01*
X80735865Y-59224477D01*
X80804711Y-59236392D01*
X80856187Y-59283636D01*
X80867931Y-59309351D01*
X80922818Y-59478277D01*
X80922821Y-59478284D01*
X81017467Y-59642216D01*
X81140552Y-59778915D01*
X81144129Y-59782888D01*
X81297265Y-59894148D01*
X81297270Y-59894151D01*
X81470192Y-59971142D01*
X81470197Y-59971144D01*
X81655354Y-60010500D01*
X81655355Y-60010500D01*
X81844644Y-60010500D01*
X81844646Y-60010500D01*
X82029803Y-59971144D01*
X82202730Y-59894151D01*
X82355871Y-59782888D01*
X82482533Y-59642216D01*
X82577179Y-59478284D01*
X82635674Y-59298256D01*
X82635674Y-59298248D01*
X82637024Y-59291903D01*
X82639967Y-59292528D01*
X82661462Y-59240005D01*
X82718684Y-59199913D01*
X82788498Y-59197121D01*
X82848738Y-59232517D01*
X82850493Y-59234426D01*
X82894128Y-59282887D01*
X82894129Y-59282888D01*
X83047265Y-59394148D01*
X83047270Y-59394151D01*
X83220192Y-59471142D01*
X83220197Y-59471144D01*
X83405354Y-59510500D01*
X83405355Y-59510500D01*
X83594644Y-59510500D01*
X83594646Y-59510500D01*
X83779803Y-59471144D01*
X83952730Y-59394151D01*
X84105871Y-59282888D01*
X84157851Y-59225158D01*
X84217336Y-59188510D01*
X84287193Y-59189840D01*
X84342148Y-59225158D01*
X84351240Y-59235255D01*
X84394129Y-59282888D01*
X84547265Y-59394148D01*
X84547270Y-59394151D01*
X84720192Y-59471142D01*
X84720197Y-59471144D01*
X84905354Y-59510500D01*
X84905355Y-59510500D01*
X85094644Y-59510500D01*
X85094646Y-59510500D01*
X85279803Y-59471144D01*
X85452730Y-59394151D01*
X85552115Y-59321944D01*
X85617921Y-59298464D01*
X85685975Y-59314289D01*
X85697885Y-59321944D01*
X85797265Y-59394148D01*
X85797270Y-59394151D01*
X85970192Y-59471142D01*
X85970197Y-59471144D01*
X86155354Y-59510500D01*
X86155355Y-59510500D01*
X86344644Y-59510500D01*
X86344646Y-59510500D01*
X86529803Y-59471144D01*
X86702730Y-59394151D01*
X86855871Y-59282888D01*
X86982533Y-59142216D01*
X87077179Y-58978284D01*
X87135674Y-58798256D01*
X87155460Y-58610000D01*
X87135674Y-58421744D01*
X87077179Y-58241716D01*
X86982533Y-58077784D01*
X86855871Y-57937112D01*
X86790822Y-57889851D01*
X86702734Y-57825851D01*
X86702729Y-57825848D01*
X86529807Y-57748857D01*
X86529802Y-57748855D01*
X86384001Y-57717865D01*
X86344646Y-57709500D01*
X86155354Y-57709500D01*
X86046882Y-57732556D01*
X86019468Y-57738383D01*
X85949801Y-57733066D01*
X85894068Y-57690928D01*
X85869963Y-57625348D01*
X85875757Y-57578776D01*
X85885674Y-57548256D01*
X85905460Y-57360000D01*
X85885674Y-57171744D01*
X85827179Y-56991716D01*
X85732533Y-56827784D01*
X85605871Y-56687112D01*
X85605870Y-56687111D01*
X85452734Y-56575851D01*
X85452729Y-56575848D01*
X85279807Y-56498857D01*
X85279802Y-56498855D01*
X85134001Y-56467865D01*
X85094646Y-56459500D01*
X84905354Y-56459500D01*
X84872897Y-56466398D01*
X84720197Y-56498855D01*
X84720192Y-56498857D01*
X84547270Y-56575848D01*
X84547265Y-56575851D01*
X84436168Y-56656568D01*
X84370361Y-56680048D01*
X84302308Y-56664222D01*
X84255895Y-56618249D01*
X84232532Y-56577783D01*
X84230793Y-56575851D01*
X84105871Y-56437112D01*
X84105870Y-56437111D01*
X83952734Y-56325851D01*
X83952729Y-56325848D01*
X83779807Y-56248857D01*
X83779802Y-56248855D01*
X83634001Y-56217865D01*
X83594646Y-56209500D01*
X83405354Y-56209500D01*
X83372897Y-56216398D01*
X83220197Y-56248855D01*
X83220192Y-56248857D01*
X83047270Y-56325848D01*
X83047265Y-56325851D01*
X82982513Y-56372897D01*
X82916707Y-56396377D01*
X82848653Y-56380551D01*
X82808053Y-56343702D01*
X82750046Y-56260859D01*
X82589141Y-56099954D01*
X82402734Y-55969432D01*
X82402732Y-55969431D01*
X82196497Y-55873261D01*
X82196488Y-55873258D01*
X81976697Y-55814366D01*
X81976693Y-55814365D01*
X81976692Y-55814365D01*
X81976691Y-55814364D01*
X81976686Y-55814364D01*
X81750002Y-55794532D01*
X81749998Y-55794532D01*
X81523313Y-55814364D01*
X81523302Y-55814366D01*
X81303511Y-55873258D01*
X81303502Y-55873261D01*
X81097267Y-55969431D01*
X81097265Y-55969432D01*
X80910858Y-56099954D01*
X80749954Y-56260858D01*
X80619432Y-56447265D01*
X80619431Y-56447267D01*
X80523261Y-56653502D01*
X80523258Y-56653511D01*
X80464366Y-56873302D01*
X80464364Y-56873311D01*
X80462024Y-56900062D01*
X80436570Y-56965130D01*
X80379978Y-57006108D01*
X80310216Y-57009984D01*
X80288064Y-57002533D01*
X80279807Y-56998857D01*
X80279802Y-56998855D01*
X80121133Y-56965130D01*
X80094646Y-56959500D01*
X79905354Y-56959500D01*
X79878867Y-56965130D01*
X79720197Y-56998855D01*
X79720192Y-56998857D01*
X79547271Y-57075848D01*
X79447885Y-57148056D01*
X79382078Y-57171535D01*
X79314025Y-57155709D01*
X79302115Y-57148056D01*
X79278966Y-57131237D01*
X79202730Y-57075849D01*
X79202728Y-57075848D01*
X79202729Y-57075848D01*
X79029807Y-56998857D01*
X79029802Y-56998855D01*
X78871133Y-56965130D01*
X78844646Y-56959500D01*
X78655354Y-56959500D01*
X78628867Y-56965130D01*
X78470197Y-56998855D01*
X78470192Y-56998857D01*
X78297270Y-57075848D01*
X78297265Y-57075851D01*
X78144129Y-57187111D01*
X78017466Y-57327785D01*
X77922821Y-57491715D01*
X77922818Y-57491722D01*
X77874831Y-57639413D01*
X77864326Y-57671744D01*
X77844540Y-57860000D01*
X77864326Y-58048256D01*
X77864327Y-58048259D01*
X77900146Y-58158498D01*
X77902141Y-58228339D01*
X77866061Y-58288172D01*
X77832653Y-58310095D01*
X77797266Y-58325850D01*
X77644129Y-58437111D01*
X77517466Y-58577785D01*
X77422821Y-58741715D01*
X77422818Y-58741722D01*
X77367931Y-58910648D01*
X77364326Y-58921744D01*
X77344540Y-59110000D01*
X53962182Y-59110000D01*
X53956414Y-59094307D01*
X53962208Y-59047734D01*
X53983044Y-58983607D01*
X54022474Y-58862256D01*
X54042260Y-58674000D01*
X54022474Y-58485744D01*
X53963979Y-58305716D01*
X53869333Y-58141784D01*
X53742671Y-58001112D01*
X53672751Y-57950312D01*
X53589534Y-57889851D01*
X53589529Y-57889848D01*
X53416607Y-57812857D01*
X53416602Y-57812855D01*
X53270801Y-57781865D01*
X53231446Y-57773500D01*
X53042154Y-57773500D01*
X53009697Y-57780398D01*
X52856997Y-57812855D01*
X52856992Y-57812857D01*
X52684070Y-57889848D01*
X52684065Y-57889851D01*
X52530929Y-58001111D01*
X52404266Y-58141785D01*
X52309621Y-58305715D01*
X52309618Y-58305722D01*
X52251127Y-58485740D01*
X52251126Y-58485744D01*
X52231340Y-58674000D01*
X51750921Y-58674000D01*
X51756260Y-58623200D01*
X51736474Y-58434944D01*
X51677979Y-58254916D01*
X51583333Y-58090984D01*
X51456671Y-57950312D01*
X51438503Y-57937112D01*
X51303534Y-57839051D01*
X51303529Y-57839048D01*
X51130607Y-57762057D01*
X51130602Y-57762055D01*
X50971717Y-57728284D01*
X50945446Y-57722700D01*
X50756154Y-57722700D01*
X50729883Y-57728284D01*
X50570997Y-57762055D01*
X50570992Y-57762057D01*
X50398070Y-57839048D01*
X50398065Y-57839051D01*
X50244929Y-57950311D01*
X50118266Y-58090985D01*
X50023621Y-58254915D01*
X50023618Y-58254922D01*
X49979009Y-58392216D01*
X49965126Y-58434944D01*
X49945340Y-58623200D01*
X49965126Y-58811456D01*
X49965127Y-58811459D01*
X50023618Y-58991477D01*
X50023620Y-58991481D01*
X50023621Y-58991484D01*
X50056097Y-59047734D01*
X50100545Y-59124721D01*
X50117017Y-59192621D01*
X50094164Y-59258648D01*
X50039242Y-59301838D01*
X49969689Y-59308479D01*
X49942722Y-59300000D01*
X49911402Y-59286055D01*
X49765601Y-59255065D01*
X49726246Y-59246700D01*
X49536954Y-59246700D01*
X49504497Y-59253598D01*
X49351797Y-59286055D01*
X49351792Y-59286057D01*
X49323434Y-59298683D01*
X49254184Y-59307967D01*
X49190908Y-59278338D01*
X49153695Y-59219202D01*
X49149000Y-59185403D01*
X49149000Y-56666462D01*
X49168685Y-56599423D01*
X49185160Y-56578940D01*
X49257720Y-56506116D01*
X50893877Y-54864000D01*
X59350341Y-54864000D01*
X59370936Y-55099403D01*
X59370938Y-55099413D01*
X59432094Y-55327655D01*
X59432096Y-55327659D01*
X59432097Y-55327663D01*
X59436000Y-55336032D01*
X59531965Y-55541830D01*
X59531967Y-55541834D01*
X59640281Y-55696521D01*
X59667501Y-55735396D01*
X59667506Y-55735402D01*
X59789430Y-55857326D01*
X59822915Y-55918649D01*
X59817931Y-55988341D01*
X59776059Y-56044274D01*
X59745083Y-56061189D01*
X59613669Y-56110203D01*
X59613664Y-56110206D01*
X59498455Y-56196452D01*
X59498452Y-56196455D01*
X59412206Y-56311664D01*
X59412202Y-56311671D01*
X59361908Y-56446517D01*
X59355501Y-56506116D01*
X59355501Y-56506123D01*
X59355500Y-56506135D01*
X59355500Y-58301870D01*
X59355501Y-58301876D01*
X59361908Y-58361483D01*
X59412202Y-58496328D01*
X59412206Y-58496335D01*
X59498452Y-58611544D01*
X59498455Y-58611547D01*
X59613664Y-58697793D01*
X59613671Y-58697797D01*
X59748517Y-58748091D01*
X59748516Y-58748091D01*
X59755444Y-58748835D01*
X59808127Y-58754500D01*
X61603872Y-58754499D01*
X61663483Y-58748091D01*
X61798331Y-58697796D01*
X61913546Y-58611546D01*
X61999796Y-58496331D01*
X62050091Y-58361483D01*
X62056500Y-58301873D01*
X62056499Y-56506128D01*
X62050172Y-56447266D01*
X62050091Y-56446516D01*
X61999797Y-56311671D01*
X61999793Y-56311664D01*
X61913547Y-56196455D01*
X61913544Y-56196452D01*
X61798335Y-56110206D01*
X61798328Y-56110202D01*
X61666917Y-56061189D01*
X61610983Y-56019318D01*
X61586566Y-55953853D01*
X61601418Y-55885580D01*
X61622563Y-55857332D01*
X61744495Y-55735401D01*
X61874425Y-55549842D01*
X61929002Y-55506217D01*
X61998500Y-55499023D01*
X62060855Y-55530546D01*
X62077575Y-55549842D01*
X62207500Y-55735395D01*
X62207505Y-55735401D01*
X62374599Y-55902495D01*
X62447946Y-55953853D01*
X62568165Y-56038032D01*
X62568167Y-56038033D01*
X62568170Y-56038035D01*
X62782337Y-56137903D01*
X63010592Y-56199063D01*
X63198918Y-56215539D01*
X63245999Y-56219659D01*
X63246000Y-56219659D01*
X63246001Y-56219659D01*
X63285234Y-56216226D01*
X63481408Y-56199063D01*
X63709663Y-56137903D01*
X63923830Y-56038035D01*
X64117401Y-55902495D01*
X64284495Y-55735401D01*
X64414425Y-55549842D01*
X64469002Y-55506217D01*
X64538500Y-55499023D01*
X64600855Y-55530546D01*
X64617575Y-55549842D01*
X64747501Y-55735396D01*
X64747506Y-55735402D01*
X64914597Y-55902493D01*
X64914603Y-55902498D01*
X65100158Y-56032425D01*
X65143783Y-56087002D01*
X65150977Y-56156500D01*
X65119454Y-56218855D01*
X65100158Y-56235575D01*
X64914597Y-56365505D01*
X64747505Y-56532597D01*
X64611965Y-56726169D01*
X64611964Y-56726171D01*
X64512098Y-56940335D01*
X64512094Y-56940344D01*
X64450938Y-57168586D01*
X64450936Y-57168596D01*
X64430341Y-57403999D01*
X64430341Y-57404000D01*
X64450936Y-57639403D01*
X64450938Y-57639413D01*
X64512094Y-57867655D01*
X64512096Y-57867659D01*
X64512097Y-57867663D01*
X64592004Y-58039023D01*
X64611965Y-58081830D01*
X64611967Y-58081834D01*
X64672828Y-58168752D01*
X64747505Y-58275401D01*
X64914599Y-58442495D01*
X65011384Y-58510265D01*
X65108165Y-58578032D01*
X65108167Y-58578033D01*
X65108170Y-58578035D01*
X65322337Y-58677903D01*
X65550592Y-58739063D01*
X65727034Y-58754500D01*
X65785999Y-58759659D01*
X65786000Y-58759659D01*
X65786001Y-58759659D01*
X65844966Y-58754500D01*
X66021408Y-58739063D01*
X66249663Y-58677903D01*
X66463830Y-58578035D01*
X66657401Y-58442495D01*
X66824495Y-58275401D01*
X66954425Y-58089842D01*
X67009002Y-58046217D01*
X67078500Y-58039023D01*
X67140855Y-58070546D01*
X67157575Y-58089842D01*
X67287500Y-58275395D01*
X67287505Y-58275401D01*
X67454599Y-58442495D01*
X67551384Y-58510265D01*
X67648165Y-58578032D01*
X67648167Y-58578033D01*
X67648170Y-58578035D01*
X67862337Y-58677903D01*
X68090592Y-58739063D01*
X68267034Y-58754500D01*
X68325999Y-58759659D01*
X68326000Y-58759659D01*
X68326001Y-58759659D01*
X68384966Y-58754500D01*
X68561408Y-58739063D01*
X68789663Y-58677903D01*
X69003830Y-58578035D01*
X69197401Y-58442495D01*
X69364495Y-58275401D01*
X69494425Y-58089842D01*
X69549002Y-58046217D01*
X69618500Y-58039023D01*
X69680855Y-58070546D01*
X69697575Y-58089842D01*
X69827500Y-58275395D01*
X69827505Y-58275401D01*
X69994599Y-58442495D01*
X70091384Y-58510265D01*
X70188165Y-58578032D01*
X70188167Y-58578033D01*
X70188170Y-58578035D01*
X70402337Y-58677903D01*
X70630592Y-58739063D01*
X70807034Y-58754500D01*
X70865999Y-58759659D01*
X70866000Y-58759659D01*
X70866001Y-58759659D01*
X70924966Y-58754500D01*
X71101408Y-58739063D01*
X71329663Y-58677903D01*
X71543830Y-58578035D01*
X71737401Y-58442495D01*
X71904495Y-58275401D01*
X72040035Y-58081830D01*
X72139903Y-57867663D01*
X72201063Y-57639408D01*
X72221659Y-57404000D01*
X72201063Y-57168592D01*
X72139903Y-56940337D01*
X72040035Y-56726171D01*
X72034425Y-56718158D01*
X71904494Y-56532597D01*
X71737402Y-56365506D01*
X71737396Y-56365501D01*
X71551842Y-56235575D01*
X71508217Y-56180998D01*
X71501023Y-56111500D01*
X71532546Y-56049145D01*
X71551842Y-56032425D01*
X71641805Y-55969432D01*
X71737401Y-55902495D01*
X71904495Y-55735401D01*
X72040035Y-55541830D01*
X72139903Y-55327663D01*
X72201063Y-55099408D01*
X72221659Y-54864000D01*
X72201063Y-54628592D01*
X72139903Y-54400337D01*
X72040035Y-54186171D01*
X72034425Y-54178158D01*
X71904494Y-53992597D01*
X71737402Y-53825506D01*
X71737395Y-53825501D01*
X71543834Y-53689967D01*
X71543830Y-53689965D01*
X71543828Y-53689964D01*
X71329663Y-53590097D01*
X71329659Y-53590096D01*
X71329655Y-53590094D01*
X71101413Y-53528938D01*
X71101403Y-53528936D01*
X70866001Y-53508341D01*
X70865999Y-53508341D01*
X70630596Y-53528936D01*
X70630586Y-53528938D01*
X70402344Y-53590094D01*
X70402335Y-53590098D01*
X70188171Y-53689964D01*
X70188169Y-53689965D01*
X69994597Y-53825505D01*
X69827505Y-53992597D01*
X69697575Y-54178158D01*
X69642998Y-54221783D01*
X69573500Y-54228977D01*
X69511145Y-54197454D01*
X69494425Y-54178158D01*
X69364494Y-53992597D01*
X69197402Y-53825506D01*
X69197395Y-53825501D01*
X69003834Y-53689967D01*
X69003830Y-53689965D01*
X69003828Y-53689964D01*
X68789663Y-53590097D01*
X68789659Y-53590096D01*
X68789655Y-53590094D01*
X68561413Y-53528938D01*
X68561403Y-53528936D01*
X68326001Y-53508341D01*
X68325999Y-53508341D01*
X68090596Y-53528936D01*
X68090586Y-53528938D01*
X67862344Y-53590094D01*
X67862335Y-53590098D01*
X67648171Y-53689964D01*
X67648169Y-53689965D01*
X67454597Y-53825505D01*
X67287505Y-53992597D01*
X67157575Y-54178158D01*
X67102998Y-54221783D01*
X67033500Y-54228977D01*
X66971145Y-54197454D01*
X66954425Y-54178158D01*
X66824494Y-53992597D01*
X66657402Y-53825506D01*
X66657395Y-53825501D01*
X66463834Y-53689967D01*
X66463830Y-53689965D01*
X66463828Y-53689964D01*
X66249663Y-53590097D01*
X66249659Y-53590096D01*
X66249655Y-53590094D01*
X66021413Y-53528938D01*
X66021403Y-53528936D01*
X65786001Y-53508341D01*
X65785999Y-53508341D01*
X65550596Y-53528936D01*
X65550586Y-53528938D01*
X65322344Y-53590094D01*
X65322335Y-53590098D01*
X65108171Y-53689964D01*
X65108169Y-53689965D01*
X64914597Y-53825505D01*
X64747505Y-53992597D01*
X64617575Y-54178158D01*
X64562998Y-54221783D01*
X64493500Y-54228977D01*
X64431145Y-54197454D01*
X64414425Y-54178158D01*
X64284494Y-53992597D01*
X64117402Y-53825506D01*
X64117395Y-53825501D01*
X63923834Y-53689967D01*
X63923830Y-53689965D01*
X63923828Y-53689964D01*
X63709663Y-53590097D01*
X63709659Y-53590096D01*
X63709655Y-53590094D01*
X63481413Y-53528938D01*
X63481403Y-53528936D01*
X63246001Y-53508341D01*
X63245999Y-53508341D01*
X63010596Y-53528936D01*
X63010586Y-53528938D01*
X62782344Y-53590094D01*
X62782335Y-53590098D01*
X62568171Y-53689964D01*
X62568169Y-53689965D01*
X62374597Y-53825505D01*
X62207505Y-53992597D01*
X62077575Y-54178158D01*
X62022998Y-54221783D01*
X61953500Y-54228977D01*
X61891145Y-54197454D01*
X61874425Y-54178158D01*
X61744494Y-53992597D01*
X61577402Y-53825506D01*
X61577395Y-53825501D01*
X61383834Y-53689967D01*
X61383830Y-53689965D01*
X61383828Y-53689964D01*
X61169663Y-53590097D01*
X61169659Y-53590096D01*
X61169655Y-53590094D01*
X60941413Y-53528938D01*
X60941403Y-53528936D01*
X60706001Y-53508341D01*
X60705999Y-53508341D01*
X60470596Y-53528936D01*
X60470586Y-53528938D01*
X60242344Y-53590094D01*
X60242335Y-53590098D01*
X60028171Y-53689964D01*
X60028169Y-53689965D01*
X59834597Y-53825505D01*
X59667505Y-53992597D01*
X59531965Y-54186169D01*
X59531964Y-54186171D01*
X59432098Y-54400335D01*
X59432094Y-54400344D01*
X59370938Y-54628586D01*
X59370936Y-54628596D01*
X59350341Y-54863999D01*
X59350341Y-54864000D01*
X50893877Y-54864000D01*
X53576506Y-52171600D01*
X70214540Y-52171600D01*
X70234326Y-52359856D01*
X70234327Y-52359859D01*
X70292818Y-52539877D01*
X70292821Y-52539884D01*
X70387467Y-52703816D01*
X70514129Y-52844488D01*
X70667265Y-52955748D01*
X70667270Y-52955751D01*
X70840192Y-53032742D01*
X70840197Y-53032744D01*
X71025354Y-53072100D01*
X71025355Y-53072100D01*
X71214644Y-53072100D01*
X71214646Y-53072100D01*
X71399803Y-53032744D01*
X71572730Y-52955751D01*
X71725871Y-52844488D01*
X71852533Y-52703816D01*
X71947179Y-52539884D01*
X72005674Y-52359856D01*
X72025460Y-52171600D01*
X72005674Y-51983344D01*
X71951112Y-51815423D01*
X71947181Y-51803322D01*
X71947180Y-51803321D01*
X71947179Y-51803316D01*
X71852533Y-51639384D01*
X71725871Y-51498712D01*
X71725870Y-51498711D01*
X71572734Y-51387451D01*
X71572729Y-51387448D01*
X71399807Y-51310457D01*
X71399802Y-51310455D01*
X71234330Y-51275284D01*
X71214646Y-51271100D01*
X71025354Y-51271100D01*
X71005670Y-51275284D01*
X70840197Y-51310455D01*
X70840192Y-51310457D01*
X70667270Y-51387448D01*
X70667265Y-51387451D01*
X70514129Y-51498711D01*
X70387466Y-51639385D01*
X70292821Y-51803315D01*
X70292818Y-51803322D01*
X70234327Y-51983340D01*
X70234326Y-51983344D01*
X70214540Y-52171600D01*
X53576506Y-52171600D01*
X55792558Y-49947477D01*
X55853820Y-49913882D01*
X55880398Y-49911000D01*
X92277638Y-49911000D01*
X92344677Y-49930685D01*
G37*
%TD.AperFunction*%
%TD*%
%TA.AperFunction,Conductor*%
%TO.N,+5V*%
G36*
X106480677Y-38246685D02*
G01*
X106501319Y-38263319D01*
X108613681Y-40375681D01*
X108647166Y-40437004D01*
X108650000Y-40463362D01*
X108650000Y-117948637D01*
X108630315Y-118015676D01*
X108613681Y-118036318D01*
X102436817Y-124213181D01*
X102375494Y-124246666D01*
X102349136Y-124249500D01*
X100252129Y-124249500D01*
X100252123Y-124249501D01*
X100192516Y-124255908D01*
X100057671Y-124306202D01*
X100057664Y-124306206D01*
X99942455Y-124392452D01*
X99942452Y-124392455D01*
X99856206Y-124507664D01*
X99856202Y-124507671D01*
X99805908Y-124642517D01*
X99799501Y-124702116D01*
X99799500Y-124702135D01*
X99799500Y-124844000D01*
X99779815Y-124911039D01*
X99727011Y-124956794D01*
X99675500Y-124968000D01*
X85141362Y-124968000D01*
X85074323Y-124948315D01*
X85053681Y-124931681D01*
X82346800Y-122224800D01*
X83625740Y-122224800D01*
X83645526Y-122413056D01*
X83645527Y-122413059D01*
X83704018Y-122593077D01*
X83704021Y-122593084D01*
X83798667Y-122757016D01*
X83914085Y-122885200D01*
X83925329Y-122897688D01*
X84078465Y-123008948D01*
X84078470Y-123008951D01*
X84251392Y-123085942D01*
X84251397Y-123085944D01*
X84436554Y-123125300D01*
X84436555Y-123125300D01*
X84625844Y-123125300D01*
X84625846Y-123125300D01*
X84811003Y-123085944D01*
X84983930Y-123008951D01*
X85137071Y-122897688D01*
X85263733Y-122757016D01*
X85358379Y-122593084D01*
X85416874Y-122413056D01*
X85436660Y-122224800D01*
X85416874Y-122036544D01*
X85358379Y-121856516D01*
X85263733Y-121692584D01*
X85137071Y-121551912D01*
X85137070Y-121551911D01*
X84983934Y-121440651D01*
X84983929Y-121440648D01*
X84811007Y-121363657D01*
X84811002Y-121363655D01*
X84665201Y-121332665D01*
X84625846Y-121324300D01*
X84436554Y-121324300D01*
X84404097Y-121331198D01*
X84251397Y-121363655D01*
X84251392Y-121363657D01*
X84078470Y-121440648D01*
X84078465Y-121440651D01*
X83925329Y-121551911D01*
X83798666Y-121692585D01*
X83704021Y-121856515D01*
X83704018Y-121856522D01*
X83645527Y-122036540D01*
X83645526Y-122036544D01*
X83625740Y-122224800D01*
X82346800Y-122224800D01*
X81122004Y-121000004D01*
X99794592Y-121000004D01*
X99814196Y-121261620D01*
X99814197Y-121261625D01*
X99872576Y-121517402D01*
X99872578Y-121517411D01*
X99872580Y-121517416D01*
X99968432Y-121761643D01*
X100099614Y-121988857D01*
X100189084Y-122101049D01*
X100263198Y-122193985D01*
X100434560Y-122352984D01*
X100455521Y-122372433D01*
X100672296Y-122520228D01*
X100672301Y-122520230D01*
X100672302Y-122520231D01*
X100672303Y-122520232D01*
X100797843Y-122580688D01*
X100908673Y-122634061D01*
X100908674Y-122634061D01*
X100908677Y-122634063D01*
X101159385Y-122711396D01*
X101418818Y-122750500D01*
X101681182Y-122750500D01*
X101940615Y-122711396D01*
X102191323Y-122634063D01*
X102427704Y-122520228D01*
X102644479Y-122372433D01*
X102836805Y-122193981D01*
X103000386Y-121988857D01*
X103131568Y-121761643D01*
X103227420Y-121517416D01*
X103285802Y-121261630D01*
X103285803Y-121261620D01*
X103305408Y-121000004D01*
X103305408Y-120999995D01*
X103285803Y-120738379D01*
X103285802Y-120738374D01*
X103285802Y-120738370D01*
X103227420Y-120482584D01*
X103131568Y-120238357D01*
X103000386Y-120011143D01*
X102836805Y-119806019D01*
X102836804Y-119806018D01*
X102836801Y-119806014D01*
X102644479Y-119627567D01*
X102578580Y-119582638D01*
X102427704Y-119479772D01*
X102427700Y-119479770D01*
X102427697Y-119479768D01*
X102427696Y-119479767D01*
X102198680Y-119369480D01*
X102191325Y-119365938D01*
X102191327Y-119365938D01*
X101940623Y-119288606D01*
X101940619Y-119288605D01*
X101940615Y-119288604D01*
X101815823Y-119269794D01*
X101681187Y-119249500D01*
X101681182Y-119249500D01*
X101418818Y-119249500D01*
X101418812Y-119249500D01*
X101257247Y-119273853D01*
X101159385Y-119288604D01*
X101159382Y-119288605D01*
X101159376Y-119288606D01*
X100908673Y-119365938D01*
X100672303Y-119479767D01*
X100672302Y-119479768D01*
X100455520Y-119627567D01*
X100263198Y-119806014D01*
X100099614Y-120011143D01*
X99968432Y-120238356D01*
X99872582Y-120482578D01*
X99872576Y-120482597D01*
X99814197Y-120738374D01*
X99814196Y-120738379D01*
X99794592Y-120999995D01*
X99794592Y-121000004D01*
X81122004Y-121000004D01*
X81080764Y-120958764D01*
X81047279Y-120897441D01*
X81052263Y-120827749D01*
X81094135Y-120771816D01*
X81095560Y-120770765D01*
X81174671Y-120713288D01*
X81301333Y-120572616D01*
X81395979Y-120408684D01*
X81454474Y-120228656D01*
X81474260Y-120040400D01*
X81454474Y-119852144D01*
X81395979Y-119672116D01*
X81301333Y-119508184D01*
X81174671Y-119367512D01*
X81172505Y-119365938D01*
X81021534Y-119256251D01*
X81021529Y-119256248D01*
X80848607Y-119179257D01*
X80848602Y-119179255D01*
X80702801Y-119148265D01*
X80663446Y-119139900D01*
X80474154Y-119139900D01*
X80441697Y-119146798D01*
X80288997Y-119179255D01*
X80288992Y-119179257D01*
X80116070Y-119256248D01*
X80116065Y-119256251D01*
X79962929Y-119367511D01*
X79836267Y-119508183D01*
X79834880Y-119510093D01*
X79833794Y-119510929D01*
X79831919Y-119513013D01*
X79831537Y-119512669D01*
X79779548Y-119552756D01*
X79709934Y-119558732D01*
X79648141Y-119526123D01*
X79646884Y-119524884D01*
X78613000Y-118491000D01*
X54610000Y-118491000D01*
X54610000Y-119582638D01*
X54590315Y-119649677D01*
X54573681Y-119670319D01*
X49947319Y-124296681D01*
X49885996Y-124330166D01*
X49859638Y-124333000D01*
X49656999Y-124333000D01*
X45276319Y-128713681D01*
X45214996Y-128747166D01*
X45188638Y-128750000D01*
X35301362Y-128750000D01*
X35234323Y-128730315D01*
X35213681Y-128713681D01*
X32040319Y-125540319D01*
X32006834Y-125478996D01*
X32004000Y-125452638D01*
X32004000Y-123139200D01*
X48319740Y-123139200D01*
X48339526Y-123327456D01*
X48339527Y-123327459D01*
X48398018Y-123507477D01*
X48398021Y-123507484D01*
X48492667Y-123671416D01*
X48595569Y-123785700D01*
X48619329Y-123812088D01*
X48772465Y-123923348D01*
X48772470Y-123923351D01*
X48945392Y-124000342D01*
X48945397Y-124000344D01*
X49130554Y-124039700D01*
X49130555Y-124039700D01*
X49319844Y-124039700D01*
X49319846Y-124039700D01*
X49505003Y-124000344D01*
X49677930Y-123923351D01*
X49831071Y-123812088D01*
X49957733Y-123671416D01*
X50052379Y-123507484D01*
X50110874Y-123327456D01*
X50130660Y-123139200D01*
X50110874Y-122950944D01*
X50052379Y-122770916D01*
X49957733Y-122606984D01*
X49831071Y-122466312D01*
X49831070Y-122466311D01*
X49677934Y-122355051D01*
X49677929Y-122355048D01*
X49505007Y-122278057D01*
X49505002Y-122278055D01*
X49359201Y-122247065D01*
X49319846Y-122238700D01*
X49130554Y-122238700D01*
X49098097Y-122245598D01*
X48945397Y-122278055D01*
X48945392Y-122278057D01*
X48772470Y-122355048D01*
X48772465Y-122355051D01*
X48619329Y-122466311D01*
X48492666Y-122606985D01*
X48398021Y-122770915D01*
X48398018Y-122770922D01*
X48356830Y-122897688D01*
X48339526Y-122950944D01*
X48319740Y-123139200D01*
X32004000Y-123139200D01*
X32004000Y-120904000D01*
X44255740Y-120904000D01*
X44275526Y-121092256D01*
X44275527Y-121092259D01*
X44334018Y-121272277D01*
X44334021Y-121272284D01*
X44428667Y-121436216D01*
X44555329Y-121576888D01*
X44708465Y-121688148D01*
X44708470Y-121688151D01*
X44881392Y-121765142D01*
X44881397Y-121765144D01*
X45066554Y-121804500D01*
X45066555Y-121804500D01*
X45255844Y-121804500D01*
X45255846Y-121804500D01*
X45441003Y-121765144D01*
X45613930Y-121688151D01*
X45767071Y-121576888D01*
X45893733Y-121436216D01*
X45988379Y-121272284D01*
X46046874Y-121092256D01*
X46066660Y-120904000D01*
X46046874Y-120715744D01*
X45988379Y-120535716D01*
X45966373Y-120497600D01*
X48726140Y-120497600D01*
X48745926Y-120685856D01*
X48745927Y-120685859D01*
X48804418Y-120865877D01*
X48804421Y-120865884D01*
X48899067Y-121029816D01*
X49025729Y-121170488D01*
X49178865Y-121281748D01*
X49178870Y-121281751D01*
X49351792Y-121358742D01*
X49351797Y-121358744D01*
X49536954Y-121398100D01*
X49536955Y-121398100D01*
X49726244Y-121398100D01*
X49726246Y-121398100D01*
X49911403Y-121358744D01*
X50084330Y-121281751D01*
X50237471Y-121170488D01*
X50364133Y-121029816D01*
X50458779Y-120865884D01*
X50517274Y-120685856D01*
X50537060Y-120497600D01*
X50517274Y-120309344D01*
X50458779Y-120129316D01*
X50364133Y-119965384D01*
X50237471Y-119824712D01*
X50237470Y-119824711D01*
X50084334Y-119713451D01*
X50084329Y-119713448D01*
X49911407Y-119636457D01*
X49911402Y-119636455D01*
X49765601Y-119605465D01*
X49726246Y-119597100D01*
X49536954Y-119597100D01*
X49504497Y-119603998D01*
X49351797Y-119636455D01*
X49351792Y-119636457D01*
X49178870Y-119713448D01*
X49178865Y-119713451D01*
X49025729Y-119824711D01*
X48899066Y-119965385D01*
X48804421Y-120129315D01*
X48804418Y-120129322D01*
X48768991Y-120238357D01*
X48745926Y-120309344D01*
X48726140Y-120497600D01*
X45966373Y-120497600D01*
X45893733Y-120371784D01*
X45767071Y-120231112D01*
X45763691Y-120228656D01*
X45613934Y-120119851D01*
X45613929Y-120119848D01*
X45441007Y-120042857D01*
X45441002Y-120042855D01*
X45291804Y-120011143D01*
X45255846Y-120003500D01*
X45066554Y-120003500D01*
X45034097Y-120010398D01*
X44881397Y-120042855D01*
X44881392Y-120042857D01*
X44708470Y-120119848D01*
X44708465Y-120119851D01*
X44555329Y-120231111D01*
X44428666Y-120371785D01*
X44334021Y-120535715D01*
X44334018Y-120535722D01*
X44285237Y-120685856D01*
X44275526Y-120715744D01*
X44255740Y-120904000D01*
X32004000Y-120904000D01*
X32004000Y-117500400D01*
X48421340Y-117500400D01*
X48441126Y-117688656D01*
X48441127Y-117688659D01*
X48499618Y-117868677D01*
X48499621Y-117868684D01*
X48594267Y-118032616D01*
X48720929Y-118173288D01*
X48874065Y-118284548D01*
X48874070Y-118284551D01*
X49046992Y-118361542D01*
X49046997Y-118361544D01*
X49232154Y-118400900D01*
X49232155Y-118400900D01*
X49421444Y-118400900D01*
X49421446Y-118400900D01*
X49606603Y-118361544D01*
X49779530Y-118284551D01*
X49932671Y-118173288D01*
X50059333Y-118032616D01*
X50153979Y-117868684D01*
X50212474Y-117688656D01*
X50232260Y-117500400D01*
X79460140Y-117500400D01*
X79479926Y-117688656D01*
X79479927Y-117688659D01*
X79538418Y-117868677D01*
X79538421Y-117868684D01*
X79633067Y-118032616D01*
X79759729Y-118173288D01*
X79912865Y-118284548D01*
X79912870Y-118284551D01*
X80085792Y-118361542D01*
X80085797Y-118361544D01*
X80270954Y-118400900D01*
X80270955Y-118400900D01*
X80460244Y-118400900D01*
X80460246Y-118400900D01*
X80645403Y-118361544D01*
X80818330Y-118284551D01*
X80971471Y-118173288D01*
X81098133Y-118032616D01*
X81192779Y-117868684D01*
X81251274Y-117688656D01*
X81271060Y-117500400D01*
X81251274Y-117312144D01*
X81192779Y-117132116D01*
X81112114Y-116992400D01*
X83676540Y-116992400D01*
X83696326Y-117180656D01*
X83696327Y-117180659D01*
X83754818Y-117360677D01*
X83754821Y-117360684D01*
X83849467Y-117524616D01*
X83948012Y-117634061D01*
X83976129Y-117665288D01*
X84129265Y-117776548D01*
X84129270Y-117776551D01*
X84302192Y-117853542D01*
X84302197Y-117853544D01*
X84487354Y-117892900D01*
X84487355Y-117892900D01*
X84676644Y-117892900D01*
X84676646Y-117892900D01*
X84861803Y-117853544D01*
X85034730Y-117776551D01*
X85187871Y-117665288D01*
X85314533Y-117524616D01*
X85409179Y-117360684D01*
X85467674Y-117180656D01*
X85487460Y-116992400D01*
X85467674Y-116804144D01*
X85409179Y-116624116D01*
X85314533Y-116460184D01*
X85187871Y-116319512D01*
X85187870Y-116319511D01*
X85034734Y-116208251D01*
X85034729Y-116208248D01*
X84861807Y-116131257D01*
X84861802Y-116131255D01*
X84716001Y-116100265D01*
X84676646Y-116091900D01*
X84487354Y-116091900D01*
X84454897Y-116098798D01*
X84302197Y-116131255D01*
X84302192Y-116131257D01*
X84129270Y-116208248D01*
X84129265Y-116208251D01*
X83976129Y-116319511D01*
X83849466Y-116460185D01*
X83754821Y-116624115D01*
X83754818Y-116624122D01*
X83724884Y-116716251D01*
X83696326Y-116804144D01*
X83676540Y-116992400D01*
X81112114Y-116992400D01*
X81098133Y-116968184D01*
X80971471Y-116827512D01*
X80939308Y-116804144D01*
X80818334Y-116716251D01*
X80818329Y-116716248D01*
X80645407Y-116639257D01*
X80645402Y-116639255D01*
X80499601Y-116608265D01*
X80460246Y-116599900D01*
X80270954Y-116599900D01*
X80238497Y-116606798D01*
X80085797Y-116639255D01*
X80085792Y-116639257D01*
X79912870Y-116716248D01*
X79912865Y-116716251D01*
X79759729Y-116827511D01*
X79633066Y-116968185D01*
X79538421Y-117132115D01*
X79538418Y-117132122D01*
X79518318Y-117193985D01*
X79479926Y-117312144D01*
X79460140Y-117500400D01*
X50232260Y-117500400D01*
X50212474Y-117312144D01*
X50153979Y-117132116D01*
X50059333Y-116968184D01*
X49932671Y-116827512D01*
X49900508Y-116804144D01*
X49779534Y-116716251D01*
X49779529Y-116716248D01*
X49606607Y-116639257D01*
X49606602Y-116639255D01*
X49460801Y-116608265D01*
X49421446Y-116599900D01*
X49232154Y-116599900D01*
X49199697Y-116606798D01*
X49046997Y-116639255D01*
X49046992Y-116639257D01*
X48874070Y-116716248D01*
X48874065Y-116716251D01*
X48720929Y-116827511D01*
X48594266Y-116968185D01*
X48499621Y-117132115D01*
X48499618Y-117132122D01*
X48479518Y-117193985D01*
X48441126Y-117312144D01*
X48421340Y-117500400D01*
X32004000Y-117500400D01*
X32004000Y-115468400D01*
X44306540Y-115468400D01*
X44326326Y-115656656D01*
X44326327Y-115656659D01*
X44384818Y-115836677D01*
X44384821Y-115836684D01*
X44479467Y-116000616D01*
X44561660Y-116091900D01*
X44606129Y-116141288D01*
X44759265Y-116252548D01*
X44759270Y-116252551D01*
X44932192Y-116329542D01*
X44932197Y-116329544D01*
X45117354Y-116368900D01*
X45117355Y-116368900D01*
X45306644Y-116368900D01*
X45306646Y-116368900D01*
X45491803Y-116329544D01*
X45664730Y-116252551D01*
X45817871Y-116141288D01*
X45944533Y-116000616D01*
X45944886Y-116000004D01*
X99794592Y-116000004D01*
X99814196Y-116261620D01*
X99814197Y-116261625D01*
X99872576Y-116517402D01*
X99872578Y-116517411D01*
X99872580Y-116517416D01*
X99968432Y-116761643D01*
X100099614Y-116988857D01*
X100213859Y-117132116D01*
X100263198Y-117193985D01*
X100442851Y-117360677D01*
X100455521Y-117372433D01*
X100672296Y-117520228D01*
X100672301Y-117520230D01*
X100672302Y-117520231D01*
X100672303Y-117520232D01*
X100797843Y-117580688D01*
X100908673Y-117634061D01*
X100908674Y-117634061D01*
X100908677Y-117634063D01*
X101159385Y-117711396D01*
X101418818Y-117750500D01*
X101681182Y-117750500D01*
X101940615Y-117711396D01*
X102191323Y-117634063D01*
X102418592Y-117524616D01*
X102427696Y-117520232D01*
X102427696Y-117520231D01*
X102427704Y-117520228D01*
X102644479Y-117372433D01*
X102836805Y-117193981D01*
X103000386Y-116988857D01*
X103131568Y-116761643D01*
X103227420Y-116517416D01*
X103285802Y-116261630D01*
X103285803Y-116261620D01*
X103305408Y-116000004D01*
X103305408Y-115999995D01*
X103285803Y-115738379D01*
X103285802Y-115738374D01*
X103285802Y-115738370D01*
X103227420Y-115482584D01*
X103131568Y-115238357D01*
X103000386Y-115011143D01*
X102836805Y-114806019D01*
X102836804Y-114806018D01*
X102836801Y-114806014D01*
X102644479Y-114627567D01*
X102614687Y-114607255D01*
X102427704Y-114479772D01*
X102427700Y-114479770D01*
X102427697Y-114479768D01*
X102427696Y-114479767D01*
X102191325Y-114365938D01*
X102191327Y-114365938D01*
X101940623Y-114288606D01*
X101940619Y-114288605D01*
X101940615Y-114288604D01*
X101815823Y-114269794D01*
X101681187Y-114249500D01*
X101681182Y-114249500D01*
X101418818Y-114249500D01*
X101418812Y-114249500D01*
X101257247Y-114273853D01*
X101159385Y-114288604D01*
X101159382Y-114288605D01*
X101159376Y-114288606D01*
X100908673Y-114365938D01*
X100672303Y-114479767D01*
X100672302Y-114479768D01*
X100455520Y-114627567D01*
X100263198Y-114806014D01*
X100099614Y-115011143D01*
X99968432Y-115238356D01*
X99872582Y-115482578D01*
X99872576Y-115482597D01*
X99814197Y-115738374D01*
X99814196Y-115738379D01*
X99794592Y-115999995D01*
X99794592Y-116000004D01*
X45944886Y-116000004D01*
X46039179Y-115836684D01*
X46097674Y-115656656D01*
X46117460Y-115468400D01*
X46097674Y-115280144D01*
X46039179Y-115100116D01*
X45944533Y-114936184D01*
X45920597Y-114909600D01*
X48675340Y-114909600D01*
X48695126Y-115097856D01*
X48695127Y-115097859D01*
X48753618Y-115277877D01*
X48753621Y-115277884D01*
X48848267Y-115441816D01*
X48961472Y-115567542D01*
X48974929Y-115582488D01*
X49128065Y-115693748D01*
X49128070Y-115693751D01*
X49300992Y-115770742D01*
X49300997Y-115770744D01*
X49486154Y-115810100D01*
X49486155Y-115810100D01*
X49675444Y-115810100D01*
X49675446Y-115810100D01*
X49860603Y-115770744D01*
X50033530Y-115693751D01*
X50186671Y-115582488D01*
X50313333Y-115441816D01*
X50407979Y-115277884D01*
X50466474Y-115097856D01*
X50486260Y-114909600D01*
X50466474Y-114721344D01*
X50461618Y-114706400D01*
X79815740Y-114706400D01*
X79835526Y-114894656D01*
X79835527Y-114894659D01*
X79894018Y-115074677D01*
X79894021Y-115074684D01*
X79988667Y-115238616D01*
X80115329Y-115379288D01*
X80268465Y-115490548D01*
X80268470Y-115490551D01*
X80441392Y-115567542D01*
X80441397Y-115567544D01*
X80626554Y-115606900D01*
X80626555Y-115606900D01*
X80815844Y-115606900D01*
X80815846Y-115606900D01*
X81001003Y-115567544D01*
X81173930Y-115490551D01*
X81327071Y-115379288D01*
X81453733Y-115238616D01*
X81548379Y-115074684D01*
X81606874Y-114894656D01*
X81626660Y-114706400D01*
X81606874Y-114518144D01*
X81548379Y-114338116D01*
X81453733Y-114174184D01*
X81327071Y-114033512D01*
X81293471Y-114009100D01*
X81173934Y-113922251D01*
X81173929Y-113922248D01*
X81001007Y-113845257D01*
X81001002Y-113845255D01*
X80855201Y-113814265D01*
X80815846Y-113805900D01*
X80626554Y-113805900D01*
X80594097Y-113812798D01*
X80441397Y-113845255D01*
X80441392Y-113845257D01*
X80268470Y-113922248D01*
X80268465Y-113922251D01*
X80115329Y-114033511D01*
X79988666Y-114174185D01*
X79894021Y-114338115D01*
X79894018Y-114338122D01*
X79835527Y-114518140D01*
X79835526Y-114518144D01*
X79815740Y-114706400D01*
X50461618Y-114706400D01*
X50407979Y-114541316D01*
X50313333Y-114377384D01*
X50186671Y-114236712D01*
X50100610Y-114174185D01*
X50033534Y-114125451D01*
X50033529Y-114125448D01*
X49860607Y-114048457D01*
X49860602Y-114048455D01*
X49714801Y-114017465D01*
X49675446Y-114009100D01*
X49486154Y-114009100D01*
X49453697Y-114015998D01*
X49300997Y-114048455D01*
X49300992Y-114048457D01*
X49128070Y-114125448D01*
X49128065Y-114125451D01*
X48974929Y-114236711D01*
X48848266Y-114377385D01*
X48753621Y-114541315D01*
X48753618Y-114541322D01*
X48695127Y-114721340D01*
X48695126Y-114721344D01*
X48675340Y-114909600D01*
X45920597Y-114909600D01*
X45817871Y-114795512D01*
X45817870Y-114795511D01*
X45664734Y-114684251D01*
X45664729Y-114684248D01*
X45491807Y-114607257D01*
X45491802Y-114607255D01*
X45346001Y-114576265D01*
X45306646Y-114567900D01*
X45117354Y-114567900D01*
X45084897Y-114574798D01*
X44932197Y-114607255D01*
X44932192Y-114607257D01*
X44759270Y-114684248D01*
X44759265Y-114684251D01*
X44606129Y-114795511D01*
X44479466Y-114936185D01*
X44384821Y-115100115D01*
X44384818Y-115100122D01*
X44327060Y-115277884D01*
X44326326Y-115280144D01*
X44306540Y-115468400D01*
X32004000Y-115468400D01*
X32004000Y-112268000D01*
X49132540Y-112268000D01*
X49152326Y-112456256D01*
X49152327Y-112456259D01*
X49210818Y-112636277D01*
X49210821Y-112636284D01*
X49305467Y-112800216D01*
X49432129Y-112940888D01*
X49585265Y-113052148D01*
X49585270Y-113052151D01*
X49758192Y-113129142D01*
X49758197Y-113129144D01*
X49943354Y-113168500D01*
X49943355Y-113168500D01*
X50132644Y-113168500D01*
X50132646Y-113168500D01*
X50317803Y-113129144D01*
X50490730Y-113052151D01*
X50643871Y-112940888D01*
X50770533Y-112800216D01*
X50865179Y-112636284D01*
X50923674Y-112456256D01*
X50943460Y-112268000D01*
X50938121Y-112217200D01*
X79510940Y-112217200D01*
X79530726Y-112405456D01*
X79530727Y-112405459D01*
X79589218Y-112585477D01*
X79589221Y-112585484D01*
X79683867Y-112749416D01*
X79729606Y-112800214D01*
X79810529Y-112890088D01*
X79963665Y-113001348D01*
X79963670Y-113001351D01*
X80136592Y-113078342D01*
X80136597Y-113078344D01*
X80321754Y-113117700D01*
X80321755Y-113117700D01*
X80511044Y-113117700D01*
X80511046Y-113117700D01*
X80696203Y-113078344D01*
X80869130Y-113001351D01*
X81022271Y-112890088D01*
X81148933Y-112749416D01*
X81243579Y-112585484D01*
X81302074Y-112405456D01*
X81321860Y-112217200D01*
X81302074Y-112028944D01*
X81243579Y-111848916D01*
X81221573Y-111810800D01*
X83727340Y-111810800D01*
X83747126Y-111999056D01*
X83747127Y-111999059D01*
X83805618Y-112179077D01*
X83805621Y-112179084D01*
X83900267Y-112343016D01*
X84002229Y-112456256D01*
X84026929Y-112483688D01*
X84180065Y-112594948D01*
X84180070Y-112594951D01*
X84352992Y-112671942D01*
X84352997Y-112671944D01*
X84538154Y-112711300D01*
X84538155Y-112711300D01*
X84727444Y-112711300D01*
X84727446Y-112711300D01*
X84912603Y-112671944D01*
X85085530Y-112594951D01*
X85238671Y-112483688D01*
X85365333Y-112343016D01*
X85459979Y-112179084D01*
X85518474Y-111999056D01*
X85538260Y-111810800D01*
X85518474Y-111622544D01*
X85459979Y-111442516D01*
X85365333Y-111278584D01*
X85238671Y-111137912D01*
X85238670Y-111137911D01*
X85085534Y-111026651D01*
X85085529Y-111026648D01*
X85025687Y-111000004D01*
X99794592Y-111000004D01*
X99814196Y-111261620D01*
X99814197Y-111261625D01*
X99872576Y-111517402D01*
X99872578Y-111517411D01*
X99872580Y-111517416D01*
X99968432Y-111761643D01*
X100099614Y-111988857D01*
X100172091Y-112079740D01*
X100263198Y-112193985D01*
X100423815Y-112343014D01*
X100455521Y-112372433D01*
X100672296Y-112520228D01*
X100672301Y-112520230D01*
X100672302Y-112520231D01*
X100672303Y-112520232D01*
X100797843Y-112580688D01*
X100908673Y-112634061D01*
X100908674Y-112634061D01*
X100908677Y-112634063D01*
X101159385Y-112711396D01*
X101418818Y-112750500D01*
X101681182Y-112750500D01*
X101940615Y-112711396D01*
X102191323Y-112634063D01*
X102427704Y-112520228D01*
X102644479Y-112372433D01*
X102836805Y-112193981D01*
X103000386Y-111988857D01*
X103131568Y-111761643D01*
X103227420Y-111517416D01*
X103285802Y-111261630D01*
X103295073Y-111137912D01*
X103305408Y-111000004D01*
X103305408Y-110999995D01*
X103285803Y-110738379D01*
X103285802Y-110738374D01*
X103285802Y-110738370D01*
X103227420Y-110482584D01*
X103131568Y-110238357D01*
X103000386Y-110011143D01*
X102836805Y-109806019D01*
X102836804Y-109806018D01*
X102836801Y-109806014D01*
X102644479Y-109627567D01*
X102427704Y-109479772D01*
X102427700Y-109479770D01*
X102427697Y-109479768D01*
X102427696Y-109479767D01*
X102191325Y-109365938D01*
X102191327Y-109365938D01*
X101940623Y-109288606D01*
X101940619Y-109288605D01*
X101940615Y-109288604D01*
X101815823Y-109269794D01*
X101681187Y-109249500D01*
X101681182Y-109249500D01*
X101418818Y-109249500D01*
X101418812Y-109249500D01*
X101257247Y-109273853D01*
X101159385Y-109288604D01*
X101159382Y-109288605D01*
X101159376Y-109288606D01*
X100908673Y-109365938D01*
X100672303Y-109479767D01*
X100672302Y-109479768D01*
X100455520Y-109627567D01*
X100263198Y-109806014D01*
X100099614Y-110011143D01*
X99968432Y-110238356D01*
X99872582Y-110482578D01*
X99872576Y-110482597D01*
X99814197Y-110738374D01*
X99814196Y-110738379D01*
X99794592Y-110999995D01*
X99794592Y-111000004D01*
X85025687Y-111000004D01*
X84912607Y-110949657D01*
X84912602Y-110949655D01*
X84766801Y-110918665D01*
X84727446Y-110910300D01*
X84538154Y-110910300D01*
X84505697Y-110917198D01*
X84352997Y-110949655D01*
X84352992Y-110949657D01*
X84180070Y-111026648D01*
X84180065Y-111026651D01*
X84026929Y-111137911D01*
X83900266Y-111278585D01*
X83805621Y-111442515D01*
X83805618Y-111442522D01*
X83756039Y-111595112D01*
X83747126Y-111622544D01*
X83727340Y-111810800D01*
X81221573Y-111810800D01*
X81148933Y-111684984D01*
X81022271Y-111544312D01*
X80985252Y-111517416D01*
X80869134Y-111433051D01*
X80869129Y-111433048D01*
X80696207Y-111356057D01*
X80696202Y-111356055D01*
X80550401Y-111325065D01*
X80511046Y-111316700D01*
X80321754Y-111316700D01*
X80289297Y-111323598D01*
X80136597Y-111356055D01*
X80136592Y-111356057D01*
X79963670Y-111433048D01*
X79963665Y-111433051D01*
X79810529Y-111544311D01*
X79683866Y-111684985D01*
X79589221Y-111848915D01*
X79589218Y-111848922D01*
X79543751Y-111988856D01*
X79530726Y-112028944D01*
X79510940Y-112217200D01*
X50938121Y-112217200D01*
X50923674Y-112079744D01*
X50865179Y-111899716D01*
X50770533Y-111735784D01*
X50643871Y-111595112D01*
X50573951Y-111544312D01*
X50490734Y-111483851D01*
X50490729Y-111483848D01*
X50317807Y-111406857D01*
X50317802Y-111406855D01*
X50172001Y-111375865D01*
X50132646Y-111367500D01*
X49943354Y-111367500D01*
X49910897Y-111374398D01*
X49758197Y-111406855D01*
X49758192Y-111406857D01*
X49585270Y-111483848D01*
X49585265Y-111483851D01*
X49432129Y-111595111D01*
X49305466Y-111735785D01*
X49210821Y-111899715D01*
X49210818Y-111899722D01*
X49178543Y-111999056D01*
X49152326Y-112079744D01*
X49132540Y-112268000D01*
X32004000Y-112268000D01*
X32004000Y-109931200D01*
X44306540Y-109931200D01*
X44326326Y-110119456D01*
X44326327Y-110119459D01*
X44384818Y-110299477D01*
X44384821Y-110299484D01*
X44479467Y-110463416D01*
X44496738Y-110482597D01*
X44606129Y-110604088D01*
X44759265Y-110715348D01*
X44759270Y-110715351D01*
X44932192Y-110792342D01*
X44932197Y-110792344D01*
X45117354Y-110831700D01*
X45117355Y-110831700D01*
X45306644Y-110831700D01*
X45306646Y-110831700D01*
X45491803Y-110792344D01*
X45664730Y-110715351D01*
X45817871Y-110604088D01*
X45944533Y-110463416D01*
X46039179Y-110299484D01*
X46097674Y-110119456D01*
X46117460Y-109931200D01*
X46097674Y-109742944D01*
X46039179Y-109562916D01*
X45944533Y-109398984D01*
X45874856Y-109321600D01*
X48980140Y-109321600D01*
X48999926Y-109509856D01*
X48999927Y-109509859D01*
X49058418Y-109689877D01*
X49058421Y-109689884D01*
X49153067Y-109853816D01*
X49222744Y-109931200D01*
X49279729Y-109994488D01*
X49432865Y-110105748D01*
X49432870Y-110105751D01*
X49605792Y-110182742D01*
X49605797Y-110182744D01*
X49790954Y-110222100D01*
X49790955Y-110222100D01*
X49980244Y-110222100D01*
X49980246Y-110222100D01*
X50165403Y-110182744D01*
X50338330Y-110105751D01*
X50491471Y-109994488D01*
X50618133Y-109853816D01*
X50712779Y-109689884D01*
X50771274Y-109509856D01*
X50791060Y-109321600D01*
X50771274Y-109133344D01*
X50712779Y-108953316D01*
X50618133Y-108789384D01*
X50491471Y-108648712D01*
X50491470Y-108648711D01*
X50338334Y-108537451D01*
X50338329Y-108537448D01*
X50165407Y-108460457D01*
X50165402Y-108460455D01*
X50019601Y-108429465D01*
X49980246Y-108421100D01*
X49790954Y-108421100D01*
X49758497Y-108427998D01*
X49605797Y-108460455D01*
X49605792Y-108460457D01*
X49432870Y-108537448D01*
X49432865Y-108537451D01*
X49279729Y-108648711D01*
X49153066Y-108789385D01*
X49058421Y-108953315D01*
X49058418Y-108953322D01*
X49020489Y-109070057D01*
X48999926Y-109133344D01*
X48980140Y-109321600D01*
X45874856Y-109321600D01*
X45817871Y-109258312D01*
X45817870Y-109258311D01*
X45664734Y-109147051D01*
X45664729Y-109147048D01*
X45491807Y-109070057D01*
X45491802Y-109070055D01*
X45346001Y-109039065D01*
X45306646Y-109030700D01*
X45117354Y-109030700D01*
X45084897Y-109037598D01*
X44932197Y-109070055D01*
X44932192Y-109070057D01*
X44759270Y-109147048D01*
X44759265Y-109147051D01*
X44606129Y-109258311D01*
X44479466Y-109398985D01*
X44384821Y-109562915D01*
X44384818Y-109562922D01*
X44343566Y-109689884D01*
X44326326Y-109742944D01*
X44306540Y-109931200D01*
X32004000Y-109931200D01*
X32004000Y-100533200D01*
X48624540Y-100533200D01*
X48644326Y-100721456D01*
X48644327Y-100721459D01*
X48702818Y-100901477D01*
X48702821Y-100901484D01*
X48797467Y-101065416D01*
X48867144Y-101142800D01*
X48924129Y-101206088D01*
X49077265Y-101317348D01*
X49077270Y-101317351D01*
X49250192Y-101394342D01*
X49250197Y-101394344D01*
X49435354Y-101433700D01*
X49435355Y-101433700D01*
X49624644Y-101433700D01*
X49624646Y-101433700D01*
X49809803Y-101394344D01*
X49982730Y-101317351D01*
X50135871Y-101206088D01*
X50262533Y-101065416D01*
X50357179Y-100901484D01*
X50415674Y-100721456D01*
X50435460Y-100533200D01*
X50415674Y-100344944D01*
X50357179Y-100164916D01*
X50262533Y-100000984D01*
X50135871Y-99860312D01*
X50133928Y-99858900D01*
X49982734Y-99749051D01*
X49982729Y-99749048D01*
X49809807Y-99672057D01*
X49809802Y-99672055D01*
X49664001Y-99641065D01*
X49624646Y-99632700D01*
X49435354Y-99632700D01*
X49402897Y-99639598D01*
X49250197Y-99672055D01*
X49250192Y-99672057D01*
X49077270Y-99749048D01*
X49077265Y-99749051D01*
X48924129Y-99860311D01*
X48797466Y-100000985D01*
X48702821Y-100164915D01*
X48702818Y-100164922D01*
X48664889Y-100281657D01*
X48644326Y-100344944D01*
X48624540Y-100533200D01*
X32004000Y-100533200D01*
X32004000Y-98958400D01*
X44255740Y-98958400D01*
X44275526Y-99146656D01*
X44275527Y-99146659D01*
X44334018Y-99326677D01*
X44334021Y-99326684D01*
X44428667Y-99490616D01*
X44555329Y-99631288D01*
X44708465Y-99742548D01*
X44708470Y-99742551D01*
X44881392Y-99819542D01*
X44881397Y-99819544D01*
X45066554Y-99858900D01*
X45066555Y-99858900D01*
X45255844Y-99858900D01*
X45255846Y-99858900D01*
X45441003Y-99819544D01*
X45613930Y-99742551D01*
X45767071Y-99631288D01*
X45893733Y-99490616D01*
X45988379Y-99326684D01*
X46046874Y-99146656D01*
X46066660Y-98958400D01*
X46046874Y-98770144D01*
X45988379Y-98590116D01*
X45893733Y-98426184D01*
X45778315Y-98298000D01*
X49030940Y-98298000D01*
X49050726Y-98486256D01*
X49050727Y-98486259D01*
X49109218Y-98666277D01*
X49109221Y-98666284D01*
X49203867Y-98830216D01*
X49319285Y-98958400D01*
X49330529Y-98970888D01*
X49483665Y-99082148D01*
X49483670Y-99082151D01*
X49656592Y-99159142D01*
X49656597Y-99159144D01*
X49841754Y-99198500D01*
X49841755Y-99198500D01*
X50031044Y-99198500D01*
X50031046Y-99198500D01*
X50216203Y-99159144D01*
X50389130Y-99082151D01*
X50542271Y-98970888D01*
X50668933Y-98830216D01*
X50763579Y-98666284D01*
X50822074Y-98486256D01*
X50841860Y-98298000D01*
X50822074Y-98109744D01*
X50763579Y-97929716D01*
X50668933Y-97765784D01*
X50542271Y-97625112D01*
X50528971Y-97615449D01*
X50389134Y-97513851D01*
X50389129Y-97513848D01*
X50216207Y-97436857D01*
X50216202Y-97436855D01*
X50070401Y-97405865D01*
X50031046Y-97397500D01*
X49841754Y-97397500D01*
X49809297Y-97404398D01*
X49656597Y-97436855D01*
X49656592Y-97436857D01*
X49483670Y-97513848D01*
X49483665Y-97513851D01*
X49330529Y-97625111D01*
X49203866Y-97765785D01*
X49109221Y-97929715D01*
X49109218Y-97929722D01*
X49054783Y-98097257D01*
X49050726Y-98109744D01*
X49030940Y-98298000D01*
X45778315Y-98298000D01*
X45767071Y-98285512D01*
X45717505Y-98249500D01*
X45613934Y-98174251D01*
X45613929Y-98174248D01*
X45441007Y-98097257D01*
X45441002Y-98097255D01*
X45295201Y-98066265D01*
X45255846Y-98057900D01*
X45066554Y-98057900D01*
X45034097Y-98064798D01*
X44881397Y-98097255D01*
X44881392Y-98097257D01*
X44708470Y-98174248D01*
X44708465Y-98174251D01*
X44555329Y-98285511D01*
X44428666Y-98426185D01*
X44334021Y-98590115D01*
X44334018Y-98590122D01*
X44276260Y-98767884D01*
X44275526Y-98770144D01*
X44255740Y-98958400D01*
X32004000Y-98958400D01*
X32004000Y-95554800D01*
X48421340Y-95554800D01*
X48441126Y-95743056D01*
X48441127Y-95743059D01*
X48499618Y-95923077D01*
X48499621Y-95923084D01*
X48594267Y-96087016D01*
X48690579Y-96193981D01*
X48720929Y-96227688D01*
X48874065Y-96338948D01*
X48874070Y-96338951D01*
X49046992Y-96415942D01*
X49046997Y-96415944D01*
X49232154Y-96455300D01*
X49232155Y-96455300D01*
X49421444Y-96455300D01*
X49421446Y-96455300D01*
X49606603Y-96415944D01*
X49779530Y-96338951D01*
X49932671Y-96227688D01*
X50059333Y-96087016D01*
X50153979Y-95923084D01*
X50212474Y-95743056D01*
X50232260Y-95554800D01*
X50212474Y-95366544D01*
X50153979Y-95186516D01*
X50059333Y-95022584D01*
X49932671Y-94881912D01*
X49883321Y-94846057D01*
X49779534Y-94770651D01*
X49779529Y-94770648D01*
X49606607Y-94693657D01*
X49606602Y-94693655D01*
X49460801Y-94662665D01*
X49421446Y-94654300D01*
X49232154Y-94654300D01*
X49199697Y-94661198D01*
X49046997Y-94693655D01*
X49046992Y-94693657D01*
X48874070Y-94770648D01*
X48874065Y-94770651D01*
X48720929Y-94881911D01*
X48594266Y-95022585D01*
X48499621Y-95186515D01*
X48499618Y-95186522D01*
X48450103Y-95338915D01*
X48441126Y-95366544D01*
X48421340Y-95554800D01*
X32004000Y-95554800D01*
X32004000Y-94132400D01*
X44306540Y-94132400D01*
X44326326Y-94320656D01*
X44326327Y-94320659D01*
X44384818Y-94500677D01*
X44384821Y-94500684D01*
X44479467Y-94664616D01*
X44545884Y-94738379D01*
X44606129Y-94805288D01*
X44759265Y-94916548D01*
X44759270Y-94916551D01*
X44932192Y-94993542D01*
X44932197Y-94993544D01*
X45117354Y-95032900D01*
X45117355Y-95032900D01*
X45306644Y-95032900D01*
X45306646Y-95032900D01*
X45491803Y-94993544D01*
X45664730Y-94916551D01*
X45817871Y-94805288D01*
X45944533Y-94664616D01*
X46039179Y-94500684D01*
X46097674Y-94320656D01*
X46117460Y-94132400D01*
X46097674Y-93944144D01*
X46039179Y-93764116D01*
X45944533Y-93600184D01*
X45817871Y-93459512D01*
X45817870Y-93459511D01*
X45664734Y-93348251D01*
X45664729Y-93348248D01*
X45600386Y-93319600D01*
X48878540Y-93319600D01*
X48898326Y-93507856D01*
X48898327Y-93507859D01*
X48956818Y-93687877D01*
X48956821Y-93687884D01*
X49051467Y-93851816D01*
X49062888Y-93864500D01*
X49178129Y-93992488D01*
X49331265Y-94103748D01*
X49331270Y-94103751D01*
X49504192Y-94180742D01*
X49504197Y-94180744D01*
X49689354Y-94220100D01*
X49689355Y-94220100D01*
X49878644Y-94220100D01*
X49878646Y-94220100D01*
X50063803Y-94180744D01*
X50236730Y-94103751D01*
X50389871Y-93992488D01*
X50516533Y-93851816D01*
X50611179Y-93687884D01*
X50669674Y-93507856D01*
X50689460Y-93319600D01*
X50669674Y-93131344D01*
X50611179Y-92951316D01*
X50516533Y-92787384D01*
X50389871Y-92646712D01*
X50389870Y-92646711D01*
X50236734Y-92535451D01*
X50236729Y-92535448D01*
X50063807Y-92458457D01*
X50063802Y-92458455D01*
X49918001Y-92427465D01*
X49878646Y-92419100D01*
X49689354Y-92419100D01*
X49656897Y-92425998D01*
X49504197Y-92458455D01*
X49504192Y-92458457D01*
X49331270Y-92535448D01*
X49331265Y-92535451D01*
X49178129Y-92646711D01*
X49051466Y-92787385D01*
X48956821Y-92951315D01*
X48956818Y-92951322D01*
X48898327Y-93131340D01*
X48898326Y-93131344D01*
X48878540Y-93319600D01*
X45600386Y-93319600D01*
X45491807Y-93271257D01*
X45491802Y-93271255D01*
X45346001Y-93240265D01*
X45306646Y-93231900D01*
X45117354Y-93231900D01*
X45084897Y-93238798D01*
X44932197Y-93271255D01*
X44932192Y-93271257D01*
X44759270Y-93348248D01*
X44759265Y-93348251D01*
X44606129Y-93459511D01*
X44479466Y-93600185D01*
X44384821Y-93764115D01*
X44384818Y-93764122D01*
X44326327Y-93944140D01*
X44326326Y-93944144D01*
X44306540Y-94132400D01*
X32004000Y-94132400D01*
X32004000Y-89001600D01*
X44255740Y-89001600D01*
X44275526Y-89189856D01*
X44275527Y-89189859D01*
X44334018Y-89369877D01*
X44334021Y-89369884D01*
X44428667Y-89533816D01*
X44555329Y-89674488D01*
X44708465Y-89785748D01*
X44708470Y-89785751D01*
X44881392Y-89862742D01*
X44881397Y-89862744D01*
X45066554Y-89902100D01*
X45066555Y-89902100D01*
X45255844Y-89902100D01*
X45255846Y-89902100D01*
X45441003Y-89862744D01*
X45613930Y-89785751D01*
X45767071Y-89674488D01*
X45893733Y-89533816D01*
X45988379Y-89369884D01*
X46046874Y-89189856D01*
X46066660Y-89001600D01*
X46046874Y-88813344D01*
X45988379Y-88633316D01*
X45893733Y-88469384D01*
X45767071Y-88328712D01*
X45711870Y-88288606D01*
X45644419Y-88239600D01*
X49081740Y-88239600D01*
X49101526Y-88427856D01*
X49101527Y-88427859D01*
X49160018Y-88607877D01*
X49160021Y-88607884D01*
X49254667Y-88771816D01*
X49381329Y-88912488D01*
X49534465Y-89023748D01*
X49534470Y-89023751D01*
X49707392Y-89100742D01*
X49707397Y-89100744D01*
X49892554Y-89140100D01*
X49892555Y-89140100D01*
X50081844Y-89140100D01*
X50081846Y-89140100D01*
X50267003Y-89100744D01*
X50439930Y-89023751D01*
X50593071Y-88912488D01*
X50719733Y-88771816D01*
X50814379Y-88607884D01*
X50872874Y-88427856D01*
X50892660Y-88239600D01*
X50872874Y-88051344D01*
X50814379Y-87871316D01*
X50719733Y-87707384D01*
X50593071Y-87566712D01*
X50593070Y-87566711D01*
X50439934Y-87455451D01*
X50439929Y-87455448D01*
X50267007Y-87378457D01*
X50267002Y-87378455D01*
X50121201Y-87347465D01*
X50081846Y-87339100D01*
X49892554Y-87339100D01*
X49860097Y-87345998D01*
X49707397Y-87378455D01*
X49707392Y-87378457D01*
X49534470Y-87455448D01*
X49534465Y-87455451D01*
X49381329Y-87566711D01*
X49254666Y-87707385D01*
X49160021Y-87871315D01*
X49160018Y-87871322D01*
X49101527Y-88051340D01*
X49101526Y-88051344D01*
X49081740Y-88239600D01*
X45644419Y-88239600D01*
X45613934Y-88217451D01*
X45613929Y-88217448D01*
X45441007Y-88140457D01*
X45441002Y-88140455D01*
X45295201Y-88109465D01*
X45255846Y-88101100D01*
X45066554Y-88101100D01*
X45034097Y-88107998D01*
X44881397Y-88140455D01*
X44881392Y-88140457D01*
X44708470Y-88217448D01*
X44708465Y-88217451D01*
X44555329Y-88328711D01*
X44428666Y-88469385D01*
X44334021Y-88633315D01*
X44334018Y-88633322D01*
X44277906Y-88806019D01*
X44275526Y-88813344D01*
X44255740Y-89001600D01*
X32004000Y-89001600D01*
X32004000Y-83515200D01*
X40140940Y-83515200D01*
X40160726Y-83703456D01*
X40160727Y-83703459D01*
X40219218Y-83883477D01*
X40219221Y-83883484D01*
X40313867Y-84047416D01*
X40440529Y-84188088D01*
X40593665Y-84299348D01*
X40593670Y-84299351D01*
X40766592Y-84376342D01*
X40766597Y-84376344D01*
X40951754Y-84415700D01*
X40951755Y-84415700D01*
X41141044Y-84415700D01*
X41141046Y-84415700D01*
X41326203Y-84376344D01*
X41499130Y-84299351D01*
X41652271Y-84188088D01*
X41778933Y-84047416D01*
X41873579Y-83883484D01*
X41932074Y-83703456D01*
X41951860Y-83515200D01*
X41932074Y-83326944D01*
X41873579Y-83146916D01*
X41778933Y-82982984D01*
X41652271Y-82842312D01*
X41610260Y-82811789D01*
X41499134Y-82731051D01*
X41499129Y-82731048D01*
X41326207Y-82654057D01*
X41326202Y-82654055D01*
X41179850Y-82622948D01*
X41141046Y-82614700D01*
X40951754Y-82614700D01*
X40919297Y-82621598D01*
X40766597Y-82654055D01*
X40766592Y-82654057D01*
X40593670Y-82731048D01*
X40593665Y-82731051D01*
X40440529Y-82842311D01*
X40313866Y-82982985D01*
X40219221Y-83146915D01*
X40219218Y-83146922D01*
X40182088Y-83261198D01*
X40160726Y-83326944D01*
X40140940Y-83515200D01*
X32004000Y-83515200D01*
X32004000Y-81686400D01*
X37905740Y-81686400D01*
X37925526Y-81874656D01*
X37925527Y-81874659D01*
X37984018Y-82054677D01*
X37984021Y-82054684D01*
X38078667Y-82218616D01*
X38197712Y-82350828D01*
X38205329Y-82359288D01*
X38358465Y-82470548D01*
X38358470Y-82470551D01*
X38531392Y-82547542D01*
X38531397Y-82547544D01*
X38716554Y-82586900D01*
X38716555Y-82586900D01*
X38905844Y-82586900D01*
X38905846Y-82586900D01*
X39091003Y-82547544D01*
X39263930Y-82470551D01*
X39417071Y-82359288D01*
X39519797Y-82245200D01*
X45881340Y-82245200D01*
X45901126Y-82433456D01*
X45901127Y-82433459D01*
X45959618Y-82613477D01*
X45959621Y-82613484D01*
X46054267Y-82777416D01*
X46085217Y-82811789D01*
X46180929Y-82918088D01*
X46334065Y-83029348D01*
X46334070Y-83029351D01*
X46506992Y-83106342D01*
X46506997Y-83106344D01*
X46692154Y-83145700D01*
X46692155Y-83145700D01*
X46881444Y-83145700D01*
X46881446Y-83145700D01*
X47066603Y-83106344D01*
X47239530Y-83029351D01*
X47392671Y-82918088D01*
X47519333Y-82777416D01*
X47613979Y-82613484D01*
X47672474Y-82433456D01*
X47692260Y-82245200D01*
X47672474Y-82056944D01*
X47613979Y-81876916D01*
X47519333Y-81712984D01*
X47449656Y-81635600D01*
X57006540Y-81635600D01*
X57026326Y-81823856D01*
X57026327Y-81823859D01*
X57084818Y-82003877D01*
X57084821Y-82003884D01*
X57179467Y-82167816D01*
X57306129Y-82308488D01*
X57459265Y-82419748D01*
X57459270Y-82419751D01*
X57632192Y-82496742D01*
X57632197Y-82496744D01*
X57817354Y-82536100D01*
X57817355Y-82536100D01*
X58006644Y-82536100D01*
X58006646Y-82536100D01*
X58191803Y-82496744D01*
X58364730Y-82419751D01*
X58517871Y-82308488D01*
X58644533Y-82167816D01*
X58739179Y-82003884D01*
X58797674Y-81823856D01*
X58817460Y-81635600D01*
X58797674Y-81447344D01*
X58739179Y-81267316D01*
X58644533Y-81103384D01*
X58517871Y-80962712D01*
X58468847Y-80927094D01*
X58364734Y-80851451D01*
X58364729Y-80851448D01*
X58191807Y-80774457D01*
X58191802Y-80774455D01*
X58046001Y-80743465D01*
X58006646Y-80735100D01*
X57817354Y-80735100D01*
X57784897Y-80741998D01*
X57632197Y-80774455D01*
X57632192Y-80774457D01*
X57459270Y-80851448D01*
X57459265Y-80851451D01*
X57306129Y-80962711D01*
X57179466Y-81103385D01*
X57084821Y-81267315D01*
X57084818Y-81267322D01*
X57035358Y-81419545D01*
X57026326Y-81447344D01*
X57006540Y-81635600D01*
X47449656Y-81635600D01*
X47392671Y-81572312D01*
X47390070Y-81570422D01*
X47239534Y-81461051D01*
X47239529Y-81461048D01*
X47066607Y-81384057D01*
X47066602Y-81384055D01*
X46920801Y-81353065D01*
X46881446Y-81344700D01*
X46692154Y-81344700D01*
X46659697Y-81351598D01*
X46506997Y-81384055D01*
X46506992Y-81384057D01*
X46334070Y-81461048D01*
X46334065Y-81461051D01*
X46180929Y-81572311D01*
X46054266Y-81712985D01*
X45959621Y-81876915D01*
X45959618Y-81876922D01*
X45901860Y-82054684D01*
X45901126Y-82056944D01*
X45881340Y-82245200D01*
X39519797Y-82245200D01*
X39543733Y-82218616D01*
X39638379Y-82054684D01*
X39696874Y-81874656D01*
X39716660Y-81686400D01*
X39696874Y-81498144D01*
X39638379Y-81318116D01*
X39543733Y-81154184D01*
X39417071Y-81013512D01*
X39367721Y-80977657D01*
X39263934Y-80902251D01*
X39263929Y-80902248D01*
X39091007Y-80825257D01*
X39091002Y-80825255D01*
X38944650Y-80794148D01*
X38905846Y-80785900D01*
X38716554Y-80785900D01*
X38684097Y-80792798D01*
X38531397Y-80825255D01*
X38531392Y-80825257D01*
X38358470Y-80902248D01*
X38358465Y-80902251D01*
X38205329Y-81013511D01*
X38078666Y-81154185D01*
X37984021Y-81318115D01*
X37984018Y-81318122D01*
X37942033Y-81447340D01*
X37925526Y-81498144D01*
X37905740Y-81686400D01*
X32004000Y-81686400D01*
X32004000Y-80010000D01*
X39175740Y-80010000D01*
X39195526Y-80198256D01*
X39195527Y-80198259D01*
X39254018Y-80378277D01*
X39254021Y-80378284D01*
X39348667Y-80542216D01*
X39461872Y-80667942D01*
X39475329Y-80682888D01*
X39628465Y-80794148D01*
X39628470Y-80794151D01*
X39801392Y-80871142D01*
X39801397Y-80871144D01*
X39986554Y-80910500D01*
X39986555Y-80910500D01*
X40175844Y-80910500D01*
X40175846Y-80910500D01*
X40361003Y-80871144D01*
X40533930Y-80794151D01*
X40687071Y-80682888D01*
X40813733Y-80542216D01*
X40908379Y-80378284D01*
X40966874Y-80198256D01*
X40986660Y-80010000D01*
X40966874Y-79821744D01*
X40962018Y-79806800D01*
X45830540Y-79806800D01*
X45850326Y-79995056D01*
X45850327Y-79995059D01*
X45908818Y-80175077D01*
X45908821Y-80175084D01*
X46003467Y-80339016D01*
X46130129Y-80479688D01*
X46283265Y-80590948D01*
X46283270Y-80590951D01*
X46456192Y-80667942D01*
X46456197Y-80667944D01*
X46641354Y-80707300D01*
X46641355Y-80707300D01*
X46830644Y-80707300D01*
X46830646Y-80707300D01*
X47015803Y-80667944D01*
X47188730Y-80590951D01*
X47341871Y-80479688D01*
X47468533Y-80339016D01*
X47563179Y-80175084D01*
X47621674Y-79995056D01*
X47641460Y-79806800D01*
X47621674Y-79618544D01*
X47563179Y-79438516D01*
X47468533Y-79274584D01*
X47341871Y-79133912D01*
X47308271Y-79109500D01*
X47188734Y-79022651D01*
X47188729Y-79022648D01*
X47015807Y-78945657D01*
X47015802Y-78945655D01*
X46870001Y-78914665D01*
X46830646Y-78906300D01*
X46641354Y-78906300D01*
X46608897Y-78913198D01*
X46456197Y-78945655D01*
X46456192Y-78945657D01*
X46283270Y-79022648D01*
X46283265Y-79022651D01*
X46130129Y-79133911D01*
X46003466Y-79274585D01*
X45908821Y-79438515D01*
X45908818Y-79438522D01*
X45850327Y-79618540D01*
X45850326Y-79618544D01*
X45830540Y-79806800D01*
X40962018Y-79806800D01*
X40908379Y-79641716D01*
X40813733Y-79477784D01*
X40687071Y-79337112D01*
X40601010Y-79274585D01*
X40533934Y-79225851D01*
X40533929Y-79225848D01*
X40361007Y-79148857D01*
X40361002Y-79148855D01*
X40215201Y-79117865D01*
X40175846Y-79109500D01*
X39986554Y-79109500D01*
X39954097Y-79116398D01*
X39801397Y-79148855D01*
X39801392Y-79148857D01*
X39628470Y-79225848D01*
X39628465Y-79225851D01*
X39475329Y-79337111D01*
X39348666Y-79477785D01*
X39254021Y-79641715D01*
X39254018Y-79641722D01*
X39195527Y-79821740D01*
X39195526Y-79821744D01*
X39175740Y-80010000D01*
X32004000Y-80010000D01*
X32004000Y-74168000D01*
X40191740Y-74168000D01*
X40211526Y-74356256D01*
X40211527Y-74356259D01*
X40270018Y-74536277D01*
X40270021Y-74536284D01*
X40364667Y-74700216D01*
X40427283Y-74769758D01*
X40491329Y-74840888D01*
X40644465Y-74952148D01*
X40644470Y-74952151D01*
X40817392Y-75029142D01*
X40817397Y-75029144D01*
X41002554Y-75068500D01*
X41002555Y-75068500D01*
X41191844Y-75068500D01*
X41191846Y-75068500D01*
X41377003Y-75029144D01*
X41549930Y-74952151D01*
X41703071Y-74840888D01*
X41829733Y-74700216D01*
X41924379Y-74536284D01*
X41982874Y-74356256D01*
X42002660Y-74168000D01*
X41982874Y-73979744D01*
X41924379Y-73799716D01*
X41829733Y-73635784D01*
X41703071Y-73495112D01*
X41703070Y-73495111D01*
X41549934Y-73383851D01*
X41549929Y-73383848D01*
X41377007Y-73306857D01*
X41377002Y-73306855D01*
X41231201Y-73275865D01*
X41191846Y-73267500D01*
X41002554Y-73267500D01*
X40970097Y-73274398D01*
X40817397Y-73306855D01*
X40817392Y-73306857D01*
X40644470Y-73383848D01*
X40644465Y-73383851D01*
X40491329Y-73495111D01*
X40364666Y-73635785D01*
X40270021Y-73799715D01*
X40270018Y-73799722D01*
X40211527Y-73979740D01*
X40211526Y-73979744D01*
X40191740Y-74168000D01*
X32004000Y-74168000D01*
X32004000Y-71628000D01*
X37905740Y-71628000D01*
X37925526Y-71816256D01*
X37925527Y-71816259D01*
X37984018Y-71996277D01*
X37984021Y-71996284D01*
X38078667Y-72160216D01*
X38190323Y-72284222D01*
X38205329Y-72300888D01*
X38358465Y-72412148D01*
X38358470Y-72412151D01*
X38531392Y-72489142D01*
X38531397Y-72489144D01*
X38716554Y-72528500D01*
X38716555Y-72528500D01*
X38905844Y-72528500D01*
X38905846Y-72528500D01*
X39091003Y-72489144D01*
X39263930Y-72412151D01*
X39417071Y-72300888D01*
X39543733Y-72160216D01*
X39638379Y-71996284D01*
X39696874Y-71816256D01*
X39716660Y-71628000D01*
X39696874Y-71439744D01*
X39642694Y-71272995D01*
X39640699Y-71203154D01*
X39676779Y-71143321D01*
X39739480Y-71112493D01*
X39794982Y-71116464D01*
X39795040Y-71116193D01*
X39796998Y-71116609D01*
X39798951Y-71116749D01*
X39801391Y-71117541D01*
X39801397Y-71117544D01*
X39986554Y-71156900D01*
X39986555Y-71156900D01*
X40175844Y-71156900D01*
X40175846Y-71156900D01*
X40361003Y-71117544D01*
X40533930Y-71040551D01*
X40687071Y-70929288D01*
X40813733Y-70788616D01*
X40908379Y-70624684D01*
X40966874Y-70444656D01*
X40986660Y-70256400D01*
X40966874Y-70068144D01*
X40908379Y-69888116D01*
X40813733Y-69724184D01*
X40687071Y-69583512D01*
X40654908Y-69560144D01*
X40533934Y-69472251D01*
X40533929Y-69472248D01*
X40361007Y-69395257D01*
X40361002Y-69395255D01*
X40215201Y-69364265D01*
X40175846Y-69355900D01*
X39986554Y-69355900D01*
X39954097Y-69362798D01*
X39801397Y-69395255D01*
X39801392Y-69395257D01*
X39628470Y-69472248D01*
X39628465Y-69472251D01*
X39475329Y-69583511D01*
X39348666Y-69724185D01*
X39254021Y-69888115D01*
X39254018Y-69888122D01*
X39195527Y-70068140D01*
X39195526Y-70068144D01*
X39175740Y-70256400D01*
X39195526Y-70444656D01*
X39195527Y-70444659D01*
X39249705Y-70611404D01*
X39251700Y-70681246D01*
X39215619Y-70741078D01*
X39152918Y-70771906D01*
X39097417Y-70767936D01*
X39097360Y-70768207D01*
X39095411Y-70767792D01*
X39093456Y-70767653D01*
X39091001Y-70766855D01*
X38955824Y-70738123D01*
X38905846Y-70727500D01*
X38716554Y-70727500D01*
X38684097Y-70734398D01*
X38531397Y-70766855D01*
X38531392Y-70766857D01*
X38358470Y-70843848D01*
X38358465Y-70843851D01*
X38205329Y-70955111D01*
X38078666Y-71095785D01*
X37984021Y-71259715D01*
X37984018Y-71259722D01*
X37937453Y-71403036D01*
X37925526Y-71439744D01*
X37905740Y-71628000D01*
X32004000Y-71628000D01*
X32004000Y-68250362D01*
X32023685Y-68183323D01*
X32040319Y-68162681D01*
X35650681Y-64552319D01*
X35712004Y-64518834D01*
X35738362Y-64516000D01*
X43969638Y-64516000D01*
X44036677Y-64535685D01*
X44057319Y-64552319D01*
X46238681Y-66733681D01*
X46272166Y-66795004D01*
X46275000Y-66821362D01*
X46275000Y-68943984D01*
X46255315Y-69011023D01*
X46223886Y-69044302D01*
X46180926Y-69075514D01*
X46180923Y-69075516D01*
X46054266Y-69216185D01*
X45959621Y-69380115D01*
X45959618Y-69380122D01*
X45929684Y-69472251D01*
X45901126Y-69560144D01*
X45881340Y-69748400D01*
X45901126Y-69936656D01*
X45901127Y-69936659D01*
X45959618Y-70116677D01*
X45959621Y-70116684D01*
X46054267Y-70280616D01*
X46180929Y-70421288D01*
X46223884Y-70452497D01*
X46266551Y-70507826D01*
X46275000Y-70552815D01*
X46275000Y-71128384D01*
X46255315Y-71195423D01*
X46223886Y-71228702D01*
X46180926Y-71259914D01*
X46180923Y-71259916D01*
X46054266Y-71400585D01*
X45959621Y-71564515D01*
X45959618Y-71564522D01*
X45901127Y-71744540D01*
X45901126Y-71744544D01*
X45881340Y-71932800D01*
X45901126Y-72121056D01*
X45901127Y-72121059D01*
X45959618Y-72301077D01*
X45959621Y-72301084D01*
X46054267Y-72465016D01*
X46123447Y-72541848D01*
X46180929Y-72605688D01*
X46242720Y-72650582D01*
X46334070Y-72716951D01*
X46482307Y-72782951D01*
X46519546Y-72808546D01*
X50419000Y-76708000D01*
X58241638Y-76708000D01*
X58308677Y-76727685D01*
X58329319Y-76744319D01*
X61355481Y-79770481D01*
X61388966Y-79831804D01*
X61391800Y-79858162D01*
X61391800Y-80814300D01*
X61372115Y-80881339D01*
X61319311Y-80927094D01*
X61267800Y-80938300D01*
X61119354Y-80938300D01*
X61086897Y-80945198D01*
X60934197Y-80977655D01*
X60934192Y-80977657D01*
X60761270Y-81054648D01*
X60761265Y-81054651D01*
X60608129Y-81165911D01*
X60481466Y-81306585D01*
X60386821Y-81470515D01*
X60386818Y-81470522D01*
X60328327Y-81650540D01*
X60328326Y-81650544D01*
X60308540Y-81838800D01*
X60328326Y-82027056D01*
X60328327Y-82027059D01*
X60386818Y-82207077D01*
X60386821Y-82207084D01*
X60481467Y-82371016D01*
X60571089Y-82470551D01*
X60608129Y-82511688D01*
X60761265Y-82622948D01*
X60761270Y-82622951D01*
X60934192Y-82699942D01*
X60934197Y-82699944D01*
X61119354Y-82739300D01*
X61119355Y-82739300D01*
X61267800Y-82739300D01*
X61334839Y-82758985D01*
X61380594Y-82811789D01*
X61391800Y-82863300D01*
X61391800Y-84305238D01*
X61372115Y-84372277D01*
X61355481Y-84392919D01*
X59805719Y-85942681D01*
X59744396Y-85976166D01*
X59718038Y-85979000D01*
X55879999Y-85979000D01*
X51215339Y-90643660D01*
X51154016Y-90677145D01*
X51084324Y-90672161D01*
X51028391Y-90630289D01*
X51009727Y-90594297D01*
X50966781Y-90462121D01*
X50966778Y-90462115D01*
X50872133Y-90298184D01*
X50745471Y-90157512D01*
X50745470Y-90157511D01*
X50592334Y-90046251D01*
X50592329Y-90046248D01*
X50419407Y-89969257D01*
X50419402Y-89969255D01*
X50273601Y-89938265D01*
X50234246Y-89929900D01*
X50044954Y-89929900D01*
X50012497Y-89936798D01*
X49859797Y-89969255D01*
X49859792Y-89969257D01*
X49686870Y-90046248D01*
X49686865Y-90046251D01*
X49533729Y-90157511D01*
X49407066Y-90298185D01*
X49312421Y-90462115D01*
X49312418Y-90462122D01*
X49253927Y-90642140D01*
X49253926Y-90642144D01*
X49234140Y-90830400D01*
X49253926Y-91018656D01*
X49253927Y-91018659D01*
X49312418Y-91198677D01*
X49312421Y-91198684D01*
X49407067Y-91362616D01*
X49522991Y-91491362D01*
X49533729Y-91503288D01*
X49686865Y-91614548D01*
X49686870Y-91614551D01*
X49859792Y-91691542D01*
X49859797Y-91691544D01*
X50044954Y-91730900D01*
X50044955Y-91730900D01*
X50234244Y-91730900D01*
X50234246Y-91730900D01*
X50419403Y-91691544D01*
X50592330Y-91614551D01*
X50745471Y-91503288D01*
X50872133Y-91362616D01*
X50949613Y-91228415D01*
X51000179Y-91180201D01*
X51068786Y-91166977D01*
X51133651Y-91192945D01*
X51174180Y-91249859D01*
X51181000Y-91290416D01*
X51181000Y-108331000D01*
X53848000Y-110998000D01*
X79217000Y-110998000D01*
X80939141Y-109275859D01*
X80939968Y-106297870D01*
X99799500Y-106297870D01*
X99799501Y-106297876D01*
X99805908Y-106357483D01*
X99856202Y-106492328D01*
X99856206Y-106492335D01*
X99942452Y-106607544D01*
X99942455Y-106607547D01*
X100057664Y-106693793D01*
X100057671Y-106693797D01*
X100192517Y-106744091D01*
X100192516Y-106744091D01*
X100199444Y-106744835D01*
X100252127Y-106750500D01*
X102847872Y-106750499D01*
X102907483Y-106744091D01*
X103042331Y-106693796D01*
X103157546Y-106607546D01*
X103243796Y-106492331D01*
X103294091Y-106357483D01*
X103300500Y-106297873D01*
X103300499Y-103702128D01*
X103294091Y-103642517D01*
X103262189Y-103556984D01*
X103243797Y-103507671D01*
X103243793Y-103507664D01*
X103157547Y-103392455D01*
X103157544Y-103392452D01*
X103042335Y-103306206D01*
X103042328Y-103306202D01*
X102907482Y-103255908D01*
X102907483Y-103255908D01*
X102847883Y-103249501D01*
X102847881Y-103249500D01*
X102847873Y-103249500D01*
X102847864Y-103249500D01*
X100252129Y-103249500D01*
X100252123Y-103249501D01*
X100192516Y-103255908D01*
X100057671Y-103306202D01*
X100057664Y-103306206D01*
X99942455Y-103392452D01*
X99942452Y-103392455D01*
X99856206Y-103507664D01*
X99856202Y-103507671D01*
X99805908Y-103642517D01*
X99801578Y-103682798D01*
X99799501Y-103702123D01*
X99799500Y-103702135D01*
X99799500Y-106297870D01*
X80939968Y-106297870D01*
X80940340Y-104958574D01*
X80960043Y-104891543D01*
X80991453Y-104858294D01*
X81123871Y-104762088D01*
X81250533Y-104621416D01*
X81345179Y-104457484D01*
X81403674Y-104277456D01*
X81423460Y-104089200D01*
X81403674Y-103900944D01*
X81345179Y-103720916D01*
X81250533Y-103556984D01*
X81123871Y-103416312D01*
X81091035Y-103392455D01*
X80991937Y-103320456D01*
X80949271Y-103265126D01*
X80940823Y-103220112D01*
X80941005Y-102565200D01*
X83625740Y-102565200D01*
X83645526Y-102753456D01*
X83645527Y-102753459D01*
X83704018Y-102933477D01*
X83704021Y-102933484D01*
X83798667Y-103097416D01*
X83880860Y-103188700D01*
X83925329Y-103238088D01*
X84078465Y-103349348D01*
X84078470Y-103349351D01*
X84251392Y-103426342D01*
X84251397Y-103426344D01*
X84436554Y-103465700D01*
X84436555Y-103465700D01*
X84625844Y-103465700D01*
X84625846Y-103465700D01*
X84811003Y-103426344D01*
X84983930Y-103349351D01*
X85137071Y-103238088D01*
X85263733Y-103097416D01*
X85358379Y-102933484D01*
X85416874Y-102753456D01*
X85436660Y-102565200D01*
X85416874Y-102376944D01*
X85358379Y-102196916D01*
X85263733Y-102032984D01*
X85137071Y-101892312D01*
X85137070Y-101892311D01*
X84983934Y-101781051D01*
X84983929Y-101781048D01*
X84811007Y-101704057D01*
X84811002Y-101704055D01*
X84665201Y-101673065D01*
X84625846Y-101664700D01*
X84436554Y-101664700D01*
X84404097Y-101671598D01*
X84251397Y-101704055D01*
X84251392Y-101704057D01*
X84078470Y-101781048D01*
X84078465Y-101781051D01*
X83925329Y-101892311D01*
X83798666Y-102032985D01*
X83704021Y-102196915D01*
X83704018Y-102196922D01*
X83645527Y-102376940D01*
X83645526Y-102376944D01*
X83625740Y-102565200D01*
X80941005Y-102565200D01*
X80941154Y-102031460D01*
X80960856Y-101964430D01*
X81013673Y-101918690D01*
X81082834Y-101908766D01*
X81127152Y-101924111D01*
X81132061Y-101926944D01*
X81132070Y-101926951D01*
X81266159Y-101986652D01*
X81304992Y-102003942D01*
X81304997Y-102003944D01*
X81490154Y-102043300D01*
X81490155Y-102043300D01*
X81679444Y-102043300D01*
X81679446Y-102043300D01*
X81864603Y-102003944D01*
X82037530Y-101926951D01*
X82190671Y-101815688D01*
X82317333Y-101675016D01*
X82411979Y-101511084D01*
X82470474Y-101331056D01*
X82490260Y-101142800D01*
X82470474Y-100954544D01*
X82411979Y-100774516D01*
X82317333Y-100610584D01*
X82190671Y-100469912D01*
X82190670Y-100469911D01*
X82037534Y-100358651D01*
X82037529Y-100358648D01*
X81864607Y-100281657D01*
X81864602Y-100281655D01*
X81718801Y-100250665D01*
X81679446Y-100242300D01*
X81490154Y-100242300D01*
X81457697Y-100249198D01*
X81304997Y-100281655D01*
X81304992Y-100281657D01*
X81132061Y-100358652D01*
X81127631Y-100361210D01*
X81059729Y-100377673D01*
X80993705Y-100354811D01*
X80950523Y-100299883D01*
X80941648Y-100253784D01*
X80941718Y-100000004D01*
X99794592Y-100000004D01*
X99814196Y-100261620D01*
X99814197Y-100261625D01*
X99872576Y-100517402D01*
X99872578Y-100517411D01*
X99872580Y-100517416D01*
X99968432Y-100761643D01*
X100099614Y-100988857D01*
X100231736Y-101154533D01*
X100263198Y-101193985D01*
X100410927Y-101331056D01*
X100455521Y-101372433D01*
X100672296Y-101520228D01*
X100672301Y-101520230D01*
X100672302Y-101520231D01*
X100672303Y-101520232D01*
X100797843Y-101580688D01*
X100908673Y-101634061D01*
X100908674Y-101634061D01*
X100908677Y-101634063D01*
X101159385Y-101711396D01*
X101418818Y-101750500D01*
X101681182Y-101750500D01*
X101940615Y-101711396D01*
X102191323Y-101634063D01*
X102427704Y-101520228D01*
X102644479Y-101372433D01*
X102836805Y-101193981D01*
X103000386Y-100988857D01*
X103131568Y-100761643D01*
X103227420Y-100517416D01*
X103285802Y-100261630D01*
X103305334Y-100000985D01*
X103305408Y-100000004D01*
X103305408Y-99999995D01*
X103285803Y-99738379D01*
X103285802Y-99738374D01*
X103285802Y-99738370D01*
X103227420Y-99482584D01*
X103131568Y-99238357D01*
X103000386Y-99011143D01*
X102836805Y-98806019D01*
X102836804Y-98806018D01*
X102836801Y-98806014D01*
X102644479Y-98627567D01*
X102589557Y-98590122D01*
X102427704Y-98479772D01*
X102427700Y-98479770D01*
X102427697Y-98479768D01*
X102427696Y-98479767D01*
X102191325Y-98365938D01*
X102191327Y-98365938D01*
X101940623Y-98288606D01*
X101940619Y-98288605D01*
X101940615Y-98288604D01*
X101815823Y-98269794D01*
X101681187Y-98249500D01*
X101681182Y-98249500D01*
X101418818Y-98249500D01*
X101418812Y-98249500D01*
X101257247Y-98273853D01*
X101159385Y-98288604D01*
X101159382Y-98288605D01*
X101159376Y-98288606D01*
X100908673Y-98365938D01*
X100672303Y-98479767D01*
X100672302Y-98479768D01*
X100455520Y-98627567D01*
X100263198Y-98806014D01*
X100099614Y-99011143D01*
X99968432Y-99238356D01*
X99872582Y-99482578D01*
X99872576Y-99482597D01*
X99814197Y-99738374D01*
X99814196Y-99738379D01*
X99794592Y-99999995D01*
X99794592Y-100000004D01*
X80941718Y-100000004D01*
X80941942Y-99193992D01*
X80961645Y-99126962D01*
X80993057Y-99093713D01*
X81022271Y-99072488D01*
X81148933Y-98931816D01*
X81243579Y-98767884D01*
X81302074Y-98587856D01*
X81321860Y-98399600D01*
X81302074Y-98211344D01*
X81243579Y-98031316D01*
X81148933Y-97867384D01*
X81022271Y-97726712D01*
X81022270Y-97726711D01*
X81022266Y-97726708D01*
X80993499Y-97705808D01*
X80950833Y-97650479D01*
X80942384Y-97605460D01*
X80942460Y-97332800D01*
X83574940Y-97332800D01*
X83594726Y-97521056D01*
X83594727Y-97521059D01*
X83653218Y-97701077D01*
X83653221Y-97701084D01*
X83747867Y-97865016D01*
X83806129Y-97929722D01*
X83874529Y-98005688D01*
X84027665Y-98116948D01*
X84027670Y-98116951D01*
X84200592Y-98193942D01*
X84200597Y-98193944D01*
X84385754Y-98233300D01*
X84385755Y-98233300D01*
X84575044Y-98233300D01*
X84575046Y-98233300D01*
X84760203Y-98193944D01*
X84933130Y-98116951D01*
X85086271Y-98005688D01*
X85212933Y-97865016D01*
X85307579Y-97701084D01*
X85366074Y-97521056D01*
X85385860Y-97332800D01*
X85366074Y-97144544D01*
X85307579Y-96964516D01*
X85212933Y-96800584D01*
X85086271Y-96659912D01*
X85050693Y-96634063D01*
X84933134Y-96548651D01*
X84933129Y-96548648D01*
X84760207Y-96471657D01*
X84760202Y-96471655D01*
X84614401Y-96440665D01*
X84575046Y-96432300D01*
X84385754Y-96432300D01*
X84353297Y-96439198D01*
X84200597Y-96471655D01*
X84200592Y-96471657D01*
X84027670Y-96548648D01*
X84027665Y-96548651D01*
X83874529Y-96659911D01*
X83747866Y-96800585D01*
X83653221Y-96964515D01*
X83653218Y-96964522D01*
X83594727Y-97144540D01*
X83594726Y-97144544D01*
X83574940Y-97332800D01*
X80942460Y-97332800D01*
X80942664Y-96596732D01*
X80962366Y-96529703D01*
X81015183Y-96483962D01*
X81084344Y-96474038D01*
X81128660Y-96489382D01*
X81132062Y-96491345D01*
X81132070Y-96491351D01*
X81260760Y-96548648D01*
X81304992Y-96568342D01*
X81304997Y-96568344D01*
X81490154Y-96607700D01*
X81490155Y-96607700D01*
X81679444Y-96607700D01*
X81679446Y-96607700D01*
X81864603Y-96568344D01*
X82037530Y-96491351D01*
X82190671Y-96380088D01*
X82317333Y-96239416D01*
X82411979Y-96075484D01*
X82470474Y-95895456D01*
X82490260Y-95707200D01*
X82470474Y-95518944D01*
X82411979Y-95338916D01*
X82317333Y-95174984D01*
X82190671Y-95034312D01*
X82188728Y-95032900D01*
X82143451Y-95000004D01*
X99794592Y-95000004D01*
X99814196Y-95261620D01*
X99814197Y-95261625D01*
X99872576Y-95517402D01*
X99872578Y-95517411D01*
X99872580Y-95517416D01*
X99968432Y-95761643D01*
X100099614Y-95988857D01*
X100231736Y-96154533D01*
X100263198Y-96193985D01*
X100419436Y-96338951D01*
X100455521Y-96372433D01*
X100672296Y-96520228D01*
X100672301Y-96520230D01*
X100672302Y-96520231D01*
X100672303Y-96520232D01*
X100772206Y-96568342D01*
X100908673Y-96634061D01*
X100908674Y-96634061D01*
X100908677Y-96634063D01*
X101159385Y-96711396D01*
X101418818Y-96750500D01*
X101681182Y-96750500D01*
X101940615Y-96711396D01*
X102191323Y-96634063D01*
X102427704Y-96520228D01*
X102644479Y-96372433D01*
X102836805Y-96193981D01*
X103000386Y-95988857D01*
X103131568Y-95761643D01*
X103227420Y-95517416D01*
X103285802Y-95261630D01*
X103285803Y-95261620D01*
X103305408Y-95000004D01*
X103305408Y-94999995D01*
X103285803Y-94738379D01*
X103285802Y-94738374D01*
X103285802Y-94738370D01*
X103227420Y-94482584D01*
X103131568Y-94238357D01*
X103000386Y-94011143D01*
X102836805Y-93806019D01*
X102836804Y-93806018D01*
X102836801Y-93806014D01*
X102644479Y-93627567D01*
X102604317Y-93600185D01*
X102427704Y-93479772D01*
X102427700Y-93479770D01*
X102427697Y-93479768D01*
X102427696Y-93479767D01*
X102191325Y-93365938D01*
X102191327Y-93365938D01*
X101940623Y-93288606D01*
X101940619Y-93288605D01*
X101940615Y-93288604D01*
X101815823Y-93269794D01*
X101681187Y-93249500D01*
X101681182Y-93249500D01*
X101418818Y-93249500D01*
X101418812Y-93249500D01*
X101257247Y-93273853D01*
X101159385Y-93288604D01*
X101159382Y-93288605D01*
X101159376Y-93288606D01*
X100908673Y-93365938D01*
X100672303Y-93479767D01*
X100672302Y-93479768D01*
X100455520Y-93627567D01*
X100263198Y-93806014D01*
X100099614Y-94011143D01*
X99968432Y-94238356D01*
X99872582Y-94482578D01*
X99872576Y-94482597D01*
X99814197Y-94738374D01*
X99814196Y-94738379D01*
X99794592Y-94999995D01*
X99794592Y-95000004D01*
X82143451Y-95000004D01*
X82037534Y-94923051D01*
X82037529Y-94923048D01*
X81864607Y-94846057D01*
X81864602Y-94846055D01*
X81718801Y-94815065D01*
X81679446Y-94806700D01*
X81490154Y-94806700D01*
X81457697Y-94813598D01*
X81304997Y-94846055D01*
X81304992Y-94846057D01*
X81132066Y-94923050D01*
X81129143Y-94924738D01*
X81127240Y-94925199D01*
X81126134Y-94925692D01*
X81126043Y-94925489D01*
X81061241Y-94941201D01*
X80995217Y-94918339D01*
X80952034Y-94863412D01*
X80943158Y-94817312D01*
X80943453Y-93757294D01*
X80963155Y-93690265D01*
X80994567Y-93657015D01*
X81022271Y-93636888D01*
X81148933Y-93496216D01*
X81243579Y-93332284D01*
X81302074Y-93152256D01*
X81321860Y-92964000D01*
X81302074Y-92775744D01*
X81243579Y-92595716D01*
X81148933Y-92431784D01*
X81022271Y-92291112D01*
X81022270Y-92291111D01*
X81022266Y-92291108D01*
X80995009Y-92271305D01*
X80952343Y-92215976D01*
X80943894Y-92170957D01*
X80943928Y-92049600D01*
X83625740Y-92049600D01*
X83645526Y-92237856D01*
X83645527Y-92237859D01*
X83704018Y-92417877D01*
X83704021Y-92417884D01*
X83798667Y-92581816D01*
X83857099Y-92646711D01*
X83925329Y-92722488D01*
X84078465Y-92833748D01*
X84078470Y-92833751D01*
X84251392Y-92910742D01*
X84251397Y-92910744D01*
X84436554Y-92950100D01*
X84436555Y-92950100D01*
X84625844Y-92950100D01*
X84625846Y-92950100D01*
X84811003Y-92910744D01*
X84983930Y-92833751D01*
X85137071Y-92722488D01*
X85263733Y-92581816D01*
X85358379Y-92417884D01*
X85416874Y-92237856D01*
X85436660Y-92049600D01*
X85416874Y-91861344D01*
X85358379Y-91681316D01*
X85263733Y-91517384D01*
X85137071Y-91376712D01*
X85137070Y-91376711D01*
X84983934Y-91265451D01*
X84983929Y-91265448D01*
X84811007Y-91188457D01*
X84811002Y-91188455D01*
X84665201Y-91157465D01*
X84625846Y-91149100D01*
X84436554Y-91149100D01*
X84404097Y-91155998D01*
X84251397Y-91188455D01*
X84251392Y-91188457D01*
X84078470Y-91265448D01*
X84078465Y-91265451D01*
X83925329Y-91376711D01*
X83798666Y-91517385D01*
X83704021Y-91681315D01*
X83704018Y-91681322D01*
X83651864Y-91841838D01*
X83645526Y-91861344D01*
X83625740Y-92049600D01*
X80943928Y-92049600D01*
X80943985Y-91841838D01*
X80963688Y-91774807D01*
X80980299Y-91754200D01*
X82734496Y-90000004D01*
X99794592Y-90000004D01*
X99814196Y-90261620D01*
X99814197Y-90261625D01*
X99872576Y-90517402D01*
X99872578Y-90517411D01*
X99872580Y-90517416D01*
X99968432Y-90761643D01*
X100099614Y-90988857D01*
X100145375Y-91046239D01*
X100263198Y-91193985D01*
X100367127Y-91290416D01*
X100455521Y-91372433D01*
X100672296Y-91520228D01*
X100672301Y-91520230D01*
X100672302Y-91520231D01*
X100672303Y-91520232D01*
X100797843Y-91580688D01*
X100908673Y-91634061D01*
X100908674Y-91634061D01*
X100908677Y-91634063D01*
X101159385Y-91711396D01*
X101418818Y-91750500D01*
X101681182Y-91750500D01*
X101940615Y-91711396D01*
X102191323Y-91634063D01*
X102427704Y-91520228D01*
X102644479Y-91372433D01*
X102799693Y-91228416D01*
X102836801Y-91193985D01*
X102836801Y-91193983D01*
X102836805Y-91193981D01*
X103000386Y-90988857D01*
X103131568Y-90761643D01*
X103227420Y-90517416D01*
X103285802Y-90261630D01*
X103285803Y-90261620D01*
X103305408Y-90000004D01*
X103305408Y-89999995D01*
X103285803Y-89738379D01*
X103285802Y-89738374D01*
X103285802Y-89738370D01*
X103227420Y-89482584D01*
X103131568Y-89238357D01*
X103000386Y-89011143D01*
X102836805Y-88806019D01*
X102836804Y-88806018D01*
X102836801Y-88806014D01*
X102644479Y-88627567D01*
X102615599Y-88607877D01*
X102427704Y-88479772D01*
X102427700Y-88479770D01*
X102427697Y-88479768D01*
X102427696Y-88479767D01*
X102191325Y-88365938D01*
X102191327Y-88365938D01*
X101940623Y-88288606D01*
X101940619Y-88288605D01*
X101940615Y-88288604D01*
X101815823Y-88269794D01*
X101681187Y-88249500D01*
X101681182Y-88249500D01*
X101418818Y-88249500D01*
X101418812Y-88249500D01*
X101257247Y-88273853D01*
X101159385Y-88288604D01*
X101159382Y-88288605D01*
X101159376Y-88288606D01*
X100908673Y-88365938D01*
X100672303Y-88479767D01*
X100672302Y-88479768D01*
X100455520Y-88627567D01*
X100263198Y-88806014D01*
X100099614Y-89011143D01*
X99968432Y-89238356D01*
X99872582Y-89482578D01*
X99872576Y-89482597D01*
X99814197Y-89738374D01*
X99814196Y-89738379D01*
X99794592Y-89999995D01*
X99794592Y-90000004D01*
X82734496Y-90000004D01*
X84306181Y-88428319D01*
X84367504Y-88394834D01*
X84393862Y-88392000D01*
X95250000Y-88392000D01*
X95885000Y-87757000D01*
X95881146Y-86273232D01*
X95882407Y-86255278D01*
X95882500Y-86254638D01*
X95882500Y-83830000D01*
X103194706Y-83830000D01*
X103213853Y-84073297D01*
X103213853Y-84073300D01*
X103213854Y-84073302D01*
X103268124Y-84299351D01*
X103270830Y-84310619D01*
X103364222Y-84536089D01*
X103491737Y-84744173D01*
X103491738Y-84744176D01*
X103491741Y-84744179D01*
X103650241Y-84929759D01*
X103793897Y-85052453D01*
X103835823Y-85088261D01*
X103835826Y-85088262D01*
X104043910Y-85215777D01*
X104269381Y-85309169D01*
X104269378Y-85309169D01*
X104269384Y-85309170D01*
X104269388Y-85309172D01*
X104506698Y-85366146D01*
X104750000Y-85385294D01*
X104993302Y-85366146D01*
X105230612Y-85309172D01*
X105456089Y-85215777D01*
X105664179Y-85088259D01*
X105849759Y-84929759D01*
X106008259Y-84744179D01*
X106135777Y-84536089D01*
X106229172Y-84310612D01*
X106286146Y-84073302D01*
X106305294Y-83830000D01*
X106286146Y-83586698D01*
X106229172Y-83349388D01*
X106229169Y-83349380D01*
X106135777Y-83123910D01*
X106008262Y-82915826D01*
X106008261Y-82915823D01*
X105945476Y-82842312D01*
X105849759Y-82730241D01*
X105681928Y-82586900D01*
X105664176Y-82571738D01*
X105664173Y-82571737D01*
X105456089Y-82444222D01*
X105230618Y-82350830D01*
X105230621Y-82350830D01*
X105054256Y-82308488D01*
X104993302Y-82293854D01*
X104993300Y-82293853D01*
X104993297Y-82293853D01*
X104750000Y-82274706D01*
X104506702Y-82293853D01*
X104269380Y-82350830D01*
X104043910Y-82444222D01*
X103835826Y-82571737D01*
X103835823Y-82571738D01*
X103650241Y-82730241D01*
X103491738Y-82915823D01*
X103491737Y-82915826D01*
X103364222Y-83123910D01*
X103270830Y-83349380D01*
X103213853Y-83586702D01*
X103194706Y-83830000D01*
X95882500Y-83830000D01*
X95882500Y-78750000D01*
X103194706Y-78750000D01*
X103213853Y-78993297D01*
X103213853Y-78993300D01*
X103213854Y-78993302D01*
X103269684Y-79225849D01*
X103270830Y-79230619D01*
X103364222Y-79456089D01*
X103491737Y-79664173D01*
X103491738Y-79664176D01*
X103491741Y-79664179D01*
X103650241Y-79849759D01*
X103793897Y-79972453D01*
X103835823Y-80008261D01*
X103835826Y-80008262D01*
X104043910Y-80135777D01*
X104269381Y-80229169D01*
X104269378Y-80229169D01*
X104269384Y-80229170D01*
X104269388Y-80229172D01*
X104506698Y-80286146D01*
X104750000Y-80305294D01*
X104993302Y-80286146D01*
X105230612Y-80229172D01*
X105456089Y-80135777D01*
X105664179Y-80008259D01*
X105849759Y-79849759D01*
X106008259Y-79664179D01*
X106135777Y-79456089D01*
X106229172Y-79230612D01*
X106286146Y-78993302D01*
X106305294Y-78750000D01*
X106286146Y-78506698D01*
X106229172Y-78269388D01*
X106135777Y-78043911D01*
X106135777Y-78043910D01*
X106008262Y-77835826D01*
X106008261Y-77835823D01*
X105972453Y-77793897D01*
X105849759Y-77650241D01*
X105727063Y-77545449D01*
X105664176Y-77491738D01*
X105664173Y-77491737D01*
X105456089Y-77364222D01*
X105230618Y-77270830D01*
X105230621Y-77270830D01*
X105124992Y-77245470D01*
X104993302Y-77213854D01*
X104993300Y-77213853D01*
X104993297Y-77213853D01*
X104750000Y-77194706D01*
X104506702Y-77213853D01*
X104269380Y-77270830D01*
X104043910Y-77364222D01*
X103835826Y-77491737D01*
X103835823Y-77491738D01*
X103650241Y-77650241D01*
X103491738Y-77835823D01*
X103491737Y-77835826D01*
X103364222Y-78043910D01*
X103270830Y-78269380D01*
X103213853Y-78506702D01*
X103194706Y-78750000D01*
X95882500Y-78750000D01*
X95882500Y-74102487D01*
X95877691Y-74032928D01*
X95872995Y-73999126D01*
X95858660Y-73930888D01*
X95858657Y-73930883D01*
X95856636Y-73924635D01*
X95857778Y-73924265D01*
X95848963Y-73883080D01*
X95848410Y-73670000D01*
X103194706Y-73670000D01*
X103213853Y-73913297D01*
X103270830Y-74150619D01*
X103364222Y-74376089D01*
X103491737Y-74584173D01*
X103491738Y-74584176D01*
X103491741Y-74584179D01*
X103650241Y-74769759D01*
X103733523Y-74840888D01*
X103835823Y-74928261D01*
X103835826Y-74928262D01*
X104043910Y-75055777D01*
X104269381Y-75149169D01*
X104269378Y-75149169D01*
X104269384Y-75149170D01*
X104269388Y-75149172D01*
X104506698Y-75206146D01*
X104750000Y-75225294D01*
X104993302Y-75206146D01*
X105230612Y-75149172D01*
X105456089Y-75055777D01*
X105664179Y-74928259D01*
X105849759Y-74769759D01*
X106008259Y-74584179D01*
X106135777Y-74376089D01*
X106229172Y-74150612D01*
X106286146Y-73913302D01*
X106305294Y-73670000D01*
X106286146Y-73426698D01*
X106229172Y-73189388D01*
X106229169Y-73189380D01*
X106135777Y-72963910D01*
X106008262Y-72755826D01*
X106008261Y-72755823D01*
X105952429Y-72690452D01*
X105849759Y-72570241D01*
X105726554Y-72465014D01*
X105664176Y-72411738D01*
X105664173Y-72411737D01*
X105456089Y-72284222D01*
X105230618Y-72190830D01*
X105230621Y-72190830D01*
X105103106Y-72160216D01*
X104993302Y-72133854D01*
X104993300Y-72133853D01*
X104993297Y-72133853D01*
X104750000Y-72114706D01*
X104506702Y-72133853D01*
X104506698Y-72133854D01*
X104396903Y-72160214D01*
X104269380Y-72190830D01*
X104043910Y-72284222D01*
X103835826Y-72411737D01*
X103835823Y-72411738D01*
X103650241Y-72570241D01*
X103491738Y-72755823D01*
X103491737Y-72755826D01*
X103364222Y-72963910D01*
X103270830Y-73189380D01*
X103213853Y-73426702D01*
X103194706Y-73670000D01*
X95848410Y-73670000D01*
X95845162Y-72419491D01*
X95850182Y-72384255D01*
X95862023Y-72343932D01*
X95862024Y-72343928D01*
X95882500Y-72201512D01*
X95882500Y-68590000D01*
X103194706Y-68590000D01*
X103213853Y-68833297D01*
X103213853Y-68833300D01*
X103213854Y-68833302D01*
X103264511Y-69044302D01*
X103270830Y-69070619D01*
X103364222Y-69296089D01*
X103491737Y-69504173D01*
X103491738Y-69504176D01*
X103545449Y-69567063D01*
X103650241Y-69689759D01*
X103793897Y-69812453D01*
X103835823Y-69848261D01*
X103835826Y-69848262D01*
X104043910Y-69975777D01*
X104269381Y-70069169D01*
X104269378Y-70069169D01*
X104269384Y-70069170D01*
X104269388Y-70069172D01*
X104506698Y-70126146D01*
X104750000Y-70145294D01*
X104993302Y-70126146D01*
X105230612Y-70069172D01*
X105456089Y-69975777D01*
X105664179Y-69848259D01*
X105849759Y-69689759D01*
X106008259Y-69504179D01*
X106135777Y-69296089D01*
X106229172Y-69070612D01*
X106286146Y-68833302D01*
X106305294Y-68590000D01*
X106286146Y-68346698D01*
X106229172Y-68109388D01*
X106228089Y-68106773D01*
X106135777Y-67883910D01*
X106008262Y-67675826D01*
X106008261Y-67675823D01*
X105957966Y-67616935D01*
X105849759Y-67490241D01*
X105727063Y-67385449D01*
X105664176Y-67331738D01*
X105664173Y-67331737D01*
X105456089Y-67204222D01*
X105230618Y-67110830D01*
X105230621Y-67110830D01*
X105124992Y-67085470D01*
X104993302Y-67053854D01*
X104993300Y-67053853D01*
X104993297Y-67053853D01*
X104750000Y-67034706D01*
X104506702Y-67053853D01*
X104269380Y-67110830D01*
X104043910Y-67204222D01*
X103835826Y-67331737D01*
X103835823Y-67331738D01*
X103650241Y-67490241D01*
X103491738Y-67675823D01*
X103491737Y-67675826D01*
X103364222Y-67883910D01*
X103270830Y-68109380D01*
X103270828Y-68109387D01*
X103270828Y-68109388D01*
X103236983Y-68250362D01*
X103213853Y-68346702D01*
X103194706Y-68590000D01*
X95882500Y-68590000D01*
X95882500Y-64778500D01*
X95870947Y-64671044D01*
X95859741Y-64619533D01*
X95834678Y-64544231D01*
X95832184Y-64474405D01*
X95860179Y-64422103D01*
X95982533Y-64286216D01*
X96077179Y-64122284D01*
X96135674Y-63942256D01*
X96155460Y-63754000D01*
X96135674Y-63565744D01*
X96117562Y-63510000D01*
X103194706Y-63510000D01*
X103213853Y-63753297D01*
X103213853Y-63753300D01*
X103213854Y-63753302D01*
X103259219Y-63942259D01*
X103270830Y-63990619D01*
X103364222Y-64216089D01*
X103491737Y-64424173D01*
X103491738Y-64424176D01*
X103531350Y-64470555D01*
X103650241Y-64609759D01*
X103721997Y-64671044D01*
X103835823Y-64768261D01*
X103835826Y-64768262D01*
X104043910Y-64895777D01*
X104269381Y-64989169D01*
X104269378Y-64989169D01*
X104269384Y-64989170D01*
X104269388Y-64989172D01*
X104506698Y-65046146D01*
X104750000Y-65065294D01*
X104993302Y-65046146D01*
X105230612Y-64989172D01*
X105456089Y-64895777D01*
X105664179Y-64768259D01*
X105849759Y-64609759D01*
X106008259Y-64424179D01*
X106135777Y-64216089D01*
X106229172Y-63990612D01*
X106286146Y-63753302D01*
X106305294Y-63510000D01*
X106286146Y-63266698D01*
X106229172Y-63029388D01*
X106229169Y-63029380D01*
X106135777Y-62803910D01*
X106008262Y-62595826D01*
X106008261Y-62595823D01*
X105972453Y-62553897D01*
X105849759Y-62410241D01*
X105727063Y-62305449D01*
X105664176Y-62251738D01*
X105664173Y-62251737D01*
X105456089Y-62124222D01*
X105230618Y-62030830D01*
X105230621Y-62030830D01*
X105124992Y-62005470D01*
X104993302Y-61973854D01*
X104993300Y-61973853D01*
X104993297Y-61973853D01*
X104750000Y-61954706D01*
X104506702Y-61973853D01*
X104269380Y-62030830D01*
X104043910Y-62124222D01*
X103835826Y-62251737D01*
X103835823Y-62251738D01*
X103650241Y-62410241D01*
X103491738Y-62595823D01*
X103491737Y-62595826D01*
X103364222Y-62803910D01*
X103270830Y-63029380D01*
X103213853Y-63266702D01*
X103194706Y-63510000D01*
X96117562Y-63510000D01*
X96077179Y-63385716D01*
X95982533Y-63221784D01*
X95858264Y-63083770D01*
X95828035Y-63020780D01*
X95836660Y-62951445D01*
X95837623Y-62949283D01*
X95842334Y-62938967D01*
X95842338Y-62938959D01*
X95862023Y-62871920D01*
X95862024Y-62871916D01*
X95882500Y-62729500D01*
X95882500Y-58430000D01*
X103194706Y-58430000D01*
X103213853Y-58673297D01*
X103270830Y-58910619D01*
X103364222Y-59136089D01*
X103491737Y-59344173D01*
X103491738Y-59344176D01*
X103545449Y-59407063D01*
X103650241Y-59529759D01*
X103793897Y-59652453D01*
X103835823Y-59688261D01*
X103835826Y-59688262D01*
X104043910Y-59815777D01*
X104269381Y-59909169D01*
X104269378Y-59909169D01*
X104269384Y-59909170D01*
X104269388Y-59909172D01*
X104506698Y-59966146D01*
X104750000Y-59985294D01*
X104993302Y-59966146D01*
X105230612Y-59909172D01*
X105456089Y-59815777D01*
X105664179Y-59688259D01*
X105849759Y-59529759D01*
X106008259Y-59344179D01*
X106135777Y-59136089D01*
X106229172Y-58910612D01*
X106286146Y-58673302D01*
X106305294Y-58430000D01*
X106286146Y-58186698D01*
X106229172Y-57949388D01*
X106160206Y-57782888D01*
X106135777Y-57723910D01*
X106008262Y-57515826D01*
X106008261Y-57515823D01*
X105972453Y-57473897D01*
X105849759Y-57330241D01*
X105727063Y-57225449D01*
X105664176Y-57171738D01*
X105664173Y-57171737D01*
X105456089Y-57044222D01*
X105230618Y-56950830D01*
X105230621Y-56950830D01*
X105124992Y-56925470D01*
X104993302Y-56893854D01*
X104993300Y-56893853D01*
X104993297Y-56893853D01*
X104750000Y-56874706D01*
X104506702Y-56893853D01*
X104269380Y-56950830D01*
X104043910Y-57044222D01*
X103835826Y-57171737D01*
X103835823Y-57171738D01*
X103650241Y-57330241D01*
X103491738Y-57515823D01*
X103491737Y-57515826D01*
X103364222Y-57723910D01*
X103270830Y-57949380D01*
X103213853Y-58186702D01*
X103194706Y-58430000D01*
X95882500Y-58430000D01*
X95882500Y-53350000D01*
X103194706Y-53350000D01*
X103213853Y-53593297D01*
X103270830Y-53830619D01*
X103364222Y-54056089D01*
X103491737Y-54264173D01*
X103491738Y-54264176D01*
X103491741Y-54264179D01*
X103650241Y-54449759D01*
X103793897Y-54572453D01*
X103835823Y-54608261D01*
X103835826Y-54608262D01*
X104043910Y-54735777D01*
X104269381Y-54829169D01*
X104269378Y-54829169D01*
X104269384Y-54829170D01*
X104269388Y-54829172D01*
X104506698Y-54886146D01*
X104750000Y-54905294D01*
X104993302Y-54886146D01*
X105230612Y-54829172D01*
X105456089Y-54735777D01*
X105664179Y-54608259D01*
X105849759Y-54449759D01*
X106008259Y-54264179D01*
X106135777Y-54056089D01*
X106229172Y-53830612D01*
X106286146Y-53593302D01*
X106305294Y-53350000D01*
X106286146Y-53106698D01*
X106229172Y-52869388D01*
X106169618Y-52725610D01*
X106135777Y-52643910D01*
X106008262Y-52435826D01*
X106008261Y-52435823D01*
X105972453Y-52393897D01*
X105849759Y-52250241D01*
X105727063Y-52145449D01*
X105664176Y-52091738D01*
X105664173Y-52091737D01*
X105456089Y-51964222D01*
X105230618Y-51870830D01*
X105230621Y-51870830D01*
X105124948Y-51845460D01*
X104993302Y-51813854D01*
X104993300Y-51813853D01*
X104993297Y-51813853D01*
X104750000Y-51794706D01*
X104506702Y-51813853D01*
X104269380Y-51870830D01*
X104043910Y-51964222D01*
X103835826Y-52091737D01*
X103835823Y-52091738D01*
X103650241Y-52250241D01*
X103491738Y-52435823D01*
X103491737Y-52435826D01*
X103364222Y-52643910D01*
X103270830Y-52869380D01*
X103213853Y-53106702D01*
X103194706Y-53350000D01*
X95882500Y-53350000D01*
X95882500Y-53010362D01*
X95879603Y-52956322D01*
X95876769Y-52929964D01*
X95868114Y-52876552D01*
X95817832Y-52741743D01*
X95809021Y-52725607D01*
X95793855Y-52666509D01*
X95791723Y-51845460D01*
X95811233Y-51778375D01*
X95863918Y-51732483D01*
X95865085Y-51731954D01*
X95956730Y-51691151D01*
X96109871Y-51579888D01*
X96236533Y-51439216D01*
X96331179Y-51275284D01*
X96389674Y-51095256D01*
X96409460Y-50907000D01*
X96389674Y-50718744D01*
X96331179Y-50538716D01*
X96236533Y-50374784D01*
X96227698Y-50364972D01*
X96197469Y-50301981D01*
X96206093Y-50232646D01*
X96227699Y-50199027D01*
X96236533Y-50189216D01*
X96331179Y-50025284D01*
X96389674Y-49845256D01*
X96409460Y-49657000D01*
X96389674Y-49468744D01*
X96356898Y-49367870D01*
X103199500Y-49367870D01*
X103199501Y-49367876D01*
X103205908Y-49427483D01*
X103256202Y-49562328D01*
X103256206Y-49562335D01*
X103342452Y-49677544D01*
X103342455Y-49677547D01*
X103457664Y-49763793D01*
X103457671Y-49763797D01*
X103592517Y-49814091D01*
X103592516Y-49814091D01*
X103599444Y-49814835D01*
X103652127Y-49820500D01*
X105847872Y-49820499D01*
X105907483Y-49814091D01*
X106042331Y-49763796D01*
X106157546Y-49677546D01*
X106243796Y-49562331D01*
X106294091Y-49427483D01*
X106300500Y-49367873D01*
X106300499Y-47172128D01*
X106294091Y-47112517D01*
X106243796Y-46977669D01*
X106243795Y-46977668D01*
X106243793Y-46977664D01*
X106157547Y-46862455D01*
X106157544Y-46862452D01*
X106042335Y-46776206D01*
X106042328Y-46776202D01*
X105907482Y-46725908D01*
X105907483Y-46725908D01*
X105847883Y-46719501D01*
X105847881Y-46719500D01*
X105847873Y-46719500D01*
X105847864Y-46719500D01*
X103652129Y-46719500D01*
X103652123Y-46719501D01*
X103592516Y-46725908D01*
X103457671Y-46776202D01*
X103457664Y-46776206D01*
X103342455Y-46862452D01*
X103342452Y-46862455D01*
X103256206Y-46977664D01*
X103256202Y-46977671D01*
X103205908Y-47112517D01*
X103199501Y-47172116D01*
X103199501Y-47172123D01*
X103199500Y-47172135D01*
X103199500Y-49367870D01*
X96356898Y-49367870D01*
X96331179Y-49288716D01*
X96236533Y-49124784D01*
X96109871Y-48984112D01*
X96033259Y-48928450D01*
X95956734Y-48872851D01*
X95956732Y-48872850D01*
X95857156Y-48828515D01*
X95803920Y-48783264D01*
X95783599Y-48716415D01*
X95783594Y-48715707D01*
X95758133Y-38913546D01*
X95777644Y-38846460D01*
X95794447Y-38825552D01*
X96356681Y-38263319D01*
X96418004Y-38229834D01*
X96444362Y-38227000D01*
X106413638Y-38227000D01*
X106480677Y-38246685D01*
G37*
%TD.AperFunction*%
%TD*%
M02*
