%TF.GenerationSoftware,KiCad,Pcbnew,8.0.0-rc1-91-gb65fa46c3c*%
%TF.CreationDate,2024-02-01T16:18:31+08:00*%
%TF.ProjectId,_____,d0a8a736-612e-46b6-9963-61645f706362,rev?*%
%TF.SameCoordinates,Original*%
%TF.FileFunction,Copper,L1,Top*%
%TF.FilePolarity,Positive*%
%FSLAX46Y46*%
G04 Gerber Fmt 4.6, Leading zero omitted, Abs format (unit mm)*
G04 Created by KiCad (PCBNEW 8.0.0-rc1-91-gb65fa46c3c) date 2024-02-01 16:18:31*
%MOMM*%
%LPD*%
G01*
G04 APERTURE LIST*
G04 Aperture macros list*
%AMRoundRect*
0 Rectangle with rounded corners*
0 $1 Rounding radius*
0 $2 $3 $4 $5 $6 $7 $8 $9 X,Y pos of 4 corners*
0 Add a 4 corners polygon primitive as box body*
4,1,4,$2,$3,$4,$5,$6,$7,$8,$9,$2,$3,0*
0 Add four circle primitives for the rounded corners*
1,1,$1+$1,$2,$3*
1,1,$1+$1,$4,$5*
1,1,$1+$1,$6,$7*
1,1,$1+$1,$8,$9*
0 Add four rect primitives between the rounded corners*
20,1,$1+$1,$2,$3,$4,$5,0*
20,1,$1+$1,$4,$5,$6,$7,0*
20,1,$1+$1,$6,$7,$8,$9,0*
20,1,$1+$1,$8,$9,$2,$3,0*%
G04 Aperture macros list end*
%TA.AperFunction,SMDPad,CuDef*%
%ADD10RoundRect,0.200000X0.200000X0.275000X-0.200000X0.275000X-0.200000X-0.275000X0.200000X-0.275000X0*%
%TD*%
%TA.AperFunction,ComponentPad*%
%ADD11R,2.500000X2.500000*%
%TD*%
%TA.AperFunction,ComponentPad*%
%ADD12C,2.500000*%
%TD*%
%TA.AperFunction,SMDPad,CuDef*%
%ADD13RoundRect,0.225000X0.250000X-0.225000X0.250000X0.225000X-0.250000X0.225000X-0.250000X-0.225000X0*%
%TD*%
%TA.AperFunction,SMDPad,CuDef*%
%ADD14RoundRect,0.225000X-0.250000X0.225000X-0.250000X-0.225000X0.250000X-0.225000X0.250000X0.225000X0*%
%TD*%
%TA.AperFunction,SMDPad,CuDef*%
%ADD15RoundRect,0.200000X-0.200000X-0.275000X0.200000X-0.275000X0.200000X0.275000X-0.200000X0.275000X0*%
%TD*%
%TA.AperFunction,SMDPad,CuDef*%
%ADD16RoundRect,0.218750X-0.218750X-0.256250X0.218750X-0.256250X0.218750X0.256250X-0.218750X0.256250X0*%
%TD*%
%TA.AperFunction,ComponentPad*%
%ADD17C,1.600000*%
%TD*%
%TA.AperFunction,SMDPad,CuDef*%
%ADD18RoundRect,0.218750X0.218750X0.256250X-0.218750X0.256250X-0.218750X-0.256250X0.218750X-0.256250X0*%
%TD*%
%TA.AperFunction,SMDPad,CuDef*%
%ADD19RoundRect,0.250000X-0.450000X0.350000X-0.450000X-0.350000X0.450000X-0.350000X0.450000X0.350000X0*%
%TD*%
%TA.AperFunction,ComponentPad*%
%ADD20C,3.000000*%
%TD*%
%TA.AperFunction,SMDPad,CuDef*%
%ADD21RoundRect,0.250000X0.350000X0.450000X-0.350000X0.450000X-0.350000X-0.450000X0.350000X-0.450000X0*%
%TD*%
%TA.AperFunction,SMDPad,CuDef*%
%ADD22R,2.000000X2.000000*%
%TD*%
%TA.AperFunction,SMDPad,CuDef*%
%ADD23R,1.700000X0.950000*%
%TD*%
%TA.AperFunction,SMDPad,CuDef*%
%ADD24R,2.241000X2.047500*%
%TD*%
%TA.AperFunction,ComponentPad*%
%ADD25C,0.800000*%
%TD*%
%TA.AperFunction,ComponentPad*%
%ADD26C,6.400000*%
%TD*%
%TA.AperFunction,ComponentPad*%
%ADD27C,2.540000*%
%TD*%
%TA.AperFunction,SMDPad,CuDef*%
%ADD28RoundRect,0.250000X-0.350000X-0.450000X0.350000X-0.450000X0.350000X0.450000X-0.350000X0.450000X0*%
%TD*%
%TA.AperFunction,SMDPad,CuDef*%
%ADD29RoundRect,0.150000X0.150000X-0.825000X0.150000X0.825000X-0.150000X0.825000X-0.150000X-0.825000X0*%
%TD*%
%TA.AperFunction,SMDPad,CuDef*%
%ADD30RoundRect,0.250000X-0.475000X0.250000X-0.475000X-0.250000X0.475000X-0.250000X0.475000X0.250000X0*%
%TD*%
%TA.AperFunction,SMDPad,CuDef*%
%ADD31O,1.950000X0.568500*%
%TD*%
%TA.AperFunction,SMDPad,CuDef*%
%ADD32R,1.728000X1.935000*%
%TD*%
%TA.AperFunction,SMDPad,CuDef*%
%ADD33RoundRect,0.200000X0.275000X-0.200000X0.275000X0.200000X-0.275000X0.200000X-0.275000X-0.200000X0*%
%TD*%
%TA.AperFunction,SMDPad,CuDef*%
%ADD34RoundRect,0.250000X0.475000X-0.250000X0.475000X0.250000X-0.475000X0.250000X-0.475000X-0.250000X0*%
%TD*%
%TA.AperFunction,SMDPad,CuDef*%
%ADD35RoundRect,0.250000X-0.250000X-0.475000X0.250000X-0.475000X0.250000X0.475000X-0.250000X0.475000X0*%
%TD*%
%TA.AperFunction,ComponentPad*%
%ADD36R,2.100000X2.100000*%
%TD*%
%TA.AperFunction,ComponentPad*%
%ADD37C,2.100000*%
%TD*%
%TA.AperFunction,SMDPad,CuDef*%
%ADD38RoundRect,0.225000X-0.225000X-0.250000X0.225000X-0.250000X0.225000X0.250000X-0.225000X0.250000X0*%
%TD*%
%TA.AperFunction,SMDPad,CuDef*%
%ADD39RoundRect,0.075000X-0.700000X-0.075000X0.700000X-0.075000X0.700000X0.075000X-0.700000X0.075000X0*%
%TD*%
%TA.AperFunction,SMDPad,CuDef*%
%ADD40RoundRect,0.075000X-0.075000X-0.700000X0.075000X-0.700000X0.075000X0.700000X-0.075000X0.700000X0*%
%TD*%
%TA.AperFunction,ComponentPad*%
%ADD41R,1.600000X1.600000*%
%TD*%
%TA.AperFunction,ComponentPad*%
%ADD42C,1.524000*%
%TD*%
%TA.AperFunction,ComponentPad*%
%ADD43R,1.524000X1.524000*%
%TD*%
%TA.AperFunction,ComponentPad*%
%ADD44C,1.574800*%
%TD*%
%TA.AperFunction,ComponentPad*%
%ADD45R,1.574800X1.574800*%
%TD*%
%TA.AperFunction,SMDPad,CuDef*%
%ADD46RoundRect,0.250000X0.450000X-0.350000X0.450000X0.350000X-0.450000X0.350000X-0.450000X-0.350000X0*%
%TD*%
%TA.AperFunction,ComponentPad*%
%ADD47R,1.700000X1.700000*%
%TD*%
%TA.AperFunction,ComponentPad*%
%ADD48O,1.700000X1.700000*%
%TD*%
%TA.AperFunction,SMDPad,CuDef*%
%ADD49R,1.500000X2.000000*%
%TD*%
%TA.AperFunction,SMDPad,CuDef*%
%ADD50R,3.800000X2.000000*%
%TD*%
%TA.AperFunction,SMDPad,CuDef*%
%ADD51RoundRect,0.150000X0.825000X0.150000X-0.825000X0.150000X-0.825000X-0.150000X0.825000X-0.150000X0*%
%TD*%
%TA.AperFunction,SMDPad,CuDef*%
%ADD52RoundRect,0.150000X-0.825000X-0.150000X0.825000X-0.150000X0.825000X0.150000X-0.825000X0.150000X0*%
%TD*%
%TA.AperFunction,ComponentPad*%
%ADD53R,2.000000X2.000000*%
%TD*%
%TA.AperFunction,ComponentPad*%
%ADD54C,2.000000*%
%TD*%
%TA.AperFunction,SMDPad,CuDef*%
%ADD55R,2.100000X1.800000*%
%TD*%
%TA.AperFunction,ViaPad*%
%ADD56C,0.800000*%
%TD*%
%TA.AperFunction,Conductor*%
%ADD57C,0.250000*%
%TD*%
%TA.AperFunction,Conductor*%
%ADD58C,0.700000*%
%TD*%
%TA.AperFunction,Conductor*%
%ADD59C,0.200000*%
%TD*%
%TA.AperFunction,Conductor*%
%ADD60C,0.500000*%
%TD*%
%TA.AperFunction,Conductor*%
%ADD61C,0.350000*%
%TD*%
%TA.AperFunction,Conductor*%
%ADD62C,0.300000*%
%TD*%
%TA.AperFunction,Conductor*%
%ADD63C,0.400000*%
%TD*%
G04 APERTURE END LIST*
D10*
%TO.P,R22,1*%
%TO.N,/MCU\u6838\u5FC3/PWM2*%
X48387000Y-113145250D03*
%TO.P,R22,2*%
%TO.N,Net-(U15-AN)*%
X46737000Y-113145250D03*
%TD*%
D11*
%TO.P,J4,1,Pin_1*%
%TO.N,/steper/ST_PWM1*%
X28550000Y-90000000D03*
D12*
%TO.P,J4,2,Pin_2*%
%TO.N,/steper/ST_DIR1*%
X28550000Y-95000000D03*
%TO.P,J4,3,Pin_3*%
%TO.N,/steper/ST_EN1*%
X28550000Y-100000000D03*
%TO.P,J4,4,Pin_4*%
%TO.N,GND*%
X28550000Y-105000000D03*
%TD*%
D13*
%TO.P,C14,1*%
%TO.N,+3V3*%
X57937000Y-73996000D03*
%TO.P,C14,2*%
%TO.N,GND*%
X57937000Y-72446000D03*
%TD*%
D11*
%TO.P,J6,1,Pin_1*%
%TO.N,GND*%
X101550000Y-126000000D03*
D12*
%TO.P,J6,2,Pin_2*%
%TO.N,/steper/ST_EN3*%
X101550000Y-121000000D03*
%TO.P,J6,3,Pin_3*%
%TO.N,/steper/ST_DIR3*%
X101550000Y-116000000D03*
%TO.P,J6,4,Pin_4*%
%TO.N,/steper/ST_PWM3*%
X101550000Y-111000000D03*
%TD*%
D10*
%TO.P,R29,1*%
%TO.N,Net-(D10-K)*%
X83289000Y-103927000D03*
%TO.P,R29,2*%
%TO.N,GND*%
X81639000Y-103927000D03*
%TD*%
D14*
%TO.P,C11,1*%
%TO.N,+3V3*%
X75937000Y-64686000D03*
%TO.P,C11,2*%
%TO.N,GND*%
X75937000Y-66236000D03*
%TD*%
D15*
%TO.P,R28,1*%
%TO.N,/MCU\u6838\u5FC3/PWM3*%
X81537000Y-108579000D03*
%TO.P,R28,2*%
%TO.N,Net-(U18-AN)*%
X83187000Y-108579000D03*
%TD*%
D16*
%TO.P,D4,1,K*%
%TO.N,Net-(D4-K)*%
X46814500Y-122243375D03*
%TO.P,D4,2,A*%
%TO.N,/MCU\u6838\u5FC3/EN2*%
X48389500Y-122243375D03*
%TD*%
D17*
%TO.P,C4,1*%
%TO.N,+5V*%
X97282000Y-39223000D03*
%TO.P,C4,2*%
%TO.N,GND*%
X97282000Y-36723000D03*
%TD*%
D18*
%TO.P,D8,1,K*%
%TO.N,Net-(D8-K)*%
X83107500Y-115710000D03*
%TO.P,D8,2,A*%
%TO.N,/MCU\u6838\u5FC3/DIR3*%
X81532500Y-115710000D03*
%TD*%
D19*
%TO.P,R10,1*%
%TO.N,Net-(U7-VIO)*%
X93980000Y-83903000D03*
%TO.P,R10,2*%
%TO.N,+3V3*%
X93980000Y-85903000D03*
%TD*%
D20*
%TO.P,TP4,1,1*%
%TO.N,/MCU\u6838\u5FC3/VREF+*%
X62738000Y-88519000D03*
%TD*%
D10*
%TO.P,R27,1*%
%TO.N,Net-(D9-K)*%
X83187000Y-112155000D03*
%TO.P,R27,2*%
%TO.N,GND*%
X81537000Y-112155000D03*
%TD*%
D21*
%TO.P,R6,1*%
%TO.N,GNDA*%
X45425000Y-71970000D03*
%TO.P,R6,2*%
%TO.N,Net-(U6-1IN-)*%
X43425000Y-71970000D03*
%TD*%
D13*
%TO.P,C16,1*%
%TO.N,GNDA*%
X62687000Y-81736000D03*
%TO.P,C16,2*%
%TO.N,/MCU\u6838\u5FC3/VREF+*%
X62687000Y-80186000D03*
%TD*%
D11*
%TO.P,J7,1,Pin_1*%
%TO.N,GND*%
X101550000Y-105000000D03*
D12*
%TO.P,J7,2,Pin_2*%
%TO.N,/steper/ST_EN4*%
X101550000Y-100000000D03*
%TO.P,J7,3,Pin_3*%
%TO.N,/steper/ST_DIR4*%
X101550000Y-95000000D03*
%TO.P,J7,4,Pin_4*%
%TO.N,/steper/ST_PWM4*%
X101550000Y-90000000D03*
%TD*%
D18*
%TO.P,D11,1,K*%
%TO.N,Net-(D11-K)*%
X83211500Y-96569000D03*
%TO.P,D11,2,A*%
%TO.N,/MCU\u6838\u5FC3/DIR4*%
X81636500Y-96569000D03*
%TD*%
D22*
%TO.P,D17,1,K*%
%TO.N,Net-(D17-K)*%
X35601000Y-53381000D03*
%TO.P,D17,2,A*%
%TO.N,/\u63A5\u53E3/VIN+*%
X31201000Y-53381000D03*
%TD*%
D15*
%TO.P,R34,1*%
%TO.N,/MCU\u6838\u5FC3/PWM4*%
X81639000Y-89211000D03*
%TO.P,R34,2*%
%TO.N,Net-(U21-AN)*%
X83289000Y-89211000D03*
%TD*%
D10*
%TO.P,R16,1*%
%TO.N,/MCU\u6838\u5FC3/PWM1*%
X48384500Y-91587000D03*
%TO.P,R16,2*%
%TO.N,Net-(U12-AN)*%
X46734500Y-91587000D03*
%TD*%
D21*
%TO.P,R41,1*%
%TO.N,GND*%
X52933600Y-60096400D03*
%TO.P,R41,2*%
%TO.N,GNDA*%
X50933600Y-60096400D03*
%TD*%
D23*
%TO.P,U17,1,AN*%
%TO.N,Net-(U17-AN)*%
X86106000Y-114433000D03*
%TO.P,U17,2,CAT*%
%TO.N,GND*%
X86106000Y-116973000D03*
%TO.P,U17,3,EM*%
%TO.N,/steper/ST_DIR3*%
X92706000Y-116973000D03*
%TO.P,U17,4,COL*%
%TO.N,+5V*%
X92706000Y-114433000D03*
%TD*%
D24*
%TO.P,D16,1,K*%
%TO.N,/RS485/485+*%
X93853000Y-69850000D03*
%TO.P,D16,2,A*%
%TO.N,GND*%
X93853000Y-75033000D03*
%TD*%
D14*
%TO.P,C12,1*%
%TO.N,+3V3*%
X73437000Y-80196000D03*
%TO.P,C12,2*%
%TO.N,GND*%
X73437000Y-81746000D03*
%TD*%
D24*
%TO.P,D14,1,K*%
%TO.N,/RS485/485+*%
X89535000Y-72060500D03*
%TO.P,D14,2,A*%
%TO.N,/RS485/485-*%
X89535000Y-66877500D03*
%TD*%
D25*
%TO.P,H4,1,1*%
%TO.N,unconnected-(H4-Pad1)*%
X102600000Y-135000000D03*
X103302944Y-133302944D03*
X103302944Y-136697056D03*
X105000000Y-132600000D03*
D26*
X105000000Y-135000000D03*
D25*
X105000000Y-137400000D03*
X106697056Y-133302944D03*
X106697056Y-136697056D03*
X107400000Y-135000000D03*
%TD*%
D27*
%TO.P,U1,1,Ctrl*%
%TO.N,unconnected-(U1-Ctrl-Pad1)*%
X47690000Y-26877500D03*
%TO.P,U1,2,VIN-*%
%TO.N,/\u63A5\u53E3/VIN-*%
X47690000Y-34497500D03*
%TO.P,U1,3,VIN+*%
%TO.N,/\u7535\u6E90/VIN*%
X47690000Y-39577500D03*
%TO.P,U1,4,+VO*%
%TO.N,Net-(U1-+VO)*%
X68010000Y-47197500D03*
%TO.P,U1,5,-VO*%
%TO.N,Net-(U1--VO)*%
X68010000Y-26877500D03*
%TD*%
D20*
%TO.P,TP2,1,1*%
%TO.N,+5V*%
X106680000Y-40894000D03*
%TD*%
D16*
%TO.P,D1,1,K*%
%TO.N,Net-(D1-K)*%
X46812000Y-99812000D03*
%TO.P,D1,2,A*%
%TO.N,/MCU\u6838\u5FC3/EN1*%
X48387000Y-99812000D03*
%TD*%
D28*
%TO.P,R1,1*%
%TO.N,Net-(U6-2IN-)*%
X43425000Y-67720000D03*
%TO.P,R1,2*%
%TO.N,/\u63A5\u53E3/DAC_4*%
X45425000Y-67720000D03*
%TD*%
D21*
%TO.P,R8,1*%
%TO.N,GNDA*%
X45425000Y-82220000D03*
%TO.P,R8,2*%
%TO.N,Net-(U5-1IN-)*%
X43425000Y-82220000D03*
%TD*%
D29*
%TO.P,U6,1,1OUT*%
%TO.N,/\u63A5\u53E3/DAC_3*%
X36270000Y-73445000D03*
%TO.P,U6,2,1IN-*%
%TO.N,Net-(U6-1IN-)*%
X37540000Y-73445000D03*
%TO.P,U6,3,1IN+*%
%TO.N,/MCU\u6838\u5FC3/DAC_OUT3*%
X38810000Y-73445000D03*
%TO.P,U6,4,GND*%
%TO.N,GNDA*%
X40080000Y-73445000D03*
%TO.P,U6,5,2IN+*%
%TO.N,/MCU\u6838\u5FC3/DAC_OUT4*%
X40080000Y-68495000D03*
%TO.P,U6,6,2IN-*%
%TO.N,Net-(U6-2IN-)*%
X38810000Y-68495000D03*
%TO.P,U6,7,2OUT*%
%TO.N,/\u63A5\u53E3/DAC_4*%
X37540000Y-68495000D03*
%TO.P,U6,8,VCC*%
%TO.N,+5V*%
X36270000Y-68495000D03*
%TD*%
D30*
%TO.P,C6,1*%
%TO.N,+3V3*%
X86250000Y-54950000D03*
%TO.P,C6,2*%
%TO.N,GND*%
X86250000Y-56850000D03*
%TD*%
D31*
%TO.P,U22,1,R*%
%TO.N,/MCU\u6838\u5FC3/RS485_TX*%
X78702000Y-67564000D03*
%TO.P,U22,2,RE*%
%TO.N,Net-(Q1-C)*%
X78702000Y-68834000D03*
%TO.P,U22,3,DE*%
X78702000Y-70104000D03*
%TO.P,U22,4,D*%
%TO.N,/MCU\u6838\u5FC3/RS485_RX*%
X78702000Y-71374000D03*
%TO.P,U22,5,GND*%
%TO.N,GND*%
X84112000Y-71374000D03*
%TO.P,U22,6,A/Y*%
%TO.N,/RS485/485+*%
X84112000Y-70104000D03*
%TO.P,U22,7,B/Z*%
%TO.N,/RS485/485-*%
X84112000Y-68834000D03*
%TO.P,U22,8,VCC*%
%TO.N,+3V3*%
X84112000Y-67564000D03*
%TD*%
D32*
%TO.P,U9,1,1*%
%TO.N,Net-(D17-K)*%
X35208500Y-49500500D03*
%TO.P,U9,2,2*%
%TO.N,/\u7535\u6E90/VIN*%
X35208500Y-46765500D03*
%TD*%
D10*
%TO.P,R14,1*%
%TO.N,/MCU\u6838\u5FC3/EN1*%
X48384500Y-101473000D03*
%TO.P,R14,2*%
%TO.N,Net-(U10-AN)*%
X46734500Y-101473000D03*
%TD*%
D16*
%TO.P,D6,1,K*%
%TO.N,Net-(D6-K)*%
X46814500Y-111309625D03*
%TO.P,D6,2,A*%
%TO.N,/MCU\u6838\u5FC3/PWM2*%
X48389500Y-111309625D03*
%TD*%
D11*
%TO.P,J5,1,Pin_1*%
%TO.N,/steper/ST_PWM2*%
X28550000Y-111250000D03*
D12*
%TO.P,J5,2,Pin_2*%
%TO.N,/steper/ST_DIR2*%
X28550000Y-116250000D03*
%TO.P,J5,3,Pin_3*%
%TO.N,/steper/ST_EN2*%
X28550000Y-121250000D03*
%TO.P,J5,4,Pin_4*%
%TO.N,GND*%
X28550000Y-126250000D03*
%TD*%
D20*
%TO.P,TP5,1,1*%
%TO.N,GNDA*%
X66903600Y-88392000D03*
%TD*%
D15*
%TO.P,R30,1*%
%TO.N,/MCU\u6838\u5FC3/EN4*%
X81639000Y-100228000D03*
%TO.P,R30,2*%
%TO.N,Net-(U19-AN)*%
X83289000Y-100228000D03*
%TD*%
D18*
%TO.P,D12,1,K*%
%TO.N,Net-(D12-K)*%
X83211500Y-91060500D03*
%TO.P,D12,2,A*%
%TO.N,/MCU\u6838\u5FC3/PWM4*%
X81636500Y-91060500D03*
%TD*%
D23*
%TO.P,U12,1,AN*%
%TO.N,Net-(U12-AN)*%
X43432000Y-91567000D03*
%TO.P,U12,2,CAT*%
%TO.N,GND*%
X43432000Y-89027000D03*
%TO.P,U12,3,EM*%
%TO.N,/steper/ST_PWM1*%
X36832000Y-89027000D03*
%TO.P,U12,4,COL*%
%TO.N,+5V*%
X36832000Y-91567000D03*
%TD*%
D33*
%TO.P,L2,1*%
%TO.N,/MCU\u6838\u5FC3/VREF+*%
X64187000Y-81786000D03*
%TO.P,L2,2*%
%TO.N,Net-(U3-VREF+)*%
X64187000Y-80136000D03*
%TD*%
D23*
%TO.P,U21,1,AN*%
%TO.N,Net-(U21-AN)*%
X85854000Y-89535000D03*
%TO.P,U21,2,CAT*%
%TO.N,GND*%
X85854000Y-92075000D03*
%TO.P,U21,3,EM*%
%TO.N,/steper/ST_PWM4*%
X92454000Y-92075000D03*
%TO.P,U21,4,COL*%
%TO.N,+5V*%
X92454000Y-89535000D03*
%TD*%
D10*
%TO.P,R20,1*%
%TO.N,/MCU\u6838\u5FC3/DIR2*%
X48387000Y-118612125D03*
%TO.P,R20,2*%
%TO.N,Net-(U14-AN)*%
X46737000Y-118612125D03*
%TD*%
%TO.P,R31,1*%
%TO.N,Net-(D11-K)*%
X83289000Y-98418500D03*
%TO.P,R31,2*%
%TO.N,GND*%
X81639000Y-98418500D03*
%TD*%
%TO.P,R15,1*%
%TO.N,/MCU\u6838\u5FC3/DIR1*%
X48384500Y-96530000D03*
%TO.P,R15,2*%
%TO.N,Net-(U11-AN)*%
X46734500Y-96530000D03*
%TD*%
D23*
%TO.P,U10,1,AN*%
%TO.N,Net-(U10-AN)*%
X43559000Y-101473000D03*
%TO.P,U10,2,CAT*%
%TO.N,GND*%
X43559000Y-98933000D03*
%TO.P,U10,3,EM*%
%TO.N,/steper/ST_EN1*%
X36959000Y-98933000D03*
%TO.P,U10,4,COL*%
%TO.N,+5V*%
X36959000Y-101473000D03*
%TD*%
D13*
%TO.P,C20,1*%
%TO.N,+5V*%
X83230000Y-81728000D03*
%TO.P,C20,2*%
%TO.N,GND*%
X83230000Y-80178000D03*
%TD*%
D18*
%TO.P,D10,1,K*%
%TO.N,Net-(D10-K)*%
X83211500Y-102077500D03*
%TO.P,D10,2,A*%
%TO.N,/MCU\u6838\u5FC3/EN4*%
X81636500Y-102077500D03*
%TD*%
D15*
%TO.P,R17,1*%
%TO.N,Net-(D4-K)*%
X46737000Y-120407750D03*
%TO.P,R17,2*%
%TO.N,GND*%
X48387000Y-120407750D03*
%TD*%
D16*
%TO.P,D3,1,K*%
%TO.N,Net-(D3-K)*%
X46812000Y-89926000D03*
%TO.P,D3,2,A*%
%TO.N,/MCU\u6838\u5FC3/PWM1*%
X48387000Y-89926000D03*
%TD*%
D15*
%TO.P,R24,1*%
%TO.N,/MCU\u6838\u5FC3/EN3*%
X81537000Y-119266000D03*
%TO.P,R24,2*%
%TO.N,Net-(U16-AN)*%
X83187000Y-119266000D03*
%TD*%
D34*
%TO.P,C15,1*%
%TO.N,+5V*%
X59399000Y-83866000D03*
%TO.P,C15,2*%
%TO.N,GNDA*%
X59399000Y-81966000D03*
%TD*%
D21*
%TO.P,R2,1*%
%TO.N,GNDA*%
X45425000Y-69720000D03*
%TO.P,R2,2*%
%TO.N,Net-(U6-2IN-)*%
X43425000Y-69720000D03*
%TD*%
D10*
%TO.P,R18,1*%
%TO.N,/MCU\u6838\u5FC3/EN2*%
X48387000Y-124079000D03*
%TO.P,R18,2*%
%TO.N,Net-(U13-AN)*%
X46737000Y-124079000D03*
%TD*%
D35*
%TO.P,C5,1*%
%TO.N,+5V*%
X88712000Y-47498000D03*
%TO.P,C5,2*%
%TO.N,GND*%
X90612000Y-47498000D03*
%TD*%
D36*
%TO.P,J2,1,Pin_1*%
%TO.N,unconnected-(J2-Pin_1-Pad1)*%
X104750000Y-48270000D03*
D37*
%TO.P,J2,2,Pin_2*%
%TO.N,unconnected-(J2-Pin_2-Pad2)*%
X104750000Y-53350000D03*
%TO.P,J2,3,Pin_3*%
%TO.N,unconnected-(J2-Pin_3-Pad3)*%
X104750000Y-58430000D03*
%TO.P,J2,4,Pin_4*%
%TO.N,unconnected-(J2-Pin_4-Pad4)*%
X104750000Y-63510000D03*
%TO.P,J2,5,Pin_5*%
%TO.N,/RS485/485-*%
X104750000Y-68590000D03*
%TO.P,J2,6,Pin_6*%
%TO.N,/RS485/485+*%
X104750000Y-73670000D03*
%TO.P,J2,7,Pin_7*%
%TO.N,/can\u603B\u7EBF/CAN+*%
X104750000Y-78750000D03*
%TO.P,J2,8,Pin_8*%
%TO.N,/can\u603B\u7EBF/CAN-*%
X104750000Y-83830000D03*
%TD*%
D36*
%TO.P,J1,1,Pin_1*%
%TO.N,/\u63A5\u53E3/DAC_1*%
X25250000Y-83780000D03*
D37*
%TO.P,J1,2,Pin_2*%
%TO.N,/\u63A5\u53E3/DAC_2*%
X25250000Y-78700000D03*
%TO.P,J1,3,Pin_3*%
%TO.N,/\u63A5\u53E3/DAC_3*%
X25250000Y-73620000D03*
%TO.P,J1,4,Pin_4*%
%TO.N,/\u63A5\u53E3/DAC_4*%
X25250000Y-68540000D03*
%TO.P,J1,5,Pin_5*%
%TO.N,GNDA*%
X25250000Y-63460000D03*
%TO.P,J1,6,Pin_6*%
%TO.N,unconnected-(J1-Pin_6-Pad6)*%
X25250000Y-58380000D03*
%TO.P,J1,7,Pin_7*%
%TO.N,/\u63A5\u53E3/VIN+*%
X25250000Y-53300000D03*
%TO.P,J1,8,Pin_8*%
%TO.N,/\u63A5\u53E3/VIN-*%
X25250000Y-48220000D03*
%TD*%
D13*
%TO.P,C13,1*%
%TO.N,+3V3*%
X59437000Y-73996000D03*
%TO.P,C13,2*%
%TO.N,GND*%
X59437000Y-72446000D03*
%TD*%
D10*
%TO.P,R23,1*%
%TO.N,Net-(D7-K)*%
X83187000Y-122842000D03*
%TO.P,R23,2*%
%TO.N,GND*%
X81537000Y-122842000D03*
%TD*%
D21*
%TO.P,R4,1*%
%TO.N,GNDA*%
X45425000Y-79720000D03*
%TO.P,R4,2*%
%TO.N,Net-(U5-2IN-)*%
X43425000Y-79720000D03*
%TD*%
D38*
%TO.P,C10,1*%
%TO.N,+3V3*%
X63093000Y-60960000D03*
%TO.P,C10,2*%
%TO.N,GND*%
X64643000Y-60960000D03*
%TD*%
D15*
%TO.P,R32,1*%
%TO.N,/MCU\u6838\u5FC3/DIR4*%
X81639000Y-94719500D03*
%TO.P,R32,2*%
%TO.N,Net-(U20-AN)*%
X83289000Y-94719500D03*
%TD*%
D25*
%TO.P,H3,1,1*%
%TO.N,unconnected-(H3-Pad1)*%
X22600000Y-135000000D03*
X23302944Y-133302944D03*
X23302944Y-136697056D03*
X25000000Y-132600000D03*
D26*
X25000000Y-135000000D03*
D25*
X25000000Y-137400000D03*
X26697056Y-133302944D03*
X26697056Y-136697056D03*
X27400000Y-135000000D03*
%TD*%
D23*
%TO.P,U14,1,AN*%
%TO.N,Net-(U14-AN)*%
X43432000Y-117990000D03*
%TO.P,U14,2,CAT*%
%TO.N,GND*%
X43432000Y-115450000D03*
%TO.P,U14,3,EM*%
%TO.N,/steper/ST_DIR2*%
X36832000Y-115450000D03*
%TO.P,U14,4,COL*%
%TO.N,+5V*%
X36832000Y-117990000D03*
%TD*%
D15*
%TO.P,R13,1*%
%TO.N,Net-(D3-K)*%
X46734500Y-88265000D03*
%TO.P,R13,2*%
%TO.N,GND*%
X48384500Y-88265000D03*
%TD*%
D38*
%TO.P,C22,1*%
%TO.N,GND*%
X56162000Y-63721000D03*
%TO.P,C22,2*%
%TO.N,Net-(U3-PF0)*%
X57712000Y-63721000D03*
%TD*%
D14*
%TO.P,C8,1*%
%TO.N,VDDA*%
X70187000Y-80186000D03*
%TO.P,C8,2*%
%TO.N,GNDA*%
X70187000Y-81736000D03*
%TD*%
D38*
%TO.P,C23,1*%
%TO.N,Net-(U3-PF1)*%
X55912000Y-70721000D03*
%TO.P,C23,2*%
%TO.N,GND*%
X57462000Y-70721000D03*
%TD*%
D15*
%TO.P,R35,1*%
%TO.N,Net-(D1-K)*%
X46734500Y-98151000D03*
%TO.P,R35,2*%
%TO.N,GND*%
X48384500Y-98151000D03*
%TD*%
D28*
%TO.P,R7,1*%
%TO.N,Net-(U5-1IN-)*%
X43425000Y-84220000D03*
%TO.P,R7,2*%
%TO.N,/\u63A5\u53E3/DAC_1*%
X45425000Y-84220000D03*
%TD*%
D23*
%TO.P,U20,1,AN*%
%TO.N,Net-(U20-AN)*%
X85854000Y-94742000D03*
%TO.P,U20,2,CAT*%
%TO.N,GND*%
X85854000Y-97282000D03*
%TO.P,U20,3,EM*%
%TO.N,/steper/ST_DIR4*%
X92454000Y-97282000D03*
%TO.P,U20,4,COL*%
%TO.N,+5V*%
X92454000Y-94742000D03*
%TD*%
D15*
%TO.P,R11,1*%
%TO.N,Net-(J3-Pin_8)*%
X68421000Y-52114000D03*
%TO.P,R11,2*%
%TO.N,GND*%
X70071000Y-52114000D03*
%TD*%
D10*
%TO.P,R38,1*%
%TO.N,/RS485/485-*%
X86868000Y-65786000D03*
%TO.P,R38,2*%
%TO.N,GND*%
X85218000Y-65786000D03*
%TD*%
D25*
%TO.P,H2,1,1*%
%TO.N,unconnected-(H2-Pad1)*%
X102600000Y-25000000D03*
X103302944Y-23302944D03*
X103302944Y-26697056D03*
X105000000Y-22600000D03*
D26*
X105000000Y-25000000D03*
D25*
X105000000Y-27400000D03*
X106697056Y-23302944D03*
X106697056Y-26697056D03*
X107400000Y-25000000D03*
%TD*%
D39*
%TO.P,U3,1,VBAT*%
%TO.N,+3V3*%
X61762000Y-65211000D03*
%TO.P,U3,2,PC13*%
%TO.N,unconnected-(U3-PC13-Pad2)*%
X61762000Y-65711000D03*
%TO.P,U3,3,PC14*%
%TO.N,unconnected-(U3-PC14-Pad3)*%
X61762000Y-66211000D03*
%TO.P,U3,4,PC15*%
%TO.N,unconnected-(U3-PC15-Pad4)*%
X61762000Y-66711000D03*
%TO.P,U3,5,PF0*%
%TO.N,Net-(U3-PF0)*%
X61762000Y-67211000D03*
%TO.P,U3,6,PF1*%
%TO.N,Net-(U3-PF1)*%
X61762000Y-67711000D03*
%TO.P,U3,7,PG10*%
%TO.N,RST*%
X61762000Y-68211000D03*
%TO.P,U3,8,PC0*%
%TO.N,unconnected-(U3-PC0-Pad8)*%
X61762000Y-68711000D03*
%TO.P,U3,9,PC1*%
%TO.N,unconnected-(U3-PC1-Pad9)*%
X61762000Y-69211000D03*
%TO.P,U3,10,PC2*%
%TO.N,unconnected-(U3-PC2-Pad10)*%
X61762000Y-69711000D03*
%TO.P,U3,11,PC3*%
%TO.N,unconnected-(U3-PC3-Pad11)*%
X61762000Y-70211000D03*
%TO.P,U3,12,PA0*%
%TO.N,unconnected-(U3-PA0-Pad12)*%
X61762000Y-70711000D03*
%TO.P,U3,13,PA1*%
%TO.N,unconnected-(U3-PA1-Pad13)*%
X61762000Y-71211000D03*
%TO.P,U3,14,PA2*%
%TO.N,/MCU\u6838\u5FC3/DAC_OUT4*%
X61762000Y-71711000D03*
%TO.P,U3,15,VSS*%
%TO.N,GND*%
X61762000Y-72211000D03*
%TO.P,U3,16,VDD*%
%TO.N,+3V3*%
X61762000Y-72711000D03*
D40*
%TO.P,U3,17,PA3*%
%TO.N,unconnected-(U3-PA3-Pad17)*%
X63687000Y-74636000D03*
%TO.P,U3,18,PA4*%
%TO.N,/MCU\u6838\u5FC3/DAC_OUT3*%
X64187000Y-74636000D03*
%TO.P,U3,19,PA5*%
%TO.N,/MCU\u6838\u5FC3/DAC_OUT2*%
X64687000Y-74636000D03*
%TO.P,U3,20,PA6*%
%TO.N,unconnected-(U3-PA6-Pad20)*%
X65187000Y-74636000D03*
%TO.P,U3,21,PA7*%
%TO.N,unconnected-(U3-PA7-Pad21)*%
X65687000Y-74636000D03*
%TO.P,U3,22,PC4*%
%TO.N,/MCU\u6838\u5FC3/USART_TX*%
X66187000Y-74636000D03*
%TO.P,U3,23,PC5*%
%TO.N,/MCU\u6838\u5FC3/USART_RX*%
X66687000Y-74636000D03*
%TO.P,U3,24,PB0*%
%TO.N,unconnected-(U3-PB0-Pad24)*%
X67187000Y-74636000D03*
%TO.P,U3,25,PB1*%
%TO.N,/MCU\u6838\u5FC3/DAC_OU1*%
X67687000Y-74636000D03*
%TO.P,U3,26,PB2*%
%TO.N,unconnected-(U3-PB2-Pad26)*%
X68187000Y-74636000D03*
%TO.P,U3,27,VSSA*%
%TO.N,GNDA*%
X68687000Y-74636000D03*
%TO.P,U3,28,VREF+*%
%TO.N,Net-(U3-VREF+)*%
X69187000Y-74636000D03*
%TO.P,U3,29,VDDA*%
%TO.N,VDDA*%
X69687000Y-74636000D03*
%TO.P,U3,30,PB10*%
%TO.N,/MCU\u6838\u5FC3/RS485_TX*%
X70187000Y-74636000D03*
%TO.P,U3,31,VSS*%
%TO.N,GND*%
X70687000Y-74636000D03*
%TO.P,U3,32,VDD*%
%TO.N,+3V3*%
X71187000Y-74636000D03*
D39*
%TO.P,U3,33,PB11*%
%TO.N,/MCU\u6838\u5FC3/RS485_RX*%
X73112000Y-72711000D03*
%TO.P,U3,34,PB12*%
%TO.N,/MCU\u6838\u5FC3/EN3*%
X73112000Y-72211000D03*
%TO.P,U3,35,PB13*%
%TO.N,/MCU\u6838\u5FC3/DIR3*%
X73112000Y-71711000D03*
%TO.P,U3,36,PB14*%
%TO.N,/MCU\u6838\u5FC3/EN4*%
X73112000Y-71211000D03*
%TO.P,U3,37,PB15*%
%TO.N,/MCU\u6838\u5FC3/DIR4*%
X73112000Y-70711000D03*
%TO.P,U3,38,PC6*%
%TO.N,/MCU\u6838\u5FC3/PWM1*%
X73112000Y-70211000D03*
%TO.P,U3,39,PC7*%
%TO.N,/MCU\u6838\u5FC3/PWM2*%
X73112000Y-69711000D03*
%TO.P,U3,40,PC8*%
%TO.N,/MCU\u6838\u5FC3/PWM3*%
X73112000Y-69211000D03*
%TO.P,U3,41,PC9*%
%TO.N,/MCU\u6838\u5FC3/PWM4*%
X73112000Y-68711000D03*
%TO.P,U3,42,PA8*%
%TO.N,unconnected-(U3-PA8-Pad42)*%
X73112000Y-68211000D03*
%TO.P,U3,43,PA9*%
%TO.N,unconnected-(U3-PA9-Pad43)*%
X73112000Y-67711000D03*
%TO.P,U3,44,PA10*%
%TO.N,unconnected-(U3-PA10-Pad44)*%
X73112000Y-67211000D03*
%TO.P,U3,45,PA11*%
%TO.N,/MCU\u6838\u5FC3/CAN_RX*%
X73112000Y-66711000D03*
%TO.P,U3,46,PA12*%
%TO.N,/MCU\u6838\u5FC3/CAN_TX*%
X73112000Y-66211000D03*
%TO.P,U3,47,VSS*%
%TO.N,GND*%
X73112000Y-65711000D03*
%TO.P,U3,48,VDD*%
%TO.N,+3V3*%
X73112000Y-65211000D03*
D40*
%TO.P,U3,49,PA13*%
%TO.N,SWDIO*%
X71187000Y-63286000D03*
%TO.P,U3,50,PA14*%
%TO.N,SWCLK*%
X70687000Y-63286000D03*
%TO.P,U3,51,PA15*%
%TO.N,unconnected-(U3-PA15-Pad51)*%
X70187000Y-63286000D03*
%TO.P,U3,52,PC10*%
%TO.N,UART4_TX*%
X69687000Y-63286000D03*
%TO.P,U3,53,PC11*%
%TO.N,UART4_RX*%
X69187000Y-63286000D03*
%TO.P,U3,54,PC12*%
%TO.N,unconnected-(U3-PC12-Pad54)*%
X68687000Y-63286000D03*
%TO.P,U3,55,PD2*%
%TO.N,unconnected-(U3-PD2-Pad55)*%
X68187000Y-63286000D03*
%TO.P,U3,56,PB3*%
%TO.N,unconnected-(U3-PB3-Pad56)*%
X67687000Y-63286000D03*
%TO.P,U3,57,PB4*%
%TO.N,/MCU\u6838\u5FC3/EN2*%
X67187000Y-63286000D03*
%TO.P,U3,58,PB5*%
%TO.N,/MCU\u6838\u5FC3/DIR2*%
X66687000Y-63286000D03*
%TO.P,U3,59,PB6*%
%TO.N,/MCU\u6838\u5FC3/EN1*%
X66187000Y-63286000D03*
%TO.P,U3,60,PB7*%
%TO.N,/MCU\u6838\u5FC3/DIR1*%
X65687000Y-63286000D03*
%TO.P,U3,61,PB8*%
%TO.N,unconnected-(U3-PB8-Pad61)*%
X65187000Y-63286000D03*
%TO.P,U3,62,PB9*%
%TO.N,BOOT0*%
X64687000Y-63286000D03*
%TO.P,U3,63,VSS*%
%TO.N,GND*%
X64187000Y-63286000D03*
%TO.P,U3,64,VDD*%
%TO.N,+3V3*%
X63687000Y-63286000D03*
%TD*%
D25*
%TO.P,H1,1,1*%
%TO.N,unconnected-(H1-Pad1)*%
X22600000Y-25000000D03*
X23302944Y-23302944D03*
X23302944Y-26697056D03*
X25000000Y-22600000D03*
D26*
X25000000Y-25000000D03*
D25*
X25000000Y-27400000D03*
X26697056Y-23302944D03*
X26697056Y-26697056D03*
X27400000Y-25000000D03*
%TD*%
D41*
%TO.P,C3,1*%
%TO.N,+5V*%
X91694000Y-39155380D03*
D17*
%TO.P,C3,2*%
%TO.N,GND*%
X91694000Y-36655380D03*
%TD*%
D10*
%TO.P,R33,1*%
%TO.N,Net-(D12-K)*%
X83289000Y-92910000D03*
%TO.P,R33,2*%
%TO.N,GND*%
X81639000Y-92910000D03*
%TD*%
D33*
%TO.P,L1,1*%
%TO.N,+3V3*%
X71687000Y-81796000D03*
%TO.P,L1,2*%
%TO.N,VDDA*%
X71687000Y-80146000D03*
%TD*%
D15*
%TO.P,R21,1*%
%TO.N,Net-(D6-K)*%
X46737000Y-109474000D03*
%TO.P,R21,2*%
%TO.N,GND*%
X48387000Y-109474000D03*
%TD*%
D23*
%TO.P,U19,1,AN*%
%TO.N,Net-(U19-AN)*%
X85854000Y-99949000D03*
%TO.P,U19,2,CAT*%
%TO.N,GND*%
X85854000Y-102489000D03*
%TO.P,U19,3,EM*%
%TO.N,/steper/ST_EN4*%
X92454000Y-102489000D03*
%TO.P,U19,4,COL*%
%TO.N,+5V*%
X92454000Y-99949000D03*
%TD*%
D15*
%TO.P,R12,1*%
%TO.N,Net-(D2-K)*%
X46734500Y-93208000D03*
%TO.P,R12,2*%
%TO.N,GND*%
X48384500Y-93208000D03*
%TD*%
D24*
%TO.P,D15,1,K*%
%TO.N,GND*%
X93853000Y-61924500D03*
%TO.P,D15,2,A*%
%TO.N,/RS485/485-*%
X93853000Y-67107500D03*
%TD*%
D15*
%TO.P,R19,1*%
%TO.N,Net-(D5-K)*%
X46737000Y-114940875D03*
%TO.P,R19,2*%
%TO.N,GND*%
X48387000Y-114940875D03*
%TD*%
%TO.P,R26,1*%
%TO.N,/MCU\u6838\u5FC3/DIR3*%
X81535000Y-113922000D03*
%TO.P,R26,2*%
%TO.N,Net-(U17-AN)*%
X83185000Y-113922000D03*
%TD*%
D18*
%TO.P,D9,1,K*%
%TO.N,Net-(D9-K)*%
X83109500Y-110367000D03*
%TO.P,D9,2,A*%
%TO.N,/MCU\u6838\u5FC3/PWM3*%
X81534500Y-110367000D03*
%TD*%
D13*
%TO.P,C18,1*%
%TO.N,GNDA*%
X65687000Y-81736000D03*
%TO.P,C18,2*%
%TO.N,Net-(U3-VREF+)*%
X65687000Y-80186000D03*
%TD*%
D38*
%TO.P,C21,1*%
%TO.N,GND*%
X70499000Y-105000000D03*
%TO.P,C21,2*%
%TO.N,+3V3*%
X72049000Y-105000000D03*
%TD*%
D10*
%TO.P,R25,1*%
%TO.N,Net-(D8-K)*%
X83185000Y-117498000D03*
%TO.P,R25,2*%
%TO.N,GND*%
X81535000Y-117498000D03*
%TD*%
D33*
%TO.P,R40,1*%
%TO.N,/RS485/485+*%
X86360000Y-70357000D03*
%TO.P,R40,2*%
%TO.N,/RS485/485-*%
X86360000Y-68707000D03*
%TD*%
D42*
%TO.P,LDM2,1*%
%TO.N,Net-(U1-+VO)*%
X80725000Y-42672000D03*
%TO.P,LDM2,2*%
%TO.N,+5V*%
X85725000Y-42672000D03*
%TD*%
D41*
%TO.P,C7,1*%
%TO.N,+3V3*%
X81750000Y-54600000D03*
D17*
%TO.P,C7,2*%
%TO.N,GND*%
X81750000Y-57100000D03*
%TD*%
D23*
%TO.P,U18,1,AN*%
%TO.N,Net-(U18-AN)*%
X86108000Y-109220000D03*
%TO.P,U18,2,CAT*%
%TO.N,GND*%
X86108000Y-111760000D03*
%TO.P,U18,3,EM*%
%TO.N,/steper/ST_PWM3*%
X92708000Y-111760000D03*
%TO.P,U18,4,COL*%
%TO.N,+5V*%
X92708000Y-109220000D03*
%TD*%
D41*
%TO.P,C2,1*%
%TO.N,Net-(U1-+VO)*%
X75250000Y-38869880D03*
D17*
%TO.P,C2,2*%
%TO.N,Net-(U1--VO)*%
X75250000Y-36369880D03*
%TD*%
D14*
%TO.P,C9,1*%
%TO.N,VDDA*%
X68687000Y-80186000D03*
%TO.P,C9,2*%
%TO.N,GNDA*%
X68687000Y-81736000D03*
%TD*%
D23*
%TO.P,U11,1,AN*%
%TO.N,Net-(U11-AN)*%
X43559000Y-96647000D03*
%TO.P,U11,2,CAT*%
%TO.N,GND*%
X43559000Y-94107000D03*
%TO.P,U11,3,EM*%
%TO.N,/steper/ST_DIR1*%
X36959000Y-94107000D03*
%TO.P,U11,4,COL*%
%TO.N,+5V*%
X36959000Y-96647000D03*
%TD*%
D28*
%TO.P,R5,1*%
%TO.N,Net-(U6-1IN-)*%
X43425000Y-74220000D03*
%TO.P,R5,2*%
%TO.N,/\u63A5\u53E3/DAC_3*%
X45425000Y-74220000D03*
%TD*%
D18*
%TO.P,D7,1,K*%
%TO.N,Net-(D7-K)*%
X83109500Y-121054000D03*
%TO.P,D7,2,A*%
%TO.N,/MCU\u6838\u5FC3/EN3*%
X81534500Y-121054000D03*
%TD*%
D20*
%TO.P,TP6,1,1*%
%TO.N,GND*%
X106680000Y-34798000D03*
%TD*%
D23*
%TO.P,U15,1,AN*%
%TO.N,Net-(U15-AN)*%
X43432000Y-112536000D03*
%TO.P,U15,2,CAT*%
%TO.N,GND*%
X43432000Y-109996000D03*
%TO.P,U15,3,EM*%
%TO.N,/steper/ST_PWM2*%
X36832000Y-109996000D03*
%TO.P,U15,4,COL*%
%TO.N,+5V*%
X36832000Y-112536000D03*
%TD*%
D15*
%TO.P,R39,1*%
%TO.N,+3V3*%
X85345000Y-73660000D03*
%TO.P,R39,2*%
%TO.N,/RS485/485+*%
X86995000Y-73660000D03*
%TD*%
D43*
%TO.P,U8,1,COM_LED*%
%TO.N,unconnected-(U8-COM_LED-Pad1)*%
X54904300Y-107898395D03*
D42*
%TO.P,U8,2,TXD*%
%TO.N,/MCU\u6838\u5FC3/USART_TX*%
X57444300Y-107898395D03*
%TO.P,U8,3,RXD*%
%TO.N,/MCU\u6838\u5FC3/USART_RX*%
X59984300Y-107898395D03*
%TO.P,U8,4,485_DIR*%
%TO.N,unconnected-(U8-485_DIR-Pad4)*%
X62524300Y-107898395D03*
%TO.P,U8,5,CFG*%
%TO.N,unconnected-(U8-CFG-Pad5)*%
X65064300Y-107898395D03*
%TO.P,U8,6,RUN_LED*%
%TO.N,unconnected-(U8-RUN_LED-Pad6)*%
X67604300Y-107898395D03*
%TO.P,U8,7,GND*%
%TO.N,GND*%
X70144300Y-107898395D03*
%TO.P,U8,8,3.3V*%
%TO.N,+3V3*%
X72684300Y-107898395D03*
%TO.P,U8,9,5V*%
%TO.N,unconnected-(U8-5V-Pad9)*%
X75224300Y-107898395D03*
D44*
%TO.P,U8,10,Y2*%
%TO.N,unconnected-(U8-Y2-Pad10)*%
X75059200Y-122465295D03*
D45*
%TO.P,U8,11,Y1*%
%TO.N,unconnected-(U8-Y1-Pad11)*%
X75059200Y-125005295D03*
D44*
%TO.P,U8,12,X2*%
%TO.N,unconnected-(U8-X2-Pad12)*%
X75069700Y-132329995D03*
D45*
%TO.P,U8,13,X1*%
%TO.N,unconnected-(U8-X1-Pad13)*%
X75069700Y-134869995D03*
D44*
%TO.P,U8,14,PGND*%
%TO.N,GND*%
X54952900Y-132329995D03*
D45*
%TO.P,U8,15,PGND*%
X54952900Y-134869995D03*
%TD*%
D46*
%TO.P,R9,1*%
%TO.N,/can\u603B\u7EBF/CAN-*%
X93980000Y-82153000D03*
%TO.P,R9,2*%
%TO.N,/can\u603B\u7EBF/CAN+*%
X93980000Y-80153000D03*
%TD*%
D13*
%TO.P,C17,1*%
%TO.N,GNDA*%
X67187000Y-81736000D03*
%TO.P,C17,2*%
%TO.N,Net-(U3-VREF+)*%
X67187000Y-80186000D03*
%TD*%
D28*
%TO.P,R3,1*%
%TO.N,Net-(U5-2IN-)*%
X43425000Y-77724000D03*
%TO.P,R3,2*%
%TO.N,/\u63A5\u53E3/DAC_2*%
X45425000Y-77724000D03*
%TD*%
D20*
%TO.P,TP1,1,1*%
%TO.N,+3V3*%
X76454000Y-52070000D03*
%TD*%
D47*
%TO.P,J3,1,Pin_1*%
%TO.N,+5V*%
X60706000Y-57404000D03*
D48*
%TO.P,J3,2,Pin_2*%
%TO.N,UART4_RX*%
X60706000Y-54864000D03*
%TO.P,J3,3,Pin_3*%
%TO.N,+3V3*%
X63246000Y-57404000D03*
%TO.P,J3,4,Pin_4*%
%TO.N,UART4_TX*%
X63246000Y-54864000D03*
%TO.P,J3,5,Pin_5*%
%TO.N,GND*%
X65786000Y-57404000D03*
%TO.P,J3,6,Pin_6*%
%TO.N,RST*%
X65786000Y-54864000D03*
%TO.P,J3,7,Pin_7*%
%TO.N,SWCLK*%
X68326000Y-57404000D03*
%TO.P,J3,8,Pin_8*%
%TO.N,Net-(J3-Pin_8)*%
X68326000Y-54864000D03*
%TO.P,J3,9,Pin_9*%
%TO.N,SWDIO*%
X70866000Y-57404000D03*
%TO.P,J3,10,Pin_10*%
%TO.N,BOOT0*%
X70866000Y-54864000D03*
%TD*%
D29*
%TO.P,U5,1,1OUT*%
%TO.N,/\u63A5\u53E3/DAC_1*%
X36270000Y-83445000D03*
%TO.P,U5,2,1IN-*%
%TO.N,Net-(U5-1IN-)*%
X37540000Y-83445000D03*
%TO.P,U5,3,1IN+*%
%TO.N,/MCU\u6838\u5FC3/DAC_OU1*%
X38810000Y-83445000D03*
%TO.P,U5,4,GND*%
%TO.N,GNDA*%
X40080000Y-83445000D03*
%TO.P,U5,5,2IN+*%
%TO.N,/MCU\u6838\u5FC3/DAC_OUT2*%
X40080000Y-78495000D03*
%TO.P,U5,6,2IN-*%
%TO.N,Net-(U5-2IN-)*%
X38810000Y-78495000D03*
%TO.P,U5,7,2OUT*%
%TO.N,/\u63A5\u53E3/DAC_2*%
X37540000Y-78495000D03*
%TO.P,U5,8,VCC*%
%TO.N,+5V*%
X36270000Y-78495000D03*
%TD*%
D49*
%TO.P,U2,1,GND*%
%TO.N,GND*%
X93550000Y-50200000D03*
%TO.P,U2,2,VOUT*%
%TO.N,+3V3*%
X91250000Y-50200000D03*
%TO.P,U2,3,VIN*%
%TO.N,+5V*%
X88950000Y-50200000D03*
D50*
%TO.P,U2,4,VOUT*%
%TO.N,+3V3*%
X91250000Y-56500000D03*
%TD*%
D51*
%TO.P,U4,1,DNC*%
%TO.N,unconnected-(U4-DNC-Pad1)*%
X56054000Y-85071000D03*
%TO.P,U4,2,VIN*%
%TO.N,+5V*%
X56054000Y-83801000D03*
%TO.P,U4,3,TEMP*%
%TO.N,unconnected-(U4-TEMP-Pad3)*%
X56054000Y-82531000D03*
%TO.P,U4,4,GND*%
%TO.N,GNDA*%
X56054000Y-81261000D03*
%TO.P,U4,5,TRIM/NR*%
%TO.N,unconnected-(U4-TRIM{slash}NR-Pad5)*%
X51104000Y-81261000D03*
%TO.P,U4,6,VOUT*%
%TO.N,/MCU\u6838\u5FC3/VREF+*%
X51104000Y-82531000D03*
%TO.P,U4,7,NC*%
%TO.N,unconnected-(U4-NC-Pad7)*%
X51104000Y-83801000D03*
%TO.P,U4,8,DNC*%
%TO.N,unconnected-(U4-DNC-Pad8)*%
X51104000Y-85071000D03*
%TD*%
D52*
%TO.P,U7,1,TXD*%
%TO.N,/MCU\u6838\u5FC3/CAN_TX*%
X85780000Y-79168000D03*
%TO.P,U7,2,GND*%
%TO.N,GND*%
X85780000Y-80438000D03*
%TO.P,U7,3,VCC*%
%TO.N,+5V*%
X85780000Y-81708000D03*
%TO.P,U7,4,RXD*%
%TO.N,/MCU\u6838\u5FC3/CAN_RX*%
X85780000Y-82978000D03*
%TO.P,U7,5,VIO*%
%TO.N,Net-(U7-VIO)*%
X90730000Y-82978000D03*
%TO.P,U7,6,CANL*%
%TO.N,/can\u603B\u7EBF/CAN-*%
X90730000Y-81708000D03*
%TO.P,U7,7,CANH*%
%TO.N,/can\u603B\u7EBF/CAN+*%
X90730000Y-80438000D03*
%TO.P,U7,8,S*%
%TO.N,GND*%
X90730000Y-79168000D03*
%TD*%
D53*
%TO.P,C1,1*%
%TO.N,/\u7535\u6E90/VIN*%
X38250000Y-39305177D03*
D54*
%TO.P,C1,2*%
%TO.N,/\u63A5\u53E3/VIN-*%
X38250000Y-34305177D03*
%TD*%
D24*
%TO.P,D18,1,K*%
%TO.N,GND*%
X102108000Y-35762500D03*
%TO.P,D18,2,A*%
%TO.N,+5V*%
X102108000Y-40945500D03*
%TD*%
D55*
%TO.P,Y1,1,1*%
%TO.N,Net-(U3-PF1)*%
X55537000Y-68271000D03*
%TO.P,Y1,2,2*%
%TO.N,GND*%
X58437000Y-68271000D03*
%TO.P,Y1,3,3*%
%TO.N,Net-(U3-PF0)*%
X58437000Y-65971000D03*
%TO.P,Y1,4,4*%
%TO.N,GND*%
X55537000Y-65971000D03*
%TD*%
D23*
%TO.P,U13,1,AN*%
%TO.N,Net-(U13-AN)*%
X43432000Y-123444000D03*
%TO.P,U13,2,CAT*%
%TO.N,GND*%
X43432000Y-120904000D03*
%TO.P,U13,3,EM*%
%TO.N,/steper/ST_EN2*%
X36832000Y-120904000D03*
%TO.P,U13,4,COL*%
%TO.N,+5V*%
X36832000Y-123444000D03*
%TD*%
D16*
%TO.P,D2,1,K*%
%TO.N,Net-(D2-K)*%
X46812000Y-94869000D03*
%TO.P,D2,2,A*%
%TO.N,/MCU\u6838\u5FC3/DIR1*%
X48387000Y-94869000D03*
%TD*%
D23*
%TO.P,U16,1,AN*%
%TO.N,Net-(U16-AN)*%
X86108000Y-119647000D03*
%TO.P,U16,2,CAT*%
%TO.N,GND*%
X86108000Y-122187000D03*
%TO.P,U16,3,EM*%
%TO.N,/steper/ST_EN3*%
X92708000Y-122187000D03*
%TO.P,U16,4,COL*%
%TO.N,+5V*%
X92708000Y-119647000D03*
%TD*%
D42*
%TO.P,LDM1,1*%
%TO.N,Net-(U1--VO)*%
X83500000Y-35437500D03*
%TO.P,LDM1,2*%
%TO.N,GND*%
X83500000Y-30437500D03*
%TD*%
D16*
%TO.P,D5,1,K*%
%TO.N,Net-(D5-K)*%
X46814500Y-116776500D03*
%TO.P,D5,2,A*%
%TO.N,/MCU\u6838\u5FC3/DIR2*%
X48389500Y-116776500D03*
%TD*%
D56*
%TO.N,/MCU\u6838\u5FC3/DIR1*%
X49326800Y-95554800D03*
%TO.N,/MCU\u6838\u5FC3/EN1*%
X49530000Y-100533200D03*
%TO.N,/MCU\u6838\u5FC3/EN2*%
X49225200Y-123139200D03*
%TO.N,/MCU\u6838\u5FC3/DIR2*%
X49326800Y-117500400D03*
%TO.N,/MCU\u6838\u5FC3/EN2*%
X67614800Y-64973200D03*
%TO.N,/MCU\u6838\u5FC3/DIR2*%
X67056000Y-65989200D03*
%TO.N,/MCU\u6838\u5FC3/EN1*%
X65532000Y-65989200D03*
%TO.N,/MCU\u6838\u5FC3/DIR1*%
X64973200Y-65074800D03*
%TO.N,Net-(Q1-C)*%
X77270463Y-68581037D03*
%TO.N,/MCU\u6838\u5FC3/DIR4*%
X75793600Y-75082400D03*
%TO.N,/MCU\u6838\u5FC3/EN4*%
X74574400Y-75387200D03*
%TO.N,/MCU\u6838\u5FC3/DIR3*%
X74320400Y-76657200D03*
%TO.N,/MCU\u6838\u5FC3/EN3*%
X73050400Y-76657200D03*
%TO.N,GND*%
X80924400Y-70307200D03*
%TO.N,+3V3*%
X82702400Y-68021200D03*
%TO.N,GND*%
X83820000Y-62839600D03*
%TO.N,GNDA*%
X30734000Y-68630800D03*
X30683200Y-78638400D03*
X41097200Y-74168000D03*
X41046400Y-83515200D03*
%TO.N,/MCU\u6838\u5FC3/DAC_OU1*%
X67157600Y-73050400D03*
%TO.N,/MCU\u6838\u5FC3/DAC_OUT2*%
X64577790Y-76467731D03*
%TO.N,/MCU\u6838\u5FC3/DAC_OUT3*%
X63601600Y-76250800D03*
%TO.N,/MCU\u6838\u5FC3/DAC_OUT4*%
X63144400Y-71729600D03*
X40081200Y-70256400D03*
%TO.N,/MCU\u6838\u5FC3/DAC_OUT3*%
X38811200Y-71628000D03*
%TO.N,/MCU\u6838\u5FC3/DAC_OUT2*%
X40081200Y-80010000D03*
%TO.N,/MCU\u6838\u5FC3/DAC_OU1*%
X38811200Y-81686400D03*
%TO.N,+5V*%
X39014400Y-91948000D03*
X38811200Y-123240800D03*
X104013000Y-41275000D03*
X40284400Y-122580400D03*
X88798400Y-94792800D03*
X101981000Y-38735000D03*
X39471600Y-112064800D03*
X89966800Y-100076000D03*
X90068400Y-94843600D03*
X90119200Y-89763600D03*
X88747600Y-114503200D03*
X39319200Y-101498400D03*
X90119200Y-114503200D03*
X88747600Y-100025200D03*
X40894000Y-117652800D03*
X100330000Y-40132000D03*
X99568000Y-38735000D03*
X100838000Y-38735000D03*
X104394000Y-38735000D03*
X40792400Y-112014000D03*
X104013000Y-40132000D03*
X81730000Y-81653000D03*
X88696800Y-109372400D03*
X40792400Y-101600000D03*
X60807600Y-83870800D03*
X39624000Y-117602000D03*
X34899600Y-77825600D03*
X103251000Y-38735000D03*
X90424000Y-119735600D03*
X39522400Y-96621600D03*
X34950400Y-78994000D03*
X40335200Y-92862400D03*
X89001600Y-119583200D03*
X35052000Y-68834000D03*
X35052000Y-67868800D03*
X90017600Y-109423200D03*
X40843200Y-96723200D03*
X88950800Y-89712800D03*
%TO.N,RST*%
X68580000Y-68224400D03*
%TO.N,GNDA*%
X50850800Y-58623200D03*
X46786800Y-69748400D03*
X50901600Y-61569600D03*
X68427600Y-76352400D03*
X57912000Y-81635600D03*
X67919600Y-82702400D03*
X61214000Y-81838800D03*
X46786800Y-82245200D03*
X46786800Y-71932800D03*
X63855600Y-83261200D03*
X49631600Y-60147200D03*
X46736000Y-79806800D03*
%TO.N,+3V3*%
X84023200Y-73202800D03*
X79959200Y-54559200D03*
X71687000Y-82971000D03*
X92506800Y-85953600D03*
X74371200Y-80221000D03*
X72085200Y-102717600D03*
X72034400Y-103682800D03*
X77165200Y-64668400D03*
X56845200Y-74015600D03*
X71687000Y-83971000D03*
%TO.N,/MCU\u6838\u5FC3/USART_RX*%
X67005200Y-76200000D03*
%TO.N,/MCU\u6838\u5FC3/USART_TX*%
X67005200Y-77470000D03*
%TO.N,/MCU\u6838\u5FC3/PWM1*%
X68834000Y-96215200D03*
X50139600Y-90830400D03*
%TO.N,/MCU\u6838\u5FC3/PWM2*%
X68275200Y-97485200D03*
X50038000Y-112268000D03*
%TO.N,/MCU\u6838\u5FC3/EN3*%
X80568800Y-120040400D03*
X69037200Y-72288400D03*
X75133200Y-88798400D03*
%TO.N,/MCU\u6838\u5FC3/DIR3*%
X75539600Y-89966800D03*
X80721200Y-114706400D03*
X69900800Y-71628000D03*
%TO.N,/MCU\u6838\u5FC3/EN4*%
X81584800Y-101142800D03*
X70681504Y-70925366D03*
X75996800Y-91186000D03*
%TO.N,/MCU\u6838\u5FC3/DIR4*%
X71424800Y-70256400D03*
X76504800Y-92303600D03*
X81584800Y-95707200D03*
%TO.N,GND*%
X45212000Y-115468400D03*
X78250000Y-59110000D03*
X70510400Y-103682800D03*
X84480400Y-97332800D03*
X81635600Y-80162400D03*
X54254400Y-60096400D03*
X71120000Y-52171600D03*
X53238400Y-61569600D03*
X49885600Y-109321600D03*
X53136800Y-58674000D03*
X45161200Y-98958400D03*
X80518000Y-104089200D03*
X49987200Y-88239600D03*
X83500000Y-57110000D03*
X49580800Y-114909600D03*
X84531200Y-92049600D03*
X92837000Y-63754000D03*
X70510400Y-102717600D03*
X84632800Y-111810800D03*
X84531200Y-122224800D03*
X80416400Y-112217200D03*
X92456000Y-73152000D03*
X80467200Y-122885200D03*
X93726000Y-73152000D03*
X53136800Y-66903600D03*
X53644800Y-71272400D03*
X95504000Y-49657000D03*
X77165200Y-66294000D03*
X45212000Y-94132400D03*
X55168800Y-71729600D03*
X49936400Y-98298000D03*
X79750000Y-59110000D03*
X80365600Y-117500400D03*
X54457600Y-63703200D03*
X84582000Y-116992400D03*
X94107000Y-63754000D03*
X85000000Y-57360000D03*
X84531200Y-102565200D03*
X45161200Y-120904000D03*
X56845200Y-72542400D03*
X53086000Y-68783200D03*
X81750000Y-59110000D03*
X85000000Y-58610000D03*
X45212000Y-109931200D03*
X53136800Y-64922400D03*
X49631600Y-120497600D03*
X45161200Y-89001600D03*
X86250000Y-58610000D03*
X80000000Y-57860000D03*
X70687000Y-73355200D03*
X74371200Y-81721000D03*
X95250000Y-63754000D03*
X95504000Y-50907000D03*
X80416400Y-92964000D03*
X83500000Y-58610000D03*
X78750000Y-57860000D03*
X80416400Y-98399600D03*
X49784000Y-93319600D03*
X94869000Y-73152000D03*
%TO.N,UART4_TX*%
X67390853Y-61133147D03*
%TO.N,UART4_RX*%
X66192400Y-60960000D03*
%TO.N,/MCU\u6838\u5FC3/RS485_RX*%
X77202200Y-70764400D03*
X74893000Y-73558400D03*
%TO.N,/MCU\u6838\u5FC3/RS485_TX*%
X77012800Y-67614800D03*
X71826147Y-78135453D03*
%TD*%
D57*
%TO.N,/MCU\u6838\u5FC3/DIR1*%
X48435300Y-95554800D02*
X48384500Y-95605600D01*
X49326800Y-95554800D02*
X48435300Y-95554800D01*
D58*
X48384500Y-95605600D02*
X48384500Y-96530000D01*
X48384500Y-94871500D02*
X48384500Y-95605600D01*
D57*
%TO.N,/MCU\u6838\u5FC3/EN1*%
X49530000Y-100533200D02*
X49479200Y-100533200D01*
X48768000Y-100533200D02*
X49530000Y-100533200D01*
X48387000Y-100533200D02*
X48768000Y-100533200D01*
D58*
X48387000Y-99812000D02*
X48387000Y-100533200D01*
X48387000Y-100533200D02*
X48387000Y-101470500D01*
D57*
%TO.N,/MCU\u6838\u5FC3/EN2*%
X49225200Y-123139200D02*
X48389500Y-123139200D01*
D58*
X48389500Y-123139200D02*
X48389500Y-124076500D01*
X48389500Y-122243375D02*
X48389500Y-123139200D01*
D57*
%TO.N,/MCU\u6838\u5FC3/DIR2*%
X48717200Y-117500400D02*
X49326800Y-117500400D01*
D58*
X48389500Y-117500400D02*
X48389500Y-118609625D01*
D57*
X48389500Y-117500400D02*
X48717200Y-117500400D01*
D58*
X48389500Y-116776500D02*
X48389500Y-117500400D01*
D57*
%TO.N,/MCU\u6838\u5FC3/EN2*%
X67614800Y-65024000D02*
X67564000Y-64973200D01*
X67614800Y-64973200D02*
X67614800Y-65024000D01*
X67564000Y-64973200D02*
X67614800Y-64973200D01*
X67187000Y-64596200D02*
X67564000Y-64973200D01*
X67187000Y-63286000D02*
X67187000Y-64596200D01*
%TO.N,/MCU\u6838\u5FC3/DIR2*%
X67056000Y-65989200D02*
X67005200Y-65938400D01*
X66687000Y-65620200D02*
X67056000Y-65989200D01*
X66687000Y-63286000D02*
X66687000Y-65620200D01*
%TO.N,/MCU\u6838\u5FC3/EN1*%
X65481200Y-65989200D02*
X65532000Y-65938400D01*
X65532000Y-65989200D02*
X65481200Y-65989200D01*
X65532000Y-65938400D02*
X65532000Y-65989200D01*
X66187000Y-65283400D02*
X65532000Y-65938400D01*
X66187000Y-63286000D02*
X66187000Y-65283400D01*
%TO.N,/MCU\u6838\u5FC3/DIR1*%
X64973200Y-65074800D02*
X65024000Y-65024000D01*
X65687000Y-64361000D02*
X64973200Y-65074800D01*
X65687000Y-63286000D02*
X65687000Y-64361000D01*
D59*
%TO.N,Net-(U3-PF1)*%
X55537000Y-70346000D02*
X55537000Y-68271000D01*
X55912000Y-70721000D02*
X55537000Y-70346000D01*
%TO.N,Net-(U3-PF0)*%
X60198000Y-66430944D02*
X60198000Y-66802000D01*
X60198000Y-64566800D02*
X60198000Y-65230944D01*
X60198000Y-66802000D02*
X60607000Y-67211000D01*
X60648000Y-65680944D02*
X60648000Y-65830944D01*
X60607000Y-67211000D02*
X61762000Y-67211000D01*
X60198000Y-66280944D02*
X60198000Y-66430944D01*
X59352200Y-63721000D02*
X60198000Y-64566800D01*
X57712000Y-63721000D02*
X59352200Y-63721000D01*
X60423000Y-66055944D02*
G75*
G03*
X60198044Y-66280944I0J-224956D01*
G01*
X60648000Y-65830944D02*
G75*
G02*
X60423000Y-66055900I-225000J44D01*
G01*
X60198000Y-65230944D02*
G75*
G03*
X60423000Y-65455900I225000J44D01*
G01*
X60423000Y-65455944D02*
G75*
G02*
X60647956Y-65680944I0J-224956D01*
G01*
%TO.N,Net-(U3-PF1)*%
X60813000Y-67711000D02*
X61762000Y-67711000D01*
X60248800Y-69342000D02*
X60248800Y-68275200D01*
X59842400Y-69748400D02*
X60248800Y-69342000D01*
X56388000Y-69748400D02*
X59842400Y-69748400D01*
X55912000Y-70721000D02*
X55912000Y-70224400D01*
X55912000Y-70224400D02*
X56388000Y-69748400D01*
X60248800Y-68275200D02*
X60813000Y-67711000D01*
%TO.N,/MCU\u6838\u5FC3/EN3*%
X75488800Y-88442800D02*
X75488800Y-79095600D01*
X75133200Y-88798400D02*
X75298400Y-88633200D01*
X75133200Y-88798400D02*
X75488800Y-88442800D01*
X75488800Y-79095600D02*
X73050400Y-76657200D01*
%TO.N,Net-(Q1-C)*%
X77318637Y-68581037D02*
X77571600Y-68834000D01*
X77318637Y-68581037D02*
X77470000Y-68732400D01*
X77571600Y-68834000D02*
X78702000Y-68834000D01*
X77270463Y-68581037D02*
X77318637Y-68581037D01*
X78702000Y-68834000D02*
X78702000Y-70104000D01*
%TO.N,/MCU\u6838\u5FC3/DIR3*%
X75952400Y-78289200D02*
X74320400Y-76657200D01*
X75952400Y-89655600D02*
X75952400Y-78289200D01*
X75844400Y-89763600D02*
X75952400Y-89655600D01*
%TO.N,/MCU\u6838\u5FC3/EN4*%
X76403200Y-77216000D02*
X74574400Y-75387200D01*
X75996800Y-91186000D02*
X76403200Y-90881200D01*
X76403200Y-90881200D02*
X76403200Y-77216000D01*
%TO.N,/MCU\u6838\u5FC3/DIR4*%
X76917600Y-91890800D02*
X76917600Y-76206400D01*
X76917600Y-76206400D02*
X75793600Y-75082400D01*
X76504800Y-92303600D02*
X76917600Y-91890800D01*
D57*
%TO.N,+3V3*%
X83058000Y-67564000D02*
X84112000Y-67564000D01*
X82702400Y-67919600D02*
X83058000Y-67564000D01*
X82702400Y-68021200D02*
X82702400Y-67919600D01*
D58*
%TO.N,/\u63A5\u53E3/DAC_3*%
X33514994Y-76200000D02*
X27830000Y-76200000D01*
X27830000Y-76200000D02*
G75*
G02*
X25250000Y-73620000I0J2580000D01*
G01*
X36270000Y-73445000D02*
G75*
G02*
X33514994Y-76200000I-2755000J0D01*
G01*
D57*
%TO.N,/\u63A5\u53E3/DAC_1*%
X37744400Y-85902800D02*
X44348400Y-85902800D01*
X44348400Y-85902800D02*
X45425000Y-84826200D01*
X45425000Y-84826200D02*
X45425000Y-84220000D01*
X36270000Y-84428400D02*
X37744400Y-85902800D01*
X36270000Y-83445000D02*
X36270000Y-84428400D01*
%TO.N,GNDA*%
X40803000Y-74168000D02*
X40080000Y-73445000D01*
X41097200Y-74168000D02*
X40803000Y-74168000D01*
X40150200Y-83515200D02*
X40080000Y-83445000D01*
X41046400Y-83515200D02*
X40150200Y-83515200D01*
%TO.N,Net-(U5-1IN-)*%
X37540000Y-84479200D02*
X37540000Y-83445000D01*
X42351800Y-85293200D02*
X38354000Y-85293200D01*
X38354000Y-85293200D02*
X37540000Y-84479200D01*
X43425000Y-84220000D02*
X42351800Y-85293200D01*
X43425000Y-82220000D02*
X43425000Y-84220000D01*
%TO.N,Net-(U5-2IN-)*%
X43425000Y-77970000D02*
X43425000Y-79720000D01*
X39375201Y-76954800D02*
X42409800Y-76954800D01*
X42409800Y-76954800D02*
X43425000Y-77970000D01*
X38810000Y-78495000D02*
X38810000Y-77520001D01*
X38810000Y-77520001D02*
X39375201Y-76954800D01*
%TO.N,/\u63A5\u53E3/DAC_2*%
X37540000Y-77214800D02*
X37540000Y-78495000D01*
X43959800Y-76504800D02*
X38252400Y-76504800D01*
X38252400Y-76504800D02*
X37542400Y-77214800D01*
X37542400Y-77214800D02*
X37540000Y-77214800D01*
X45425000Y-77970000D02*
X43959800Y-76504800D01*
%TO.N,/\u63A5\u53E3/DAC_3*%
X37744400Y-75946000D02*
X43699000Y-75946000D01*
X43699000Y-75946000D02*
X45425000Y-74220000D01*
X36270000Y-74471600D02*
X37744400Y-75946000D01*
X36270000Y-73445000D02*
X36270000Y-74471600D01*
%TO.N,/\u63A5\u53E3/DAC_4*%
X45425000Y-67269000D02*
X45425000Y-67720000D01*
X37540000Y-67108000D02*
X39065200Y-65582800D01*
X39065200Y-65582800D02*
X43738800Y-65582800D01*
X43738800Y-65582800D02*
X45425000Y-67269000D01*
X37540000Y-68495000D02*
X37540000Y-67108000D01*
%TO.N,Net-(U6-2IN-)*%
X38810000Y-67311200D02*
X38810000Y-68495000D01*
X43078400Y-66446400D02*
X39674800Y-66446400D01*
X43425000Y-66793000D02*
X43078400Y-66446400D01*
X43425000Y-67720000D02*
X43425000Y-66793000D01*
X39674800Y-66446400D02*
X38810000Y-67311200D01*
X43425000Y-69720000D02*
X43425000Y-67720000D01*
%TO.N,GNDA*%
X45313600Y-71858600D02*
X45425000Y-71970000D01*
%TO.N,Net-(U6-1IN-)*%
X43425000Y-71970000D02*
X43425000Y-74220000D01*
X42461000Y-75184000D02*
X43425000Y-74220000D01*
X38304001Y-75184000D02*
X42461000Y-75184000D01*
X37540000Y-73445000D02*
X37540000Y-74419999D01*
X37540000Y-74419999D02*
X38304001Y-75184000D01*
D59*
%TO.N,/RS485/485-*%
X87085000Y-69357000D02*
X89088200Y-69357000D01*
X86435000Y-68707000D02*
X87085000Y-69357000D01*
X89088200Y-69357000D02*
X89535000Y-68910200D01*
X86360000Y-68707000D02*
X86435000Y-68707000D01*
X89535000Y-68910200D02*
X89535000Y-66877500D01*
%TO.N,/RS485/485+*%
X90373200Y-69494400D02*
X92151200Y-69494400D01*
X89535000Y-71704200D02*
X90068400Y-71170800D01*
X90068400Y-71170800D02*
X90068400Y-69799200D01*
X90068400Y-69799200D02*
X90373200Y-69494400D01*
X92608400Y-69037200D02*
X93040200Y-69037200D01*
X93040200Y-69037200D02*
X93853000Y-69850000D01*
X89535000Y-72060500D02*
X89535000Y-71704200D01*
X92151200Y-69494400D02*
X92608400Y-69037200D01*
%TO.N,/RS485/485-*%
X91744800Y-69037200D02*
X93674500Y-67107500D01*
X93674500Y-67107500D02*
X93853000Y-67107500D01*
X90424000Y-69037200D02*
X91744800Y-69037200D01*
X90220800Y-67868800D02*
X90220800Y-68834000D01*
X89535000Y-67183000D02*
X90220800Y-67868800D01*
X89535000Y-66877500D02*
X89535000Y-67183000D01*
X90220800Y-68834000D02*
X90424000Y-69037200D01*
%TO.N,/RS485/485+*%
X88908600Y-69757000D02*
X89535000Y-70383400D01*
X89535000Y-70383400D02*
X89535000Y-72060500D01*
X86435000Y-70357000D02*
X87035000Y-69757000D01*
X86360000Y-70357000D02*
X86435000Y-70357000D01*
X87035000Y-69757000D02*
X88908600Y-69757000D01*
%TO.N,/RS485/485-*%
X102445000Y-70895000D02*
X104750000Y-68590000D01*
X97527950Y-68253750D02*
X100169200Y-70895000D01*
X94488700Y-67107500D02*
X95634950Y-68253750D01*
X93853000Y-67107500D02*
X94488700Y-67107500D01*
X95634950Y-68253750D02*
X97527950Y-68253750D01*
X100169200Y-70895000D02*
X102445000Y-70895000D01*
%TO.N,/RS485/485+*%
X99982800Y-71345000D02*
X102425000Y-71345000D01*
X95583450Y-68703750D02*
X97341550Y-68703750D01*
X102425000Y-71345000D02*
X104750000Y-73670000D01*
X94437200Y-69850000D02*
X95583450Y-68703750D01*
X93853000Y-69850000D02*
X94437200Y-69850000D01*
X97341550Y-68703750D02*
X99982800Y-71345000D01*
D57*
%TO.N,/MCU\u6838\u5FC3/DAC_OUT2*%
X64687000Y-76358521D02*
X64687000Y-74636000D01*
X64577790Y-76467731D02*
X64687000Y-76358521D01*
%TO.N,/MCU\u6838\u5FC3/DAC_OUT3*%
X63601600Y-76250800D02*
X64187000Y-75665400D01*
X64187000Y-75665400D02*
X64187000Y-74636000D01*
%TO.N,/MCU\u6838\u5FC3/DAC_OU1*%
X67687000Y-73579800D02*
X67157600Y-73050400D01*
X67687000Y-74636000D02*
X67687000Y-73579800D01*
%TO.N,/MCU\u6838\u5FC3/DAC_OUT4*%
X63144400Y-71831200D02*
X63042800Y-71729600D01*
X63144400Y-71729600D02*
X63144400Y-71831200D01*
X63042800Y-71729600D02*
X63144400Y-71729600D01*
X63024200Y-71711000D02*
X63042800Y-71729600D01*
X61762000Y-71711000D02*
X63024200Y-71711000D01*
X40132000Y-70256400D02*
X40081200Y-70205600D01*
X40081200Y-70256400D02*
X40132000Y-70256400D01*
X40081200Y-70205600D02*
X40081200Y-70256400D01*
X40080000Y-70204400D02*
X40081200Y-70205600D01*
D60*
X40080000Y-68495000D02*
X40080000Y-70204400D01*
D57*
%TO.N,/MCU\u6838\u5FC3/DAC_OUT3*%
X38862000Y-71628000D02*
X38811200Y-71678800D01*
X38811200Y-71628000D02*
X38862000Y-71628000D01*
X38811200Y-71678800D02*
X38811200Y-71628000D01*
X38810000Y-71680000D02*
X38811200Y-71678800D01*
D60*
X38810000Y-73445000D02*
X38810000Y-71680000D01*
D57*
%TO.N,/MCU\u6838\u5FC3/DAC_OUT2*%
X40080000Y-80011200D02*
X40080000Y-80059600D01*
X40081200Y-80010000D02*
X40080000Y-80011200D01*
X40080000Y-80008800D02*
X40081200Y-80010000D01*
D60*
X40080000Y-78495000D02*
X40080000Y-80008800D01*
D57*
%TO.N,/MCU\u6838\u5FC3/DAC_OU1*%
X38810000Y-81687600D02*
X38811200Y-81686400D01*
D60*
X38810000Y-83445000D02*
X38810000Y-81687600D01*
%TO.N,+5V*%
X59334000Y-83801000D02*
X59399000Y-83866000D01*
X60802800Y-83866000D02*
X59399000Y-83866000D01*
D61*
X81730000Y-81653000D02*
X83155000Y-81653000D01*
X85760000Y-81728000D02*
X85780000Y-81708000D01*
D60*
X60858400Y-83870800D02*
X60807600Y-83870800D01*
D61*
X83155000Y-81653000D02*
X83230000Y-81728000D01*
X83230000Y-81728000D02*
X85760000Y-81728000D01*
D60*
X56054000Y-83801000D02*
X59334000Y-83801000D01*
X60807600Y-83870800D02*
X60802800Y-83866000D01*
%TO.N,VDDA*%
X70222000Y-80221000D02*
X70187000Y-80186000D01*
D62*
X69687000Y-77971000D02*
X68687000Y-78971000D01*
D63*
X68722000Y-80186000D02*
X70187000Y-80186000D01*
X68687000Y-80221000D02*
X68722000Y-80186000D01*
D59*
X70187000Y-80186000D02*
X70187000Y-80286000D01*
D62*
X68687000Y-78971000D02*
X68687000Y-80186000D01*
X69687000Y-74636000D02*
X69687000Y-77971000D01*
D60*
X71687000Y-80221000D02*
X70222000Y-80221000D01*
X70187000Y-80186000D02*
X68687000Y-80186000D01*
D57*
X71687000Y-80146000D02*
X71687000Y-80221000D01*
X68687000Y-80186000D02*
X68687000Y-80221000D01*
D60*
%TO.N,/MCU\u6838\u5FC3/VREF+*%
X61437000Y-80221000D02*
X62722000Y-80221000D01*
D58*
X54533800Y-88519000D02*
X53289200Y-87274400D01*
D60*
X60768800Y-79552800D02*
X61437000Y-80221000D01*
D62*
X62687000Y-80186000D02*
X62687000Y-80286000D01*
D60*
X62722000Y-80221000D02*
X62687000Y-80186000D01*
D58*
X53289200Y-87274400D02*
X53289200Y-83324800D01*
D60*
X51104000Y-82531000D02*
X52495400Y-82531000D01*
X52495400Y-82531000D02*
X55473600Y-79552800D01*
D62*
X62687000Y-80286000D02*
X64187000Y-81786000D01*
D58*
X62738000Y-88519000D02*
X54533800Y-88519000D01*
D60*
X55473600Y-79552800D02*
X60768800Y-79552800D01*
D58*
X53289200Y-83324800D02*
X52495400Y-82531000D01*
D57*
%TO.N,Net-(U3-PF0)*%
X58437000Y-64446000D02*
X58437000Y-65971000D01*
X57712000Y-63721000D02*
X58437000Y-64446000D01*
%TO.N,Net-(U3-PF1)*%
X55537000Y-68271000D02*
X55687000Y-68271000D01*
%TO.N,SWCLK*%
X70687000Y-59765000D02*
X70687000Y-63286000D01*
X68326000Y-57404000D02*
X70687000Y-59765000D01*
%TO.N,SWDIO*%
X71187000Y-57725000D02*
X71187000Y-63286000D01*
X70866000Y-57404000D02*
X71187000Y-57725000D01*
%TO.N,RST*%
X68580000Y-68224400D02*
X68566600Y-68211000D01*
X68566600Y-68211000D02*
X61762000Y-68211000D01*
%TO.N,Net-(U3-VREF+)*%
X67187000Y-79471000D02*
X67187000Y-80186000D01*
D62*
X67137000Y-80136000D02*
X67187000Y-80186000D01*
D57*
X69187000Y-74636000D02*
X69187000Y-77471000D01*
X69187000Y-77471000D02*
X67187000Y-79471000D01*
D62*
X64187000Y-80136000D02*
X67137000Y-80136000D01*
D60*
%TO.N,GNDA*%
X45462200Y-71932800D02*
X45425000Y-71970000D01*
X62687000Y-82448200D02*
X63500000Y-83261200D01*
X61086800Y-81966000D02*
X61214000Y-81838800D01*
X58242400Y-81966000D02*
X59237000Y-81966000D01*
X46786800Y-69748400D02*
X45453400Y-69748400D01*
D57*
X68687000Y-76093000D02*
X68687000Y-74636000D01*
D60*
X46786800Y-82245200D02*
X45450200Y-82245200D01*
X57912000Y-81635600D02*
X58242400Y-81966000D01*
X62687000Y-81736000D02*
X62687000Y-82448200D01*
X45450200Y-82245200D02*
X45425000Y-82220000D01*
D57*
X68427600Y-76352400D02*
X68687000Y-76093000D01*
D60*
X59399000Y-81966000D02*
X61086800Y-81966000D01*
X45511800Y-79806800D02*
X45425000Y-79720000D01*
X46786800Y-71932800D02*
X45462200Y-71932800D01*
X45453400Y-69748400D02*
X45425000Y-69720000D01*
X63855600Y-83261200D02*
X64820800Y-83261200D01*
X67157600Y-81765400D02*
X67187000Y-81736000D01*
X63500000Y-83261200D02*
X63855600Y-83261200D01*
X64820800Y-83261200D02*
X65687000Y-82395000D01*
X65687000Y-81736000D02*
X67919600Y-81736000D01*
X46736000Y-79806800D02*
X45511800Y-79806800D01*
X68681600Y-81741400D02*
X68687000Y-81736000D01*
D57*
X67919600Y-82702400D02*
X67919600Y-81736000D01*
D60*
X55892000Y-81261000D02*
X57537400Y-81261000D01*
X57537400Y-81261000D02*
X57912000Y-81635600D01*
X61316800Y-81736000D02*
X62687000Y-81736000D01*
X65687000Y-82395000D02*
X65687000Y-81736000D01*
X67919600Y-81736000D02*
X70187000Y-81736000D01*
X61214000Y-81838800D02*
X61316800Y-81736000D01*
X59486800Y-81878200D02*
X59399000Y-81966000D01*
%TO.N,Net-(U7-VIO)*%
X91969600Y-82978000D02*
X92894600Y-83903000D01*
X92894600Y-83903000D02*
X93980000Y-83903000D01*
X90730000Y-82978000D02*
X91969600Y-82978000D01*
D57*
%TO.N,BOOT0*%
X67005200Y-58674000D02*
X67005200Y-56946800D01*
X65430400Y-61431652D02*
X65430400Y-60248800D01*
X67005200Y-56946800D02*
X67723000Y-56229000D01*
X67723000Y-56229000D02*
X69501000Y-56229000D01*
X69501000Y-56229000D02*
X70866000Y-54864000D01*
X64687000Y-63286000D02*
X64687000Y-62175052D01*
X64687000Y-62175052D02*
X65430400Y-61431652D01*
X65430400Y-60248800D02*
X67005200Y-58674000D01*
D63*
%TO.N,Net-(J3-Pin_8)*%
X68421000Y-52114000D02*
X68421000Y-54769000D01*
X68421000Y-54769000D02*
X68326000Y-54864000D01*
%TO.N,+3V3*%
X84023200Y-73202800D02*
X84531200Y-73710800D01*
D57*
X59437000Y-73996000D02*
X59862000Y-73996000D01*
D60*
X92506800Y-85953600D02*
X93929400Y-85953600D01*
D63*
X63246000Y-57404000D02*
X63246000Y-59334400D01*
D57*
X63687000Y-64481400D02*
X63687000Y-63286000D01*
D61*
X57873200Y-73964800D02*
X59373200Y-73964800D01*
D57*
X73437000Y-78721000D02*
X71187000Y-76471000D01*
D63*
X72049000Y-107263095D02*
X72684300Y-107898395D01*
D57*
X60198000Y-73355200D02*
X60842200Y-72711000D01*
D63*
X72034400Y-104985400D02*
X72049000Y-105000000D01*
D57*
X71187000Y-76471000D02*
X71187000Y-74636000D01*
D63*
X85294200Y-73710800D02*
X85345000Y-73660000D01*
X77147600Y-64686000D02*
X77165200Y-64668400D01*
X63246000Y-59334400D02*
X63093000Y-59487400D01*
D57*
X62957400Y-65211000D02*
X63687000Y-64481400D01*
D63*
X72034400Y-103682800D02*
X72034400Y-104985400D01*
X84531200Y-73710800D02*
X85294200Y-73710800D01*
D57*
X73112000Y-65211000D02*
X74489000Y-65211000D01*
D63*
X63093000Y-59487400D02*
X63093000Y-60960000D01*
D57*
X59862000Y-73996000D02*
X60198000Y-73660000D01*
D60*
X93929400Y-85953600D02*
X93980000Y-85903000D01*
D57*
X75014000Y-64686000D02*
X75937000Y-64686000D01*
X61762000Y-65211000D02*
X62957400Y-65211000D01*
D60*
X71687000Y-83971000D02*
X71687000Y-81796000D01*
D61*
X56787000Y-74021000D02*
X58287000Y-74021000D01*
D57*
X74489000Y-65211000D02*
X75014000Y-64686000D01*
X60842200Y-72711000D02*
X61762000Y-72711000D01*
D63*
X72049000Y-105000000D02*
X72049000Y-107263095D01*
X75937000Y-64686000D02*
X77147600Y-64686000D01*
D57*
X73437000Y-80196000D02*
X73437000Y-78721000D01*
D60*
X74371200Y-80221000D02*
X73462000Y-80221000D01*
D57*
X63093000Y-60960000D02*
X63093000Y-61416600D01*
X57917400Y-74015600D02*
X57937000Y-73996000D01*
X60198000Y-73660000D02*
X60198000Y-73355200D01*
D60*
X73462000Y-80221000D02*
X73437000Y-80196000D01*
D57*
X63093000Y-61416600D02*
X63687000Y-62010600D01*
D63*
X72085200Y-103632000D02*
X72034400Y-103682800D01*
D57*
X63687000Y-62010600D02*
X63687000Y-63286000D01*
D63*
X72085200Y-102717600D02*
X72085200Y-103632000D01*
D57*
%TO.N,/MCU\u6838\u5FC3/CAN_TX*%
X81098400Y-79168000D02*
X85780000Y-79168000D01*
X79552800Y-77622400D02*
X81098400Y-79168000D01*
X76403200Y-71120000D02*
X79552800Y-74269600D01*
X79552800Y-74269600D02*
X79552800Y-77622400D01*
X74186600Y-66211000D02*
X76403200Y-68427600D01*
X76403200Y-68427600D02*
X76403200Y-71120000D01*
X73112000Y-66211000D02*
X74186600Y-66211000D01*
%TO.N,/MCU\u6838\u5FC3/CAN_RX*%
X79044800Y-74422000D02*
X79044800Y-80467200D01*
X81555600Y-82978000D02*
X85780000Y-82978000D01*
X73954764Y-66711000D02*
X75953200Y-68709436D01*
X75953200Y-71330400D02*
X79044800Y-74422000D01*
X79044800Y-80467200D02*
X81555600Y-82978000D01*
X73112000Y-66711000D02*
X73954764Y-66711000D01*
X75953200Y-68709436D02*
X75953200Y-71330400D01*
D58*
%TO.N,/\u63A5\u53E3/DAC_2*%
X35418061Y-81127600D02*
X27677600Y-81127600D01*
X37540000Y-78495000D02*
X37540000Y-79005661D01*
X27677600Y-81127600D02*
G75*
G02*
X25250000Y-78700000I0J2427600D01*
G01*
X37540000Y-79005661D02*
G75*
G02*
X35418061Y-81127600I-2121940J1D01*
G01*
%TO.N,/\u63A5\u53E3/DAC_1*%
X34372261Y-85852000D02*
X27321988Y-85852000D01*
X36270000Y-83445000D02*
X36270000Y-83954261D01*
X27321988Y-85852000D02*
G75*
G02*
X25250000Y-83780000I12J2072000D01*
G01*
X36270000Y-83954261D02*
G75*
G02*
X34372261Y-85852000I-1897740J1D01*
G01*
%TO.N,/\u63A5\u53E3/DAC_4*%
X37540000Y-68495000D02*
X37540000Y-69084669D01*
X35657069Y-70967600D02*
X27677600Y-70967600D01*
X27677600Y-70967600D02*
G75*
G02*
X25250000Y-68540000I0J2427600D01*
G01*
X37540000Y-69084669D02*
G75*
G02*
X35657069Y-70967600I-1882930J-1D01*
G01*
D57*
%TO.N,/MCU\u6838\u5FC3/USART_RX*%
X66687000Y-74636000D02*
X66687000Y-75831000D01*
X66903600Y-76047600D02*
X67005200Y-76149200D01*
X66687000Y-75831000D02*
X66903600Y-76047600D01*
X67005200Y-76149200D02*
X67005200Y-76200000D01*
%TO.N,/MCU\u6838\u5FC3/USART_TX*%
X66187000Y-76651800D02*
X67005200Y-77470000D01*
X66187000Y-74636000D02*
X66187000Y-76651800D01*
D59*
%TO.N,/can\u603B\u7EBF/CAN+*%
X102572000Y-80928000D02*
X104750000Y-78750000D01*
X95030001Y-80153000D02*
X95805001Y-80928000D01*
X93980000Y-80153000D02*
X95030001Y-80153000D01*
X91405000Y-80438000D02*
X91815000Y-80848000D01*
X93230000Y-80903000D02*
X93980000Y-80153000D01*
X91815000Y-80848000D02*
X92659438Y-80848000D01*
X92659438Y-80848000D02*
X92714438Y-80903000D01*
X95805001Y-80928000D02*
X102572000Y-80928000D01*
X90730000Y-80438000D02*
X91405000Y-80438000D01*
X92714438Y-80903000D02*
X93230000Y-80903000D01*
%TO.N,/can\u603B\u7EBF/CAN-*%
X93105000Y-81378000D02*
X93880000Y-82153000D01*
X95805001Y-81378000D02*
X102587000Y-81378000D01*
X92560000Y-81378000D02*
X93105000Y-81378000D01*
X102587000Y-81378000D02*
X104750000Y-83541000D01*
X92480000Y-81298000D02*
X92560000Y-81378000D01*
X91405000Y-81708000D02*
X91815000Y-81298000D01*
X90730000Y-81708000D02*
X91405000Y-81708000D01*
X93980000Y-82153000D02*
X95030001Y-82153000D01*
X104750000Y-83541000D02*
X104750000Y-83830000D01*
X95030001Y-82153000D02*
X95805001Y-81378000D01*
X91815000Y-81298000D02*
X92480000Y-81298000D01*
D58*
%TO.N,Net-(D1-K)*%
X46734500Y-98151000D02*
X46734500Y-99734500D01*
X46734500Y-99734500D02*
G75*
G03*
X46812000Y-99812000I77500J0D01*
G01*
%TO.N,Net-(D2-K)*%
X46734500Y-93208000D02*
X46734500Y-94791500D01*
X46734500Y-94791500D02*
G75*
G03*
X46812000Y-94869000I77500J0D01*
G01*
%TO.N,Net-(D3-K)*%
X46734500Y-88265000D02*
X46734500Y-89848500D01*
X46734500Y-89848500D02*
G75*
G03*
X46812000Y-89926000I77500J0D01*
G01*
%TO.N,Net-(D4-K)*%
X46737000Y-120407750D02*
X46737000Y-122165875D01*
X46737000Y-122165875D02*
G75*
G03*
X46814500Y-122243400I77500J-25D01*
G01*
%TO.N,Net-(D5-K)*%
X46737000Y-114940875D02*
X46737000Y-116699000D01*
X46737000Y-116699000D02*
G75*
G03*
X46814500Y-116776500I77500J0D01*
G01*
%TO.N,Net-(D6-K)*%
X46737000Y-109474000D02*
X46737000Y-111232125D01*
X46737000Y-111232125D02*
G75*
G03*
X46814500Y-111309600I77500J25D01*
G01*
%TO.N,Net-(D7-K)*%
X83109500Y-121054000D02*
X83109500Y-122764500D01*
X83109500Y-122764500D02*
G75*
G03*
X83187000Y-122842000I77500J0D01*
G01*
%TO.N,Net-(D8-K)*%
X83107500Y-115710000D02*
X83107500Y-117420500D01*
X83107500Y-117420500D02*
G75*
G03*
X83185000Y-117498000I77500J0D01*
G01*
%TO.N,Net-(D9-K)*%
X83109500Y-110367000D02*
X83109500Y-112077500D01*
X83109500Y-112077500D02*
G75*
G03*
X83187000Y-112155000I77500J0D01*
G01*
%TO.N,Net-(D10-K)*%
X83211500Y-102077500D02*
X83211500Y-103849500D01*
X83211500Y-103849500D02*
G75*
G03*
X83289000Y-103927000I77500J0D01*
G01*
%TO.N,Net-(D11-K)*%
X83211500Y-96569000D02*
X83211500Y-98341000D01*
X83211500Y-98341000D02*
G75*
G03*
X83289000Y-98418500I77500J0D01*
G01*
%TO.N,Net-(D12-K)*%
X83211500Y-91060500D02*
X83211500Y-92832500D01*
X83211500Y-92832500D02*
G75*
G03*
X83289000Y-92910000I77500J0D01*
G01*
%TO.N,Net-(U10-AN)*%
X43559000Y-101473000D02*
X46734500Y-101473000D01*
%TO.N,Net-(U11-AN)*%
X43559000Y-96647000D02*
X46617500Y-96647000D01*
X46617500Y-96647000D02*
G75*
G03*
X46734500Y-96530000I0J117000D01*
G01*
%TO.N,Net-(U12-AN)*%
X43432000Y-91567000D02*
X46714500Y-91567000D01*
X46714500Y-91567000D02*
G75*
G02*
X46734500Y-91587000I0J-20000D01*
G01*
%TO.N,Net-(U13-AN)*%
X46737000Y-124079000D02*
X44067000Y-124079000D01*
X44067000Y-124079000D02*
G75*
G02*
X43432000Y-123444000I0J635000D01*
G01*
%TO.N,Net-(U14-AN)*%
X46737000Y-118612125D02*
X44054125Y-118612125D01*
X44054125Y-118612125D02*
G75*
G02*
X43431975Y-117990000I-25J622125D01*
G01*
%TO.N,Net-(U15-AN)*%
X46737000Y-113145250D02*
X44041250Y-113145250D01*
X44041250Y-113145250D02*
G75*
G02*
X43431950Y-112536000I-50J609250D01*
G01*
%TO.N,Net-(U16-AN)*%
X83187000Y-119266000D02*
X85727000Y-119266000D01*
X85727000Y-119266000D02*
G75*
G02*
X86108000Y-119647000I0J-381000D01*
G01*
%TO.N,Net-(U17-AN)*%
X83185000Y-113922000D02*
X85595000Y-113922000D01*
X85595000Y-113922000D02*
G75*
G02*
X86106000Y-114433000I0J-511000D01*
G01*
%TO.N,Net-(U18-AN)*%
X83187000Y-108579000D02*
X85467000Y-108579000D01*
X85467000Y-108579000D02*
G75*
G02*
X86108000Y-109220000I0J-641000D01*
G01*
%TO.N,Net-(U19-AN)*%
X83289000Y-100228000D02*
X85575000Y-100228000D01*
X85575000Y-100228000D02*
G75*
G03*
X85854000Y-99949000I0J279000D01*
G01*
%TO.N,Net-(U20-AN)*%
X83289000Y-94719500D02*
X85831500Y-94719500D01*
X85831500Y-94719500D02*
G75*
G02*
X85854000Y-94742000I0J-22500D01*
G01*
%TO.N,Net-(U21-AN)*%
X83289000Y-89211000D02*
X85530000Y-89211000D01*
X85530000Y-89211000D02*
G75*
G02*
X85854000Y-89535000I0J-324000D01*
G01*
%TO.N,/steper/ST_EN1*%
X28550000Y-100000000D02*
X32283200Y-100000000D01*
X32283200Y-100000000D02*
X33350200Y-98933000D01*
X33350200Y-98933000D02*
X36959000Y-98933000D01*
%TO.N,/steper/ST_DIR1*%
X28550000Y-95000000D02*
X32609600Y-95000000D01*
X32609600Y-95000000D02*
X33502600Y-94107000D01*
X33502600Y-94107000D02*
X36959000Y-94107000D01*
%TO.N,/steper/ST_PWM1*%
X32377200Y-90000000D02*
X33350200Y-89027000D01*
X33350200Y-89027000D02*
X36832000Y-89027000D01*
X28550000Y-90000000D02*
X32377200Y-90000000D01*
%TO.N,/steper/ST_EN2*%
X28600400Y-121361200D02*
X29006800Y-120954800D01*
X29006800Y-120954800D02*
X33375600Y-120954800D01*
X28550000Y-121250000D02*
X28550000Y-121310800D01*
X33426400Y-120904000D02*
X36832000Y-120904000D01*
X33375600Y-120954800D02*
X33426400Y-120904000D01*
X28550000Y-121310800D02*
X28600400Y-121361200D01*
%TO.N,/steper/ST_DIR2*%
X34156000Y-115450000D02*
X36832000Y-115450000D01*
X28550000Y-116250000D02*
X33356000Y-116250000D01*
X33356000Y-116250000D02*
X34156000Y-115450000D01*
%TO.N,/steper/ST_PWM2*%
X34072800Y-109996000D02*
X36832000Y-109996000D01*
X28550000Y-111250000D02*
X32818800Y-111250000D01*
X32818800Y-111250000D02*
X34072800Y-109996000D01*
%TO.N,/steper/ST_EN3*%
X95491000Y-122187000D02*
X96678000Y-121000000D01*
X96678000Y-121000000D02*
X101550000Y-121000000D01*
X92708000Y-122187000D02*
X95491000Y-122187000D01*
%TO.N,/steper/ST_DIR3*%
X96242400Y-116000000D02*
X101550000Y-116000000D01*
X95269400Y-116973000D02*
X96242400Y-116000000D01*
X92706000Y-116973000D02*
X95269400Y-116973000D01*
%TO.N,/steper/ST_PWM3*%
X92708000Y-111760000D02*
X96113600Y-111760000D01*
X96873600Y-111000000D02*
X101550000Y-111000000D01*
X96113600Y-111760000D02*
X96873600Y-111000000D01*
%TO.N,/steper/ST_EN4*%
X97612000Y-100000000D02*
X101550000Y-100000000D01*
X95123000Y-102489000D02*
X97612000Y-100000000D01*
X92454000Y-102489000D02*
X95123000Y-102489000D01*
%TO.N,/steper/ST_DIR4*%
X97379600Y-95000000D02*
X101550000Y-95000000D01*
X92454000Y-97282000D02*
X95097600Y-97282000D01*
X95097600Y-97282000D02*
X97379600Y-95000000D01*
%TO.N,/steper/ST_PWM4*%
X95224600Y-92075000D02*
X97299600Y-90000000D01*
X97299600Y-90000000D02*
X101550000Y-90000000D01*
X92454000Y-92075000D02*
X95224600Y-92075000D01*
%TO.N,/MCU\u6838\u5FC3/EN1*%
X48387000Y-101470500D02*
G75*
G02*
X48384500Y-101473000I-2500J0D01*
G01*
%TO.N,/MCU\u6838\u5FC3/DIR1*%
X48387000Y-94869000D02*
G75*
G03*
X48384500Y-94871500I0J-2500D01*
G01*
D59*
%TO.N,/MCU\u6838\u5FC3/PWM1*%
X77317600Y-94488000D02*
X77317600Y-74992898D01*
D58*
X48387000Y-90881200D02*
X48387000Y-91584500D01*
D59*
X77317600Y-74992898D02*
X74328200Y-72003498D01*
X73919410Y-70211000D02*
X73112000Y-70211000D01*
X68834000Y-96215200D02*
X75590400Y-96215200D01*
X75590400Y-96215200D02*
X77317600Y-94488000D01*
X74328200Y-70619790D02*
X73919410Y-70211000D01*
D58*
X48387000Y-89926000D02*
X48387000Y-90881200D01*
D59*
X74328200Y-72003498D02*
X74328200Y-70619790D01*
X48437800Y-90830400D02*
X48387000Y-90881200D01*
X50139600Y-90830400D02*
X48437800Y-90830400D01*
D58*
X48387000Y-91584500D02*
G75*
G02*
X48384500Y-91587000I-2500J0D01*
G01*
%TO.N,/MCU\u6838\u5FC3/EN2*%
X48389500Y-124076500D02*
G75*
G02*
X48387000Y-124079000I-2500J0D01*
G01*
%TO.N,/MCU\u6838\u5FC3/DIR2*%
X48389500Y-118609625D02*
G75*
G02*
X48387000Y-118612100I-2500J25D01*
G01*
%TO.N,/MCU\u6838\u5FC3/PWM2*%
X48389500Y-111309625D02*
X48389500Y-112318800D01*
D59*
X75140085Y-97231200D02*
X77730400Y-94640885D01*
X77730400Y-94640885D02*
X77730400Y-74840012D01*
X50038000Y-112268000D02*
X48440300Y-112268000D01*
X74728200Y-69951600D02*
X74487600Y-69711000D01*
X74487600Y-69711000D02*
X73112000Y-69711000D01*
X68529200Y-97231200D02*
X75140085Y-97231200D01*
X77730400Y-74840012D02*
X74728200Y-71837812D01*
D58*
X48389500Y-112318800D02*
X48389500Y-113142750D01*
D59*
X68275200Y-97485200D02*
X68529200Y-97231200D01*
X74728200Y-71837812D02*
X74728200Y-69951600D01*
X48440300Y-112268000D02*
X48389500Y-112318800D01*
D58*
X48389500Y-113142750D02*
G75*
G02*
X48387000Y-113145300I-2500J-50D01*
G01*
D57*
%TO.N,/MCU\u6838\u5FC3/EN3*%
X74930000Y-88798400D02*
X75133200Y-88798400D01*
X80619600Y-120091200D02*
X80568800Y-120040400D01*
X70318105Y-72236000D02*
X70201105Y-72353000D01*
X81537000Y-120091200D02*
X80619600Y-120091200D01*
X73087000Y-72236000D02*
X70318105Y-72236000D01*
X69101800Y-72353000D02*
X69037200Y-72288400D01*
D58*
X81537000Y-120091200D02*
X81537000Y-121051500D01*
D57*
X70201105Y-72353000D02*
X69101800Y-72353000D01*
X73112000Y-72211000D02*
X73087000Y-72236000D01*
D58*
X81537000Y-119266000D02*
X81537000Y-120091200D01*
X81537000Y-121051500D02*
G75*
G02*
X81534500Y-121054000I-2500J0D01*
G01*
D57*
%TO.N,/MCU\u6838\u5FC3/DIR3*%
X70002400Y-71526400D02*
X69900800Y-71628000D01*
X70053200Y-71526400D02*
X70002400Y-71526400D01*
X75641200Y-89966800D02*
X75539600Y-89966800D01*
X70237800Y-71711000D02*
X70053200Y-71526400D01*
X81535000Y-114757200D02*
X80772000Y-114757200D01*
X73112000Y-71711000D02*
X70237800Y-71711000D01*
X80772000Y-114757200D02*
X80721200Y-114706400D01*
D58*
X81535000Y-113922000D02*
X81535000Y-114757200D01*
D57*
X75793600Y-89814400D02*
X75641200Y-89966800D01*
D58*
X81535000Y-114757200D02*
X81535000Y-115707500D01*
X81535000Y-115707500D02*
G75*
G02*
X81532500Y-115710000I-2500J0D01*
G01*
D59*
%TO.N,/MCU\u6838\u5FC3/PWM3*%
X81537000Y-108105400D02*
X81537000Y-108579000D01*
X73112000Y-69211000D02*
X74639714Y-69211000D01*
X75128200Y-69699486D02*
X75128200Y-71672126D01*
X75128200Y-71672126D02*
X78130400Y-74674326D01*
X78130400Y-104698800D02*
X81537000Y-108105400D01*
X78130400Y-74674326D02*
X78130400Y-104698800D01*
D58*
X81537000Y-108579000D02*
X81537000Y-110364500D01*
D59*
X74639714Y-69211000D02*
X75128200Y-69699486D01*
D58*
X81537000Y-110364500D02*
G75*
G02*
X81534500Y-110367000I-2500J0D01*
G01*
D57*
%TO.N,/MCU\u6838\u5FC3/EN4*%
X71069200Y-71120000D02*
X71160200Y-71211000D01*
D58*
X81639000Y-101088600D02*
X81584800Y-101142800D01*
X81639000Y-101197000D02*
X81639000Y-102075000D01*
D57*
X70681504Y-70925366D02*
X70876138Y-71120000D01*
D59*
X75996800Y-91186000D02*
X76098400Y-91186000D01*
D57*
X71160200Y-71211000D02*
X73112000Y-71211000D01*
D58*
X81584800Y-101142800D02*
X81639000Y-101197000D01*
X81639000Y-100228000D02*
X81639000Y-101088600D01*
D57*
X70876138Y-71120000D02*
X71069200Y-71120000D01*
D58*
X81639000Y-102075000D02*
G75*
G02*
X81636500Y-102077500I-2500J0D01*
G01*
D59*
%TO.N,/MCU\u6838\u5FC3/DIR4*%
X76504800Y-92303600D02*
X76555600Y-92252800D01*
D58*
X81639000Y-94719500D02*
X81639000Y-95653000D01*
X81639000Y-95653000D02*
X81584800Y-95707200D01*
X81639000Y-95761400D02*
X81639000Y-96566500D01*
D57*
X71983600Y-70713600D02*
X71986200Y-70711000D01*
X71986200Y-70711000D02*
X73112000Y-70711000D01*
X71424800Y-70256400D02*
X71882000Y-70713600D01*
D58*
X81584800Y-95707200D02*
X81639000Y-95761400D01*
D57*
X71882000Y-70713600D02*
X71983600Y-70713600D01*
D58*
X81639000Y-96566500D02*
G75*
G02*
X81636500Y-96569000I-2500J0D01*
G01*
D57*
%TO.N,GND*%
X53136800Y-64922400D02*
X53187000Y-64872200D01*
X56687000Y-71721000D02*
X55177400Y-71721000D01*
D58*
X49549525Y-114940875D02*
X48387000Y-114940875D01*
D57*
X81635600Y-80058600D02*
X81755000Y-80178000D01*
D61*
X84552800Y-80438000D02*
X84292800Y-80178000D01*
D58*
X80416400Y-98399600D02*
X81620100Y-98399600D01*
D57*
X59437000Y-72446000D02*
X60192800Y-72446000D01*
D58*
X84582000Y-116992400D02*
X86086600Y-116992400D01*
D57*
X53738400Y-71272400D02*
X53644800Y-71272400D01*
D58*
X84480400Y-97332800D02*
X85803200Y-97332800D01*
X80416400Y-112217200D02*
X81474800Y-112217200D01*
D57*
X84112000Y-71374000D02*
X81407000Y-71374000D01*
X53187000Y-68682200D02*
X53187000Y-66953800D01*
X54457600Y-63703200D02*
X54475400Y-63721000D01*
X54187000Y-63721000D02*
X54439800Y-63721000D01*
D60*
X73462000Y-81721000D02*
X73437000Y-81746000D01*
X86000000Y-57100000D02*
X86250000Y-56850000D01*
D63*
X70499000Y-105000000D02*
X70499000Y-107543695D01*
D57*
X60427800Y-72211000D02*
X61762000Y-72211000D01*
D58*
X43432000Y-109996000D02*
X45147200Y-109996000D01*
D63*
X71120000Y-52171600D02*
X70128600Y-52171600D01*
D57*
X74448600Y-65711000D02*
X74973600Y-66236000D01*
X55168800Y-71729600D02*
X55160200Y-71721000D01*
X54439800Y-63721000D02*
X54457600Y-63703200D01*
D61*
X87506800Y-80438000D02*
X88776800Y-79168000D01*
D58*
X49672400Y-93208000D02*
X48384500Y-93208000D01*
D57*
X57462000Y-70721000D02*
X57462000Y-70946000D01*
D58*
X80467200Y-122885200D02*
X81493800Y-122885200D01*
D57*
X73112000Y-65711000D02*
X74448600Y-65711000D01*
X56162000Y-63721000D02*
X56162000Y-65346000D01*
D58*
X84531200Y-102565200D02*
X85777800Y-102565200D01*
D61*
X85780000Y-80438000D02*
X87506800Y-80438000D01*
D58*
X45212000Y-94132400D02*
X43584400Y-94132400D01*
D63*
X70510400Y-104988600D02*
X70499000Y-105000000D01*
D57*
X53187000Y-68884200D02*
X53086000Y-68783200D01*
D61*
X85780000Y-80438000D02*
X84552800Y-80438000D01*
D63*
X70128600Y-52171600D02*
X70071000Y-52114000D01*
D58*
X80416400Y-92964000D02*
X81585000Y-92964000D01*
D57*
X81635600Y-80162400D02*
X81635600Y-80058600D01*
D58*
X80365600Y-117500400D02*
X81532600Y-117500400D01*
D61*
X81635600Y-80162400D02*
X83214400Y-80162400D01*
D58*
X43432000Y-115450000D02*
X45193600Y-115450000D01*
D63*
X77107200Y-66236000D02*
X77165200Y-66294000D01*
D57*
X56162000Y-65346000D02*
X55537000Y-65971000D01*
D63*
X65786000Y-58166000D02*
X65786000Y-57404000D01*
D58*
X84531200Y-92049600D02*
X85828600Y-92049600D01*
D57*
X64643000Y-61391800D02*
X64187000Y-61847800D01*
D58*
X45161200Y-98958400D02*
X43584400Y-98958400D01*
D61*
X84292800Y-80178000D02*
X83230000Y-80178000D01*
D62*
X70687000Y-73355200D02*
X70687000Y-74636000D01*
D57*
X55687000Y-65971000D02*
X57987000Y-68271000D01*
X81739400Y-80162400D02*
X81635600Y-80162400D01*
X57987000Y-68271000D02*
X58437000Y-68271000D01*
X65786000Y-58115200D02*
X65786000Y-57404000D01*
X53644800Y-71272400D02*
X53644800Y-71178800D01*
X53136800Y-66903600D02*
X53187000Y-66853400D01*
X53644800Y-71178800D02*
X53187000Y-70721000D01*
D58*
X84632800Y-111810800D02*
X86057200Y-111810800D01*
D63*
X75937000Y-66236000D02*
X77107200Y-66236000D01*
X64643000Y-59309000D02*
X65786000Y-58166000D01*
D57*
X53187000Y-66953800D02*
X53136800Y-66903600D01*
X53187000Y-64972600D02*
X53136800Y-64922400D01*
D60*
X74371200Y-81721000D02*
X73462000Y-81721000D01*
D57*
X54475400Y-63721000D02*
X56162000Y-63721000D01*
X85745000Y-80403000D02*
X85780000Y-80438000D01*
X53187000Y-66853400D02*
X53187000Y-64972600D01*
D58*
X49936400Y-98298000D02*
X48531500Y-98298000D01*
D57*
X64643000Y-60960000D02*
X64643000Y-61391800D01*
X81407000Y-71374000D02*
X80899000Y-70866000D01*
X53086000Y-68783200D02*
X53187000Y-68682200D01*
D58*
X49885600Y-109321600D02*
X48539400Y-109321600D01*
X45161200Y-89001600D02*
X43457400Y-89001600D01*
D57*
X57462000Y-70946000D02*
X56687000Y-71721000D01*
X55160200Y-71721000D02*
X54187000Y-71721000D01*
X53187000Y-64721000D02*
X54187000Y-63721000D01*
D58*
X43432000Y-120904000D02*
X45161200Y-120904000D01*
D61*
X83214400Y-80162400D02*
X83230000Y-80178000D01*
D57*
X55177400Y-71721000D02*
X55168800Y-71729600D01*
D58*
X84531200Y-122224800D02*
X86070200Y-122224800D01*
D61*
X57937000Y-72446000D02*
X59437000Y-72446000D01*
D57*
X53187000Y-70721000D02*
X53187000Y-68884200D01*
D63*
X70510400Y-103682800D02*
X70510400Y-104988600D01*
D58*
X80518000Y-104089200D02*
X81476800Y-104089200D01*
D63*
X64643000Y-60960000D02*
X64643000Y-59309000D01*
D57*
X53187000Y-64872200D02*
X53187000Y-64721000D01*
D58*
X49987200Y-88239600D02*
X48409900Y-88239600D01*
D57*
X54187000Y-71721000D02*
X53738400Y-71272400D01*
X64187000Y-61847800D02*
X64187000Y-63286000D01*
D58*
X49631600Y-120497600D02*
X48476850Y-120497600D01*
D61*
X56806400Y-72593200D02*
X58306400Y-72593200D01*
X88776800Y-79168000D02*
X90730000Y-79168000D01*
D63*
X70510400Y-102717600D02*
X70510400Y-103682800D01*
D57*
X74973600Y-66236000D02*
X75937000Y-66236000D01*
X60192800Y-72446000D02*
X60427800Y-72211000D01*
X55537000Y-65971000D02*
X55687000Y-65971000D01*
D63*
X70499000Y-107543695D02*
X70144300Y-107898395D01*
D58*
X81620100Y-98399600D02*
G75*
G02*
X81639000Y-98418500I0J-18900D01*
G01*
X85777800Y-102565200D02*
G75*
G03*
X85854000Y-102489000I0J76200D01*
G01*
X81474800Y-112217200D02*
G75*
G03*
X81537000Y-112155000I0J62200D01*
G01*
X86057200Y-111810800D02*
G75*
G03*
X86108000Y-111760000I0J50800D01*
G01*
X48409900Y-88239600D02*
G75*
G03*
X48384500Y-88265000I0J-25400D01*
G01*
X43457400Y-89001600D02*
G75*
G03*
X43432000Y-89027000I0J-25400D01*
G01*
X85803200Y-97332800D02*
G75*
G03*
X85854000Y-97282000I0J50800D01*
G01*
X48539400Y-109321600D02*
G75*
G03*
X48387000Y-109474000I0J-152400D01*
G01*
X85828600Y-92049600D02*
G75*
G02*
X85854000Y-92075000I0J-25400D01*
G01*
X81585000Y-92964000D02*
G75*
G03*
X81639000Y-92910000I0J54000D01*
G01*
X81532600Y-117500400D02*
G75*
G03*
X81535000Y-117498000I0J2400D01*
G01*
X81493800Y-122885200D02*
G75*
G03*
X81537000Y-122842000I0J43200D01*
G01*
X86070200Y-122224800D02*
G75*
G03*
X86108000Y-122187000I0J37800D01*
G01*
X48476850Y-120497600D02*
G75*
G02*
X48387000Y-120407750I-50J89800D01*
G01*
X81476800Y-104089200D02*
G75*
G03*
X81639000Y-103927000I0J162200D01*
G01*
X49580800Y-114909600D02*
G75*
G02*
X49549525Y-114940900I-31300J0D01*
G01*
X45147200Y-109996000D02*
G75*
G03*
X45212000Y-109931200I0J64800D01*
G01*
X48531500Y-98298000D02*
G75*
G02*
X48384500Y-98151000I0J147000D01*
G01*
X86086600Y-116992400D02*
G75*
G03*
X86106000Y-116973000I0J19400D01*
G01*
X43584400Y-98958400D02*
G75*
G02*
X43559000Y-98933000I0J25400D01*
G01*
X45193600Y-115450000D02*
G75*
G02*
X45212000Y-115468400I0J-18400D01*
G01*
X49784000Y-93319600D02*
G75*
G03*
X49672400Y-93208000I-111600J0D01*
G01*
X43584400Y-94132400D02*
G75*
G02*
X43559000Y-94107000I0J25400D01*
G01*
D57*
%TO.N,/RS485/485+*%
X84112000Y-70104000D02*
X86107000Y-70104000D01*
D59*
X89154000Y-73660000D02*
X89535000Y-73279000D01*
X89535000Y-73279000D02*
X89535000Y-72060500D01*
X86995000Y-73660000D02*
X89154000Y-73660000D01*
D57*
X88570500Y-71933500D02*
X89535000Y-71933500D01*
X86107000Y-70104000D02*
X86360000Y-70357000D01*
D59*
%TO.N,/RS485/485-*%
X89535000Y-65532000D02*
X89535000Y-66877500D01*
D57*
X88824500Y-66750500D02*
X89535000Y-66750500D01*
D59*
X89027000Y-65024000D02*
X89535000Y-65532000D01*
X86868000Y-65786000D02*
X86868000Y-65278000D01*
X93623000Y-66877500D02*
X93853000Y-67107500D01*
X87122000Y-65024000D02*
X89027000Y-65024000D01*
X86868000Y-65278000D02*
X87122000Y-65024000D01*
D57*
X86233000Y-68834000D02*
X86360000Y-68707000D01*
X84112000Y-68834000D02*
X86233000Y-68834000D01*
%TO.N,UART4_TX*%
X67390853Y-61133147D02*
X68576743Y-61133147D01*
X69687000Y-62243404D02*
X69687000Y-63286000D01*
X68576743Y-61133147D02*
X69687000Y-62243404D01*
%TO.N,UART4_RX*%
X67208400Y-61976000D02*
X68783200Y-61976000D01*
X66192400Y-60960000D02*
X67208400Y-61976000D01*
X68783200Y-61976000D02*
X69187000Y-62379800D01*
X69187000Y-62379800D02*
X69187000Y-63286000D01*
%TO.N,/MCU\u6838\u5FC3/RS485_RX*%
X74893000Y-73558400D02*
X73959400Y-73558400D01*
X73959400Y-73558400D02*
X73112000Y-72711000D01*
X77811800Y-71374000D02*
X77202200Y-70764400D01*
X78702000Y-71374000D02*
X77811800Y-71374000D01*
%TO.N,/MCU\u6838\u5FC3/RS485_TX*%
X77063600Y-67564000D02*
X77012800Y-67614800D01*
X71826147Y-78135453D02*
X70187000Y-76496306D01*
X70187000Y-76496306D02*
X70187000Y-74636000D01*
X78702000Y-67564000D02*
X77063600Y-67564000D01*
D59*
%TO.N,/MCU\u6838\u5FC3/PWM4*%
X75528200Y-69533800D02*
X75528200Y-71506440D01*
X81639000Y-87785800D02*
X81639000Y-89211000D01*
D58*
X81639000Y-89211000D02*
X81639000Y-91058000D01*
D59*
X74705400Y-68711000D02*
X75528200Y-69533800D01*
X78587600Y-82397600D02*
X81635600Y-85445600D01*
X75528200Y-71506440D02*
X78587600Y-74565840D01*
X73112000Y-68711000D02*
X74705400Y-68711000D01*
X81635600Y-85445600D02*
X81635600Y-87782400D01*
X78587600Y-74565840D02*
X78587600Y-82397600D01*
X81635600Y-87782400D02*
X81639000Y-87785800D01*
D58*
X81639000Y-91058000D02*
G75*
G02*
X81636500Y-91060500I-2500J0D01*
G01*
%TD*%
%TA.AperFunction,Conductor*%
%TO.N,+5V*%
G36*
X98552000Y-40259000D02*
G01*
X98552000Y-41604638D01*
X98532315Y-41671677D01*
X98515681Y-41692319D01*
X96683319Y-43524681D01*
X96621996Y-43558166D01*
X96595638Y-43561000D01*
X91693999Y-43561000D01*
X89154000Y-46100999D01*
X89154000Y-48006000D01*
X89625681Y-48477681D01*
X89659166Y-48539004D01*
X89662000Y-48565362D01*
X89662000Y-50367638D01*
X89642315Y-50434677D01*
X89625681Y-50455319D01*
X89571319Y-50509681D01*
X89509996Y-50543166D01*
X89483638Y-50546000D01*
X88824362Y-50546000D01*
X88757323Y-50526315D01*
X88736681Y-50509681D01*
X88301319Y-50074319D01*
X88267834Y-50012996D01*
X88265000Y-49986638D01*
X88265000Y-44882362D01*
X88284685Y-44815323D01*
X88301319Y-44794681D01*
X91784681Y-41311319D01*
X91846004Y-41277834D01*
X91872362Y-41275000D01*
X96012000Y-41275000D01*
X96393000Y-40894000D01*
X96393000Y-40259000D01*
X96393000Y-39878000D01*
X96774000Y-39497000D01*
X98552000Y-39497000D01*
X98552000Y-40259000D01*
G37*
%TD.AperFunction*%
%TD*%
%TA.AperFunction,Conductor*%
%TO.N,+5V*%
G36*
X90824000Y-108502400D02*
G01*
X91033600Y-108712000D01*
X91897200Y-108712000D01*
X92048638Y-108712000D01*
X92115677Y-108731685D01*
X92136319Y-108748319D01*
X92371681Y-108983681D01*
X92405166Y-109045004D01*
X92408000Y-109071362D01*
X92408000Y-109318238D01*
X92388315Y-109385277D01*
X92371681Y-109405919D01*
X92136719Y-109640881D01*
X92075396Y-109674366D01*
X92049038Y-109677200D01*
X91236799Y-109677200D01*
X90824000Y-110089999D01*
X90824000Y-110090000D01*
X90525600Y-110388400D01*
X90322400Y-110185200D01*
X90322400Y-108000800D01*
X90824000Y-108502400D01*
G37*
%TD.AperFunction*%
%TD*%
%TA.AperFunction,Conductor*%
%TO.N,+5V*%
G36*
X90824000Y-113582400D02*
G01*
X90881200Y-113639600D01*
X91490238Y-113639600D01*
X91557277Y-113659285D01*
X91577919Y-113675919D01*
X92013281Y-114111281D01*
X92046766Y-114172604D01*
X92049600Y-114198962D01*
X92049600Y-114734800D01*
X92029915Y-114801839D01*
X91977111Y-114847594D01*
X91925600Y-114858800D01*
X91897199Y-114858800D01*
X91882719Y-114873281D01*
X91821396Y-114906766D01*
X91795038Y-114909600D01*
X90982799Y-114909600D01*
X90824001Y-114988998D01*
X90824000Y-114989000D01*
X90779600Y-115011200D01*
X90525600Y-115011200D01*
X90474800Y-115062000D01*
X90474800Y-113639600D01*
X90678000Y-113436400D01*
X90824000Y-113582400D01*
G37*
%TD.AperFunction*%
%TD*%
%TA.AperFunction,Conductor*%
%TO.N,/\u63A5\u53E3/VIN-*%
G36*
X49418677Y-30499685D02*
G01*
X49439319Y-30516319D01*
X51144681Y-32221681D01*
X51178166Y-32283004D01*
X51181000Y-32309362D01*
X51181000Y-34873638D01*
X51161315Y-34940677D01*
X51144681Y-34961319D01*
X50074319Y-36031681D01*
X50012996Y-36065166D01*
X49986638Y-36068000D01*
X46152362Y-36068000D01*
X46085323Y-36048315D01*
X46064681Y-36031681D01*
X45557177Y-35524177D01*
X32674823Y-35524177D01*
X32674822Y-35524177D01*
X29718000Y-38480999D01*
X29718000Y-46176638D01*
X29698315Y-46243677D01*
X29681681Y-46264319D01*
X26198319Y-49747681D01*
X26136996Y-49781166D01*
X26110638Y-49784000D01*
X23546362Y-49784000D01*
X23479323Y-49764315D01*
X23458681Y-49747681D01*
X21245319Y-47534319D01*
X21211834Y-47472996D01*
X21209000Y-47446638D01*
X21209000Y-33833362D01*
X21228685Y-33766323D01*
X21245319Y-33745681D01*
X24474681Y-30516319D01*
X24536004Y-30482834D01*
X24562362Y-30480000D01*
X49351638Y-30480000D01*
X49418677Y-30499685D01*
G37*
%TD.AperFunction*%
%TD*%
%TA.AperFunction,Conductor*%
%TO.N,Net-(D17-K)*%
G36*
X36845677Y-48533685D02*
G01*
X36866319Y-48550319D01*
X38063681Y-49747681D01*
X38097166Y-49809004D01*
X38100000Y-49835362D01*
X38100000Y-53796638D01*
X38080315Y-53863677D01*
X38063681Y-53884319D01*
X37374319Y-54573681D01*
X37312996Y-54607166D01*
X37286638Y-54610000D01*
X34595362Y-54610000D01*
X34528323Y-54590315D01*
X34507681Y-54573681D01*
X33818319Y-53884319D01*
X33784834Y-53822996D01*
X33782000Y-53796638D01*
X33782000Y-48994362D01*
X33801685Y-48927323D01*
X33818319Y-48906681D01*
X34174681Y-48550319D01*
X34236004Y-48516834D01*
X34262362Y-48514000D01*
X36778638Y-48514000D01*
X36845677Y-48533685D01*
G37*
%TD.AperFunction*%
%TD*%
%TA.AperFunction,Conductor*%
%TO.N,+5V*%
G36*
X40198477Y-91154885D02*
G01*
X40219119Y-91171519D01*
X41568881Y-92521281D01*
X41602366Y-92582604D01*
X41605200Y-92608962D01*
X41605200Y-122833838D01*
X41585515Y-122900877D01*
X41568881Y-122921519D01*
X40625519Y-123864881D01*
X40564196Y-123898366D01*
X40537838Y-123901200D01*
X37236962Y-123901200D01*
X37169923Y-123881515D01*
X37149281Y-123864881D01*
X36561519Y-123277119D01*
X36528034Y-123215796D01*
X36525200Y-123189438D01*
X36525200Y-123060000D01*
X36544885Y-122992961D01*
X36597689Y-122947206D01*
X36649200Y-122936000D01*
X36762638Y-122936000D01*
X36829677Y-122955685D01*
X36850319Y-122972319D01*
X37122000Y-123244000D01*
X37385600Y-123244000D01*
X39217600Y-121412000D01*
X39217600Y-119075200D01*
X38608000Y-118465600D01*
X37462000Y-118465600D01*
X37394961Y-118445915D01*
X37349206Y-118393111D01*
X37338000Y-118341600D01*
X37338000Y-117856562D01*
X37357685Y-117789523D01*
X37374319Y-117768881D01*
X39268400Y-115874800D01*
X39268400Y-113538000D01*
X38709600Y-112979200D01*
X37614400Y-112979200D01*
X37547361Y-112959515D01*
X37501606Y-112906711D01*
X37490400Y-112855200D01*
X37490400Y-112268562D01*
X37510085Y-112201523D01*
X37526719Y-112180881D01*
X39217600Y-110490000D01*
X39217600Y-102717600D01*
X38404800Y-101904800D01*
X37817600Y-101904800D01*
X37750561Y-101885115D01*
X37704806Y-101832311D01*
X37693600Y-101780800D01*
X37693600Y-101194162D01*
X37713285Y-101127123D01*
X37729919Y-101106481D01*
X39268400Y-99568000D01*
X39268400Y-97891600D01*
X38506400Y-97129600D01*
X37541762Y-97129600D01*
X37474723Y-97109915D01*
X37454081Y-97093281D01*
X37425119Y-97064319D01*
X37391634Y-97002996D01*
X37388800Y-96976638D01*
X37388800Y-96571362D01*
X37408485Y-96504323D01*
X37425119Y-96483681D01*
X37708081Y-96200719D01*
X37769404Y-96167234D01*
X37795762Y-96164400D01*
X38455600Y-96164400D01*
X39319200Y-95300800D01*
X39319200Y-93726000D01*
X38150800Y-92557600D01*
X36525762Y-92557600D01*
X36458723Y-92537915D01*
X36438081Y-92521281D01*
X36002719Y-92085919D01*
X35969234Y-92024596D01*
X35966400Y-91998238D01*
X35966400Y-91288162D01*
X35986085Y-91221123D01*
X36002719Y-91200481D01*
X36031681Y-91171519D01*
X36093004Y-91138034D01*
X36119362Y-91135200D01*
X40131438Y-91135200D01*
X40198477Y-91154885D01*
G37*
%TD.AperFunction*%
%TD*%
%TA.AperFunction,Conductor*%
%TO.N,+5V*%
G36*
X36337677Y-67075685D02*
G01*
X36358319Y-67092319D01*
X36711040Y-67445040D01*
X36744525Y-67506363D01*
X36742652Y-67561044D01*
X36743539Y-67561206D01*
X36742441Y-67567215D01*
X36742438Y-67567306D01*
X36742401Y-67567430D01*
X36739500Y-67604298D01*
X36739500Y-68180449D01*
X36730062Y-68227896D01*
X36722184Y-68246918D01*
X36722183Y-68246922D01*
X36722182Y-68246925D01*
X36722181Y-68246925D01*
X36689500Y-68411228D01*
X36689500Y-69079256D01*
X36689028Y-69090064D01*
X36674760Y-69253141D01*
X36671007Y-69274427D01*
X36630044Y-69427303D01*
X36622651Y-69447613D01*
X36555766Y-69591049D01*
X36544959Y-69609769D01*
X36454176Y-69739420D01*
X36440289Y-69755971D01*
X36433383Y-69762876D01*
X36372065Y-69796364D01*
X36345698Y-69799200D01*
X34849362Y-69799200D01*
X34782323Y-69779515D01*
X34761681Y-69762881D01*
X34326319Y-69327519D01*
X34292834Y-69266196D01*
X34290000Y-69239838D01*
X34290000Y-67462962D01*
X34309685Y-67395923D01*
X34326319Y-67375281D01*
X34609281Y-67092319D01*
X34670604Y-67058834D01*
X34696962Y-67056000D01*
X36270638Y-67056000D01*
X36337677Y-67075685D01*
G37*
%TD.AperFunction*%
%TD*%
%TA.AperFunction,Conductor*%
%TO.N,GNDA*%
G36*
X50942677Y-57830085D02*
G01*
X50963319Y-57846719D01*
X51678081Y-58561481D01*
X51711566Y-58622804D01*
X51714400Y-58649162D01*
X51714400Y-61772238D01*
X51694715Y-61839277D01*
X51678081Y-61859919D01*
X50988719Y-62549281D01*
X50927396Y-62582766D01*
X50901038Y-62585600D01*
X49581362Y-62585600D01*
X49514323Y-62565915D01*
X49493681Y-62549281D01*
X48347119Y-61402719D01*
X48313634Y-61341396D01*
X48310800Y-61315038D01*
X48310800Y-59131762D01*
X48330485Y-59064723D01*
X48347119Y-59044081D01*
X49544481Y-57846719D01*
X49605804Y-57813234D01*
X49632162Y-57810400D01*
X50875638Y-57810400D01*
X50942677Y-57830085D01*
G37*
%TD.AperFunction*%
%TD*%
%TA.AperFunction,Conductor*%
%TO.N,/\u7535\u6E90/VIN*%
G36*
X49418677Y-37865685D02*
G01*
X49439319Y-37882319D01*
X50636681Y-39079681D01*
X50670166Y-39141004D01*
X50673000Y-39167362D01*
X50673000Y-41731638D01*
X50653315Y-41798677D01*
X50636681Y-41819319D01*
X49566319Y-42889681D01*
X49504996Y-42923166D01*
X49478638Y-42926000D01*
X44247362Y-42926000D01*
X44180323Y-42906315D01*
X44159681Y-42889681D01*
X42037000Y-40767000D01*
X37096023Y-40767000D01*
X37096022Y-40767000D01*
X36550000Y-41313022D01*
X36550000Y-47068073D01*
X36530315Y-47135112D01*
X36528799Y-47137416D01*
X36189705Y-47640114D01*
X36135896Y-47684683D01*
X36075147Y-47694212D01*
X35684503Y-47657000D01*
X35684500Y-47657000D01*
X34167362Y-47657000D01*
X34100323Y-47637315D01*
X34079681Y-47620681D01*
X32469319Y-46010319D01*
X32435834Y-45948996D01*
X32433000Y-45922638D01*
X32433000Y-40389362D01*
X32452685Y-40322323D01*
X32469319Y-40301681D01*
X34888681Y-37882319D01*
X34950004Y-37848834D01*
X34976362Y-37846000D01*
X49351638Y-37846000D01*
X49418677Y-37865685D01*
G37*
%TD.AperFunction*%
%TD*%
%TA.AperFunction,Conductor*%
%TO.N,+5V*%
G36*
X90824000Y-99307600D02*
G01*
X90982800Y-99466400D01*
X91642638Y-99466400D01*
X91709677Y-99486085D01*
X91730319Y-99502719D01*
X91759281Y-99531681D01*
X91792766Y-99593004D01*
X91795600Y-99619362D01*
X91795600Y-100227838D01*
X91775915Y-100294877D01*
X91759281Y-100315519D01*
X91628719Y-100446081D01*
X91567396Y-100479566D01*
X91541038Y-100482400D01*
X91084399Y-100482400D01*
X90824000Y-100742799D01*
X90824000Y-100742800D01*
X90627200Y-100939600D01*
X90424000Y-100736400D01*
X90424000Y-98907600D01*
X90824000Y-99307600D01*
G37*
%TD.AperFunction*%
%TD*%
%TA.AperFunction,Conductor*%
%TO.N,+3V3*%
G36*
X92217677Y-49092485D02*
G01*
X92238319Y-49109119D01*
X92263181Y-49133981D01*
X92296666Y-49195304D01*
X92299500Y-49221662D01*
X92299500Y-51247870D01*
X92299501Y-51247876D01*
X92305908Y-51307483D01*
X92356202Y-51442328D01*
X92356203Y-51442329D01*
X92356204Y-51442331D01*
X92391481Y-51489455D01*
X92392696Y-51491078D01*
X92402772Y-51508772D01*
X92409109Y-51515109D01*
X92420695Y-51528480D01*
X92442449Y-51557541D01*
X92442454Y-51557546D01*
X92471523Y-51579307D01*
X92484892Y-51590892D01*
X94858081Y-53964081D01*
X94891566Y-54025404D01*
X94894400Y-54051762D01*
X94894400Y-56539838D01*
X94874715Y-56606877D01*
X94858081Y-56627519D01*
X93355919Y-58129681D01*
X93294596Y-58163166D01*
X93268238Y-58166000D01*
X88849762Y-58166000D01*
X88782723Y-58146315D01*
X88762081Y-58129681D01*
X87511818Y-56879418D01*
X87478333Y-56818095D01*
X87475499Y-56791737D01*
X87475499Y-56549998D01*
X87475498Y-56549981D01*
X87464999Y-56447203D01*
X87464998Y-56447200D01*
X87433094Y-56350919D01*
X87426800Y-56311915D01*
X87426800Y-55981600D01*
X86969600Y-55524400D01*
X77318162Y-55524400D01*
X77251123Y-55504715D01*
X77230481Y-55488081D01*
X74509119Y-52766719D01*
X74475634Y-52705396D01*
X74472800Y-52679038D01*
X74472800Y-51156162D01*
X74492485Y-51089123D01*
X74509119Y-51068481D01*
X75503281Y-50074319D01*
X75564604Y-50040834D01*
X75590962Y-50038000D01*
X77118055Y-50038000D01*
X77185094Y-50057685D01*
X77200436Y-50069321D01*
X79905682Y-52473984D01*
X79910982Y-52478982D01*
X80873600Y-53441600D01*
X84460238Y-53441600D01*
X84527277Y-53461285D01*
X84547919Y-53477919D01*
X85270000Y-54200000D01*
X88548000Y-54200000D01*
X90474800Y-52273200D01*
X90474800Y-50190962D01*
X90494485Y-50123923D01*
X90511119Y-50103281D01*
X90540081Y-50074319D01*
X90601404Y-50040834D01*
X90627762Y-50038000D01*
X90728800Y-50038000D01*
X90779600Y-49987200D01*
X90779600Y-49936400D01*
X90460319Y-49617119D01*
X90426834Y-49555796D01*
X90424000Y-49529438D01*
X90424000Y-49196800D01*
X90443685Y-49129761D01*
X90496489Y-49084006D01*
X90548000Y-49072800D01*
X92150638Y-49072800D01*
X92217677Y-49092485D01*
G37*
%TD.AperFunction*%
%TD*%
%TA.AperFunction,Conductor*%
%TO.N,GND*%
G36*
X99837677Y-44596685D02*
G01*
X99858319Y-44613319D01*
X102452681Y-47207681D01*
X102486166Y-47269004D01*
X102489000Y-47295362D01*
X102489000Y-62051638D01*
X102469315Y-62118677D01*
X102452681Y-62139319D01*
X100076819Y-64515181D01*
X100015496Y-64548666D01*
X99989138Y-64551500D01*
X89442833Y-64551500D01*
X89380834Y-64534888D01*
X89308904Y-64493360D01*
X89308904Y-64493359D01*
X89308900Y-64493358D01*
X89258785Y-64464423D01*
X89106057Y-64423499D01*
X88947943Y-64423499D01*
X88940347Y-64423499D01*
X88940331Y-64423500D01*
X87201057Y-64423500D01*
X87042942Y-64423500D01*
X86890215Y-64464423D01*
X86890214Y-64464423D01*
X86890212Y-64464424D01*
X86890209Y-64464425D01*
X86840096Y-64493359D01*
X86840095Y-64493360D01*
X86802300Y-64515181D01*
X86768166Y-64534888D01*
X86706167Y-64551500D01*
X86486996Y-64551500D01*
X85805742Y-65193767D01*
X85805742Y-65876138D01*
X85786057Y-65943177D01*
X85769423Y-65963819D01*
X85126561Y-66606681D01*
X85065238Y-66640166D01*
X85038880Y-66643000D01*
X81915000Y-66643000D01*
X81915000Y-66421000D01*
X83312000Y-65024000D01*
X80391000Y-65024000D01*
X80137000Y-65278000D01*
X80137000Y-66294000D01*
X77379319Y-63536319D01*
X77345834Y-63474996D01*
X77343000Y-63448638D01*
X77343000Y-58344362D01*
X77362685Y-58277323D01*
X77379319Y-58256681D01*
X79445681Y-56190319D01*
X79507004Y-56156834D01*
X79533362Y-56154000D01*
X86680980Y-56154000D01*
X86748019Y-56173685D01*
X86764664Y-56186496D01*
X86886823Y-56298215D01*
X86923009Y-56357984D01*
X86926742Y-56379803D01*
X86927756Y-56392446D01*
X86934049Y-56431445D01*
X86934052Y-56431460D01*
X86953250Y-56509915D01*
X86963469Y-56540757D01*
X86969115Y-56567105D01*
X86969351Y-56569406D01*
X86969998Y-56582057D01*
X86969998Y-56791739D01*
X86972896Y-56845788D01*
X86975728Y-56872121D01*
X86975731Y-56872148D01*
X86983403Y-56919488D01*
X86985000Y-56939323D01*
X86985000Y-57085000D01*
X88701000Y-58801000D01*
X93599000Y-58801000D01*
X95758000Y-56642000D01*
X95758000Y-53962600D01*
X92873505Y-51090350D01*
X92839890Y-51029098D01*
X92837000Y-51002482D01*
X92837000Y-49022000D01*
X92713499Y-48898499D01*
X92701913Y-48885129D01*
X92620623Y-48776539D01*
X92595761Y-48751677D01*
X92595737Y-48751655D01*
X92555519Y-48715528D01*
X92555507Y-48715518D01*
X92534856Y-48698876D01*
X92490974Y-48667233D01*
X92485705Y-48664170D01*
X92486368Y-48663029D01*
X92459065Y-48644065D01*
X91948000Y-48133000D01*
X90221362Y-48133000D01*
X90154323Y-48113315D01*
X90133681Y-48096681D01*
X89959571Y-47922571D01*
X89926086Y-47861248D01*
X89923252Y-47834890D01*
X89923252Y-46780110D01*
X89942937Y-46713071D01*
X89959571Y-46692429D01*
X92038681Y-44613319D01*
X92100004Y-44579834D01*
X92126362Y-44577000D01*
X99770638Y-44577000D01*
X99837677Y-44596685D01*
G37*
%TD.AperFunction*%
%TD*%
%TA.AperFunction,Conductor*%
%TO.N,+5V*%
G36*
X90824000Y-93821200D02*
G01*
X91287600Y-94284800D01*
X91519200Y-94284800D01*
X91586239Y-94304485D01*
X91631994Y-94357289D01*
X91643200Y-94408800D01*
X91643200Y-95097038D01*
X91623515Y-95164077D01*
X91606881Y-95184719D01*
X91323919Y-95467681D01*
X91262596Y-95501166D01*
X91236238Y-95504000D01*
X90982799Y-95504000D01*
X90824000Y-95662799D01*
X90824000Y-95662800D01*
X90754200Y-95732600D01*
X90271600Y-95250000D01*
X90271600Y-93776800D01*
X90779600Y-93776800D01*
X90824000Y-93821200D01*
G37*
%TD.AperFunction*%
%TD*%
%TA.AperFunction,Conductor*%
%TO.N,/\u63A5\u53E3/VIN+*%
G36*
X31638677Y-51581685D02*
G01*
X31659319Y-51598319D01*
X32221681Y-52160681D01*
X32255166Y-52222004D01*
X32258000Y-52248362D01*
X32258000Y-54939638D01*
X32238315Y-55006677D01*
X32221681Y-55027319D01*
X31659319Y-55589681D01*
X31597996Y-55623166D01*
X31571638Y-55626000D01*
X23546362Y-55626000D01*
X23479323Y-55606315D01*
X23458681Y-55589681D01*
X22388319Y-54519319D01*
X22354834Y-54457996D01*
X22352000Y-54431638D01*
X22352000Y-52248362D01*
X22371685Y-52181323D01*
X22388319Y-52160681D01*
X22950681Y-51598319D01*
X23012004Y-51564834D01*
X23038362Y-51562000D01*
X31571638Y-51562000D01*
X31638677Y-51581685D01*
G37*
%TD.AperFunction*%
%TD*%
%TA.AperFunction,Conductor*%
%TO.N,GND*%
G36*
X81915000Y-66421000D02*
G01*
X81915000Y-66643000D01*
X81915000Y-67550791D01*
X81898387Y-67612792D01*
X81875220Y-67652917D01*
X81827830Y-67798770D01*
X81816726Y-67832944D01*
X81796940Y-68021200D01*
X81816726Y-68209456D01*
X81816727Y-68209459D01*
X81875218Y-68389477D01*
X81875221Y-68389484D01*
X81898387Y-68429608D01*
X81915000Y-68491608D01*
X81915000Y-72644000D01*
X84709000Y-75438000D01*
X89408000Y-75438000D01*
X92292681Y-72553319D01*
X92354004Y-72519834D01*
X92380362Y-72517000D01*
X95663238Y-72517000D01*
X95730277Y-72536685D01*
X95750919Y-72553319D01*
X96511281Y-73313681D01*
X96544766Y-73375004D01*
X96547600Y-73401362D01*
X96547600Y-76121038D01*
X96527915Y-76188077D01*
X96511281Y-76208719D01*
X95540319Y-77179681D01*
X95478996Y-77213166D01*
X95452638Y-77216000D01*
X82982362Y-77216000D01*
X82915323Y-77196315D01*
X82894681Y-77179681D01*
X80214619Y-74499619D01*
X80181134Y-74438296D01*
X80178300Y-74411938D01*
X80178300Y-74207993D01*
X80178299Y-74207989D01*
X80164879Y-74140520D01*
X80154263Y-74087148D01*
X80146437Y-74068255D01*
X80137000Y-74020807D01*
X80137000Y-71652536D01*
X80145705Y-71608770D01*
X80145574Y-71608731D01*
X80145979Y-71607393D01*
X80146440Y-71605080D01*
X80147342Y-71602903D01*
X80177500Y-71451291D01*
X80177500Y-71296709D01*
X80177500Y-71296706D01*
X80147343Y-71145102D01*
X80147342Y-71145101D01*
X80147342Y-71145097D01*
X80146438Y-71142914D01*
X80145978Y-71140602D01*
X80145574Y-71139270D01*
X80145705Y-71139230D01*
X80137000Y-71095464D01*
X80137000Y-70382536D01*
X80145705Y-70338770D01*
X80145574Y-70338731D01*
X80145979Y-70337393D01*
X80146440Y-70335080D01*
X80147342Y-70332903D01*
X80177500Y-70181291D01*
X80177500Y-70026709D01*
X80177500Y-70026706D01*
X80147343Y-69875102D01*
X80147342Y-69875101D01*
X80147342Y-69875097D01*
X80146438Y-69872914D01*
X80145978Y-69870602D01*
X80145574Y-69869270D01*
X80145705Y-69869230D01*
X80137000Y-69825464D01*
X80137000Y-69112536D01*
X80145705Y-69068770D01*
X80145574Y-69068731D01*
X80145979Y-69067393D01*
X80146440Y-69065080D01*
X80147342Y-69062903D01*
X80172678Y-68935534D01*
X80177500Y-68911293D01*
X80177500Y-68756706D01*
X80147343Y-68605102D01*
X80147342Y-68605101D01*
X80147342Y-68605097D01*
X80146438Y-68602914D01*
X80145978Y-68600602D01*
X80145574Y-68599270D01*
X80145705Y-68599230D01*
X80137000Y-68555464D01*
X80137000Y-67842536D01*
X80145705Y-67798770D01*
X80145574Y-67798731D01*
X80145979Y-67797393D01*
X80146440Y-67795080D01*
X80147342Y-67792903D01*
X80166981Y-67694173D01*
X80177500Y-67641293D01*
X80177500Y-67486706D01*
X80147343Y-67335102D01*
X80147342Y-67335101D01*
X80147342Y-67335097D01*
X80146438Y-67332914D01*
X80145978Y-67330602D01*
X80145574Y-67329270D01*
X80145705Y-67329230D01*
X80137000Y-67285464D01*
X80137000Y-66294000D01*
X80137000Y-65278000D01*
X80391000Y-65024000D01*
X83312000Y-65024000D01*
X81915000Y-66421000D01*
G37*
%TD.AperFunction*%
%TD*%
%TA.AperFunction,Conductor*%
%TO.N,Net-(U1--VO)*%
G36*
X68595677Y-24149685D02*
G01*
X68616319Y-24166319D01*
X78105000Y-33655000D01*
X84276638Y-33655000D01*
X84343677Y-33674685D01*
X84364319Y-33691319D01*
X84926681Y-34253681D01*
X84960166Y-34315004D01*
X84963000Y-34341362D01*
X84963000Y-36016638D01*
X84943315Y-36083677D01*
X84926681Y-36104319D01*
X83729319Y-37301681D01*
X83667996Y-37335166D01*
X83641638Y-37338000D01*
X73150676Y-37338000D01*
X73083637Y-37318315D01*
X73064030Y-37302704D01*
X64426354Y-28865486D01*
X64392152Y-28804561D01*
X64389000Y-28776782D01*
X64389000Y-25324362D01*
X64408685Y-25257323D01*
X64425319Y-25236681D01*
X65495681Y-24166319D01*
X65557004Y-24132834D01*
X65583362Y-24130000D01*
X68528638Y-24130000D01*
X68595677Y-24149685D01*
G37*
%TD.AperFunction*%
%TD*%
%TA.AperFunction,Conductor*%
%TO.N,GND*%
G36*
X54117677Y-57931685D02*
G01*
X54138319Y-57948319D01*
X55386481Y-59196481D01*
X55419966Y-59257804D01*
X55422800Y-59284162D01*
X55422800Y-61416638D01*
X55403115Y-61483677D01*
X55386481Y-61504319D01*
X54290719Y-62600081D01*
X54229396Y-62633566D01*
X54203038Y-62636400D01*
X52934162Y-62636400D01*
X52867123Y-62616715D01*
X52846481Y-62600081D01*
X52309519Y-62063119D01*
X52276034Y-62001796D01*
X52273200Y-61975438D01*
X52273200Y-58725362D01*
X52292885Y-58658323D01*
X52309519Y-58637681D01*
X52998881Y-57948319D01*
X53060204Y-57914834D01*
X53086562Y-57912000D01*
X54050638Y-57912000D01*
X54117677Y-57931685D01*
G37*
%TD.AperFunction*%
%TD*%
%TA.AperFunction,Conductor*%
%TO.N,+5V*%
G36*
X91033600Y-118922800D02*
G01*
X91541038Y-118922800D01*
X91608077Y-118942485D01*
X91628719Y-118959119D01*
X92013281Y-119343681D01*
X92046766Y-119405004D01*
X92049600Y-119431362D01*
X92049600Y-119887438D01*
X92029915Y-119954477D01*
X92013281Y-119975119D01*
X91417019Y-120571381D01*
X91355696Y-120604866D01*
X91329338Y-120607700D01*
X90027300Y-120607700D01*
X90027300Y-119217900D01*
X90678000Y-118567200D01*
X91033600Y-118922800D01*
G37*
%TD.AperFunction*%
%TD*%
%TA.AperFunction,Conductor*%
%TO.N,+5V*%
G36*
X91201677Y-88651185D02*
G01*
X91222319Y-88667819D01*
X91657681Y-89103181D01*
X91691166Y-89164504D01*
X91694000Y-89190862D01*
X91694000Y-89864638D01*
X91674315Y-89931677D01*
X91657681Y-89952319D01*
X91476319Y-90133681D01*
X91414996Y-90167166D01*
X91388638Y-90170000D01*
X90931999Y-90170000D01*
X90824000Y-90277999D01*
X90824000Y-90278000D01*
X90551000Y-90551000D01*
X90155500Y-90155500D01*
X90155500Y-88631500D01*
X91134638Y-88631500D01*
X91201677Y-88651185D01*
G37*
%TD.AperFunction*%
%TD*%
%TA.AperFunction,Conductor*%
%TO.N,+5V*%
G36*
X36493277Y-77289685D02*
G01*
X36513919Y-77306319D01*
X36692081Y-77484481D01*
X36725566Y-77545804D01*
X36728400Y-77572162D01*
X36728400Y-78208034D01*
X36723059Y-78244035D01*
X36722181Y-78246925D01*
X36689500Y-78411228D01*
X36689500Y-79000785D01*
X36689118Y-79010515D01*
X36674611Y-79194831D01*
X36671567Y-79214048D01*
X36629549Y-79389064D01*
X36623536Y-79407570D01*
X36599817Y-79464833D01*
X36572938Y-79505061D01*
X36465629Y-79612371D01*
X36358317Y-79719682D01*
X36296997Y-79753166D01*
X36270638Y-79756000D01*
X34595362Y-79756000D01*
X34528323Y-79736315D01*
X34507681Y-79719681D01*
X34224719Y-79436719D01*
X34191234Y-79375396D01*
X34188400Y-79349038D01*
X34188400Y-77775362D01*
X34208085Y-77708323D01*
X34224719Y-77687681D01*
X34606081Y-77306319D01*
X34667404Y-77272834D01*
X34693762Y-77270000D01*
X36426238Y-77270000D01*
X36493277Y-77289685D01*
G37*
%TD.AperFunction*%
%TD*%
%TA.AperFunction,Conductor*%
%TO.N,+5V*%
G36*
X90155500Y-90155500D02*
G01*
X90551000Y-90551000D01*
X90824000Y-90278000D01*
X90824000Y-93821200D01*
X90779600Y-93776800D01*
X90271600Y-93776800D01*
X90271600Y-95250000D01*
X90754200Y-95732600D01*
X90824000Y-95662800D01*
X90824000Y-99307600D01*
X90424000Y-98907600D01*
X90424000Y-100736400D01*
X90627200Y-100939600D01*
X90824000Y-100742800D01*
X90824000Y-108502400D01*
X90322400Y-108000800D01*
X90322400Y-110185200D01*
X90525600Y-110388400D01*
X90824000Y-110090000D01*
X90824000Y-113582400D01*
X90678000Y-113436400D01*
X90474800Y-113639600D01*
X90474800Y-115062000D01*
X90525600Y-115011200D01*
X90779600Y-115011200D01*
X90824000Y-114989000D01*
X90824000Y-118713200D01*
X90678000Y-118567200D01*
X90027300Y-119217900D01*
X90027300Y-120607700D01*
X88604262Y-120607700D01*
X88537223Y-120588015D01*
X88516581Y-120571381D01*
X87901367Y-119956167D01*
X87867882Y-119894844D01*
X87865048Y-119868416D01*
X87883968Y-89332315D01*
X87903694Y-89265289D01*
X87920282Y-89244717D01*
X88497181Y-88667819D01*
X88558504Y-88634334D01*
X88584862Y-88631500D01*
X90155500Y-88631500D01*
X90155500Y-90155500D01*
G37*
%TD.AperFunction*%
%TD*%
%TA.AperFunction,Conductor*%
%TO.N,Net-(U1-+VO)*%
G36*
X80533677Y-37992685D02*
G01*
X80554319Y-38009319D01*
X83188681Y-40643681D01*
X83222166Y-40705004D01*
X83225000Y-40731362D01*
X83225000Y-42620638D01*
X83205315Y-42687677D01*
X83188681Y-42708319D01*
X82245319Y-43651681D01*
X82183996Y-43685166D01*
X82157638Y-43688000D01*
X80823362Y-43688000D01*
X80756323Y-43668315D01*
X80735681Y-43651681D01*
X77343000Y-40259000D01*
X73279000Y-40259000D01*
X73278999Y-40259000D01*
X70358000Y-43179999D01*
X70358000Y-47573638D01*
X70338315Y-47640677D01*
X70321681Y-47661319D01*
X68997319Y-48985681D01*
X68935996Y-49019166D01*
X68909638Y-49022000D01*
X67234362Y-49022000D01*
X67167323Y-49002315D01*
X67146681Y-48985681D01*
X65822319Y-47661319D01*
X65788834Y-47599996D01*
X65786000Y-47573638D01*
X65786000Y-42215362D01*
X65805685Y-42148323D01*
X65822319Y-42127681D01*
X69940681Y-38009319D01*
X70002004Y-37975834D01*
X70028362Y-37973000D01*
X80466638Y-37973000D01*
X80533677Y-37992685D01*
G37*
%TD.AperFunction*%
%TD*%
%TA.AperFunction,Conductor*%
%TO.N,GND*%
G36*
X106060677Y-20720685D02*
G01*
X106081319Y-20737319D01*
X106874320Y-21530320D01*
X106907805Y-21591643D01*
X106902821Y-21661335D01*
X106860949Y-21717268D01*
X106795485Y-21741685D01*
X106730344Y-21728486D01*
X106507197Y-21614787D01*
X106145094Y-21475788D01*
X106145087Y-21475786D01*
X105770433Y-21375398D01*
X105770429Y-21375397D01*
X105770428Y-21375397D01*
X105387339Y-21314722D01*
X105000001Y-21294422D01*
X104999999Y-21294422D01*
X104612660Y-21314722D01*
X104229572Y-21375397D01*
X104229570Y-21375397D01*
X103854905Y-21475788D01*
X103492802Y-21614787D01*
X103147206Y-21790877D01*
X102821917Y-22002122D01*
X102520488Y-22246215D01*
X102520480Y-22246222D01*
X102246222Y-22520480D01*
X102246215Y-22520488D01*
X102002122Y-22821917D01*
X101790877Y-23147206D01*
X101614787Y-23492802D01*
X101475788Y-23854905D01*
X101375397Y-24229570D01*
X101375397Y-24229572D01*
X101314722Y-24612660D01*
X101294422Y-24999999D01*
X101294422Y-25000000D01*
X101314722Y-25387339D01*
X101375397Y-25770427D01*
X101375397Y-25770429D01*
X101475788Y-26145094D01*
X101614787Y-26507197D01*
X101790877Y-26852793D01*
X102002122Y-27178082D01*
X102002124Y-27178084D01*
X102246219Y-27479516D01*
X102520484Y-27753781D01*
X102520488Y-27753784D01*
X102821917Y-27997877D01*
X103147206Y-28209122D01*
X103147211Y-28209125D01*
X103492806Y-28385214D01*
X103854913Y-28524214D01*
X104229567Y-28624602D01*
X104612662Y-28685278D01*
X104978576Y-28704455D01*
X104999999Y-28705578D01*
X105000000Y-28705578D01*
X105000001Y-28705578D01*
X105020301Y-28704514D01*
X105387338Y-28685278D01*
X105770433Y-28624602D01*
X106145087Y-28524214D01*
X106507194Y-28385214D01*
X106852789Y-28209125D01*
X107178084Y-27997876D01*
X107479516Y-27753781D01*
X107753781Y-27479516D01*
X107997876Y-27178084D01*
X108209125Y-26852789D01*
X108385214Y-26507194D01*
X108524214Y-26145087D01*
X108624602Y-25770433D01*
X108685278Y-25387338D01*
X108705578Y-25000000D01*
X108685278Y-24612662D01*
X108624602Y-24229567D01*
X108524214Y-23854913D01*
X108385214Y-23492806D01*
X108271512Y-23269654D01*
X108258617Y-23200986D01*
X108284893Y-23136245D01*
X108342000Y-23095988D01*
X108411805Y-23092996D01*
X108469679Y-23125679D01*
X108929681Y-23585681D01*
X108963166Y-23647004D01*
X108966000Y-23673362D01*
X108966000Y-35635638D01*
X108946315Y-35702677D01*
X108929681Y-35723319D01*
X107097319Y-37555681D01*
X107035996Y-37589166D01*
X107009638Y-37592000D01*
X96901000Y-37592000D01*
X88294004Y-37576998D01*
X88226999Y-37557196D01*
X88206539Y-37540679D01*
X87158319Y-36492459D01*
X87124834Y-36431136D01*
X87122000Y-36404778D01*
X87122000Y-34036000D01*
X85090000Y-32004000D01*
X79680362Y-32004000D01*
X79613323Y-31984315D01*
X79592681Y-31967681D01*
X72553319Y-24928319D01*
X72519834Y-24866996D01*
X72517000Y-24840638D01*
X72517000Y-21006362D01*
X72536685Y-20939323D01*
X72553319Y-20918681D01*
X72734681Y-20737319D01*
X72796004Y-20703834D01*
X72822362Y-20701000D01*
X105993638Y-20701000D01*
X106060677Y-20720685D01*
G37*
%TD.AperFunction*%
%TD*%
%TA.AperFunction,Conductor*%
%TO.N,+5V*%
G36*
X104702677Y-38246685D02*
G01*
X104723319Y-38263319D01*
X106072181Y-39612181D01*
X106105666Y-39673504D01*
X106108500Y-39699862D01*
X106108500Y-41731638D01*
X106088815Y-41798677D01*
X106072181Y-41819319D01*
X105890819Y-42000681D01*
X105829496Y-42034166D01*
X105803138Y-42037000D01*
X100762362Y-42037000D01*
X100695323Y-42017315D01*
X100674681Y-42000681D01*
X98933000Y-40259000D01*
X98552000Y-40259000D01*
X98552000Y-39497000D01*
X96774000Y-39497000D01*
X96393000Y-39878000D01*
X96393000Y-40259000D01*
X90030851Y-40259000D01*
X88392000Y-41897851D01*
X88392000Y-43382638D01*
X88372315Y-43449677D01*
X88355681Y-43470319D01*
X87285319Y-44540681D01*
X87223996Y-44574166D01*
X87197638Y-44577000D01*
X85268362Y-44577000D01*
X85201323Y-44557315D01*
X85180681Y-44540681D01*
X84491319Y-43851319D01*
X84457834Y-43789996D01*
X84455000Y-43763638D01*
X84455000Y-40056362D01*
X84474685Y-39989323D01*
X84491319Y-39968681D01*
X86196681Y-38263319D01*
X86258004Y-38229834D01*
X86284362Y-38227000D01*
X104635638Y-38227000D01*
X104702677Y-38246685D01*
G37*
%TD.AperFunction*%
%TD*%
M02*
