M48
; DRILL file {KiCad 8.0.0-rc1-91-gb65fa46c3c} date 2024-02-01T16:18:39+0800
; FORMAT={-:-/ absolute / inch / decimal}
; #@! TF.CreationDate,2024-02-01T16:18:39+08:00
; #@! TF.GenerationSoftware,Kicad,Pcbnew,8.0.0-rc1-91-gb65fa46c3c
; #@! TF.FileFunction,Plated,1,4,PTH
FMAT,2
INCH
; #@! TA.AperFunction,Plated,PTH,ViaDrill
T1C0.0157
; #@! TA.AperFunction,Plated,PTH,ComponentDrill
T2C0.0197
; #@! TA.AperFunction,Plated,PTH,ComponentDrill
T3C0.0300
; #@! TA.AperFunction,Plated,PTH,ComponentDrill
T4C0.0315
; #@! TA.AperFunction,Plated,PTH,ComponentDrill
T5C0.0394
; #@! TA.AperFunction,Plated,PTH,ComponentDrill
T6C0.0400
; #@! TA.AperFunction,Plated,PTH,ComponentDrill
T7C0.0433
; #@! TA.AperFunction,Plated,PTH,ComponentDrill
T8C0.0512
; #@! TA.AperFunction,Plated,PTH,ComponentDrill
T9C0.0591
; #@! TA.AperFunction,Plated,PTH,ComponentDrill
T10C0.0787
; #@! TA.AperFunction,Plated,PTH,ComponentDrill
T11C0.1260
%
G90
G05
T1
X1.208Y-3.096
X1.21Y-2.702
X1.374Y-3.064
X1.376Y-3.11
X1.38Y-2.672
X1.38Y-2.71
X1.528Y-2.82
X1.528Y-3.216
X1.528Y-4.852
X1.536Y-3.62
X1.548Y-3.996
X1.554Y-4.412
X1.556Y-3.804
X1.56Y-4.63
X1.578Y-2.766
X1.578Y-3.15
X1.586Y-4.826
X1.588Y-3.656
X1.606Y-4.0
X1.606Y-4.41
X1.608Y-3.808
X1.61Y-4.632
X1.616Y-3.288
X1.618Y-2.92
X1.778Y-3.504
X1.778Y-3.896
X1.778Y-4.76
X1.78Y-3.706
X1.78Y-4.328
X1.78Y-4.546
X1.84Y-3.142
X1.842Y-2.746
X1.842Y-2.832
X1.842Y-3.238
X1.938Y-4.848
X1.942Y-3.762
X1.942Y-4.626
X1.95Y-3.958
X1.952Y-4.524
X1.954Y-2.368
X1.954Y-4.744
X1.96Y-3.674
X1.964Y-4.304
X1.966Y-3.87
X1.968Y-3.474
X1.97Y-4.42
X1.974Y-3.576
X2.002Y-2.308
X2.004Y-2.424
X2.09Y-2.708
X2.092Y-2.31
X2.092Y-2.556
X2.092Y-2.634
X2.096Y-2.424
X2.112Y-2.806
X2.136Y-2.366
X2.144Y-2.508
X2.172Y-2.824
X2.238Y-2.856
X2.238Y-2.914
X2.28Y-3.214
X2.394Y-3.302
X2.41Y-3.222
X2.486Y-2.824
X2.504Y-3.002
X2.514Y-3.278
X2.5424Y-3.0105
X2.558Y-2.562
X2.58Y-2.598
X2.606Y-2.4
X2.638Y-3.0
X2.638Y-3.05
X2.64Y-2.598
X2.644Y-2.876
X2.6532Y-2.4068
X2.662Y-2.558
X2.674Y-3.256
X2.688Y-3.838
X2.694Y-3.006
X2.7Y-2.686
X2.71Y-3.788
X2.718Y-2.846
X2.752Y-2.82
X2.776Y-4.044
X2.776Y-4.082
X2.7827Y-2.7923
X2.783Y-2.888
X2.8Y-2.054
X2.812Y-2.766
X2.8223Y-3.2666
X2.8223Y-3.3059
X2.8278Y-3.0762
X2.836Y-4.082
X2.838Y-4.044
X2.876Y-3.018
X2.926Y-3.018
X2.928Y-3.1583
X2.928Y-3.2174
X2.936Y-2.968
X2.9485Y-2.896
X2.958Y-3.496
X2.974Y-3.542
X2.984Y-2.956
X2.992Y-3.59
X3.012Y-3.634
X3.032Y-2.662
X3.038Y-2.546
X3.038Y-2.61
X3.0395Y-2.786
X3.0421Y-2.7
X3.0807Y-2.3272
X3.1004Y-2.278
X3.1398Y-2.3272
X3.148Y-2.148
X3.1496Y-2.278
X3.164Y-4.626
X3.166Y-3.66
X3.166Y-3.874
X3.166Y-4.418
X3.168Y-4.838
X3.17Y-4.098
X3.172Y-4.726
X3.178Y-4.516
X3.186Y-2.768
X3.212Y-3.768
X3.212Y-3.982
X3.214Y-3.156
X3.2177Y-3.2147
X3.2185Y-2.3272
X3.256Y-2.678
X3.2874Y-2.2484
X3.2874Y-2.3075
X3.3Y-2.474
X3.308Y-2.882
X3.326Y-3.832
X3.328Y-3.624
X3.328Y-4.038
X3.328Y-4.812
X3.33Y-4.606
X3.332Y-4.402
X3.3465Y-2.2583
X3.3465Y-2.3075
X3.3957Y-2.3075
X3.492Y-4.306
X3.494Y-3.938
X3.494Y-4.508
X3.496Y-3.732
X3.502Y-3.532
X3.504Y-4.708
X3.542Y-3.94
X3.544Y-4.308
X3.546Y-3.734
X3.548Y-3.534
X3.548Y-4.508
X3.56Y-4.714
X3.64Y-2.88
X3.642Y-3.384
X3.655Y-2.51
X3.69Y-2.88
X3.705Y-2.51
X3.735Y-2.88
X3.75Y-2.51
X3.76Y-1.955
X3.76Y-2.0042
X3.92Y-1.525
X3.95Y-1.58
X3.97Y-1.525
X4.015Y-1.525
X4.065Y-1.525
X4.095Y-1.58
X4.095Y-1.625
X4.11Y-1.525
T2
X0.8898Y-0.9843
X0.8898Y-5.315
X0.9174Y-0.9174
X0.9174Y-1.0511
X0.9174Y-5.2481
X0.9174Y-5.3818
X0.9843Y-0.8898
X0.9843Y-1.0787
X0.9843Y-5.2205
X0.9843Y-5.4094
X1.0511Y-0.9174
X1.0511Y-1.0511
X1.0511Y-5.2481
X1.0511Y-5.3818
X1.0787Y-0.9843
X1.0787Y-5.315
X4.0394Y-0.9843
X4.0394Y-5.315
X4.067Y-0.9174
X4.067Y-1.0511
X4.067Y-5.2481
X4.067Y-5.3818
X4.1339Y-0.8898
X4.1339Y-1.0787
X4.1339Y-5.2205
X4.1339Y-5.4094
X4.2007Y-0.9174
X4.2007Y-1.0511
X4.2007Y-5.2481
X4.2007Y-5.3818
X4.2283Y-0.9843
X4.2283Y-5.315
T3
X3.1781Y-1.68
X3.2874Y-1.1983
X3.2874Y-1.3952
X3.375Y-1.68
T4
X2.9626Y-1.4319
X2.9626Y-1.5303
X3.2185Y-2.1496
X3.2185Y-2.248
X3.61Y-1.4431
X3.61Y-1.5416
X3.83Y-1.4458
X3.83Y-1.5442
T5
X1.5059Y-1.3506
X1.5059Y-1.5474
X2.39Y-2.16
X2.39Y-2.26
X2.49Y-2.16
X2.49Y-2.26
X2.59Y-2.16
X2.59Y-2.26
X2.69Y-2.16
X2.69Y-2.26
X2.79Y-2.16
X2.79Y-2.26
T6
X2.1616Y-4.248
X2.1635Y-5.2098
X2.1635Y-5.3098
X2.2616Y-4.248
X2.3616Y-4.248
X2.4616Y-4.248
X2.5616Y-4.248
X2.6616Y-4.248
X2.7616Y-4.248
X2.8616Y-4.248
X2.9551Y-4.8215
X2.9551Y-4.9215
X2.9555Y-5.2098
X2.9555Y-5.3098
X2.9616Y-4.248
T7
X0.9941Y-1.8984
X0.9941Y-2.0984
X0.9941Y-2.2984
X0.9941Y-2.4984
X0.9941Y-2.6984
X0.9941Y-2.8984
X0.9941Y-3.0984
X0.9941Y-3.2984
X4.124Y-1.9004
X4.124Y-2.1004
X4.124Y-2.3004
X4.124Y-2.5004
X4.124Y-2.7004
X4.124Y-2.9004
X4.124Y-3.1004
X4.124Y-3.3004
T8
X1.124Y-3.5433
X1.124Y-3.7402
X1.124Y-3.937
X1.124Y-4.1339
X1.124Y-4.3799
X1.124Y-4.5768
X1.124Y-4.7736
X1.124Y-4.9705
X3.998Y-3.5433
X3.998Y-3.7402
X3.998Y-3.937
X3.998Y-4.1339
X3.998Y-4.3701
X3.998Y-4.5669
X3.998Y-4.7638
X3.998Y-4.9606
T9
X1.8776Y-1.0582
X1.8776Y-1.3582
X1.8776Y-1.5582
X2.6776Y-1.0582
X2.6776Y-1.8582
T10
X2.47Y-3.485
X2.634Y-3.48
X3.01Y-2.05
X4.2Y-1.37
X4.2Y-1.61
T11
X0.9843Y-0.9843
X0.9843Y-5.315
X4.1339Y-0.9843
X4.1339Y-5.315
M30
